<svg width="24" height="24" viewBox="0 0 24 24" fill="none" xmlns="http://www.w3.org/2000/svg">
<path d="M11.25 16C11.25 15.6685 11.1183 15.3505 10.8839 15.1161C10.6495 14.8817 10.3315 14.75 10 14.75H6C5.66848 14.75 5.35054 14.8817 5.11612 15.1161C4.8817 15.3505 4.75 15.6685 4.75 16C4.75 16.3315 4.8817 16.6495 5.11612 16.8839C5.35054 17.1183 5.66848 17.25 6 17.25H10C10.3315 17.25 10.6495 17.1183 10.8839 16.8839C11.1183 16.6495 11.25 16.3315 11.25 16ZM11.25 16C11.25 15.6685 11.3817 15.3505 11.6161 15.1161C11.8505 14.8817 12.1685 14.75 12.5 14.75H14C14.3315 14.75 14.6495 14.8817 14.8839 15.1161C15.1183 15.3505 15.25 15.6685 15.25 16C15.25 16.3315 15.1183 16.6495 14.8839 16.8839C14.6495 17.1183 14.3315 17.25 14 17.25H12.5C12.1685 17.25 11.8505 17.1183 11.6161 16.8839C11.3817 16.6495 11.25 16.3315 11.25 16ZM20.4743 5.5254L20.4747 5.52576C21.1048 6.15512 21.3616 7.06175 21.4523 8.75H2.5477C2.63839 7.06175 2.89524 6.15512 3.52534 5.52576L3.5257 5.5254C4.00279 5.04791 4.64385 4.78108 5.67765 4.64204C6.72582 4.50106 8.10036 4.5 10 4.5H14C15.8996 4.5 17.2742 4.50106 18.3224 4.64204C19.3561 4.78108 19.9972 5.04791 20.4743 5.5254ZM3.5257 18.4746L3.5254 18.4743C3.04791 17.9972 2.78108 17.3561 2.64204 16.3224C2.50106 15.2742 2.5 13.8996 2.5 12C2.5 11.7407 2.5 11.491 2.5004 11.25H21.4996C21.5 11.491 21.5 11.7407 21.5 12C21.5 13.8996 21.4989 15.2742 21.358 16.3224C21.2189 17.3561 20.9521 17.9972 20.4746 18.4743L20.4743 18.4746C19.9972 18.9521 19.3561 19.2189 18.3224 19.358C17.2742 19.4989 15.8996 19.5 14 19.5H10C8.10036 19.5 6.72582 19.4989 5.67765 19.358C4.64385 19.2189 4.00279 18.9521 3.5257 18.4746Z" stroke="#0065FF"/>
</svg>
