<svg width="24" height="24" viewBox="0 0 24 24" fill="none" xmlns="http://www.w3.org/2000/svg">
<g clip-path="url(#clip0_3554_9962)">
<path d="M1.05762 21.7211V9.69108M22.9423 21.7211V9.69108M17.6477 15.59V14.4682C17.6477 14.0796 17.9627 13.765 18.3509 13.765H20.8271C21.2157 13.765 21.5303 14.0796 21.5303 14.4682V19.0625C21.5303 19.4506 21.2157 19.7657 20.8271 19.7657H18.7067M5.29326 19.7657H3.17286C2.78422 19.7657 2.46965 19.4506 2.46965 19.0625V14.4682C2.46965 14.0796 2.78422 13.765 3.17286 13.765H5.64908C6.03725 13.765 6.35229 14.0796 6.35229 14.4682V15.59M7.38825 1.15603C6.20016 1.62873 5.30892 2.28008 4.87696 3.0289C4.57505 3.55256 4.02327 3.88119 3.41851 3.88119C2.76641 3.88119 2.17665 4.14559 1.7491 4.57267C1.32202 5.00022 1.05762 5.59045 1.05762 6.24255V7.76429M22.9423 7.76429V6.24255C22.9423 4.93834 21.8852 3.88119 20.5814 3.88119C19.9767 3.88119 19.4249 3.55256 19.123 3.0289C18.2308 1.48232 15.3796 0.351562 12 0.351562C10.8555 0.351562 9.7717 0.481234 8.80399 0.712776M8.47035 19.5561V21.5303H12M12 21.5303H15.5296V19.5561M12 21.5303V20.1187M12 14.118C10.1688 14.118 8.66349 15.4907 8.48769 17.2473C8.47597 17.3607 8.47035 17.476 8.47035 17.5923V18.0578M12 14.118C13.8307 14.118 15.3364 15.4907 15.5123 17.2473C15.524 17.3607 15.5296 17.476 15.5296 17.5923V18.0574M12 14.118V18.7066M9.87024 3.52837V6.34986C9.91483 6.35521 11.2822 6.34986 11.2822 6.34986" stroke="#071225" stroke-miterlimit="10" stroke-linecap="round" stroke-linejoin="round"/>
<path d="M12.6943 3.52832V5.47147C12.6943 5.80239 12.842 6.02517 13.0928 6.20332C13.2149 6.29009 13.3692 6.35188 13.561 6.35216C13.727 6.3524 13.8658 6.30969 13.9805 6.24541C14.2728 6.08176 14.4592 5.83324 14.4592 5.4694V3.52832M17.3865 4.17813C17.3865 4.537 17.0867 4.82789 16.7167 4.82789C16.5333 4.82789 15.8712 4.83075 15.8712 4.83075V3.52837H16.7167C17.0867 3.52832 17.3865 3.81926 17.3865 4.17813Z" stroke="#071225" stroke-miterlimit="10" stroke-linecap="round" stroke-linejoin="round"/>
<path d="M20.4447 9.88243H22.2337C23.015 9.88243 23.6484 9.24908 23.6484 8.46777C23.6484 8.07941 23.3335 7.76456 22.9452 7.76456H1.05477C0.666411 7.76456 0.351562 8.07941 0.351562 8.46777C0.351562 9.24908 0.984917 9.88243 1.76623 9.88243H19.0614M9.22696 11.2943V11.8569M15.0822 11.2943V11.8569M10.8077 12.1923C10.8077 12.5666 11.1111 12.87 11.4854 12.87C11.8597 12.87 12.1631 12.5666 12.1631 12.1923C12.1631 12.5666 12.4665 12.87 12.8408 12.87C13.2151 12.87 13.5185 12.5666 13.5185 12.1923M6.70531 18.8036C7.27101 19.1046 7.86153 19.3565 8.47036 19.5565C9.58049 19.9217 10.767 20.1191 12 20.1191C13.2325 20.1191 14.4185 19.9217 15.5287 19.5565H15.5296C16.1428 19.3549 16.733 19.1017 17.2947 18.8031M6.82814 17.2476C8.33253 18.173 10.1037 18.707 12 18.707C13.8958 18.707 15.667 18.173 17.1714 17.2476M18.7067 21.5306V18.6123M17.2947 21.5306V18.6123M17.6477 5.58917C17.6477 6.00894 17.2969 6.34929 16.8642 6.34929C16.6495 6.34929 15.8709 6.35267 15.8709 6.35267V4.8291H16.8642C17.2969 4.82905 17.6477 5.16936 17.6477 5.58917Z" stroke="#071225" stroke-miterlimit="10" stroke-linecap="round" stroke-linejoin="round"/>
<path d="M18.6994 17.3844C18.8127 17.285 18.9035 17.1626 18.9656 17.0253C19.0277 16.888 19.0597 16.739 19.0595 16.5883C19.0595 16.0037 18.5855 15.5293 18.0004 15.5293C17.4154 15.5293 16.9414 16.0037 16.9414 16.5883C16.9414 16.8373 17.0272 17.066 17.1707 17.247H17.1711C17.2105 17.2967 17.2541 17.3426 17.3014 17.3844" stroke="#071225" stroke-miterlimit="10" stroke-linecap="round" stroke-linejoin="round"/>
<path d="M6.70548 21.53V18.6117M5.29344 21.53V18.6117M6.69844 17.3844C6.81175 17.285 6.9025 17.1626 6.9646 17.0253C7.02669 16.888 7.05871 16.739 7.05849 16.5883C7.05849 16.0037 6.58453 15.5293 5.99946 15.5293C5.41439 15.5293 4.94043 16.0037 4.94043 16.5883C4.94043 16.9057 5.07966 17.1903 5.30047 17.3844M18.3538 18.7063H17.6478C17.2579 18.7063 16.9419 18.3903 16.9419 18.0004C16.9419 17.6105 17.2579 17.2944 17.6478 17.2944H18.3538C18.7437 17.2944 19.0598 17.6105 19.0598 18.0004C19.0598 18.3903 18.7437 18.7063 18.3538 18.7063Z" stroke="#071225" stroke-miterlimit="10" stroke-linecap="round" stroke-linejoin="round"/>
<path d="M16.2112 23.6483H1.05477C0.666411 23.6483 0.351562 23.3335 0.351562 22.9451C0.351562 22.1638 0.984917 21.5304 1.76623 21.5304H22.2336C23.015 21.5304 23.6483 22.1638 23.6483 22.9451C23.6483 23.3335 23.3335 23.6483 22.9451 23.6483H17.6495M8.36272 3.76947C8.12077 3.61725 7.82913 3.52832 7.51517 3.52832C6.67798 3.52832 5.99929 4.16046 5.99929 4.94026C5.99929 5.72007 6.67798 6.35221 7.51517 6.35221C7.85519 6.35221 8.13488 6.24795 8.34711 6.07186C8.39093 6.03549 8.43204 5.99598 8.47012 5.95363M5.64628 18.7066H6.35225C6.74216 18.7066 7.05823 18.3905 7.05823 18.0006C7.05823 17.6107 6.74216 17.2946 6.35225 17.2946H5.64628C5.25638 17.2946 4.94031 17.6107 4.94031 18.0006C4.94031 18.3905 5.25638 18.7066 5.64628 18.7066Z" stroke="#071225" stroke-miterlimit="10" stroke-linecap="round" stroke-linejoin="round"/>
</g>
<defs>
<clipPath id="clip0_3554_9962">
<rect width="24" height="24" fill="white"/>
</clipPath>
</defs>
</svg>
