<svg width="20" height="21" viewBox="0 0 20 21" fill="none" xmlns="http://www.w3.org/2000/svg">
<path d="M17.4999 7.06681C17.9419 7.06681 18.3659 7.24241 18.6784 7.55497C18.991 7.86753 19.1666 8.29145 19.1666 8.73348V12.0668C19.1666 12.5088 18.991 12.9328 18.6784 13.2453C18.3659 13.5579 17.9419 13.7335 17.4999 13.7335H16.6149C16.4118 15.3446 15.6276 16.8261 14.4097 17.9001C13.1918 18.9742 11.6238 19.5668 9.99992 19.5668V17.9001C11.326 17.9001 12.5978 17.3734 13.5355 16.4357C14.4731 15.498 14.9999 14.2262 14.9999 12.9001V7.90015C14.9999 6.57406 14.4731 5.30229 13.5355 4.36461C12.5978 3.42693 11.326 2.90014 9.99992 2.90014C8.67384 2.90014 7.40207 3.42693 6.46438 4.36461C5.5267 5.30229 4.99992 6.57406 4.99992 7.90015V13.7335H2.49992C2.05789 13.7335 1.63397 13.5579 1.32141 13.2453C1.00885 12.9328 0.833252 12.5088 0.833252 12.0668V8.73348C0.833252 8.29145 1.00885 7.86753 1.32141 7.55497C1.63397 7.24241 2.05789 7.06681 2.49992 7.06681H3.38492C3.58828 5.45589 4.37248 3.97454 5.5904 2.90071C6.80831 1.82688 8.37621 1.23437 9.99992 1.23438C11.6236 1.23437 13.1915 1.82688 14.4094 2.90071C15.6273 3.97454 16.4116 5.45589 16.6149 7.06681H17.4999ZM6.46659 13.5543L7.34992 12.141C8.14415 12.6385 9.06272 12.9017 9.99992 12.9001C10.9371 12.9017 11.8557 12.6385 12.6499 12.141L13.5333 13.5543C12.4743 14.2178 11.2495 14.5687 9.99992 14.5668C8.75029 14.5688 7.52552 14.2178 6.46659 13.5543Z" fill="#0065FF"/>
</svg>
