<svg width="18" height="20" viewBox="0 0 18 20" fill="none" xmlns="http://www.w3.org/2000/svg">
<path fill-rule="evenodd" clip-rule="evenodd" d="M17.0004 14.5717V6.57171L11.2861 0.857422H5.57185C4.96564 0.857422 4.38426 1.09824 3.9556 1.52689C3.52695 1.95555 3.28613 2.53693 3.28613 3.14314V14.5717C3.28613 15.1779 3.52695 15.7593 3.9556 16.188C4.38426 16.6166 4.96564 16.8574 5.57185 16.8574H14.7147C15.3209 16.8574 15.9023 16.6166 16.3309 16.188C16.7596 15.7593 17.0004 15.1779 17.0004 14.5717Z" stroke="#0065FF" stroke-width="0.8" stroke-linecap="round" stroke-linejoin="round"/>
<path d="M11.2857 0.857422V4.28599C11.2857 4.8922 11.5265 5.47358 11.9552 5.90224C12.3838 6.33089 12.9652 6.57171 13.5714 6.57171H17M3.28571 3.14314C2.67951 3.14314 2.09812 3.38395 1.66947 3.81261C1.24082 4.24126 1 4.82264 1 5.42885V16.8574C1 17.4636 1.24082 18.045 1.66947 18.4737C2.09812 18.9023 2.67951 19.1431 3.28571 19.1431H12.4286C13.0348 19.1431 13.6162 18.9023 14.0448 18.4737C14.4735 18.045 14.7143 17.4636 14.7143 16.8574" stroke="#0065FF" stroke-linecap="round" stroke-linejoin="round"/>
</svg>
