<svg width="20" height="22" viewBox="0 0 20 22" fill="none" xmlns="http://www.w3.org/2000/svg">
<mask id="path-1-inside-1_2508_16269" fill="white">
<path d="M5.84131 4.38063C5.85374 5.4836 6.30382 6.53646 7.09252 7.30758C7.88123 8.07871 8.94396 8.50494 10.0469 8.49251C11.1499 8.48007 12.2028 8.03 12.9739 7.24129C13.745 6.45258 14.1712 5.38985 14.1588 4.28688C14.1608 3.86167 14.095 3.43885 13.9638 3.03438C13.7498 2.35978 13.3677 1.75075 12.8533 1.26462C12.339 0.778486 11.7094 0.431259 11.0238 0.255631C10.297 0.0688296 9.53288 0.0856958 8.81506 0.304381C7.95824 0.562202 7.20683 1.08832 6.67148 1.80527C6.13613 2.52222 5.84513 3.39212 5.84131 4.28688V4.37313V4.38063ZM10.0001 7.69563C9.19033 7.69361 8.40741 7.40529 7.78977 6.88166C7.17213 6.35804 6.75957 5.63286 6.62506 4.83438C6.79435 4.85403 6.96463 4.86405 7.13506 4.86438C7.79206 4.86486 8.43995 4.71065 9.02628 4.41422C9.61261 4.1178 10.1209 3.68749 10.5101 3.15813C11.1291 3.50328 11.8263 3.68403 12.5351 3.68313C12.6626 3.68313 12.7863 3.68313 12.9101 3.66438H13.0188C13.1088 3.66438 13.1988 3.64188 13.2851 3.62313H13.3526C13.4494 4.11799 13.4355 4.62816 13.3119 5.11701C13.1883 5.60587 12.9579 6.0613 12.6375 6.45061C12.317 6.83991 11.9143 7.15345 11.4583 7.36871C11.0023 7.58397 10.5043 7.69561 10.0001 7.69563ZM9.03256 1.01688C9.62044 0.84024 10.2454 0.827275 10.8401 0.979381C11.3331 1.10861 11.791 1.3464 12.1802 1.67535C12.5695 2.0043 12.8804 2.4161 13.0901 2.88063C13.0726 2.87888 13.055 2.87888 13.0376 2.88063H12.9663C12.8161 2.90335 12.6644 2.91463 12.5126 2.91438C11.8327 2.91854 11.1674 2.71725 10.6038 2.33688C10.562 2.30853 10.5148 2.28893 10.4652 2.27926C10.4156 2.26959 10.3645 2.27006 10.3151 2.28063C10.2648 2.29116 10.2172 2.3119 10.1753 2.34157C10.1333 2.37125 10.098 2.40922 10.0713 2.45313C9.76712 2.95761 9.33831 3.37538 8.82608 3.6663C8.31384 3.95723 7.73539 4.11153 7.14631 4.11438C7.02097 4.11429 6.89575 4.10677 6.77131 4.09188H6.60631C6.64816 3.39285 6.90313 2.72342 7.33691 2.17366C7.77068 1.6239 8.36244 1.2202 9.03256 1.01688ZM10.0001 15.3344C9.9006 15.3344 9.80522 15.3739 9.73489 15.4442C9.66457 15.5145 9.62506 15.6099 9.62506 15.7094V16.2494C9.62506 16.3488 9.66457 16.4442 9.73489 16.5145C9.80522 16.5849 9.9006 16.6244 10.0001 16.6244C10.0995 16.6244 10.1949 16.5849 10.2652 16.5145C10.3355 16.4442 10.3751 16.3488 10.3751 16.2494V15.7094C10.3751 15.6099 10.3355 15.5145 10.2652 15.4442C10.1949 15.3739 10.0995 15.3344 10.0001 15.3344Z"/>
</mask>
<path d="M5.84131 4.38063H-2.15869V4.42572L-2.15818 4.4708L5.84131 4.38063ZM14.1588 4.28688L6.1589 4.24871L6.15859 4.31288L6.15932 4.37705L14.1588 4.28688ZM13.9638 3.03438L6.33824 5.4532L6.34611 5.47801L6.35414 5.50278L13.9638 3.03438ZM11.0238 0.255631L9.0323 8.00379L9.03852 8.00538L11.0238 0.255631ZM8.81506 0.304381L11.1202 7.96508L11.1333 7.96112L11.1465 7.95712L8.81506 0.304381ZM5.84131 4.28688L-2.15862 4.25275L-2.15869 4.26982V4.28688H5.84131ZM10.0001 7.69563L9.98006 15.6956L9.99021 15.6956H10.0004L10.0001 7.69563ZM6.62506 4.83438L7.54741 -3.11227L-3.03321 -4.34034L-1.26379 6.16332L6.62506 4.83438ZM7.13506 4.86438L7.11937 12.8644L7.12922 12.8644L7.13506 4.86438ZM10.5101 3.15813L14.4058 -3.8292L8.24331 -7.26512L4.06428 -1.58022L10.5101 3.15813ZM12.5351 3.68313V-4.31688L12.5249 -4.31686L12.5351 3.68313ZM12.9101 3.66438V-4.33562H12.3074L11.7116 -4.24534L12.9101 3.66438ZM13.2851 3.62313V-4.37687H12.4255L11.5856 -4.19428L13.2851 3.62313ZM13.3526 3.62313L21.2036 2.08636L19.9384 -4.37687H13.3526V3.62313ZM9.03256 1.01688L6.73046 -6.64473L6.72017 -6.64164L6.70988 -6.63852L9.03256 1.01688ZM10.8401 0.979381L12.8685 -6.75917L12.8455 -6.76522L12.8224 -6.77112L10.8401 0.979381ZM13.0901 2.88063L12.2901 10.8405L26.0859 12.2271L20.3817 -0.410555L13.0901 2.88063ZM13.0376 2.88063V10.8806H13.4386L13.8376 10.8405L13.0376 2.88063ZM12.9663 2.88063V-5.11937H12.3646L11.7696 -5.02936L12.9663 2.88063ZM12.5126 2.91438L12.5259 -5.08561L12.4948 -5.08566L12.4636 -5.08547L12.5126 2.91438ZM10.6038 2.33688L6.1167 8.96002L6.12828 8.96784L10.6038 2.33688ZM10.3151 2.28063L11.9543 10.1109L11.9711 10.1074L11.988 10.1038L10.3151 2.28063ZM10.0713 2.45313L3.23205 -1.69712L3.22619 -1.68746L3.22035 -1.67778L10.0713 2.45313ZM7.14631 4.11438L7.14026 12.1144L7.16265 12.1144L7.18504 12.1143L7.14631 4.11438ZM6.77131 4.09188L7.72186 -3.85145L7.24828 -3.90812H6.77131V4.09188ZM6.60631 4.09188L-1.37939 3.61372L-1.88703 12.0919H6.60631V4.09188ZM-2.15818 4.4708C-2.12184 7.69536 -0.806027 10.7734 1.49979 13.0278L12.6853 1.58733C13.4137 2.29949 13.8293 3.27184 13.8408 4.29047L-2.15818 4.4708ZM1.49979 13.0278C3.8056 15.2822 6.91253 16.5283 10.1371 16.492L9.95677 0.493015C10.9754 0.481534 11.9569 0.875172 12.6853 1.58733L1.49979 13.0278ZM10.1371 16.492C13.3617 16.4557 16.4397 15.1398 18.6941 12.834L7.25363 1.64855C7.96579 0.920157 8.93814 0.504496 9.95677 0.493015L10.1371 16.492ZM18.6941 12.834C20.9485 10.5282 22.1946 7.42128 22.1583 4.19672L6.15932 4.37705C6.14783 3.35842 6.54147 2.37695 7.25363 1.64855L18.6941 12.834ZM22.1587 4.32505C22.1648 3.04887 21.9672 1.7799 21.5735 0.565981L6.35414 5.50278C6.22278 5.09781 6.15687 4.67446 6.1589 4.24871L22.1587 4.32505ZM21.5894 0.615565C20.9649 -1.35322 19.8496 -3.13067 18.3485 -4.54943L7.35817 7.07866C6.88576 6.63217 6.53477 6.07279 6.33824 5.4532L21.5894 0.615565ZM18.3485 -4.54943C16.8474 -5.96819 15.0099 -6.98156 13.0091 -7.49412L9.03852 8.00538C8.40884 7.84407 7.83057 7.52516 7.35817 7.07866L18.3485 -4.54943ZM13.0153 -7.49252C10.8661 -8.04493 8.60635 -7.99505 6.48363 -7.34836L11.1465 7.95712C10.4594 8.16644 9.72795 8.18259 9.0323 8.00378L13.0153 -7.49252ZM6.50992 -7.35632C4.01227 -6.60477 1.82191 -5.07112 0.261356 -2.9812L13.0816 6.59174C12.5918 7.24776 11.9042 7.72917 11.1202 7.96508L6.50992 -7.35632ZM0.261356 -2.9812C-1.2992 -0.891274 -2.14749 1.64449 -2.15862 4.25275L13.8412 4.32101C13.8377 5.13974 13.5715 5.93571 13.0816 6.59174L0.261356 -2.9812ZM-2.15869 4.28688V4.37313H13.8413V4.28688H-2.15869ZM-2.15869 4.37313V4.38063H13.8413V4.37313H-2.15869ZM10.0201 -0.304343C11.0982 -0.301648 12.1407 0.0822557 12.9631 0.779464L2.61646 12.9839C4.67413 14.7283 7.28245 15.6889 9.98006 15.6956L10.0201 -0.304343ZM12.9631 0.779464C13.7855 1.47667 14.3348 2.44226 14.5139 3.50544L-1.26379 6.16332C-0.815669 8.82346 0.55878 11.2394 2.61646 12.9839L12.9631 0.779464ZM5.70271 12.781C6.17297 12.8356 6.64596 12.8634 7.11937 12.8644L7.15074 -3.1356C7.2833 -3.13534 7.41574 -3.12755 7.54741 -3.11227L5.70271 12.781ZM7.12922 12.8644C9.04215 12.8658 10.9285 12.4168 12.6357 11.5537L5.41688 -2.72526C5.95137 -2.99547 6.54198 -3.13605 7.14089 -3.13562L7.12922 12.8644ZM12.6357 11.5537C14.3428 10.6906 15.8228 9.43777 16.9558 7.89648L4.06428 -1.58022C4.41902 -2.06278 4.88238 -2.45504 5.41688 -2.72526L12.6357 11.5537ZM6.61427 10.1455C8.4274 11.1564 10.4693 11.6858 12.5452 11.6831L12.5249 -4.31686C13.1832 -4.3177 13.8308 -4.14981 14.4058 -3.8292L6.61427 10.1455ZM12.5351 11.6831C12.5611 11.6831 13.2897 11.6982 14.1085 11.5741L11.7116 -4.24534C12.0357 -4.29445 12.2902 -4.30856 12.4234 -4.31357C12.5368 -4.31783 12.6252 -4.31687 12.5351 -4.31687V11.6831ZM12.9101 11.6644H13.0188V-4.33562H12.9101V11.6644ZM13.0188 11.6644C13.7104 11.6644 14.2632 11.5793 14.5625 11.5257C14.7179 11.4979 14.8438 11.4712 14.9088 11.4571C14.9416 11.4501 14.9704 11.4437 14.9808 11.4414C14.997 11.4378 14.9914 11.439 14.9845 11.4405L11.5856 -4.19428C11.5572 -4.1881 11.5299 -4.18204 11.5243 -4.18081C11.5129 -4.17829 11.5198 -4.17983 11.5307 -4.18218C11.5517 -4.18673 11.6333 -4.20429 11.7441 -4.22412C11.9544 -4.26175 12.4172 -4.33562 13.0188 -4.33562V11.6644ZM13.2851 11.6231H13.3526V-4.37687H13.2851V11.6231ZM5.50155 5.1599C5.37158 4.49593 5.39021 3.81142 5.5561 3.15549L21.0677 7.07854C21.4809 5.44489 21.5273 3.74005 21.2036 2.08636L5.50155 5.1599ZM5.5561 3.15549C5.72199 2.49956 6.03103 1.88849 6.46103 1.36614L18.8139 11.5351C19.8848 10.2341 20.6545 8.71218 21.0677 7.07854L5.5561 3.15549ZM6.46103 1.36614C6.89103 0.843793 7.43134 0.423107 8.04317 0.134282L14.8734 14.6031C16.3972 13.8838 17.7429 12.836 18.8139 11.5351L6.46103 1.36614ZM8.04317 0.134282C8.655 -0.154543 9.32319 -0.304343 9.99976 -0.304368L10.0004 15.6956C11.6854 15.6956 13.3496 15.3225 14.8734 14.6031L8.04317 0.134282ZM11.3347 8.6785C10.529 8.92056 9.67267 8.93833 8.85771 8.72988L12.8224 -6.77112C10.818 -7.28378 8.71183 -7.24008 6.73046 -6.64473L11.3347 8.6785ZM8.81157 8.71794C8.15134 8.54487 7.53814 8.22643 7.01682 7.78591L17.3437 -4.43522C16.0438 -5.53364 14.5148 -6.32765 12.8685 -6.75917L8.81157 8.71794ZM7.01682 7.78591C6.49549 7.34539 6.07921 6.79392 5.79841 6.17182L20.3817 -0.410555C19.6816 -1.96173 18.6436 -3.3368 17.3437 -4.43522L7.01682 7.78591ZM13.8901 -5.07927C13.3406 -5.13449 12.787 -5.13449 12.2376 -5.07927L13.8376 10.8405C13.323 10.8922 12.8046 10.8922 12.2901 10.8405L13.8901 -5.07927ZM13.0376 -5.11937H12.9663V10.8806H13.0376V-5.11937ZM11.7696 -5.02936C12.0199 -5.06723 12.2727 -5.08603 12.5259 -5.08561L12.4993 10.9144C13.0562 10.9153 13.6123 10.8739 14.163 10.7906L11.7696 -5.02936ZM12.4636 -5.08547C13.3953 -5.09117 14.3071 -4.81533 15.0793 -4.29408L6.12828 8.96784C8.02767 10.2498 10.27 10.9282 12.5615 10.9142L12.4636 -5.08547ZM15.0909 -4.28625C14.1562 -4.91954 13.103 -5.35725 11.9949 -5.57313L8.93549 10.1317C7.92656 9.93511 6.96775 9.53659 6.1167 8.96001L15.0909 -4.28625ZM11.9949 -5.57313C10.8867 -5.78902 9.74624 -5.7786 8.64216 -5.5425L11.988 10.1038C10.9828 10.3187 9.94446 10.3282 8.93549 10.1317L11.9949 -5.57313ZM8.6758 -5.54962C7.55294 -5.31455 6.49034 -4.8513 5.55392 -4.1886L14.7966 8.87174C13.9441 9.47509 12.9766 9.89686 11.9543 10.1109L8.6758 -5.54962ZM5.55392 -4.1886C4.61755 -3.52593 3.82724 -2.67793 3.23205 -1.69712L16.9106 6.60338C16.3687 7.49636 15.6491 8.26842 14.7966 8.87174L5.55392 -4.1886ZM3.22035 -1.67778C3.6246 -2.34821 4.19448 -2.90342 4.87523 -3.29005L12.7769 10.6227C14.4821 9.65417 15.9096 8.26343 16.9223 6.58404L3.22035 -1.67778ZM4.87523 -3.29005C5.55597 -3.67667 6.32471 -3.88174 7.10758 -3.88553L7.18504 12.1143C9.14607 12.1048 11.0717 11.5911 12.7769 10.6227L4.87523 -3.29005ZM7.15235 -3.88562C7.3427 -3.88547 7.53287 -3.87406 7.72186 -3.85145L5.82075 12.0352C6.25864 12.0876 6.69924 12.114 7.14026 12.1144L7.15235 -3.88562ZM6.77131 -3.90812H6.60631V12.0919H6.77131V-3.90812ZM14.592 4.57004C14.5362 5.50259 14.196 6.39566 13.6173 7.12907L1.05647 -2.78176C-0.389755 -0.948828 -1.23984 1.28311 -1.37939 3.61372L14.592 4.57004ZM13.6173 7.12907C13.0387 7.86248 12.2492 8.40104 11.3552 8.67228L6.70988 -6.63852C4.47567 -5.96065 2.5027 -4.61469 1.05647 -2.78176L13.6173 7.12907ZM10.0001 7.33438C7.77889 7.33438 5.64867 8.21673 4.07804 9.78736L15.3917 21.1011C13.9618 22.5311 12.0223 23.3344 10.0001 23.3344V7.33438ZM4.07804 9.78736C2.50741 11.358 1.62506 13.4882 1.62506 15.7094H17.6251C17.6251 17.7316 16.8217 19.6711 15.3917 21.1011L4.07804 9.78736ZM1.62506 15.7094V16.2494H17.6251V15.7094H1.62506ZM1.62506 16.2494C1.62506 18.4705 2.50741 20.6008 4.07804 22.1714L15.3917 10.8577C16.8217 12.2877 17.6251 14.2271 17.6251 16.2494H1.62506ZM4.07804 22.1714C5.64867 23.742 7.77889 24.6244 10.0001 24.6244V8.62438C12.0223 8.62438 13.9618 9.42771 15.3917 10.8577L4.07804 22.1714ZM10.0001 24.6244C12.2212 24.6244 14.3514 23.742 15.9221 22.1714L4.60837 10.8577C6.03835 9.42771 7.9778 8.62438 10.0001 8.62438V24.6244ZM15.9221 22.1714C17.4927 20.6008 18.3751 18.4705 18.3751 16.2494H2.37506C2.37506 14.2271 3.17839 12.2877 4.60837 10.8577L15.9221 22.1714ZM18.3751 16.2494V15.7094H2.37506V16.2494H18.3751ZM18.3751 15.7094C18.3751 13.4882 17.4927 11.358 15.9221 9.78736L4.60837 21.1011C3.17839 19.6711 2.37506 17.7316 2.37506 15.7094H18.3751ZM15.9221 9.78736C14.3514 8.21673 12.2212 7.33438 10.0001 7.33438V23.3344C7.9778 23.3344 6.03835 22.5311 4.60837 21.1011L15.9221 9.78736Z" fill="#0065FF" mask="url(#path-1-inside-1_2508_16269)"/>
<path d="M18.8425 12.8744C17.38 11.1044 15.0513 9.01562 12.25 9.01562H7.75002C4.94502 9.01562 2.61628 11.1044 1.15377 12.8594C0.802144 13.2841 0.546119 13.7796 0.403112 14.3122C0.260106 14.8448 0.233473 15.4019 0.325025 15.9456C0.4341 16.5628 0.716309 17.1364 1.13877 17.5994L4.85503 21.7506C4.88923 21.7886 4.93082 21.8191 4.97725 21.8404C5.02368 21.8617 5.07397 21.8732 5.12503 21.8744H6.25003C6.26746 21.8765 6.28509 21.8765 6.30252 21.8744L6.37002 21.8519C6.39469 21.8404 6.41746 21.8252 6.43752 21.8069L6.48252 21.7694C6.50092 21.7458 6.51724 21.7207 6.53127 21.6944L6.55752 21.6494C6.56775 21.6191 6.57405 21.5875 6.57627 21.5556C6.57628 21.5556 6.57627 21.5331 6.57627 21.5181V21.4919L5.78503 14.2731C5.77677 14.2032 5.74899 14.137 5.70487 14.0821C5.66076 14.0273 5.60208 13.9859 5.53557 13.9628C5.46905 13.9398 5.39738 13.9359 5.32876 13.9516C5.26013 13.9674 5.19732 14.0021 5.14752 14.0519L3.43753 15.7619C3.3797 15.82 3.34253 15.8955 3.33169 15.9768C3.32086 16.058 3.33696 16.1406 3.37753 16.2119L4.12753 17.5506C4.17637 17.637 4.25748 17.7006 4.35307 17.7273C4.44867 17.754 4.55097 17.7417 4.63753 17.6931C4.6805 17.6686 4.71819 17.6359 4.74845 17.5967C4.77871 17.5576 4.80092 17.5129 4.81382 17.4651C4.82672 17.4174 4.83004 17.3675 4.8236 17.3185C4.81715 17.2695 4.80107 17.2222 4.77628 17.1794L4.15378 16.0881L5.12503 15.1244L5.79628 21.1244H5.30503L1.69752 17.1006C1.36939 16.743 1.1496 16.2996 1.06378 15.8219C0.992879 15.3831 1.01749 14.9341 1.13592 14.5057C1.25435 14.0773 1.46382 13.6795 1.75003 13.3394C2.91252 11.9256 4.68627 10.2756 6.77502 9.87438C6.7802 9.91262 6.78899 9.95029 6.80127 9.98688L8.76627 14.2919C8.8263 14.4286 8.90727 14.5551 9.00628 14.6669C8.6784 14.8595 8.41684 15.1472 8.25628 15.4919H7.91127C7.70043 15.4919 7.49822 15.5756 7.34912 15.7247C7.20003 15.8738 7.11627 16.076 7.11627 16.2869C7.11627 16.4977 7.20003 16.6999 7.34912 16.849C7.49822 16.9981 7.70043 17.0819 7.91127 17.0819H8.25628C8.38042 17.3515 8.56597 17.5883 8.79805 17.7733C9.03014 17.9583 9.30232 18.0864 9.5928 18.1474C9.88329 18.2083 10.184 18.2004 10.4709 18.1243C10.7578 18.0481 11.0228 17.9059 11.2449 17.7089C11.4669 17.512 11.6398 17.2658 11.7496 16.99C11.8594 16.7143 11.9031 16.4166 11.8772 16.121C11.8514 15.8253 11.7566 15.5398 11.6006 15.2873C11.4446 15.0348 11.2316 14.8223 10.9788 14.6669C11.0778 14.5551 11.1588 14.4286 11.2188 14.2919L13.1838 9.98688C13.1961 9.95029 13.2048 9.91262 13.21 9.87438C15.2988 10.2869 17.0725 11.9369 18.25 13.3506C18.6142 13.7864 18.8508 14.3145 18.9335 14.8764C19.0162 15.4383 18.9419 16.0121 18.7188 16.5344C18.655 16.6717 18.5703 16.7982 18.4675 16.9094L14.7363 21.1244H14.2038L14.875 15.1244L15.8313 16.0806L15.2088 17.1719C15.184 17.2147 15.1679 17.262 15.1615 17.311C15.155 17.36 15.1583 17.4099 15.1712 17.4576C15.1841 17.5054 15.2063 17.5501 15.2366 17.5892C15.2669 17.6284 15.3046 17.6611 15.3475 17.6856C15.4341 17.7342 15.5364 17.7465 15.632 17.7198C15.7276 17.6931 15.8087 17.6295 15.8575 17.5431L16.6075 16.2044C16.6481 16.1331 16.6642 16.0505 16.6534 15.9693C16.6425 15.888 16.6053 15.8125 16.5475 15.7544L14.8375 14.0444C14.7877 13.9946 14.7249 13.9599 14.6563 13.9441C14.5877 13.9284 14.516 13.9323 14.4495 13.9553C14.383 13.9784 14.3243 14.0198 14.2802 14.0746C14.2361 14.1295 14.2083 14.1957 14.2 14.2656L13.4125 21.4581V21.5219C13.4086 21.553 13.4086 21.5845 13.4125 21.6156L13.4388 21.6606C13.4528 21.687 13.4691 21.7121 13.4875 21.7356L13.5325 21.7731C13.5526 21.7915 13.5754 21.8067 13.6 21.8181L13.6675 21.8406C13.6923 21.8575 13.7205 21.869 13.75 21.8744H14.9125C14.9658 21.8743 15.0184 21.8629 15.0669 21.8409C15.1154 21.8189 15.1586 21.7869 15.1938 21.7469L19.0525 17.3969C19.2083 17.2248 19.3349 17.0285 19.4275 16.8156C19.7007 16.1682 19.7906 15.4581 19.6875 14.763C19.5843 14.0679 19.292 13.4145 18.8425 12.8744ZM7.92627 16.3056C7.91434 16.3056 7.90289 16.3009 7.89445 16.2924C7.88602 16.284 7.88128 16.2726 7.88128 16.2606C7.88128 16.2487 7.88602 16.2372 7.89445 16.2288C7.90289 16.2204 7.91434 16.2156 7.92627 16.2156H8.09503V16.3056H7.92627ZM10 17.4306C9.74578 17.4334 9.49772 17.3523 9.29432 17.1997C9.09091 17.0471 8.94353 16.8317 8.87502 16.5869C8.84513 16.4858 8.82997 16.381 8.83002 16.2756C8.82643 16.2219 8.82643 16.1681 8.83002 16.1144C8.83729 16.0636 8.84858 16.0134 8.86377 15.9644C8.92287 15.7586 9.03798 15.5734 9.19626 15.4292C9.35454 15.2851 9.54976 15.1878 9.76013 15.1482C9.97049 15.1086 10.1877 15.1282 10.3876 15.2049C10.5875 15.2815 10.7621 15.4122 10.892 15.5824C11.0219 15.7526 11.1019 15.9555 11.1232 16.1685C11.1444 16.3815 11.1061 16.5962 11.0124 16.7887C10.9187 16.9812 10.7734 17.1438 10.5927 17.2585C10.4119 17.3732 10.2028 17.4354 9.98877 17.4381L10 17.4306ZM10.5513 13.9844C10.5037 14.0908 10.4264 14.1812 10.3285 14.2447C10.2307 14.3081 10.1166 14.3419 10 14.3419C9.88343 14.3419 9.76933 14.3081 9.67151 14.2447C9.57369 14.1812 9.49633 14.0908 9.44878 13.9844L7.53627 9.79188H12.4675L10.5513 13.9844Z" fill="#0065FF"/>
</svg>
