<svg width="20" height="21" viewBox="0 0 20 21" fill="none" xmlns="http://www.w3.org/2000/svg">
<path d="M10.8567 2.06743C11.4649 2.0651 12.073 2.07121 12.6809 2.08576L12.8426 2.0916C13.0292 2.09826 13.2134 2.1066 13.4359 2.1166C14.3226 2.15826 14.9276 2.29827 15.4584 2.5041C16.0084 2.71576 16.4717 3.00243 16.9351 3.46576C17.3587 3.8821 17.6866 4.38572 17.8959 4.9416C18.1017 5.47243 18.2417 6.07826 18.2834 6.96493C18.2934 7.1866 18.3017 7.3716 18.3084 7.55826L18.3134 7.71993C18.3282 8.32759 18.3346 8.93543 18.3326 9.54326L18.3334 10.1649V11.2566C18.3355 11.8647 18.3291 12.4728 18.3142 13.0808L18.3092 13.2424C18.3026 13.4291 18.2942 13.6133 18.2842 13.8358C18.2426 14.7224 18.1009 15.3274 17.8959 15.8583C17.6873 16.4147 17.3593 16.9188 16.9351 17.3349C16.5184 17.7585 16.0145 18.0864 15.4584 18.2958C14.9276 18.5016 14.3226 18.6416 13.4359 18.6833C13.2134 18.6933 13.0292 18.7016 12.8426 18.7083L12.6809 18.7133C12.073 18.7281 11.4649 18.7345 10.8567 18.7324L10.2351 18.7333H9.14424C8.53613 18.7353 7.92801 18.7289 7.32007 18.7141L7.15841 18.7091C6.96058 18.7019 6.7628 18.6936 6.56507 18.6841C5.67841 18.6424 5.07341 18.5008 4.54174 18.2958C3.98564 18.0869 3.48194 17.759 3.06591 17.3349C2.64178 16.9185 2.31359 16.4146 2.10424 15.8583C1.89841 15.3274 1.75841 14.7224 1.71674 13.8358C1.70746 13.638 1.69913 13.4402 1.69174 13.2424L1.68757 13.0808C1.67221 12.4728 1.66527 11.8647 1.66674 11.2566V9.54326C1.66441 8.93543 1.67053 8.32759 1.68507 7.71993L1.69091 7.55826C1.69757 7.3716 1.70591 7.1866 1.71591 6.96493C1.75757 6.07743 1.89757 5.47326 2.10341 4.9416C2.31288 4.38545 2.64171 3.88197 3.06674 3.4666C3.48249 3.04222 3.98588 2.71374 4.54174 2.5041C5.07341 2.29827 5.67757 2.15826 6.56507 2.1166L7.15841 2.0916L7.32007 2.08743C7.92773 2.07208 8.53556 2.06513 9.14341 2.0666L10.8567 2.06743ZM10.0001 6.2341C9.448 6.22629 8.89987 6.32828 8.38755 6.53415C7.87524 6.74002 7.40895 7.04566 7.01578 7.43331C6.62261 7.82096 6.31041 8.28288 6.09731 8.79223C5.88422 9.30159 5.77448 9.84821 5.77448 10.4003C5.77448 10.9525 5.88422 11.4991 6.09731 12.0085C6.31041 12.5178 6.62261 12.9797 7.01578 13.3674C7.40895 13.755 7.87524 14.0607 8.38755 14.2665C8.89987 14.4724 9.448 14.5744 10.0001 14.5666C11.1051 14.5666 12.165 14.1276 12.9464 13.3462C13.7278 12.5648 14.1667 11.505 14.1667 10.3999C14.1667 9.29486 13.7278 8.23505 12.9464 7.45365C12.165 6.67225 11.1051 6.2341 10.0001 6.2341ZM10.0001 7.90076C10.3322 7.89465 10.6621 7.95476 10.9707 8.0776C11.2793 8.20045 11.5604 8.38355 11.7974 8.61622C12.0344 8.84889 12.2227 9.12646 12.3513 9.43272C12.4798 9.73897 12.5461 10.0678 12.5461 10.3999C12.5462 10.7321 12.4801 11.0609 12.3516 11.3672C12.2231 11.6735 12.0349 11.9511 11.798 12.1839C11.561 12.4166 11.2801 12.5998 10.9715 12.7228C10.663 12.8457 10.333 12.9059 10.0009 12.8999C9.33787 12.8999 8.70198 12.6365 8.23314 12.1677C7.7643 11.6989 7.50091 11.063 7.50091 10.3999C7.50091 9.73689 7.7643 9.101 8.23314 8.63216C8.70198 8.16332 9.33787 7.89993 10.0009 7.89993L10.0001 7.90076ZM14.3751 4.9841C14.1062 4.99486 13.852 5.10922 13.6656 5.30324C13.4792 5.49726 13.3751 5.75588 13.3751 6.02493C13.3751 6.29399 13.4792 6.5526 13.6656 6.74662C13.852 6.94064 14.1062 7.055 14.3751 7.06576C14.6513 7.06576 14.9163 6.95602 15.1116 6.76067C15.307 6.56532 15.4167 6.30036 15.4167 6.0241C15.4167 5.74783 15.307 5.48288 15.1116 5.28753C14.9163 5.09218 14.6513 4.98243 14.3751 4.98243V4.9841Z" fill="#0065FF"/>
</svg>
