<svg width="24" height="24" viewBox="0 0 24 24" fill="none" xmlns="http://www.w3.org/2000/svg">
<path d="M9.75 16C9.75 15.4033 9.98705 14.831 10.409 14.409C10.831 13.9871 11.4033 13.75 12 13.75C12.5967 13.75 13.169 13.9871 13.591 14.409C14.0129 14.831 14.25 15.4033 14.25 16C14.25 16.5967 14.0129 17.169 13.591 17.591C13.169 18.0129 12.5967 18.25 12 18.25C11.4033 18.25 10.831 18.0129 10.409 17.591C9.98705 17.169 9.75 16.5967 9.75 16ZM12 14.25C11.5359 14.25 11.0908 14.4344 10.7626 14.7626C10.4344 15.0908 10.25 15.5359 10.25 16C10.25 16.4641 10.4344 16.9092 10.7626 17.2374C11.0908 17.5656 11.5359 17.75 12 17.75C12.4641 17.75 12.9092 17.5656 13.2374 17.2374C13.5656 16.9092 13.75 16.4641 13.75 16C13.75 15.5359 13.5656 15.0908 13.2374 14.7626C12.9092 14.4344 12.4641 14.25 12 14.25Z" stroke="#0065FF"/>
<path fill-rule="evenodd" clip-rule="evenodd" d="M5.25 9.303V8C5.25 6.20979 5.96116 4.4929 7.22703 3.22703C8.4929 1.96116 10.2098 1.25 12 1.25C13.7902 1.25 15.5071 1.96116 16.773 3.22703C18.0388 4.4929 18.75 6.20979 18.75 8V9.303C18.977 9.319 19.19 9.339 19.392 9.367C20.292 9.487 21.05 9.747 21.652 10.348C22.254 10.95 22.512 11.708 22.634 12.608C22.75 13.475 22.75 14.578 22.75 15.945V16.055C22.75 17.422 22.75 18.525 22.634 19.392C22.512 20.292 22.254 21.05 21.652 21.652C21.05 22.254 20.292 22.512 19.392 22.634C18.525 22.75 17.422 22.75 16.055 22.75H7.945C6.578 22.75 5.475 22.75 4.608 22.634C3.708 22.512 2.95 22.254 2.348 21.652C1.746 21.05 1.488 20.292 1.367 19.392C1.25 18.525 1.25 17.422 1.25 16.055V15.945C1.25 14.578 1.25 13.475 1.367 12.608C1.487 11.708 1.747 10.95 2.348 10.348C2.95 9.746 3.708 9.488 4.608 9.367C4.82122 9.33844 5.03534 9.3171 5.25 9.303ZM6.75 8C6.75 6.60761 7.30312 5.27225 8.28769 4.28769C9.27225 3.30312 10.6076 2.75 12 2.75C13.3924 2.75 14.7277 3.30312 15.7123 4.28769C16.6969 5.27225 17.25 6.60761 17.25 8V9.253C16.877 9.25 16.478 9.25 16.055 9.25H7.945C7.522 9.25 7.124 9.25 6.75 9.253V8ZM4.808 10.853C4.074 10.952 3.686 11.133 3.409 11.409C3.132 11.686 2.952 12.074 2.853 12.809C2.752 13.564 2.75 14.565 2.75 16C2.75 17.435 2.752 18.436 2.853 19.192C2.952 19.926 3.133 20.314 3.409 20.591C3.686 20.868 4.074 21.048 4.809 21.147C5.563 21.248 6.565 21.25 8 21.25H16C17.435 21.25 18.436 21.248 19.192 21.147C19.926 21.048 20.314 20.867 20.591 20.591C20.868 20.314 21.048 19.926 21.147 19.191C21.248 18.436 21.25 17.435 21.25 16C21.25 14.565 21.248 13.563 21.147 12.808C21.048 12.074 20.867 11.686 20.591 11.409C20.314 11.132 19.926 10.952 19.191 10.853C18.436 10.752 17.435 10.75 16 10.75H8C6.565 10.75 5.563 10.752 4.808 10.853Z" fill="#0065FF"/>
</svg>
