<svg width="24" height="24" viewBox="0 0 24 24" fill="none" xmlns="http://www.w3.org/2000/svg">
<mask id="path-1-inside-1_2508_16249" fill="white">
<path d="M20.5964 3.85742H3.40367C2.13094 3.85742 1.09094 4.89379 1.09094 6.17015V17.8247C1.09094 19.1011 2.13094 20.1374 3.40367 20.1374H20.5928C21.8691 20.1374 22.9055 19.1011 22.9055 17.8247V6.17015C22.9091 4.89379 21.8691 3.85742 20.5964 3.85742ZM22.2473 6.17015V7.21379H19.1091V4.5156H20.5928C21.5055 4.51924 22.2473 5.26106 22.2473 6.17015ZM18.4509 7.54469V9.17379L17.0473 7.98469C16.9875 7.93365 16.9114 7.90561 16.8328 7.90561C16.7541 7.90561 16.678 7.93365 16.6182 7.98469L15.2109 9.17742V4.51924H18.4473V7.54469H18.4509ZM1.75276 6.17015C1.75276 5.25742 2.49458 4.5156 3.40731 4.5156H14.5564V7.21379H1.75276V6.17015ZM22.2473 17.8283C22.2473 18.7411 21.5055 19.4829 20.5928 19.4829H3.40367C2.49094 19.4829 1.74912 18.7411 1.74912 17.8283V7.8756H14.5491V9.89015C14.5493 9.97504 14.5823 10.0566 14.6413 10.1176C14.7003 10.1786 14.7807 10.2144 14.8655 10.2174C14.8691 10.2174 14.8764 10.2211 14.88 10.2211C14.8873 10.2211 14.8909 10.2174 14.8982 10.2174C14.9237 10.2174 14.9455 10.2101 14.9709 10.2065C14.9819 10.2029 14.9928 10.2029 15.0037 10.1992C15.0364 10.1847 15.0691 10.1701 15.0946 10.1447L16.8328 8.67197L18.5673 10.1447C18.6655 10.2283 18.8037 10.2465 18.92 10.192C19.0364 10.1374 19.1128 10.0211 19.1128 9.89015V7.8756H22.2509V17.8283H22.2473Z"/>
</mask>
<path d="M22.9055 6.17015L15.1479 6.14805L15.1479 6.1591V6.17015H22.9055ZM22.2473 7.21379V14.9714H30.0049V7.21379H22.2473ZM19.1091 7.21379H11.3515V14.9714H19.1091V7.21379ZM19.1091 4.5156V-3.24197H11.3515V4.5156H19.1091ZM20.5928 4.5156L20.6237 -3.24191L20.6082 -3.24197H20.5928V4.5156ZM18.4509 7.54469H26.2085V-0.212881H18.4509V7.54469ZM18.4509 9.17379L13.4366 15.0929L26.2085 25.9127V9.17379H18.4509ZM17.0473 7.98469L12.0121 13.8861L12.0225 13.895L12.0329 13.9038L17.0473 7.98469ZM16.6182 7.98469L21.634 13.9027L21.6437 13.8944L21.6534 13.8861L16.6182 7.98469ZM15.2109 9.17742H7.45337V25.9214L20.2267 15.0954L15.2109 9.17742ZM15.2109 4.51924V-3.23834H7.45337V4.51924H15.2109ZM18.4473 4.51924H26.2049V-3.23834H18.4473V4.51924ZM18.4473 7.54469H10.6897V15.3023H18.4473V7.54469ZM14.5564 4.5156H22.314V-3.24197H14.5564V4.5156ZM14.5564 7.21379V14.9714H22.314V7.21379H14.5564ZM1.75276 7.21379H-6.00482V14.9714H1.75276V7.21379ZM22.2473 17.8283V10.0708H14.4897V17.8283H22.2473ZM1.74912 7.8756V0.118028H-6.00845V7.8756H1.74912ZM14.5491 7.8756H22.3067V0.118028H14.5491V7.8756ZM14.5491 9.89015H6.79154L6.79156 9.90247L14.5491 9.89015ZM14.8655 10.2174L14.5903 17.9701L14.7278 17.975H14.8655V10.2174ZM14.9709 10.2065L16.068 17.8861L16.7605 17.7872L17.4241 17.566L14.9709 10.2065ZM15.0037 10.1992L17.4568 17.5587L17.8121 17.4403L18.1543 17.2882L15.0037 10.1992ZM15.0946 10.1447L10.0797 4.22596L9.83551 4.4329L9.60914 4.65926L15.0946 10.1447ZM16.8328 8.67197L21.8537 2.75841L16.838 -1.50019L11.8179 2.75323L16.8328 8.67197ZM18.5673 10.1447L23.5978 4.23929L23.5882 4.23114L18.5673 10.1447ZM19.1128 7.8756V0.118028H11.3552V7.8756H19.1128ZM22.2509 7.8756H30.0085V0.118028H22.2509V7.8756ZM22.2509 17.8283V25.5859H30.0085V17.8283H22.2509ZM20.5964 -3.90015H3.40367V11.615H20.5964V-3.90015ZM3.40367 -3.90015C-2.14551 -3.90015 -6.66663 0.60146 -6.66663 6.17015H8.84852C8.84852 9.18611 6.40739 11.615 3.40367 11.615V-3.90015ZM-6.66663 6.17015V17.8247H8.84852V6.17015H-6.66663ZM-6.66663 17.8247C-6.66663 23.3934 -2.14551 27.895 3.40367 27.895V12.3798C6.4074 12.3798 8.84852 14.8087 8.84852 17.8247H-6.66663ZM3.40367 27.895H20.5928V12.3798H3.40367V27.895ZM20.5928 27.895C26.1535 27.895 30.6631 23.3855 30.6631 17.8247H15.1479C15.1479 14.8167 17.5847 12.3798 20.5928 12.3798V27.895ZM30.6631 17.8247V6.17015H15.1479V17.8247H30.6631ZM30.663 6.19225C30.679 0.602023 26.1413 -3.90015 20.5964 -3.90015V11.615C17.597 11.615 15.1393 9.18555 15.1479 6.14805L30.663 6.19225ZM14.4897 6.17015V7.21379H30.0049V6.17015H14.4897ZM22.2473 -0.54379H19.1091V14.9714H22.2473V-0.54379ZM26.8667 7.21379V4.5156H11.3515V7.21379H26.8667ZM19.1091 12.2732H20.5928V-3.24197H19.1091V12.2732ZM20.5619 12.2731C17.2314 12.2598 14.4897 9.56244 14.4897 6.17015H30.0049C30.0049 0.95968 25.7796 -3.22137 20.6237 -3.24191L20.5619 12.2731ZM10.6934 7.54469V9.17379H26.2085V7.54469H10.6934ZM23.4653 3.25467L22.0617 2.06558L12.0329 13.9038L13.4366 15.0929L23.4653 3.25467ZM22.0825 2.08325C20.6185 0.834176 18.7572 0.14803 16.8328 0.14803V15.6632C15.0657 15.6632 13.3565 15.0331 12.0121 13.8861L22.0825 2.08325ZM16.8328 0.14803C14.9084 0.14803 13.047 0.834176 11.583 2.08325L21.6534 13.8861C20.3091 15.0331 18.5999 15.6632 16.8328 15.6632V0.14803ZM11.6025 2.06673L10.1952 3.25946L20.2267 15.0954L21.634 13.9027L11.6025 2.06673ZM22.9685 9.17742V4.51924H7.45337V9.17742H22.9685ZM15.2109 12.2768H18.4473V-3.23834H15.2109V12.2768ZM10.6897 4.51924V7.54469H26.2049V4.51924H10.6897ZM18.4473 15.3023H18.4509V-0.212881H18.4473V15.3023ZM9.51034 6.17015C9.51034 9.54181 6.77897 12.2732 3.40731 12.2732V-3.24197C-1.78981 -3.24197 -6.00482 0.97303 -6.00482 6.17015H9.51034ZM3.40731 12.2732H14.5564V-3.24197H3.40731V12.2732ZM6.79882 4.5156V7.21379H22.314V4.5156H6.79882ZM14.5564 -0.54379H1.75276V14.9714H14.5564V-0.54379ZM9.51034 7.21379V6.17015H-6.00482V7.21379H9.51034ZM14.4897 17.8283C14.4897 14.4567 17.2211 11.7253 20.5928 11.7253V27.2405C25.7899 27.2405 30.0049 23.0254 30.0049 17.8283H14.4897ZM20.5928 11.7253H3.40367V27.2405H20.5928V11.7253ZM3.40367 11.7253C6.77534 11.7253 9.5067 14.4567 9.5067 17.8283H-6.00845C-6.00845 23.0254 -1.79346 27.2405 3.40367 27.2405V11.7253ZM9.5067 17.8283V7.8756H-6.00845V17.8283H9.5067ZM1.74912 15.6332H14.5491V0.118028H1.74912V15.6332ZM6.79155 7.8756V9.89015H22.3067V7.8756H6.79155ZM6.79156 9.90247C6.79488 11.995 7.60933 14.0048 9.06369 15.5093L20.2189 4.72591C21.5553 6.10835 22.3036 7.95506 22.3067 9.87783L6.79156 9.90247ZM9.06369 15.5093C10.518 17.0138 12.499 17.8959 14.5903 17.9701L15.1407 2.46473C17.0623 2.53294 18.8826 3.34348 20.2189 4.72591L9.06369 15.5093ZM14.8655 17.975C14.7048 17.975 14.5569 17.97 14.4237 17.9624C14.2905 17.9548 14.1677 17.9443 14.057 17.9327C13.9462 17.9211 13.8441 17.908 13.7517 17.8946C13.6593 17.8811 13.574 17.867 13.4967 17.8532C13.4193 17.8393 13.3479 17.8252 13.2831 17.8117C13.2182 17.7982 13.1583 17.7848 13.1039 17.7721C13.0494 17.7594 12.9991 17.747 12.9535 17.7354C12.9079 17.7238 12.8659 17.7126 12.8278 17.7023C12.7897 17.6919 12.7547 17.682 12.7232 17.6729C12.6917 17.6639 12.6628 17.6553 12.6371 17.6476C12.6113 17.6399 12.5879 17.6327 12.5673 17.6263C12.5467 17.6199 12.5282 17.614 12.5123 17.609C12.4964 17.6039 12.4824 17.5993 12.4708 17.5956C12.4592 17.5918 12.4494 17.5886 12.4419 17.5861C12.4345 17.5837 12.4285 17.5817 12.425 17.5805C12.4218 17.5795 12.4191 17.5786 12.4198 17.5788C12.4198 17.5788 12.42 17.5789 12.4202 17.5789C12.4205 17.579 12.4209 17.5792 12.4215 17.5793C12.4225 17.5797 12.4241 17.5802 12.426 17.5809C12.4299 17.5821 12.4362 17.5842 12.4439 17.5868C12.4518 17.5894 12.4619 17.5927 12.4738 17.5966C12.4858 17.6005 12.5001 17.6051 12.5163 17.6103C12.5326 17.6155 12.5514 17.6214 12.5724 17.6279C12.5933 17.6344 12.617 17.6417 12.6431 17.6496C12.6692 17.6574 12.6983 17.666 12.7302 17.6752C12.762 17.6843 12.7974 17.6943 12.8358 17.7048C12.8741 17.7152 12.9165 17.7265 12.9624 17.7382C13.0083 17.7499 13.0589 17.7623 13.1136 17.7751C13.1683 17.7878 13.2286 17.8013 13.2937 17.8149C13.3588 17.8285 13.4305 17.8426 13.5082 17.8565C13.5857 17.8704 13.6713 17.8845 13.764 17.898C13.8567 17.9115 13.9591 17.9246 14.0701 17.9363C14.1811 17.9479 14.3041 17.9584 14.4376 17.966C14.571 17.9736 14.7191 17.9786 14.88 17.9786V2.46348C15.0407 2.46348 15.1886 2.46848 15.3218 2.47608C15.4551 2.48369 15.5778 2.49415 15.6885 2.50576C15.7993 2.51738 15.9015 2.53051 15.9938 2.54392C16.0863 2.55735 16.1716 2.57144 16.2488 2.58532C16.3262 2.5992 16.3976 2.61324 16.4625 2.62676C16.5273 2.64029 16.5873 2.65367 16.6417 2.66637C16.6961 2.67908 16.7464 2.69144 16.792 2.70306C16.8376 2.71468 16.8797 2.72584 16.9177 2.73622C16.9558 2.7466 16.9908 2.75646 17.0223 2.76553C17.0539 2.77461 17.0827 2.78313 17.1085 2.79087C17.1342 2.79862 17.1576 2.80579 17.1782 2.8122C17.1988 2.81861 17.2173 2.82445 17.2332 2.82953C17.2492 2.83461 17.2632 2.83913 17.2747 2.8429C17.2863 2.84667 17.2961 2.8499 17.3036 2.85237C17.3111 2.85482 17.317 2.85679 17.3205 2.85796C17.3237 2.85902 17.3264 2.85992 17.3258 2.85971C17.3258 2.8597 17.3255 2.85963 17.3253 2.85954C17.325 2.85945 17.3246 2.85931 17.3241 2.85914C17.3231 2.85881 17.3215 2.85827 17.3195 2.85762C17.3157 2.85634 17.3094 2.85425 17.3016 2.85169C17.2938 2.84911 17.2836 2.84577 17.2717 2.84189C17.2598 2.83801 17.2454 2.83338 17.2292 2.8282C17.2129 2.82301 17.1941 2.81706 17.1732 2.81055C17.1522 2.80404 17.1285 2.79677 17.1024 2.78892C17.0763 2.78109 17.0472 2.77247 17.0153 2.7633C16.9835 2.75413 16.9482 2.74419 16.9098 2.73372C16.8714 2.72325 16.829 2.71201 16.7831 2.70031C16.7372 2.68862 16.6866 2.67619 16.6319 2.66341C16.5772 2.65063 16.517 2.6372 16.4518 2.6236C16.3867 2.61002 16.315 2.59593 16.2373 2.58199C16.1598 2.56807 16.0742 2.55393 15.9815 2.54047C15.8889 2.52702 15.7865 2.51385 15.6754 2.50221C15.5644 2.49057 15.4415 2.48009 15.3079 2.47246C15.1746 2.46485 15.0264 2.45985 14.8655 2.45985V17.975ZM14.88 17.9786C15.0425 17.9786 15.2037 17.9735 15.3632 17.9636C15.5227 17.9537 15.6777 17.9391 15.828 17.9207C15.9782 17.9022 16.1209 17.8802 16.2557 17.856C16.3904 17.8318 16.5151 17.8058 16.6289 17.7795C16.7425 17.7533 16.8445 17.7271 16.933 17.7029C17.0212 17.6787 17.0971 17.6563 17.1573 17.6379C17.1875 17.6286 17.2143 17.6202 17.2372 17.6129C17.26 17.6057 17.2795 17.5994 17.2948 17.5944C17.3099 17.5895 17.3222 17.5854 17.3297 17.5829C17.3335 17.5816 17.3366 17.5806 17.3386 17.58C17.3395 17.5796 17.3403 17.5794 17.3408 17.5792C17.3411 17.5791 17.3413 17.579 17.3414 17.579C17.3416 17.579 17.3417 17.5789 17.3417 17.5789C17.342 17.5788 17.3407 17.5793 17.3391 17.5798C17.3373 17.5804 17.3344 17.5814 17.3307 17.5826C17.3235 17.585 17.3116 17.5889 17.2968 17.5937C17.2819 17.5986 17.2627 17.6048 17.2403 17.6119C17.2178 17.6191 17.1912 17.6274 17.1614 17.6365C17.1019 17.6547 17.0267 17.677 16.9392 17.7009C16.8514 17.7249 16.7501 17.751 16.6373 17.777C16.5242 17.8031 16.4003 17.829 16.2664 17.8531C16.1324 17.8771 15.9904 17.899 15.841 17.9173C15.6916 17.9357 15.5374 17.9502 15.3787 17.9601C15.2201 17.9699 15.0598 17.975 14.8982 17.975V2.45985C14.7357 2.45985 14.5746 2.46494 14.4151 2.47486C14.2556 2.48479 14.1005 2.49937 13.9503 2.51782C13.8001 2.53627 13.6573 2.55824 13.5225 2.58246C13.3879 2.60665 13.2632 2.63273 13.1494 2.65899C13.0358 2.68519 12.9338 2.71141 12.8453 2.73563C12.7571 2.75975 12.6812 2.78219 12.621 2.80061C12.5908 2.80985 12.5639 2.81828 12.5411 2.82554C12.5183 2.83278 12.4987 2.83911 12.4835 2.84409C12.4683 2.84902 12.4561 2.85308 12.4486 2.85557C12.4447 2.85684 12.4416 2.85788 12.4397 2.85852C12.4387 2.85884 12.4379 2.85911 12.4374 2.85928C12.4371 2.85936 12.4369 2.85943 12.4368 2.85948C12.4367 2.85952 12.4366 2.85956 12.4366 2.85956C12.4362 2.85967 12.4376 2.85922 12.4392 2.85869C12.4409 2.8581 12.4439 2.85713 12.4475 2.85591C12.4547 2.85353 12.4666 2.84959 12.4814 2.84477C12.4963 2.8399 12.5156 2.83368 12.538 2.82655C12.5605 2.8194 12.587 2.81108 12.6169 2.80195C12.6764 2.78374 12.7516 2.76151 12.839 2.73758C12.9269 2.71355 13.0281 2.68752 13.1409 2.66149C13.254 2.6354 13.378 2.60948 13.5119 2.58543C13.6459 2.56135 13.7878 2.53949 13.9372 2.52115C14.0867 2.5028 14.2409 2.48829 14.3995 2.47842C14.5582 2.46855 14.7184 2.46348 14.88 2.46348V17.9786ZM14.8982 17.975C15.6437 17.975 16.2201 17.8658 16.3998 17.8313C16.446 17.8224 16.4834 17.8148 16.4895 17.8135C16.5067 17.81 16.482 17.8151 16.4601 17.8194C16.4084 17.8297 16.2604 17.8586 16.068 17.8861L13.8739 2.5269C13.6688 2.5562 13.5085 2.58746 13.4447 2.6001C13.4168 2.60562 13.3862 2.61189 13.3974 2.6096C13.3976 2.60957 13.429 2.60314 13.4694 2.59538C13.6254 2.56537 14.1781 2.45985 14.8982 2.45985V17.975ZM17.4241 17.566C17.2415 17.6269 17.0751 17.6747 16.9301 17.7125C16.7857 17.7501 16.6603 17.7783 16.5614 17.7989C16.5117 17.8092 16.4674 17.8179 16.43 17.825C16.3927 17.8321 16.3607 17.8379 16.336 17.8423C16.3114 17.8466 16.2917 17.85 16.28 17.852C16.274 17.853 16.2693 17.8538 16.2665 17.8543C16.264 17.8547 16.262 17.855 16.2627 17.8549C16.2628 17.8549 16.2635 17.8548 16.2644 17.8546C16.2654 17.8544 16.2668 17.8542 16.2686 17.8539C16.272 17.8533 16.2775 17.8524 16.2841 17.8513C16.2972 17.8491 16.3183 17.8455 16.3441 17.8409C16.3702 17.8363 16.4036 17.8302 16.4423 17.8229C16.4811 17.8155 16.5267 17.8065 16.5777 17.7959C16.6794 17.7747 16.8075 17.7459 16.9546 17.7076C17.1023 17.6692 17.2715 17.6205 17.4568 17.5587L12.5505 2.83976C12.7331 2.77889 12.8996 2.73102 13.0446 2.69326C13.1889 2.65566 13.3143 2.6275 13.4133 2.60689C13.4629 2.59654 13.5072 2.58784 13.5446 2.58073C13.5819 2.57363 13.6139 2.56784 13.6387 2.56346C13.6632 2.55912 13.6829 2.55575 13.6946 2.55377C13.7006 2.55276 13.7053 2.55196 13.7081 2.5515C13.7106 2.55108 13.7127 2.55074 13.7119 2.55086C13.7118 2.55087 13.7111 2.551 13.7102 2.55115C13.7092 2.5513 13.7078 2.55155 13.706 2.55184C13.7026 2.55241 13.6972 2.55333 13.6905 2.55446C13.6774 2.55667 13.6563 2.56027 13.6305 2.56485C13.6044 2.56947 13.571 2.57551 13.5323 2.58287C13.4935 2.59024 13.4479 2.59921 13.3969 2.60985C13.2953 2.63102 13.1671 2.65981 13.02 2.69812C12.8723 2.73659 12.7031 2.78525 12.5178 2.84703L17.4241 17.566ZM18.1543 17.2882C18.155 17.2879 18.1792 17.2772 18.2065 17.2648C18.236 17.2515 18.2823 17.2304 18.3383 17.204C18.4476 17.1525 18.6248 17.0661 18.8361 16.948C19.2586 16.7119 19.9125 16.2976 20.58 15.6301L9.60914 4.65926C10.2512 4.01723 10.876 3.62292 11.2676 3.40409C11.6142 3.21041 11.9266 3.0776 11.853 3.11028L18.1543 17.2882ZM20.1094 16.0634L21.8476 14.5907L11.8179 2.75323L10.0797 4.22596L20.1094 16.0634ZM11.8118 14.5855L13.5464 16.0582L23.5882 4.23114L21.8537 2.75841L11.8118 14.5855ZM13.5368 16.0501C15.9601 18.1144 19.3543 18.556 22.2126 17.2161L15.6275 3.1678C18.2531 1.93705 21.3709 2.34226 23.5978 4.23929L13.5368 16.0501ZM22.2126 17.2161C24.9918 15.9134 26.8703 13.098 26.8703 9.89015H11.3552C11.3552 6.94413 13.0809 4.36148 15.6275 3.1678L22.2126 17.2161ZM26.8703 9.89015V7.8756H11.3552V9.89015H26.8703ZM19.1128 15.6332H22.2509V0.118028H19.1128V15.6332ZM14.4934 7.8756V17.8283H30.0085V7.8756H14.4934ZM22.2509 10.0708H22.2473V25.5859H22.2509V10.0708Z" fill="#0065FF" mask="url(#path-1-inside-1_2508_16249)"/>
<path d="M6.98914 9.55859C4.71641 9.55859 2.86914 11.4059 2.86914 13.6786C2.86914 14.5622 3.14187 15.4022 3.66187 16.104C4.43641 17.1659 5.68005 17.7986 6.98914 17.7986C7.63756 17.7978 8.27669 17.6443 8.85475 17.3506C9.43281 17.0568 9.93355 16.631 10.3164 16.1077C10.8328 15.4022 11.1091 14.5659 11.1091 13.6786C11.1091 11.4059 9.25823 9.55859 6.98914 9.55859ZM6.59278 17.1113C6.54914 17.1077 6.50914 17.0968 6.4655 17.0895C6.37823 17.075 6.29096 17.064 6.20732 17.0422C6.15641 17.0313 6.10914 17.0131 6.06187 17.0022C5.9855 16.9804 5.90914 16.9586 5.83278 16.9331C5.78187 16.915 5.7346 16.8931 5.68369 16.875C5.61096 16.8459 5.54187 16.8168 5.47278 16.784C5.4255 16.7586 5.3746 16.7331 5.32732 16.7077C5.26187 16.6713 5.19641 16.635 5.13096 16.595C5.08369 16.5659 5.04005 16.5331 4.99278 16.5004C4.93096 16.4568 4.86914 16.4131 4.81096 16.3659C4.76732 16.3295 4.72732 16.2968 4.68369 16.2568C4.6255 16.2059 4.57096 16.155 4.52005 16.1004C4.48005 16.0604 4.44369 16.0204 4.40369 15.9768C4.3855 15.955 4.36732 15.9295 4.3455 15.9077C5.00005 15.1368 5.96732 14.6859 6.98187 14.6859C7.99641 14.6859 8.96369 15.1404 9.61823 15.9077C9.60005 15.9295 9.58187 15.955 9.56369 15.9768C9.52369 16.0204 9.48369 16.064 9.44369 16.104C9.39278 16.155 9.33823 16.2059 9.28369 16.2568C9.24005 16.2968 9.19641 16.3331 9.15278 16.3695C9.0946 16.4168 9.03641 16.4604 8.97823 16.5004C8.93096 16.5331 8.88369 16.5659 8.83641 16.595C8.7746 16.635 8.70914 16.6713 8.64369 16.7077C8.59641 16.7331 8.54551 16.7622 8.4946 16.7877C8.4255 16.8204 8.35641 16.8495 8.28732 16.8786C8.23641 16.9004 8.18914 16.9222 8.13823 16.9404C8.0655 16.9659 7.98914 16.9877 7.91278 17.0095C7.86187 17.024 7.8146 17.0386 7.76369 17.0495C7.68005 17.0677 7.59278 17.0822 7.5055 17.0968L7.37823 17.1186C7.24732 17.1331 7.11641 17.144 6.98187 17.144C6.84732 17.144 6.72369 17.1259 6.59278 17.1113ZM6.15641 13.1913C6.15641 12.7331 6.53096 12.3586 6.98914 12.3586C7.44732 12.3586 7.82187 12.7331 7.82187 13.1913C7.82187 13.6495 7.44732 14.024 6.98914 14.024C6.53096 14.0204 6.15641 13.6495 6.15641 13.1913ZM10.0146 15.3477C9.49535 14.7879 8.83054 14.3837 8.0946 14.1804C8.33096 13.915 8.48005 13.5695 8.48005 13.1913C8.48005 12.3695 7.81096 11.7004 6.98914 11.7004C6.16732 11.7004 5.49823 12.3695 5.49823 13.1913C5.49823 13.5731 5.64732 13.9186 5.88369 14.1804C5.15278 14.3877 4.48369 14.784 3.96369 15.3477C3.67836 14.8378 3.52932 14.2629 3.53096 13.6786C3.53096 11.7731 5.08369 10.2204 6.98914 10.2204C8.8946 10.2204 10.4473 11.7731 10.4473 13.6786C10.4473 14.2713 10.2982 14.8422 10.0146 15.3477ZM12.8073 11.3804C12.8073 11.5622 12.9564 11.7113 13.1382 11.7113H20.8728C21.0546 11.7113 21.2037 11.5622 21.2037 11.3804C21.2037 11.1986 21.0546 11.0495 20.8728 11.0495H13.1382C12.9564 11.0495 12.8073 11.1986 12.8073 11.3804ZM20.8728 13.3477H13.1382C12.9564 13.3477 12.8073 13.4968 12.8073 13.6786C12.8073 13.8604 12.9564 14.0095 13.1382 14.0095H20.8728C21.0546 14.0095 21.2037 13.8604 21.2037 13.6786C21.2037 13.4968 21.0546 13.3477 20.8728 13.3477ZM20.8728 15.6459H13.1382C12.9564 15.6459 12.8073 15.795 12.8073 15.9768C12.8073 16.1586 12.9564 16.3077 13.1382 16.3077H20.8728C21.0546 16.3077 21.2037 16.1586 21.2037 15.9768C21.2037 15.795 21.0546 15.6459 20.8728 15.6459Z" fill="#0065FF"/>
</svg>
