<svg width="24" height="24" viewBox="0 0 24 24" fill="none" xmlns="http://www.w3.org/2000/svg">
<path d="M0.518049 8.76723C0.630279 8.05043 1.25226 7.5 2.00002 7.5H22C22.0505 7.5 22.1004 7.50251 22.1496 7.50741C22.1004 7.50252 22.0505 7.50003 22 7.50003H2.00002C1.25179 7.50003 0.630153 8.05008 0.518049 8.76723ZM0.518049 8.76723C0.506168 8.84311 0.5 8.92086 0.5 9.00002V15C0.5 15.7477 1.0504 16.3697 1.76723 16.482M0.518049 8.76723C0.506188 8.84311 0.500031 8.92085 0.500031 9.00002V15C0.500031 15.7482 1.05007 16.3699 1.76723 16.482M1.76723 16.482C1.84311 16.4939 1.92086 16.5 2.00002 16.5H22C22.0646 16.5 22.1283 16.4959 22.1908 16.488C22.1283 16.4959 22.0646 16.5 22 16.5H2.00002C1.92085 16.5 1.8431 16.4938 1.76723 16.482Z" stroke="#0065FF"/>
<path d="M6.23194 11C6.09329 10.7598 5.78616 10.6792 5.54883 10.8169L5.00002 11.1338V10.5C5.00002 10.2236 4.77638 10 4.50001 10C4.22363 10 3.99999 10.2236 3.99999 10.5V11.1338L3.45118 10.8169C3.2124 10.6792 2.90625 10.7598 2.76807 11C2.62988 11.2393 2.71191 11.545 2.95116 11.6831L3.49993 12L2.95116 12.3169C2.71191 12.4551 2.62988 12.7608 2.76807 13C2.81197 13.0761 2.87517 13.1393 2.9513 13.1832C3.02743 13.2271 3.11379 13.2501 3.20166 13.25C3.28665 13.25 3.37257 13.2285 3.45118 13.1831L3.99999 12.8662V13.5C3.99999 13.7764 4.22363 14 4.50001 14C4.77638 14 5.00002 13.7764 5.00002 13.5V12.8662L5.54883 13.1831C5.62466 13.227 5.71074 13.2501 5.79835 13.25C5.97122 13.25 6.13918 13.1606 6.23194 13C6.37013 12.7608 6.2881 12.4551 6.04885 12.3169L5.50008 12L6.04885 11.6831C6.2881 11.545 6.37013 11.2393 6.23194 11ZM11.232 11C11.0928 10.7598 10.7866 10.6792 10.5488 10.8169L10 11.1338V10.5C10.0001 10.4343 9.98718 10.3693 9.96206 10.3086C9.93695 10.2479 9.90012 10.1928 9.85368 10.1464C9.80724 10.0999 9.7521 10.0631 9.69142 10.038C9.63073 10.0129 9.5657 9.99996 9.50002 10C9.43435 9.99996 9.36931 10.0129 9.30862 10.038C9.24794 10.0631 9.1928 10.0999 9.14636 10.1464C9.09992 10.1928 9.06309 10.2479 9.03798 10.3086C9.01287 10.3693 8.99996 10.4343 9 10.5V11.1338L8.45119 10.8169C8.21194 10.6792 7.9058 10.7598 7.76808 11C7.6299 11.2393 7.71193 11.545 7.95118 11.6831L8.49994 12L7.95118 12.3169C7.71193 12.4551 7.6299 12.7608 7.76808 13C7.81198 13.0761 7.87519 13.1393 7.95131 13.1832C8.02744 13.2271 8.1138 13.2501 8.20168 13.25C8.28666 13.25 8.37258 13.2285 8.45119 13.1831L9 12.8662V13.5C8.99996 13.5657 9.01287 13.6307 9.03798 13.6914C9.06309 13.7521 9.09992 13.8072 9.14636 13.8537C9.1928 13.9001 9.24794 13.9369 9.30862 13.9621C9.36931 13.9872 9.43435 14.0001 9.50002 14C9.5657 14.0001 9.63073 13.9872 9.69142 13.9621C9.7521 13.9369 9.80724 13.9001 9.85368 13.8537C9.90012 13.8072 9.93695 13.7521 9.96206 13.6914C9.98718 13.6307 10.0001 13.5657 10 13.5V12.8662L10.5488 13.1831C10.6247 13.227 10.7108 13.2501 10.7984 13.25C10.9712 13.25 11.1392 13.1606 11.232 13C11.3701 12.7608 11.2881 12.4551 11.0489 12.3169L10.5001 12L11.0488 11.6831C11.2881 11.545 11.3701 11.2393 11.232 11ZM16.2319 11C16.0933 10.7598 15.7861 10.6792 15.5488 10.8169L15 11.1338V10.5C15 10.4343 14.9871 10.3693 14.962 10.3086C14.9369 10.2479 14.9001 10.1928 14.8537 10.1464C14.8072 10.0999 14.7521 10.0631 14.6914 10.038C14.6307 10.0129 14.5657 9.99996 14.5 10C14.4343 9.99996 14.3693 10.0129 14.3086 10.038C14.2479 10.0631 14.1928 10.0999 14.1463 10.1464C14.0999 10.1928 14.0631 10.2479 14.0379 10.3086C14.0128 10.3693 13.9999 10.4343 14 10.5V11.1338L13.4512 10.8169C13.2124 10.6792 12.9062 10.7598 12.7681 11C12.6299 11.2393 12.7119 11.545 12.9511 11.6831L13.4999 12L12.9511 12.3169C12.7119 12.4551 12.6299 12.7608 12.7681 13C12.812 13.0761 12.8752 13.1393 12.9513 13.1832C13.0274 13.2271 13.1138 13.2501 13.2016 13.25C13.2866 13.25 13.3726 13.2285 13.4512 13.1831L14 12.8662V13.5C13.9999 13.5657 14.0128 13.6307 14.0379 13.6914C14.0631 13.7521 14.0999 13.8072 14.1463 13.8537C14.1928 13.9001 14.2479 13.9369 14.3086 13.9621C14.3693 13.9872 14.4343 14.0001 14.5 14C14.5657 14.0001 14.6307 13.9872 14.6914 13.9621C14.7521 13.9369 14.8072 13.9001 14.8537 13.8537C14.9001 13.8072 14.9369 13.7521 14.962 13.6914C14.9871 13.6307 15 13.5657 15 13.5V12.8662L15.5488 13.1831C15.6246 13.227 15.7107 13.2501 15.7983 13.25C15.9712 13.25 16.1392 13.1606 16.2319 13C16.3701 12.7608 16.2881 12.4551 16.0488 12.3169L15.5001 12L16.0488 11.6831C16.2881 11.545 16.3701 11.2393 16.2319 11ZM21.2319 11C21.0938 10.7598 20.7866 10.6792 20.5488 10.8169L20 11.1338V10.5C20.0001 10.4343 19.9872 10.3693 19.962 10.3086C19.9369 10.2479 19.9001 10.1928 19.8537 10.1464C19.8072 10.0999 19.7521 10.0631 19.6914 10.038C19.6307 10.0129 19.5657 9.99996 19.5 10C19.4343 9.99996 19.3693 10.0129 19.3086 10.038C19.2479 10.0631 19.1928 10.0999 19.1463 10.1464C19.0999 10.1928 19.0631 10.2479 19.038 10.3086C19.0128 10.3693 18.9999 10.4343 19 10.5V11.1338L18.4512 10.8169C18.2114 10.6792 17.9067 10.7598 17.7681 11C17.6299 11.2393 17.7119 11.545 17.9512 11.6831L18.4999 12L17.9512 12.3169C17.7119 12.4551 17.6299 12.7608 17.7681 13C17.812 13.0761 17.8752 13.1393 17.9513 13.1832C18.0274 13.2271 18.1138 13.2501 18.2017 13.25C18.2866 13.25 18.3726 13.2285 18.4512 13.1831L19 12.8662V13.5C18.9999 13.5657 19.0128 13.6307 19.038 13.6914C19.0631 13.7521 19.0999 13.8072 19.1463 13.8537C19.1928 13.9001 19.2479 13.9369 19.3086 13.9621C19.3693 13.9872 19.4343 14.0001 19.5 14C19.5657 14.0001 19.6307 13.9872 19.6914 13.9621C19.7521 13.9369 19.8072 13.9001 19.8537 13.8537C19.9001 13.8072 19.9369 13.7521 19.962 13.6914C19.9872 13.6307 20.0001 13.5657 20 13.5V12.8662L20.5488 13.1831C20.6247 13.227 20.7107 13.2501 20.7983 13.25C20.9712 13.25 21.1392 13.1606 21.2319 13C21.3701 12.7608 21.2881 12.4551 21.0488 12.3169L20.5001 12L21.0488 11.6831C21.2881 11.545 21.3701 11.2393 21.2319 11Z" fill="#0065FF"/>
</svg>
