<svg width="18" height="20" viewBox="0 0 18 20" fill="none" xmlns="http://www.w3.org/2000/svg">
<path d="M16.3706 17.7065L16.3712 17.706C16.7779 17.3797 17 16.9816 17 16.5C17 16.0175 16.7768 15.4949 16.3711 14.9806C15.9667 14.4691 15.3809 13.968 14.6566 13.5243C13.2079 12.6416 11.209 12 9 12C6.79175 12 4.79165 12.6418 3.34302 13.5245C2.61849 13.9679 2.03356 14.4688 1.62894 14.9806C1.22322 15.4949 1 16.0175 1 16.5C1 16.9818 1.22127 17.3789 1.62898 17.7062L1.62939 17.7065C2.03361 18.0313 2.61972 18.2837 3.34306 18.4753C4.79117 18.8589 6.79072 19 9 19C11.2087 19 13.2087 18.858 14.6574 18.4752L16.3706 17.7065ZM16.3706 17.7065C15.9665 18.0312 15.3806 18.2835 14.6575 18.4752L16.3706 17.7065ZM9 1C10.0609 1 11.0783 1.42143 11.8284 2.17157C12.5786 2.92172 13 3.93913 13 5C13 6.06087 12.5786 7.07828 11.8284 7.82843C11.0783 8.57857 10.0609 9 9 9C7.93913 9 6.92172 8.57857 6.17157 7.82843C5.42143 7.07828 5 6.06087 5 5C5 3.93913 5.42143 2.92172 6.17157 2.17157C6.92172 1.42143 7.93913 1 9 1Z" stroke="#071225" stroke-width="2"/>
</svg>
