<svg width="24" height="24" viewBox="0 0 24 24" fill="none" xmlns="http://www.w3.org/2000/svg">
<path d="M19.6838 20.0962L19.6841 20.096C20.1834 19.6954 20.5 19.1633 20.5 18.5C20.5 17.8653 20.2095 17.2361 19.7637 16.671C19.3146 16.1028 18.6796 15.5647 17.9174 15.0977C16.3916 14.1679 14.3026 13.5 12 13.5C9.69827 13.5 7.60814 14.168 6.0823 15.0979C5.31952 15.5646 4.68556 16.1026 4.23629 16.671L19.6838 20.0962ZM19.6838 20.0962C19.2017 20.4837 18.5391 20.7588 17.7849 20.9587C16.2716 21.3585 14.2187 21.5 12 21.5C9.78088 21.5 7.72812 21.3595 6.21506 20.9587C5.46088 20.7588 4.79831 20.4837 4.3162 20.0962L4.31599 20.0961M19.6838 20.0962L4.31599 20.0961M4.31599 20.0961C3.81563 19.6944 3.5 19.1634 3.5 18.5M4.31599 20.0961L3.5 18.5M3.5 18.5C3.5 17.8653 3.79052 17.2361 4.23626 16.671L3.5 18.5ZM12 2.5C13.1935 2.5 14.3381 2.97411 15.182 3.81802C16.0259 4.66193 16.5 5.80653 16.5 7C16.5 8.19347 16.0259 9.33807 15.182 10.182C14.3381 11.0259 13.1935 11.5 12 11.5C10.8065 11.5 9.66193 11.0259 8.81802 10.182C7.97411 9.33807 7.5 8.19347 7.5 7C7.5 5.80653 7.97411 4.66193 8.81802 3.81802C9.66193 2.97411 10.8065 2.5 12 2.5Z" stroke="#0065FF"/>
</svg>
