<svg width="24" height="24" viewBox="0 0 24 24" fill="none" xmlns="http://www.w3.org/2000/svg">
<path d="M5.64 4.5V6.41H2.25V8.28C2.25 11.41 3.18 13.155 5.415 14.24C6.2459 14.6867 7.0128 15.2434 7.695 15.895C8.24332 16.4799 8.91204 16.9388 9.655 17.24L10.5 17.5V19.765H9.21C7.65 19.765 7.125 20.12 7.125 21.175V21.885H16.875V21.25C16.875 20.215 16.235 19.75 14.755 19.75H13.5V17.5L14.36 17.245C15.104 16.9434 15.773 16.4827 16.32 15.895C17.0317 15.2167 17.8283 14.6335 18.69 14.16C19.3591 13.838 19.9566 13.3849 20.447 12.8274C20.9375 12.27 21.3109 11.6196 21.545 10.915C21.7042 10.0426 21.7779 9.15672 21.765 8.27V6.415H18.36V4.5H5.64ZM12 7.685L13.025 9.805H15.495L13.56 11.59L14.115 13.87L12 12.735L9.885 13.885L10.44 11.605L8.5 9.82H10.975L12 7.685ZM4.03 8.32H5.61V12.26C5.445 12.36 4.93 11.76 4.555 11.075C4.3421 10.5506 4.2057 9.99825 4.15 9.435L4.03 8.32ZM18.39 8.32H20.11L19.965 9.42C19.9309 10.3357 19.5627 11.2072 18.93 11.87C18.7811 12.0729 18.5922 12.243 18.375 12.37L18.39 8.32Z" stroke="#0065FF" stroke-linecap="round" stroke-linejoin="round"/>
</svg>
