<svg width="24" height="24" viewBox="0 0 24 24" fill="none" xmlns="http://www.w3.org/2000/svg">
<path d="M21.3275 14.2563L21.3271 14.256L20.0328 13.3008C20.0323 13.3004 20.0319 13.3001 20.0314 13.2998C19.8267 13.1502 19.6601 12.9544 19.5454 12.7283C19.4303 12.5017 19.3706 12.2511 19.371 11.997C19.3715 11.7429 19.432 11.4924 19.5478 11.2662C19.6631 11.0409 19.83 10.8459 20.0348 10.6971C20.0355 10.6965 20.0363 10.696 20.0371 10.6954L21.3228 9.7438L21.3248 9.74232C21.4269 9.66755 21.5031 9.56274 21.5427 9.44255C21.5823 9.3224 21.5833 9.19289 21.5457 9.07211L21.3275 14.2563ZM21.3275 14.2563C21.43 14.3318 21.5064 14.4373 21.5462 14.5582C21.5859 14.679 21.587 14.8091 21.5494 14.9306C21.0962 16.3789 20.3256 17.708 19.2937 18.8208C19.208 18.9126 19.0959 18.9756 18.9728 19.0012C18.8499 19.0267 18.722 19.0136 18.6068 18.9636C18.6066 18.9635 18.6064 18.9634 18.6061 18.9633L17.1435 18.3214C17.1431 18.3212 17.1427 18.321 17.1423 18.3208C16.9113 18.2183 16.6595 18.171 16.407 18.1827L16.407 18.1827M21.3275 14.2563L16.407 18.1827M16.407 18.1827L16.4012 18.183M16.407 18.1827L16.4012 18.183M16.4012 18.183C16.1482 18.1978 15.9023 18.2722 15.6836 18.4002C15.4646 18.5271 15.2789 18.7041 15.1414 18.9166C15.0041 19.1289 14.9189 19.3706 14.8928 19.6221C14.8928 19.6228 14.8927 19.6235 14.8926 19.6242L14.7168 21.2172C14.7168 21.2173 14.7168 21.2174 14.7168 21.2175C14.7028 21.3424 14.6506 21.4599 14.5673 21.554C14.4839 21.6481 14.3735 21.7142 14.2511 21.7431L14.2503 21.7433M16.4012 18.183L14.2503 21.7433M14.2503 21.7433C12.7698 22.0963 11.2265 22.0964 9.74601 21.7435C9.62454 21.714 9.51501 21.648 9.43211 21.5544C9.34932 21.4609 9.29705 21.3444 9.28228 21.2205C9.28222 21.22 9.28217 21.2196 9.28212 21.2191L9.10623 19.6278L9.10614 19.627M14.2503 21.7433L9.10614 19.627M9.10614 19.627C9.06197 19.2331 8.87426 18.8693 8.57888 18.605L8.57622 18.6027M9.10614 19.627L8.57622 18.6027M8.57622 18.6027C8.3461 18.3998 8.06322 18.2661 7.7603 18.2172C7.4574 18.1683 7.14684 18.2062 6.86455 18.3264L6.86454 18.3264M8.57622 18.6027L6.86454 18.3264M6.86454 18.3264L6.85937 18.3287M6.86454 18.3264L6.85937 18.3287M6.85937 18.3287L5.39422 18.9725C5.39397 18.9726 5.39373 18.9727 5.39349 18.9728C5.2787 19.0227 5.15129 19.036 5.02866 19.0108C4.90616 18.9856 4.79443 18.9232 4.70869 18.8322C3.67539 17.7184 2.90395 16.3878 2.45074 14.9376C2.41339 14.8163 2.41459 14.6865 2.45419 14.5659C2.49386 14.4451 2.5701 14.3397 2.67235 14.2641L2.67245 14.264M6.85937 18.3287L2.67245 14.264M2.67245 14.264L3.96466 13.3089M2.67245 14.264L3.96466 13.3089M3.96466 13.3089C3.96495 13.3087 3.96525 13.3085 3.96554 13.3083C4.16984 13.1583 4.33599 12.9623 4.45057 12.7362C4.56532 12.5098 4.62511 12.2595 4.62511 12.0057C4.62511 11.7519 4.56532 11.5016 4.45057 11.2752C4.33598 11.0491 4.16979 10.8531 3.96545 10.7031C3.96519 10.7029 3.96492 10.7027 3.96466 10.7025L2.67234 9.74878M3.96466 13.3089L2.67234 9.74878M2.67234 9.74878C2.67228 9.74874 2.67221 9.74869 2.67215 9.74864L2.67234 9.74878ZM2.45102 9.08115C2.90427 7.63212 3.6757 6.30272 4.70888 5.1902L4.70916 5.1899C4.76673 5.1278 4.83568 5.07946 4.91153 5.04752L4.9125 5.04711C4.98962 5.01445 5.07251 4.99762 5.15625 4.99762C5.23897 4.99762 5.32085 5.01404 5.39716 5.04591L6.85362 5.68775L6.85362 5.68777L6.85792 5.68962C7.0903 5.78943 7.34283 5.83344 7.59528 5.81813C7.84772 5.80281 8.09308 5.72859 8.31169 5.60141C8.5303 5.47423 8.71609 5.29763 8.85418 5.08574C8.99227 4.87386 9.07882 4.63258 9.10691 4.38123L9.10694 4.38097L9.2839 2.78986C9.28391 2.78976 9.28392 2.78966 9.28393 2.78956C9.29814 2.66324 9.35137 2.54449 9.43621 2.44982C9.52093 2.35529 9.63297 2.28946 9.75678 2.26148C10.4963 2.09841 11.2505 2.01146 12.0076 2.00199C12.7601 2.01098 13.5096 2.09773 14.2439 2.26147L14.2441 2.26151C14.3681 2.28911 14.4803 2.3549 14.5649 2.44963C14.6496 2.54436 14.7023 2.66325 14.7158 2.78955L14.7161 2.79177L14.8929 4.38021C14.8929 4.3804 14.8929 4.38059 14.893 4.38078C14.9202 4.63207 15.0062 4.87343 15.1439 5.08537L15.5632 4.81292L15.1439 5.08537C15.2818 5.29748 15.4676 5.47417 15.6863 5.60117C15.9051 5.72818 16.1507 5.80192 16.4032 5.81645C16.6558 5.83098 16.9082 5.78588 17.14 5.6848L17.1418 5.68404L18.5992 5.04218C18.5995 5.04206 18.5998 5.04194 18.6001 5.04181C18.7157 4.99171 18.844 4.9785 18.9674 5.00401C19.0908 5.02952 19.2034 5.09248 19.2896 5.18428C20.3221 6.29576 21.0929 7.62408 21.5457 9.07199L2.45102 9.08115ZM12 15.4997C12.9283 15.4997 13.8185 15.131 14.4749 14.4746C15.1313 13.8182 15.5 12.928 15.5 11.9997C15.5 11.0714 15.1313 10.1812 14.4749 9.52483C13.8185 8.86845 12.9283 8.4997 12 8.4997C11.0717 8.4997 10.1815 8.86845 9.52513 9.52483C8.86875 10.1812 8.5 11.0714 8.5 11.9997C8.5 12.928 8.86875 13.8182 9.52513 14.4746C10.1815 15.131 11.0717 15.4997 12 15.4997Z" stroke="#0065FF"/>
</svg>
