<svg width="24" height="24" viewBox="0 0 24 24" fill="none" xmlns="http://www.w3.org/2000/svg">
<path d="M17.4991 12.5H17.5C17.8372 12.5 18.1709 12.4671 18.5 12.4102V17V17.2071L18.6464 17.3536L20.5 19.2071V19.5H3.5V19.2071L5.35355 17.3536L5.5 17.2071V17V11C5.5 8.12038 7.38536 5.5862 10.142 4.7694L10.5 4.66334V4.29001V4.00001C10.5 3.17615 11.1761 2.50001 12 2.50001L12.0012 2.5C12.2139 2.49951 12.424 2.54647 12.6163 2.63748C12.6836 2.66936 12.7482 2.70636 12.8094 2.74806C11.9985 3.77522 11.5 5.0767 11.5 6.50001L11.5 6.50091C11.5029 8.09108 12.1359 9.6153 13.2603 10.7397C14.3847 11.8642 15.9089 12.4971 17.4991 12.5ZM20.5 6.50001C20.5 8.15386 19.1539 9.50001 17.5 9.50001C15.8461 9.50001 14.5 8.15386 14.5 6.50001C14.5 4.84615 15.8461 3.50001 17.5 3.50001C19.1539 3.50001 20.5 4.84615 20.5 6.50001ZM13.416 21.5C13.2119 22.085 12.6582 22.5 12 22.5C11.6022 22.5 11.2206 22.342 10.9393 22.0607C10.7796 21.901 10.6597 21.709 10.5858 21.5H13.416Z" stroke="#0065FF"/>
</svg>
