<svg width="20" height="21" viewBox="0 0 20 21" fill="none" xmlns="http://www.w3.org/2000/svg">
<g clip-path="url(#clip0_2712_18606)">
<path d="M10 0.400391C10.918 0.400391 11.8034 0.517578 12.6562 0.751953C13.5091 0.986328 14.3066 1.32161 15.0488 1.75781C15.791 2.19401 16.4648 2.71484 17.0703 3.32031C17.6758 3.92578 18.1966 4.60286 18.6328 5.35156C19.069 6.10026 19.4043 6.89779 19.6387 7.74414C19.873 8.5905 19.9935 9.47591 20 10.4004C20 11.3184 19.8828 12.2038 19.6484 13.0566C19.4141 13.9095 19.0788 14.707 18.6426 15.4492C18.2064 16.1914 17.6855 16.8652 17.0801 17.4707C16.4746 18.0762 15.7975 18.597 15.0488 19.0332C14.3001 19.4694 13.5026 19.8047 12.6562 20.0391C11.8099 20.2734 10.9245 20.3939 10 20.4004C9.08203 20.4004 8.19661 20.2832 7.34375 20.0488C6.49089 19.8145 5.69336 19.4792 4.95117 19.043C4.20898 18.6068 3.53516 18.0859 2.92969 17.4805C2.32422 16.875 1.80339 16.1979 1.36719 15.4492C0.93099 14.7005 0.595703 13.9062 0.361328 13.0664C0.126953 12.2266 0.00651042 11.3379 0 10.4004C0 9.48242 0.117188 8.597 0.351562 7.74414C0.585938 6.89128 0.921224 6.09375 1.35742 5.35156C1.79362 4.60938 2.31445 3.93555 2.91992 3.33008C3.52539 2.72461 4.20247 2.20378 4.95117 1.76758C5.69987 1.33138 6.49414 0.996094 7.33398 0.761719C8.17383 0.527344 9.0625 0.406901 10 0.400391ZM10 19.1504C10.8008 19.1504 11.5723 19.0462 12.3145 18.8379C13.0566 18.6296 13.7533 18.3366 14.4043 17.959C15.0553 17.5814 15.6478 17.1224 16.1816 16.582C16.7155 16.0417 17.1712 15.4525 17.5488 14.8145C17.9264 14.1764 18.2227 13.4798 18.4375 12.7246C18.6523 11.9694 18.7565 11.1947 18.75 10.4004C18.75 9.59961 18.6458 8.82812 18.4375 8.08594C18.2292 7.34375 17.9362 6.64714 17.5586 5.99609C17.181 5.34505 16.722 4.7526 16.1816 4.21875C15.6413 3.6849 15.0521 3.22917 14.4141 2.85156C13.776 2.47396 13.0794 2.17773 12.3242 1.96289C11.569 1.74805 10.7943 1.64388 10 1.65039C9.19922 1.65039 8.42773 1.75456 7.68555 1.96289C6.94336 2.17122 6.24674 2.46419 5.5957 2.8418C4.94466 3.2194 4.35221 3.67839 3.81836 4.21875C3.28451 4.75911 2.82878 5.34831 2.45117 5.98633C2.07357 6.62435 1.77734 7.32096 1.5625 8.07617C1.34766 8.83138 1.24349 9.60612 1.25 10.4004C1.25 11.2012 1.35417 11.9727 1.5625 12.7148C1.77083 13.457 2.0638 14.1536 2.44141 14.8047C2.81901 15.4557 3.27799 16.0482 3.81836 16.582C4.35872 17.1159 4.94792 17.5716 5.58594 17.9492C6.22396 18.3268 6.92057 18.623 7.67578 18.8379C8.43099 19.0527 9.20573 19.1569 10 19.1504ZM15.8301 10.5566L16.2988 9.15039H17.0312L16.2012 11.6504H15.4688L15 10.2441L14.5312 11.6504H13.7988L12.9688 9.15039H13.7012L14.1699 10.5566L14.6387 9.15039H15.3613L15.8301 10.5566ZM11.2988 9.15039H12.0312L11.2012 11.6504H10.4688L10 10.2441L9.53125 11.6504H8.79883L7.96875 9.15039H8.70117L9.16992 10.5566L9.63867 9.15039H10.3613L10.8301 10.5566L11.2988 9.15039ZM6.29883 9.15039H7.03125L6.20117 11.6504H5.46875L5 10.2441L4.53125 11.6504H3.79883L2.96875 9.15039H3.70117L4.16992 10.5566L4.63867 9.15039H5.36133L5.83008 10.5566L6.29883 9.15039Z" fill="#0065FF"/>
</g>
<defs>
<clipPath id="clip0_2712_18606">
<rect width="20" height="20" fill="white" transform="translate(0 0.400391)"/>
</clipPath>
</defs>
</svg>
