<svg width="20" height="21" viewBox="0 0 20 21" fill="none" xmlns="http://www.w3.org/2000/svg">
<path d="M6.04499 15.8114L6.64833 16.1639C7.66577 16.7573 8.82298 17.0688 10.0008 17.0664C11.3194 17.0664 12.6083 16.6754 13.7046 15.9429C14.801 15.2103 15.6554 14.1691 16.16 12.951C16.6646 11.7328 16.7966 10.3923 16.5394 9.09914C16.2822 7.80593 15.6472 6.61804 14.7149 5.68569C13.7825 4.75334 12.5946 4.11841 11.3014 3.86117C10.0082 3.60394 8.66778 3.73596 7.4496 4.24054C6.23143 4.74513 5.19024 5.59961 4.45769 6.69594C3.72515 7.79227 3.33416 9.0812 3.33416 10.3997C3.33173 11.578 3.64355 12.7355 4.23749 13.7531L4.58916 14.3564L4.04499 16.3572L6.04499 15.8114ZM1.67083 18.7331L2.79749 14.5931C2.05507 13.3205 1.66503 11.8731 1.66749 10.3997C1.66749 5.79724 5.39833 2.06641 10.0008 2.06641C14.6033 2.06641 18.3342 5.79724 18.3342 10.3997C18.3342 15.0022 14.6033 18.7331 10.0008 18.7331C8.52814 18.7354 7.08137 18.3457 5.80916 17.6039L1.67083 18.7331ZM6.99333 6.48974C7.10499 6.48141 7.21749 6.48141 7.32916 6.48641C7.37416 6.48974 7.41916 6.49474 7.46416 6.49974C7.59666 6.51474 7.74249 6.59557 7.79166 6.70724C8.03999 7.27057 8.28166 7.83807 8.51499 8.40724C8.56666 8.53391 8.53583 8.69641 8.43749 8.85474C8.38749 8.93557 8.30916 9.04891 8.21833 9.16474C8.12416 9.28557 7.92166 9.50724 7.92166 9.50724C7.92166 9.50724 7.83916 9.60557 7.87082 9.72807C7.88249 9.77474 7.92083 9.84224 7.95583 9.89891L8.00499 9.97807C8.21833 10.3339 8.50499 10.6947 8.85499 11.0347C8.95499 11.1314 9.05249 11.2306 9.15749 11.3231C9.54749 11.6672 9.98916 11.9481 10.4658 12.1564L10.47 12.1581C10.5408 12.1889 10.5767 12.2056 10.68 12.2497C10.7317 12.2714 10.785 12.2897 10.8392 12.3047C10.8951 12.319 10.9541 12.3163 11.0085 12.297C11.063 12.2777 11.1105 12.2427 11.145 12.1964C11.7483 11.4656 11.8033 11.4181 11.8083 11.4181V11.4197C11.8502 11.3806 11.9 11.351 11.9544 11.3327C12.0087 11.3145 12.0663 11.3081 12.1233 11.3139C12.1733 11.3172 12.2242 11.3264 12.2708 11.3472C12.7133 11.5497 13.4375 11.8656 13.4375 11.8656L13.9225 12.0831C14.0042 12.1222 14.0783 12.2147 14.0808 12.3039C14.0842 12.3597 14.0892 12.4497 14.07 12.6147C14.0433 12.8306 13.9783 13.0897 13.9133 13.2256C13.8688 13.3182 13.8097 13.4032 13.7383 13.4772C13.6542 13.5655 13.5622 13.6459 13.4633 13.7172C13.395 13.7689 13.3592 13.7922 13.3592 13.7922C13.2555 13.858 13.149 13.9191 13.04 13.9756C12.8254 14.0895 12.5885 14.155 12.3458 14.1672C12.1917 14.1756 12.0375 14.1872 11.8825 14.1789C11.8758 14.1789 11.4092 14.1064 11.4092 14.1064C10.2244 13.7948 9.12865 13.211 8.20916 12.4014C8.02082 12.2356 7.84583 12.0572 7.66749 11.8797C6.92749 11.1422 6.36666 10.3464 6.02583 9.59474C5.85225 9.22599 5.75854 8.82473 5.75083 8.41724C5.74769 7.9112 5.91337 7.41855 6.22166 7.01724C6.28249 6.93891 6.33999 6.85724 6.43916 6.76307C6.54416 6.66307 6.61166 6.60974 6.68416 6.57307C6.78055 6.52477 6.88571 6.49642 6.99333 6.48974Z" fill="#0065FF"/>
</svg>
