<svg width="20" height="14" viewBox="0 0 20 14" fill="none" xmlns="http://www.w3.org/2000/svg">
<path d="M19.5586 2.189C19.4439 1.76496 19.2201 1.37837 18.9096 1.06774C18.599 0.757106 18.2125 0.533263 17.7886 0.4185C16.2365 -0.00488281 9.99003 -0.00488281 9.99003 -0.00488281C9.99003 -0.00488281 3.7432 0.00793273 2.19115 0.431316C1.76719 0.546085 1.3807 0.76994 1.07015 1.08059C0.759594 1.39124 0.535823 1.77784 0.421116 2.2019C-0.0483452 4.96021 -0.230458 9.16325 0.434007 11.8112C0.548725 12.2353 0.772502 12.6219 1.08305 12.9325C1.3936 13.2431 1.78009 13.467 2.20404 13.5817C3.75609 14.0051 10.0028 14.0051 10.0028 14.0051C10.0028 14.0051 16.2494 14.0051 17.8013 13.5817C18.2253 13.467 18.6118 13.2431 18.9224 12.9325C19.2329 12.6219 19.4567 12.2353 19.5714 11.8112C20.0666 9.04901 20.2192 4.84855 19.5586 2.189Z" fill="#FF0000"/>
<path d="M8.00178 10.0022L13.1837 7.00008L8.00178 3.99795V10.0022Z" fill="white"/>
</svg>
