<svg width="20" height="21" viewBox="0 0 20 21" fill="none" xmlns="http://www.w3.org/2000/svg">
<path d="M7.07031 12.2578C6.74672 12.2578 6.48438 12.5202 6.48438 12.8438V14.0156C6.48438 14.3392 6.74672 14.6016 7.07031 14.6016C7.39391 14.6016 7.65625 14.3392 7.65625 14.0156V12.8438C7.65625 12.5202 7.39391 12.2578 7.07031 12.2578ZM12.9297 14.6016C13.2533 14.6016 13.5156 14.3392 13.5156 14.0156V12.8438C13.5156 12.5202 13.2533 12.2578 12.9297 12.2578C12.6061 12.2578 12.3438 12.5202 12.3438 12.8438V14.0156C12.3438 14.3392 12.6061 14.6016 12.9297 14.6016ZM10.625 4.64062H17.0312C17.3548 4.64062 17.6172 4.37828 17.6172 4.05469C17.6172 3.73109 17.3548 3.46875 17.0312 3.46875H10.625C10.3014 3.46875 10.0391 3.73109 10.0391 4.05469C10.0391 4.37828 10.3014 4.64062 10.625 4.64062Z" fill="#071225"/>
<path d="M20 7.375V3.03906C20 1.63902 18.861 0.5 17.4609 0.5H10.1953C8.79527 0.5 7.65625 1.63902 7.65625 3.03906V7.57031H6.875C4.73332 7.57031 2.93715 9.07695 2.49004 11.0859H2.38281V7.46953C3.0648 7.22766 3.55469 6.57637 3.55469 5.8125C3.55469 4.84324 2.76613 4.05469 1.79688 4.05469C0.827617 4.05469 0.0390625 4.84324 0.0390625 5.8125C0.0390625 6.57637 0.528945 7.22766 1.21094 7.46953V11.1735C0.508711 11.404 0 12.0654 0 12.8438V15.1875C0 16.1568 0.788555 16.9453 1.75781 16.9453H2.48152C2.91391 18.9738 4.71945 20.5 6.875 20.5H13.125C15.2805 20.5 17.0861 18.9738 17.5185 16.9453H18.2422C19.2114 16.9453 20 16.1568 20 15.1875V12.8438C20 11.8745 19.2114 11.0859 18.2422 11.0859H17.5097C17.4188 10.6767 17.2709 10.2822 17.0704 9.91406H17.4609C18.861 9.91406 20 8.77504 20 7.375ZM8.82812 3.03906C8.82812 2.2852 9.44145 1.67188 10.1953 1.67188H17.4609C18.2148 1.67188 18.8281 2.2852 18.8281 3.03906V7.375C18.8281 8.12887 18.2148 8.74219 17.4609 8.74219H10.5859C10.495 8.74219 10.4053 8.76336 10.3239 8.80402L8.82812 9.55191V3.03906ZM1.79688 5.22656C2.11996 5.22656 2.38281 5.48941 2.38281 5.8125C2.38281 6.13559 2.11996 6.39844 1.79688 6.39844C1.47379 6.39844 1.21094 6.13559 1.21094 5.8125C1.21094 5.48941 1.47379 5.22656 1.79688 5.22656ZM1.17188 15.1875V12.8438C1.17188 12.5207 1.43473 12.2578 1.75781 12.2578H2.38281V15.7734H1.75781C1.43473 15.7734 1.17188 15.5106 1.17188 15.1875ZM18.8281 12.8438V15.1875C18.8281 15.5106 18.5653 15.7734 18.2422 15.7734H17.6172V12.2578H18.2422C18.5653 12.2578 18.8281 12.5207 18.8281 12.8438ZM16.4453 12.0625V16.0078C16.4453 17.8386 14.9558 19.3281 13.125 19.3281H6.875C5.04418 19.3281 3.55469 17.8386 3.55469 16.0078V12.0625C3.55469 10.2317 5.04418 8.74219 6.875 8.74219H7.65625V10.5C7.65625 10.9348 8.11492 11.2187 8.50422 11.0241L10.7243 9.91406H15.6555C16.1655 10.5138 16.4454 11.2753 16.4453 12.0625Z" fill="#071225"/>
<path d="M10.625 6.98438H17.0312C17.3548 6.98438 17.6172 6.72203 17.6172 6.39844C17.6172 6.07484 17.3548 5.8125 17.0312 5.8125H10.625C10.3014 5.8125 10.0391 6.07484 10.0391 6.39844C10.0391 6.72203 10.3014 6.98438 10.625 6.98438ZM8.24219 16.3594C8.24219 16.683 8.50453 16.9453 8.82812 16.9453H11.1719C11.4955 16.9453 11.7578 16.683 11.7578 16.3594C11.7578 16.0358 11.4955 15.7734 11.1719 15.7734H8.82812C8.50453 15.7734 8.24219 16.0358 8.24219 16.3594Z" fill="#071225"/>
</svg>
