<svg width="24" height="24" viewBox="0 0 24 24" fill="none" xmlns="http://www.w3.org/2000/svg">
<g clip-path="url(#clip0_3099_10499)">
<path d="M23.6272 18.3422L14.4469 2.88755C13.9406 1.9875 13.0265 1.45312 12 1.45312C10.9735 1.45312 10.0594 1.9875 9.55311 2.87344L0.360548 18.3563C-0.131686 19.2422 -0.117624 20.2829 0.38872 21.1547C0.89497 22.0266 1.80894 22.5469 2.80742 22.5469H21.1945C22.193 22.5469 23.107 22.0266 23.6132 21.1547C24.1195 20.2828 24.1335 19.2422 23.6272 18.3422Z" fill="#FFD400"/>
<path d="M23.6131 21.1547C23.1069 22.0266 22.1929 22.5469 21.1944 22.5469H12V1.45312C13.0265 1.45312 13.9406 1.9875 14.4469 2.88755L23.6273 18.3422C24.1335 19.2422 24.1195 20.2828 23.6131 21.1547Z" fill="#FDBF00"/>
<path d="M10.5938 16.2188H13.4062V19.0312H10.5938V16.2188ZM10.5938 7.78125H13.4062V14.8125H10.5938V7.78125Z" fill="#4A696F"/>
<path d="M12 7.78125H13.4062V14.8125H12V7.78125ZM12 16.2188H13.4062V19.0312H12V16.2188Z" fill="#3E5959"/>
</g>
<defs>
<clipPath id="clip0_3099_10499">
<rect width="24" height="24" fill="white"/>
</clipPath>
</defs>
</svg>
