<svg width="350" height="350" viewBox="0 0 350 350" fill="none" xmlns="http://www.w3.org/2000/svg">
<path d="M350 267.68H0V267.855H350V267.68Z" fill="#EBEBEB"/>
<path d="M220.969 272.447H203.147V272.622H220.969V272.447Z" fill="#EBEBEB"/>
<path d="M318.808 276.234H276.577V276.409H318.808V276.234Z" fill="#EBEBEB"/>
<path d="M199.353 272.531H155.722V272.706H199.353V272.531Z" fill="#EBEBEB"/>
<path d="M127.428 277.767H118.3V277.942H127.428V277.767Z" fill="#EBEBEB"/>
<path d="M177.863 277.767H136.297V277.942H177.863V277.767Z" fill="#EBEBEB"/>
<path d="M63.637 274.813H36.722V274.988H63.637V274.813Z" fill="#EBEBEB"/>
<path d="M165.9 236.46H30.737C29.6782 236.458 28.6633 236.036 27.9152 235.287C27.1672 234.537 26.747 233.522 26.747 232.463V42.462C26.7562 41.4092 27.1804 40.4026 27.9275 39.6608C28.6746 38.9189 29.6842 38.5018 30.737 38.5H165.9C166.96 38.5 167.977 38.9211 168.726 39.6707C169.476 40.4203 169.897 41.4369 169.897 42.497V232.463C169.897 233.523 169.476 234.54 168.726 235.289C167.977 236.039 166.96 236.46 165.9 236.46ZM30.737 38.64C29.7246 38.6419 28.7542 39.0453 28.039 39.7619C27.3237 40.4785 26.922 41.4496 26.922 42.462V232.463C26.922 233.475 27.3237 234.447 28.039 235.163C28.7542 235.88 29.7246 236.283 30.737 236.285H165.9C166.913 236.283 167.884 235.88 168.601 235.164C169.317 234.447 169.72 233.476 169.722 232.463V42.462C169.72 41.4489 169.317 40.4778 168.601 39.7615C167.884 39.0451 166.913 38.6419 165.9 38.64H30.737Z" fill="#EBEBEB"/>
<path d="M317.317 236.46H182.147C181.087 236.458 180.072 236.036 179.323 235.287C178.574 234.538 178.152 233.522 178.15 232.463V42.462C178.161 41.4086 178.587 40.402 179.335 39.6603C180.083 38.9187 181.094 38.5018 182.147 38.5H317.317C318.369 38.5036 319.376 38.9216 320.122 39.6632C320.868 40.4048 321.291 41.4104 321.3 42.462V232.463C321.3 233.521 320.881 234.535 320.134 235.284C319.388 236.034 318.375 236.456 317.317 236.46ZM182.147 38.64C181.134 38.6419 180.163 39.0451 179.446 39.7615C178.73 40.4778 178.327 41.4489 178.325 42.462V232.463C178.327 233.476 178.73 234.447 179.446 235.164C180.163 235.88 181.134 236.283 182.147 236.285H317.317C318.33 236.283 319.301 235.88 320.018 235.164C320.734 234.447 321.137 233.476 321.139 232.463V42.462C321.137 41.4489 320.734 40.4778 320.018 39.7615C319.301 39.0451 318.33 38.6419 317.317 38.64H182.147Z" fill="#EBEBEB"/>
<path d="M137.172 206.969H90.692L87.871 174.419H134.351L137.172 206.969Z" fill="#E6E6E6"/>
<path d="M139.58 206.969H93.1L90.279 174.419H136.759L139.58 206.969Z" fill="#F0F0F0"/>
<path d="M99.456 199.976L97.902 181.405H130.403L131.957 199.976H99.456Z" fill="white"/>
<path d="M147.623 206.969H142.17V267.68H147.623V206.969Z" fill="#E6E6E6"/>
<path d="M149.345 206.969H145.558V267.68H149.345V206.969Z" fill="#F0F0F0"/>
<path d="M96.558 213.668H149.345V206.969H96.558V213.668Z" fill="#F0F0F0"/>
<path d="M98.42 213.668H92.967V267.68H98.42V213.668Z" fill="#E6E6E6"/>
<path d="M100.142 213.668H96.355V267.68H100.142V213.668Z" fill="#F0F0F0"/>
<path d="M59.605 213.668H54.152V267.68H59.605V213.668Z" fill="#E6E6E6"/>
<path d="M61.327 213.668H57.54V267.68H61.327V213.668Z" fill="#F0F0F0"/>
<path d="M113.113 213.668H107.66V267.68H113.113V213.668Z" fill="#E6E6E6"/>
<path d="M114.828 213.668H111.041V267.68H114.828V213.668Z" fill="#F0F0F0"/>
<path d="M96.558 206.969H54.152V213.668H96.558V206.969Z" fill="#E6E6E6"/>
<path d="M254.688 55.587H90.657V146.909H254.688V55.587Z" fill="#E0E0E0"/>
<path d="M263.697 55.587H91.483V146.909H263.697V55.587Z" fill="#F5F5F5"/>
<path d="M260.883 144.095V58.401L94.297 58.401V144.095H260.883Z" fill="white"/>
<path d="M161.749 144.095L193.2 58.401H141.295L109.844 144.095H161.749Z" fill="#F5F5F5"/>
<path d="M211.708 144.095L243.159 58.401H204.001L172.55 144.095H211.708Z" fill="#F5F5F5"/>
<path d="M306.677 180.46H292.733V267.68H306.677V180.46Z" fill="#E6E6E6"/>
<path d="M303.009 267.68H306.677V260.967H299.166L303.009 267.68Z" fill="#FAFAFA"/>
<path d="M178.115 180.46H164.171V267.68H178.115V180.46Z" fill="#E6E6E6"/>
<path d="M306.677 180.46H174.916V265.867H306.677V180.46Z" fill="#FAFAFA"/>
<path d="M304.185 208.019H177.415V183.897H304.185V208.019ZM178.115 207.319H303.485V184.597H178.115V207.319Z" fill="#E6E6E6"/>
<path d="M281.869 195.608H202.188C198.492 195.608 194.929 192.626 192.388 187.418L192.15 186.921H291.9L291.662 187.418C289.1 192.626 285.6 195.608 281.869 195.608ZM193.298 187.6C195.664 192.241 198.898 194.887 202.188 194.887H281.869C285.173 194.887 288.393 192.241 290.759 187.6H193.298Z" fill="#E6E6E6"/>
<path d="M178.584 267.68H174.916V260.967H182.427L178.584 267.68Z" fill="#FAFAFA"/>
<path d="M304.185 235.2H177.415V211.106H304.185V235.2ZM178.115 234.5H303.485V211.806H178.115V234.5Z" fill="#E6E6E6"/>
<path d="M281.869 222.817H202.188C198.492 222.817 194.929 219.828 192.388 214.627L192.15 214.123H291.9L291.662 214.627C289.1 219.8 285.6 222.817 281.869 222.817ZM193.298 214.823C195.664 219.464 198.898 222.117 202.188 222.117H281.869C285.173 222.117 288.393 219.464 290.759 214.823H193.298Z" fill="#E6E6E6"/>
<path d="M304.185 262.43H177.415V238.308H304.185V262.43ZM178.115 261.73H303.485V239.008H178.115V261.73Z" fill="#E6E6E6"/>
<path d="M281.869 250.019H202.188C198.492 250.019 194.929 247.037 192.388 241.836L192.15 241.332H291.9L291.662 241.836C289.1 247.037 285.6 250.019 281.869 250.019ZM193.298 242.032C195.664 246.673 198.898 249.319 202.188 249.319H281.869C285.173 249.319 288.393 246.673 290.759 242.032H193.298Z" fill="#E6E6E6"/>
<path d="M84.686 191.996V193.69H83.608L82.712 206.969H69.524L68.635 193.69H67.55V191.996H84.686Z" fill="#E6E6E6"/>
<path d="M80.346 159.047C79.268 151.137 68.593 148.883 55.048 148.589C42.161 148.316 38.031 143.759 38.031 143.759C38.031 143.759 38.073 162.218 56.644 168.91C74.277 175.252 81.431 166.971 80.346 159.047Z" fill="#E6E6E6"/>
<path d="M73.766 176.974C73.99 173.726 79.184 167.748 91.679 170.464C100.709 172.431 104.069 167.748 104.069 167.748C104.069 167.748 103.229 180.964 89.649 184.933C76.748 188.706 73.367 182.7 73.766 176.974Z" fill="#E6E6E6"/>
<path d="M76.615 196.98C76.6853 196.981 76.755 196.966 76.819 196.937C76.8831 196.908 76.9401 196.865 76.986 196.812C77.889 195.741 77.147 193.179 76.125 189.63C74.809 185.08 73.171 179.41 74.557 175.301C75.3252 173.131 76.2228 171.008 77.245 168.945C79.205 164.801 80.899 161.245 79.485 157.479C79.4629 157.419 79.4292 157.364 79.3858 157.317C79.3423 157.271 79.2901 157.233 79.232 157.206C79.1739 157.18 79.1111 157.165 79.0473 157.163C78.9835 157.161 78.9199 157.172 78.8602 157.194C78.8005 157.217 78.7459 157.251 78.6996 157.295C78.6532 157.339 78.616 157.392 78.5902 157.45C78.5643 157.508 78.5502 157.571 78.5488 157.635C78.5474 157.699 78.5587 157.763 78.582 157.822C79.849 161.175 78.316 164.423 76.37 168.539C75.3348 170.635 74.4233 172.79 73.64 174.993C72.163 179.389 73.843 185.22 75.194 189.896C75.992 192.696 76.818 195.496 76.251 196.196C76.206 196.244 76.1715 196.302 76.1498 196.364C76.1281 196.426 76.1196 196.492 76.1249 196.558C76.1301 196.624 76.149 196.688 76.1804 196.746C76.2117 196.804 76.2548 196.855 76.307 196.896C76.3964 196.96 76.5056 196.989 76.615 196.98Z" fill="#E6E6E6"/>
<path d="M175 299.292C249.958 299.292 310.723 295.744 310.723 291.368C310.723 286.992 249.958 283.444 175 283.444C100.042 283.444 39.277 286.992 39.277 291.368C39.277 295.744 100.042 299.292 175 299.292Z" fill="#F5F5F5"/>
<path d="M174.972 252.735H75.572L70.133 92.876H169.533L174.972 252.735Z" fill="#0065FF"/>
<path d="M179.935 247.772H80.535L75.089 87.913H174.489L179.935 247.772Z" fill="#0065FF"/>
<path opacity="0.3" d="M179.935 247.772H80.535L75.089 87.913H174.489L179.935 247.772Z" fill="white"/>
<path d="M146.631 153.695C157.274 142.868 156.821 125.165 145.619 114.153C134.418 103.142 116.71 102.992 106.067 113.819C95.4238 124.645 95.8765 142.348 107.078 153.36C118.28 164.371 135.988 164.521 146.631 153.695Z" fill="#0065FF"/>
<path d="M149.429 133.763C149.572 137.572 148.741 141.355 147.014 144.753C145.15 148.415 142.303 151.485 138.791 153.62C135.28 155.754 131.243 156.867 127.134 156.835C122.928 156.812 118.803 155.684 115.171 153.563C111.539 151.443 108.529 148.404 106.442 144.753C104.496 141.407 103.409 137.631 103.278 133.763C103.149 130.764 103.631 127.769 104.695 124.962C105.759 122.154 107.382 119.593 109.467 117.432C111.551 115.272 114.054 113.557 116.821 112.394C119.589 111.23 122.564 110.641 125.566 110.663C131.751 110.707 137.681 113.131 142.125 117.433C146.568 121.735 149.184 127.583 149.429 133.763Z" fill="white"/>
<path opacity="0.6" d="M147 144.753C145.136 148.415 142.289 151.485 138.777 153.62C135.266 155.754 131.229 156.867 127.12 156.835C122.914 156.812 118.789 155.684 115.157 153.563C111.525 151.443 108.515 148.404 106.428 144.753C112.348 140.717 119.353 138.571 126.518 138.6C133.798 138.616 140.916 140.754 147 144.753Z" fill="#0065FF"/>
<path opacity="0.6" d="M133.54 133.187C137.454 129.206 137.287 122.697 133.168 118.648C129.05 114.599 122.538 114.544 118.625 118.525C114.711 122.506 114.877 129.015 118.996 133.064C123.115 137.113 129.627 137.168 133.54 133.187Z" fill="#0065FF"/>
<path d="M159.964 189.882H96.558L96.131 177.282H159.537L159.964 189.882Z" fill="white"/>
<path d="M160.734 212.401H97.321L96.894 199.801H160.307L160.734 212.401Z" fill="white"/>
<path d="M136.262 201.537L120.981 203.637C120.835 203.654 120.694 203.7 120.567 203.774C120.441 203.847 120.33 203.947 120.243 204.065C120.157 204.183 120.095 204.318 120.063 204.461C120.031 204.605 120.029 204.753 120.057 204.897L122.066 215.138C122.132 215.439 122.308 215.704 122.559 215.881C122.81 216.059 123.119 216.136 123.424 216.097L138.705 213.997C138.85 213.979 138.991 213.931 139.117 213.856C139.243 213.781 139.352 213.681 139.438 213.562C139.524 213.444 139.585 213.308 139.617 213.165C139.648 213.022 139.65 212.874 139.622 212.73L137.62 202.489C137.554 202.189 137.378 201.925 137.127 201.748C136.875 201.572 136.566 201.497 136.262 201.537ZM131.873 211.911L129.073 212.282L128.8 208.978C128.511 208.853 128.257 208.661 128.059 208.417C127.86 208.174 127.723 207.886 127.659 207.578C127.608 207.34 127.607 207.093 127.657 206.854C127.706 206.616 127.806 206.39 127.948 206.192C128.091 205.994 128.273 205.828 128.484 205.705C128.694 205.582 128.929 205.505 129.171 205.478C129.668 205.414 130.171 205.539 130.581 205.828C130.99 206.117 131.277 206.549 131.383 207.039C131.444 207.335 131.425 207.641 131.329 207.928C131.233 208.214 131.064 208.47 130.837 208.67L131.873 211.911Z" fill="#0065FF"/>
<path d="M134.75 200.984C134.48 201.018 134.207 200.951 133.984 200.794C133.761 200.637 133.605 200.403 133.546 200.137L133.35 199.136C133.07 197.77 132.305 196.552 131.195 195.707C130.085 194.863 128.707 194.45 127.316 194.544C126.614 194.584 125.929 194.775 125.307 195.103C124.685 195.431 124.141 195.89 123.712 196.447C123.283 197.004 122.979 197.647 122.821 198.332C122.662 199.017 122.653 199.728 122.794 200.417L123.018 201.572C123.044 201.7 123.043 201.832 123.015 201.96C122.987 202.087 122.933 202.208 122.856 202.313C122.779 202.418 122.681 202.507 122.568 202.572C122.454 202.637 122.329 202.678 122.199 202.692C121.928 202.73 121.653 202.663 121.43 202.506C121.206 202.349 121.051 202.112 120.995 201.845L120.806 200.872C120.614 199.963 120.607 199.024 120.787 198.112C120.967 197.2 121.329 196.334 121.853 195.566C122.376 194.797 123.049 194.143 123.831 193.641C124.614 193.14 125.49 192.801 126.406 192.647C128.393 192.313 130.433 192.758 132.101 193.888C133.769 195.018 134.939 196.747 135.366 198.716L135.59 199.864C135.616 199.994 135.615 200.127 135.585 200.256C135.556 200.385 135.5 200.506 135.421 200.612C135.342 200.718 135.241 200.806 135.125 200.87C135.01 200.934 134.882 200.973 134.75 200.984Z" fill="#0065FF"/>
<path d="M150.269 230.048H108.99L108.717 221.844H149.989L150.269 230.048Z" fill="#0065FF"/>
<path d="M130.354 183.582C130.366 183.881 130.318 184.18 130.211 184.46C130.105 184.74 129.942 184.995 129.734 185.21C129.526 185.426 129.277 185.597 129 185.712C128.724 185.828 128.427 185.887 128.128 185.885C127.511 185.88 126.919 185.639 126.475 185.21C126.031 184.781 125.768 184.199 125.741 183.582C125.729 183.283 125.777 182.984 125.884 182.704C125.99 182.424 126.153 182.169 126.361 181.954C126.569 181.738 126.818 181.567 127.095 181.451C127.371 181.336 127.668 181.277 127.967 181.279C128.585 181.282 129.178 181.523 129.622 181.952C130.067 182.381 130.329 182.965 130.354 183.582Z" fill="#263238"/>
<path d="M120.4 183.582C120.413 183.881 120.365 184.181 120.259 184.461C120.153 184.741 119.991 184.997 119.783 185.213C119.574 185.428 119.324 185.599 119.048 185.715C118.771 185.83 118.474 185.888 118.174 185.885C117.557 185.88 116.966 185.638 116.523 185.21C116.08 184.781 115.819 184.198 115.794 183.582C115.782 183.283 115.83 182.984 115.937 182.704C116.043 182.424 116.205 182.169 116.414 181.954C116.622 181.738 116.871 181.567 117.148 181.451C117.424 181.336 117.721 181.277 118.02 181.279C118.637 181.282 119.229 181.523 119.672 181.953C120.116 182.382 120.377 182.965 120.4 183.582Z" fill="#263238"/>
<path d="M110.509 183.582C110.521 183.881 110.473 184.18 110.366 184.46C110.26 184.74 110.098 184.995 109.889 185.21C109.681 185.426 109.432 185.597 109.155 185.712C108.879 185.828 108.582 185.887 108.283 185.885C107.666 185.882 107.074 185.641 106.631 185.211C106.187 184.782 105.926 184.199 105.903 183.582C105.891 183.283 105.939 182.984 106.046 182.704C106.152 182.424 106.315 182.169 106.523 181.954C106.731 181.738 106.98 181.567 107.257 181.451C107.533 181.336 107.83 181.277 108.129 181.279C108.746 181.282 109.338 181.523 109.781 181.953C110.225 182.382 110.486 182.965 110.509 183.582Z" fill="#263238"/>
<path d="M140.273 183.582C140.285 183.881 140.237 184.18 140.13 184.46C140.024 184.74 139.861 184.995 139.653 185.21C139.445 185.426 139.196 185.597 138.919 185.712C138.643 185.828 138.346 185.887 138.047 185.885C137.43 185.882 136.838 185.641 136.395 185.211C135.951 184.782 135.69 184.199 135.667 183.582C135.657 183.284 135.707 182.986 135.815 182.708C135.923 182.43 136.086 182.176 136.295 181.963C136.503 181.749 136.753 181.581 137.029 181.467C137.305 181.353 137.601 181.296 137.9 181.3C138.512 181.305 139.1 181.544 139.541 181.968C139.982 182.393 140.244 182.97 140.273 183.582Z" fill="#263238"/>
<path d="M150.192 183.582C150.205 183.881 150.157 184.181 150.051 184.461C149.945 184.741 149.783 184.997 149.575 185.213C149.366 185.428 149.116 185.599 148.84 185.715C148.563 185.83 148.266 185.888 147.966 185.885C147.349 185.88 146.758 185.638 146.315 185.21C145.872 184.781 145.611 184.198 145.586 183.582C145.574 183.283 145.622 182.984 145.729 182.704C145.835 182.424 145.997 182.169 146.206 181.954C146.414 181.738 146.663 181.567 146.94 181.451C147.216 181.336 147.513 181.277 147.812 181.279C148.429 181.282 149.021 181.523 149.464 181.953C149.908 182.382 150.169 182.965 150.192 183.582Z" fill="#263238"/>
<path d="M233.737 121.996C234.668 123.494 235.445 124.922 236.243 126.413C237.041 127.904 237.762 129.402 238.469 130.935C239.912 134.039 241.105 137.253 242.039 140.546C242.165 140.959 242.256 141.4 242.361 141.827L242.515 142.478L242.592 142.8L242.683 143.332C242.841 144.539 242.767 145.765 242.466 146.944C241.983 148.775 241.248 150.53 240.282 152.159C238.555 155.119 236.467 157.854 234.066 160.3L231.119 158.074C232.598 155.355 233.914 152.55 235.06 149.674C235.57 148.407 235.93 147.084 236.131 145.733C236.195 145.32 236.176 144.899 236.075 144.494L235.795 143.64C235.683 143.29 235.578 142.94 235.445 142.583C234.38 139.695 233.149 136.872 231.756 134.127C230.356 131.327 228.851 128.527 227.346 125.853L233.737 121.996Z" fill="#FF8B7B"/>
<path d="M231.868 157.101L228.648 158.802L232.344 163.128C232.344 163.128 234.654 161.567 234.759 159.187L231.868 157.101Z" fill="#FF8B7B"/>
<path d="M224.329 161.469L228.284 164.612L232.344 163.128L228.648 158.802L224.329 161.469Z" fill="#FF8B7B"/>
<path d="M210.805 99.092C210.728 99.484 210.455 99.757 210.203 99.708C209.951 99.659 209.804 99.295 209.881 98.91C209.958 98.525 210.231 98.21 210.49 98.294C210.749 98.378 210.882 98.7 210.805 99.092Z" fill="#263238"/>
<path d="M210.49 99.764C209.785 100.86 208.932 101.854 207.956 102.718C208.187 102.957 208.466 103.143 208.775 103.264C209.085 103.385 209.417 103.437 209.748 103.418L210.49 99.764Z" fill="#FF5652"/>
<path d="M209.23 113.498V108.906L215.306 109.606C215.306 109.606 215.208 113.554 211.806 114.716L209.23 113.498Z" fill="#FF8B7B"/>
<path d="M210.98 105.602L215.257 106.834L215.334 109.641L209.258 108.906L210.98 105.602Z" fill="#FF8B7B"/>
<path opacity="0.2" d="M215.257 106.834L210.98 105.602L210.147 107.198C210.192 108.456 210.585 109.676 211.282 110.724C211.979 111.772 212.953 112.606 214.095 113.134C214.83 112.108 215.259 110.894 215.334 109.634L215.257 106.834Z" fill="black"/>
<path d="M212.667 97.223C212.712 97.2218 212.755 97.2079 212.793 97.183C212.83 97.1581 212.86 97.1231 212.878 97.0821C212.896 97.0411 212.903 96.9958 212.896 96.9514C212.89 96.9069 212.871 96.8652 212.842 96.831C212.596 96.5533 212.287 96.3385 211.941 96.2046C211.596 96.0706 211.223 96.0214 210.854 96.061C210.794 96.0713 210.74 96.105 210.704 96.1549C210.669 96.2048 210.655 96.2667 210.665 96.327C210.675 96.3877 210.709 96.4421 210.758 96.4787C210.808 96.5152 210.87 96.5311 210.931 96.523C211.223 96.4943 211.518 96.5359 211.791 96.6443C212.063 96.7527 212.306 96.9247 212.499 97.146C212.52 97.1694 212.546 97.1882 212.575 97.2015C212.604 97.2147 212.635 97.222 212.667 97.223Z" fill="#263238"/>
<path d="M221.613 106.176C220.913 109.781 220.479 114.772 223.013 117.173C223.013 117.173 222.033 120.827 215.313 120.827C207.956 120.827 211.778 117.621 211.778 117.621C214.837 116.669 214.809 113.19 214.109 110.39L221.613 106.176Z" fill="#FF8B7B"/>
<path d="M224.378 119.581C225.036 118.657 225.008 115.724 224.308 115.206C223.181 114.373 218.344 114.177 211.841 115.675C212.541 118.517 211.036 120.001 211.036 120.001L224.378 119.581Z" fill="#0065FF"/>
<path d="M246.26 285.768C246.06 285.838 245.848 285.868 245.637 285.856C245.426 285.844 245.219 285.791 245.028 285.698C244.956 285.631 244.906 285.543 244.886 285.446C244.866 285.35 244.877 285.249 244.916 285.159C244.938 285.083 244.976 285.013 245.028 284.954C245.08 284.895 245.145 284.848 245.217 284.816C245.882 284.494 247.408 285.117 247.478 285.145C247.499 285.153 247.517 285.168 247.529 285.187C247.542 285.205 247.548 285.228 247.548 285.25C247.548 285.273 247.542 285.295 247.531 285.314C247.52 285.334 247.504 285.35 247.485 285.362C247.09 285.535 246.68 285.671 246.26 285.768ZM245.455 284.977C245.409 284.988 245.364 285.004 245.322 285.026C245.278 285.042 245.239 285.068 245.207 285.102C245.176 285.136 245.153 285.177 245.14 285.222C245.077 285.432 245.14 285.502 245.182 285.523C245.448 285.747 246.428 285.523 247.121 285.264C246.594 285.046 246.025 284.948 245.455 284.977Z" fill="#0065FF"/>
<path d="M247.457 285.369H247.401C246.841 285.208 245.651 284.361 245.637 283.808C245.637 283.72 245.666 283.635 245.721 283.566C245.776 283.497 245.852 283.449 245.938 283.43C246.021 283.399 246.11 283.387 246.198 283.394C246.287 283.401 246.372 283.428 246.449 283.472C247.107 283.808 247.527 285.166 247.541 285.229C247.551 285.246 247.556 285.265 247.556 285.285C247.556 285.305 247.551 285.324 247.541 285.341C247.53 285.352 247.517 285.36 247.502 285.365C247.488 285.37 247.472 285.371 247.457 285.369ZM246.057 283.626H246.001C245.861 283.675 245.861 283.745 245.861 283.78C245.861 284.109 246.659 284.774 247.261 285.04C247.114 284.648 246.792 283.871 246.365 283.64C246.27 283.597 246.162 283.592 246.064 283.626H246.057Z" fill="#0065FF"/>
<path d="M209.902 286.594C209.272 286.594 208.663 286.503 208.46 286.223C208.407 286.148 208.378 286.059 208.378 285.968C208.378 285.876 208.407 285.787 208.46 285.712C208.5 285.644 208.553 285.584 208.617 285.537C208.681 285.49 208.754 285.457 208.831 285.439C209.65 285.215 211.372 286.195 211.442 286.237C211.463 286.248 211.481 286.265 211.491 286.287C211.501 286.308 211.504 286.333 211.498 286.356C211.495 286.38 211.485 286.402 211.469 286.42C211.452 286.438 211.431 286.45 211.407 286.454C210.91 286.545 210.407 286.592 209.902 286.594ZM209.125 285.635C209.051 285.623 208.975 285.623 208.901 285.635C208.854 285.645 208.809 285.664 208.769 285.692C208.729 285.719 208.696 285.755 208.67 285.796C208.586 285.943 208.621 286.013 208.67 286.055C208.901 286.377 210.14 286.384 211.057 286.251C210.458 285.924 209.803 285.715 209.125 285.635Z" fill="#0065FF"/>
<path d="M211.4 286.454H211.351C210.756 286.188 209.58 285.124 209.671 284.564C209.671 284.431 209.783 284.27 210.105 284.242C210.22 284.229 210.337 284.239 210.448 284.273C210.558 284.306 210.661 284.363 210.749 284.438C211.198 284.974 211.467 285.638 211.519 286.335C211.519 286.355 211.514 286.375 211.506 286.393C211.497 286.411 211.485 286.427 211.47 286.44C211.448 286.451 211.424 286.456 211.4 286.454ZM210.196 284.459H210.126C209.916 284.459 209.902 284.557 209.902 284.585C209.846 284.921 210.644 285.761 211.253 286.125C211.2 285.563 210.972 285.032 210.602 284.606C210.487 284.508 210.34 284.456 210.189 284.459H210.196Z" fill="#0065FF"/>
<path d="M216.804 286.342H211.883L211.393 274.939H216.314L216.804 286.342Z" fill="#FF8B7B"/>
<path d="M252.945 284.06L248.136 285.103L243.299 274.484L248.115 273.441L252.945 284.06Z" fill="#FF8B7B"/>
<path d="M247.667 284.62L253.078 283.451C253.173 283.431 253.271 283.444 253.358 283.487C253.444 283.53 253.513 283.601 253.554 283.689L255.43 287.763C255.48 287.862 255.506 287.971 255.505 288.081C255.505 288.192 255.479 288.301 255.428 288.399C255.378 288.497 255.304 288.582 255.215 288.647C255.125 288.712 255.021 288.754 254.912 288.771C253.022 289.142 252.077 289.233 249.704 289.744C248.241 290.066 244.937 290.871 242.914 291.305C240.891 291.739 240.198 289.8 240.989 289.443C244.524 287.826 245.994 286.405 246.953 285.082C247.126 284.846 247.38 284.681 247.667 284.62Z" fill="#263238"/>
<path d="M211.918 285.768H217.294C217.392 285.769 217.486 285.802 217.562 285.863C217.639 285.924 217.692 286.009 217.714 286.104L218.687 290.479C218.716 290.585 218.719 290.696 218.697 290.803C218.675 290.91 218.628 291.011 218.56 291.097C218.491 291.182 218.404 291.251 218.305 291.297C218.205 291.343 218.096 291.365 217.987 291.361C216.048 291.326 213.248 291.214 210.812 291.214C207.956 291.214 205.499 291.368 202.153 291.368C200.13 291.368 199.57 289.324 200.417 289.135C204.267 288.295 207.417 288.204 210.742 286.153C211.091 285.919 211.498 285.786 211.918 285.768Z" fill="#263238"/>
<path d="M231.819 118.3C236.432 119.357 240.219 131.138 240.219 131.138L231 138.187C228.607 135.629 226.919 132.493 226.1 129.087C224.469 122.913 227.101 117.208 231.819 118.3Z" fill="#0065FF"/>
<path opacity="0.4" d="M231.819 118.3C236.432 119.357 240.219 131.138 240.219 131.138L231 138.187C228.607 135.629 226.919 132.493 226.1 129.087C224.469 122.913 227.101 117.208 231.819 118.3Z" fill="black"/>
<path d="M207.55 132.349C206.402 133.588 205.254 134.694 204.05 135.849C203.455 136.409 202.853 136.969 202.237 137.508L201.306 138.327L201.075 138.53L200.676 138.852C200.265 139.18 199.811 139.449 199.325 139.65C198.785 139.879 198.204 139.998 197.617 140C197.115 140.002 196.618 139.914 196.147 139.741C195.625 139.542 195.149 139.24 194.747 138.852C194.234 138.351 193.858 137.727 193.655 137.039C193.549 136.7 193.481 136.35 193.452 135.996C193.415 135.581 193.415 135.165 193.452 134.75C193.487 134.414 193.529 134.12 193.585 133.847C193.777 132.893 194.048 131.956 194.397 131.047C194.712 130.183 195.074 129.337 195.482 128.513C195.93 127.624 196.357 126.973 196.784 126.231C198.518 123.39 200.498 120.706 202.699 118.209C204.878 115.727 207.28 113.45 209.874 111.405L212.45 114.058C210.644 116.48 208.866 119.077 207.221 121.632C205.584 124.173 204.088 126.802 202.741 129.507C202.44 130.165 202.041 130.907 201.852 131.439C201.602 132.057 201.384 132.688 201.201 133.329C201.025 133.906 200.891 134.496 200.802 135.093C200.797 135.186 200.797 135.28 200.802 135.373C200.802 135.429 200.802 135.457 200.802 135.31C200.79 135.153 200.76 134.998 200.711 134.848C200.56 134.352 200.282 133.903 199.906 133.546C199.571 133.238 199.179 133 198.751 132.846C198.375 132.704 197.977 132.63 197.575 132.629C197.189 132.624 196.805 132.698 196.448 132.846C196.327 132.895 196.21 132.954 196.098 133.021L196.364 132.776L197.211 132.006L198.884 130.438C199.99 129.395 201.103 128.282 202.153 127.246L207.55 132.349Z" fill="#FF8B7B"/>
<path opacity="0.2" d="M227.864 126.952C230.37 129.43 231.189 133.952 231.364 137.872L230.958 138.187C228.565 135.629 226.877 132.493 226.058 129.087C225.967 128.723 225.883 128.387 225.82 127.988L227.864 126.952Z" fill="black"/>
<path d="M202.657 123.2C201.649 128.52 201.019 139.447 203.938 161.077H230.3C230.482 157.038 227.941 137.312 231.84 118.265C228.927 117.706 225.981 117.334 223.02 117.152C219.29 116.938 215.55 116.938 211.82 117.152C210.588 117.264 209.37 117.446 208.32 117.635C206.924 117.88 205.634 118.543 204.623 119.537C203.612 120.531 202.926 121.808 202.657 123.2Z" fill="#0065FF"/>
<path opacity="0.4" d="M202.657 123.2C201.649 128.52 201.019 139.447 203.938 161.077H230.3C230.482 157.038 227.941 137.312 231.84 118.265C228.927 117.706 225.981 117.334 223.02 117.152C219.29 116.938 215.55 116.938 211.82 117.152C210.588 117.264 209.37 117.446 208.32 117.635C206.924 117.88 205.634 118.543 204.623 119.537C203.612 120.531 202.926 121.808 202.657 123.2Z" fill="black"/>
<path opacity="0.2" d="M206.689 131.089L201.929 129.948C201.782 132.832 201.768 136.402 201.978 140.819C204.169 138.327 206.969 134.435 206.689 131.089Z" fill="black"/>
<path opacity="0.2" d="M211.393 274.939L211.645 280.819H216.573L216.321 274.939H211.393Z" fill="black"/>
<path opacity="0.2" d="M248.115 273.441L243.299 274.484L245.791 279.958L250.607 278.915L248.115 273.441Z" fill="black"/>
<path d="M223.951 100.912C222.691 105.63 222.187 108.458 219.275 110.418C214.9 113.4 209.44 109.984 209.3 105C209.146 100.499 211.239 93.534 216.3 92.582C217.412 92.3733 218.559 92.4512 219.633 92.8084C220.707 93.1656 221.672 93.7904 222.437 94.6238C223.203 95.4572 223.743 96.4718 224.008 97.5719C224.273 98.6721 224.253 99.8216 223.951 100.912Z" fill="#FF8B7B"/>
<path d="M212.905 101.087C212.667 100.457 211.582 95.578 212.604 94.311C213.626 93.044 225.281 93.961 227.003 95.655C229.866 98.455 227.878 100.975 224.749 104.216C222.397 106.652 222.306 109.396 221.116 109.816C219.016 110.516 215.81 109.858 215.166 107.639C214.522 105.42 212.905 101.087 212.905 101.087Z" fill="#263238"/>
<path d="M225.589 90.104C221.473 88.354 213.752 90.293 209.58 89.285C209.527 90.8363 210.037 92.3544 211.016 93.5588C211.995 94.7632 213.378 95.5724 214.907 95.837C218.368 96.4965 221.884 96.8224 225.407 96.81C229.985 96.6 229.089 91.595 225.589 90.104Z" fill="#263238"/>
<path d="M226.233 95.802C227.737 95.9499 229.251 95.6607 230.594 94.969C231.364 96.831 227.129 97.342 226.233 95.802Z" fill="#263238"/>
<path d="M215.145 101.283C215.05 102.497 214.558 103.646 213.745 104.552C212.667 105.735 211.547 104.993 211.358 103.558C211.19 102.256 211.54 100.058 212.856 99.428C214.172 98.798 215.236 99.82 215.145 101.283Z" fill="#FF8B7B"/>
<path d="M213.283 161.098C213.283 161.098 218.883 198.723 221.942 212.821C225.295 228.256 243.313 279.321 243.313 279.321L252.126 277.41C252.126 277.41 239.526 235.788 236.726 214.207C234.556 197.631 230.293 161.084 230.293 161.084L213.283 161.098Z" fill="#0065FF"/>
<path d="M241.199 276.388C241.164 276.388 242.844 279.58 242.844 279.58L252.756 277.431L251.923 274.449L241.199 276.388Z" fill="#263238"/>
<path opacity="0.3" d="M216.818 174.503C223.279 175.77 222.593 199.864 221.816 212.261C219.954 203.497 217.224 186.641 215.362 174.678C215.813 174.455 216.327 174.393 216.818 174.503Z" fill="black"/>
<path d="M203.938 161.098C203.938 161.098 203.238 197.911 203.798 212.898C204.358 228.515 209.811 279.65 209.811 279.65H218.155C218.155 279.65 218.456 229.425 218.855 214.088C219.261 197.372 221.277 161.07 221.277 161.07L203.938 161.098Z" fill="#0065FF"/>
<path d="M208.208 276.36C208.166 276.36 208.677 279.818 208.677 279.818H218.82L219.1 276.731L208.208 276.36Z" fill="#263238"/>
<path d="M212.975 124.838C215.334 131.201 201.467 138.698 201.467 138.698L195.461 130.998C195.461 130.998 199.5 123.004 204.4 119.406C210.455 114.968 211.176 119.994 212.975 124.838Z" fill="#0065FF"/>
<path opacity="0.4" d="M212.975 124.838C215.334 131.201 201.467 138.698 201.467 138.698L195.461 130.998C195.461 130.998 199.5 123.004 204.4 119.406C210.455 114.968 211.176 119.994 212.975 124.838Z" fill="black"/>
<path d="M267.309 76.531C281.261 76.531 292.572 69.3228 292.572 60.431C292.572 51.5392 281.261 44.331 267.309 44.331C253.357 44.331 242.046 51.5392 242.046 60.431C242.046 69.3228 253.357 76.531 267.309 76.531Z" fill="#0065FF"/>
<path d="M258.195 68.537C256.531 68.5316 254.922 67.9399 253.65 66.8658C252.379 65.7917 251.527 64.304 251.244 62.664C250.966 60.8876 251.366 59.0714 252.366 57.5771C253.366 56.0828 254.893 55.0199 256.641 54.6C258.076 54.2694 259.578 54.3968 260.937 54.9644C262.295 55.5319 263.442 56.511 264.215 57.764L280.434 54.418C281.057 54.2815 281.709 54.3851 282.259 54.7083C282.81 55.0314 283.218 55.5502 283.402 56.161C283.487 56.4821 283.505 56.8172 283.456 57.1458C283.407 57.4743 283.292 57.7894 283.117 58.0718C282.942 58.3542 282.711 58.5979 282.439 58.7881C282.167 58.9783 281.858 59.111 281.533 59.178L281.113 59.262C281.051 59.2732 280.992 59.2986 280.941 59.3362C280.89 59.3738 280.848 59.4227 280.819 59.479C280.793 59.5362 280.78 59.5982 280.78 59.661C280.78 59.7238 280.793 59.7858 280.819 59.843L281.106 60.585C281.202 60.8255 281.211 61.092 281.132 61.3386C281.053 61.5852 280.89 61.7965 280.672 61.936C280.5 62.0423 280.354 62.1865 280.246 62.3575C280.139 62.5285 280.071 62.7219 280.049 62.923C280.028 63.1538 279.935 63.3721 279.783 63.5468C279.631 63.7216 279.428 63.8438 279.202 63.896L278.873 63.966C278.645 64.0081 278.409 63.9766 278.201 63.8759C277.992 63.7752 277.82 63.6106 277.711 63.406C277.566 63.1618 277.348 62.9691 277.088 62.8547C276.828 62.7402 276.539 62.7098 276.26 62.7676C275.982 62.8254 275.729 62.9685 275.536 63.1771C275.343 63.3856 275.22 63.6492 275.184 63.931C275.165 64.1603 275.073 64.3774 274.922 64.5511C274.771 64.7247 274.568 64.8459 274.344 64.897L274.015 64.967C273.787 65.008 273.552 64.976 273.343 64.8754C273.135 64.7748 272.963 64.6109 272.853 64.407C272.748 64.2334 272.607 64.0846 272.439 63.971C272.271 63.8574 272.08 63.7816 271.88 63.749C271.611 63.7166 271.363 63.5871 271.182 63.3847C271.002 63.1824 270.901 62.9211 270.9 62.65V61.852C270.897 61.7896 270.881 61.7285 270.852 61.6729C270.824 61.6174 270.783 61.5687 270.734 61.5301C270.685 61.4916 270.628 61.4641 270.567 61.4496C270.507 61.4351 270.443 61.4338 270.382 61.446L265.209 62.51C264.998 63.9431 264.351 65.2765 263.355 66.3286C262.359 67.3807 261.063 68.1005 259.644 68.39C259.167 68.4875 258.682 68.5367 258.195 68.537ZM256.795 55.237C255.207 55.6079 253.819 56.5665 252.91 57.9199C252.001 59.2733 251.638 60.9209 251.895 62.531C252.17 64.0289 252.973 65.3788 254.157 66.3366C255.341 67.2943 256.829 67.7966 258.351 67.7527C259.873 67.7087 261.33 67.1213 262.457 66.0968C263.584 65.0723 264.307 63.6783 264.495 62.167V61.915L270.2 60.76C270.364 60.7204 270.534 60.7178 270.699 60.7522C270.864 60.7867 271.019 60.8575 271.153 60.9593C271.287 61.0612 271.397 61.1917 271.474 61.3412C271.551 61.4908 271.594 61.6557 271.6 61.824V62.622C271.602 62.717 271.636 62.8086 271.697 62.8812C271.758 62.9539 271.843 63.0033 271.936 63.021C272.242 63.0648 272.534 63.1777 272.79 63.3512C273.046 63.5246 273.259 63.754 273.413 64.022C273.45 64.0975 273.51 64.1597 273.584 64.1998C273.658 64.2399 273.742 64.2561 273.826 64.246L274.148 64.176C274.23 64.155 274.302 64.1082 274.355 64.0427C274.408 63.9771 274.439 63.8962 274.442 63.812C274.486 63.3762 274.668 62.9658 274.96 62.64C275.253 62.3141 275.642 62.0898 276.07 61.9994C276.499 61.9091 276.945 61.9573 277.344 62.1371C277.744 62.317 278.076 62.6192 278.292 63C278.328 63.075 278.386 63.1369 278.459 63.177C278.532 63.2172 278.615 63.2336 278.698 63.224L279.034 63.154C279.114 63.1317 279.185 63.0844 279.237 63.019C279.289 62.9535 279.318 62.8733 279.321 62.79C279.356 62.4827 279.46 62.1873 279.626 61.9265C279.792 61.6656 280.016 61.4462 280.28 61.285C280.357 61.2294 280.413 61.1496 280.44 61.0583C280.467 60.967 280.462 60.8694 280.427 60.781L280.14 60.039C280.081 59.886 280.055 59.7219 280.066 59.5582C280.077 59.3945 280.123 59.2351 280.202 59.0911C280.28 58.9471 280.389 58.822 280.522 58.7246C280.654 58.6271 280.805 58.5597 280.966 58.527L281.393 58.436C281.624 58.3867 281.843 58.2913 282.036 58.1556C282.23 58.0198 282.394 57.8464 282.518 57.6458C282.643 57.4451 282.726 57.2214 282.763 56.9879C282.799 56.7545 282.788 56.5161 282.73 56.287C282.593 55.8465 282.295 55.4739 281.895 55.2441C281.495 55.0143 281.023 54.9442 280.574 55.048L263.9 58.513L263.774 58.296C263.104 57.1034 262.064 56.1612 260.811 55.6119C259.559 55.0625 258.161 54.9359 256.83 55.251L256.795 55.237ZM258.195 65.933C257.326 65.9427 256.472 65.6995 255.738 65.233C254.87 64.6631 254.226 63.8098 253.917 62.8186C253.608 61.8273 253.652 60.7595 254.042 59.7971C254.432 58.8347 255.144 58.0374 256.056 57.541C256.968 57.0446 258.024 56.8799 259.043 57.075C260.063 57.2701 260.984 57.8128 261.649 58.6108C262.313 59.4087 262.68 60.4124 262.687 61.4507C262.695 62.4891 262.342 63.4978 261.688 64.305C261.035 65.1121 260.122 65.6677 259.105 65.877C258.807 65.9309 258.505 65.9544 258.202 65.947L258.195 65.933ZM258.195 57.666C257.934 57.6675 257.674 57.6933 257.418 57.743C256.93 57.8469 256.468 58.0458 256.057 58.3284C255.646 58.611 255.295 58.9717 255.024 59.39C254.752 59.8083 254.566 60.2759 254.475 60.7662C254.385 61.2565 254.392 61.7598 254.496 62.2475C254.599 62.7352 254.798 63.1976 255.081 63.6084C255.363 64.0192 255.724 64.3703 256.142 64.6417C256.561 64.913 257.028 65.0994 257.519 65.19C258.009 65.2807 258.512 65.2739 259 65.17C259.732 65.0176 260.403 64.6519 260.927 64.1189C261.452 63.586 261.807 62.9097 261.948 62.1753C262.088 61.4408 262.008 60.6812 261.718 59.9921C261.428 59.303 260.94 58.7153 260.316 58.303C259.696 57.8908 258.967 57.6738 258.223 57.68L258.195 57.666Z" fill="white"/>
<path opacity="0.6" d="M246.75 85.974C251.335 85.974 255.052 83.6047 255.052 80.682C255.052 77.7593 251.335 75.39 246.75 75.39C242.165 75.39 238.448 77.7593 238.448 80.682C238.448 83.6047 242.165 85.974 246.75 85.974Z" fill="#0065FF"/>
<path opacity="0.3" d="M233.541 88.144C235.424 88.144 236.95 87.1724 236.95 85.974C236.95 84.7755 235.424 83.804 233.541 83.804C231.658 83.804 230.132 84.7755 230.132 85.974C230.132 87.1724 231.658 88.144 233.541 88.144Z" fill="#0065FF"/>
</svg>
