<svg width="24" height="23" viewBox="0 0 24 23" fill="none" xmlns="http://www.w3.org/2000/svg">
<path d="M15.0619 19C15.062 19.5046 14.8715 19.9906 14.5284 20.3605C14.1853 20.7305 13.715 20.9572 13.2119 20.995L13.0619 21H11.0619C10.5573 21.0002 10.0713 20.8096 9.70131 20.4665C9.33133 20.1234 9.1047 19.6532 9.06686 19.15L9.06186 19H15.0619ZM12.0619 2C13.8768 1.99997 15.6209 2.70489 16.9261 3.96607C18.2313 5.22726 18.9956 6.94609 19.0579 8.76L19.0619 9V12.764L20.8839 16.408C20.9634 16.567 21.0032 16.7429 20.9998 16.9206C20.9965 17.0984 20.9501 17.2727 20.8647 17.4286C20.7793 17.5845 20.6574 17.7174 20.5093 17.8158C20.3613 17.9143 20.1917 17.9754 20.0149 17.994L19.8999 18H4.22386C4.04602 18.0001 3.87083 17.957 3.71328 17.8745C3.55574 17.792 3.42054 17.6725 3.31928 17.5264C3.21802 17.3802 3.15371 17.2116 3.13186 17.0351C3.11002 16.8586 3.13129 16.6795 3.19386 16.513L3.23986 16.408L5.06186 12.764V9C5.06186 7.14348 5.79936 5.36301 7.11211 4.05025C8.42487 2.7375 10.2053 2 12.0619 2Z" fill="#071225"/>
</svg>
