<svg width="180" height="180" viewBox="0 0 180 180" fill="none" xmlns="http://www.w3.org/2000/svg">
<g clip-path="url(#clip0_102_2130)">
<path d="M180 40.8001C180 50.6075 169.998 58.558 157.659 58.558C145.321 58.558 135.318 50.6075 135.318 40.8001C135.318 30.9927 145.321 23.0422 157.659 23.0422C169.998 23.0422 180 30.9927 180 40.8001Z" fill="#0065FF"/>
<path d="M114.538 85.0453L22.61 84.8375C20.0442 84.8317 17.7949 86.5513 17.1276 89.0288C16.3993 91.7323 17.7556 94.5623 20.3191 95.6884L53.4221 110.229C62.3612 114.156 66.1443 124.803 61.6871 133.489L42.1258 171.613C39.9087 175.934 34.2761 177.118 30.507 174.055C27.6379 171.724 26.8491 167.673 28.6338 164.435L45.1339 134.502C47.8223 129.625 45.8659 123.491 40.8502 121.071L10.9649 106.651C4.26086 103.417 0 96.6301 0 89.1864C0 78.3879 8.82111 69.6696 19.6189 69.7962L72.3044 70.414L114.445 69.8037C118.696 69.7421 122.176 73.1719 122.176 77.4241C122.176 81.6399 118.754 85.0548 114.538 85.0453Z" fill="#071225"/>
<path d="M109.77 62.2831L7.64321 62.3803C3.42338 62.3843 0.000376883 58.9646 0.00033 54.7447C0.000282749 50.4918 3.47508 47.0585 7.72773 47.1096L110.287 48.3425C112.912 48.3741 115.057 46.2547 115.057 43.6293C115.057 41.548 113.692 39.713 111.699 39.1147L31.9014 15.1673C27.5931 13.8743 25.5666 8.94425 27.7202 4.99518C29.3113 2.07766 32.7173 0.659169 35.9089 1.5848L115.112 24.5548C123.625 27.0238 129.351 34.9885 128.98 43.8449C128.548 54.1436 120.078 62.2732 109.77 62.2831Z" fill="#0065FF"/>
</g>
<defs>
<clipPath id="clip0_102_2130">
<rect width="180" height="180" fill="white"/>
</clipPath>
</defs>
</svg>
