<svg width="10" height="10" viewBox="0 0 10 10" fill="none" xmlns="http://www.w3.org/2000/svg">
<path d="M5.5 2.5C5.5 3.60457 4.60457 4.5 3.5 4.5C2.39543 4.5 1.5 3.60457 1.5 2.5C1.5 1.39543 2.39543 0.5 3.5 0.5C4.60457 0.5 5.5 1.39543 5.5 2.5Z" fill="#797F89"/>
<path d="M3.5 6C1.84315 6 0.5 7.34315 0.5 9V9.5H6.5V9C6.5 7.34315 5.15685 6 3.5 6Z" fill="#797F89"/>
<path d="M5 1.17709C5.36647 0.761877 5.90265 0.5 6.5 0.5C7.60457 0.5 8.5 1.39543 8.5 2.5C8.5 3.60457 7.60457 4.5 6.5 4.5C5.90265 4.5 5.36647 4.23812 5 3.82291M6.5 9.5H0.5V9C0.5 7.34315 1.84315 6 3.5 6C5.15685 6 6.5 7.34315 6.5 9V9.5ZM6.5 9.5H9.5V9C9.5 7.34315 8.15685 6 6.5 6C5.95357 6 5.44126 6.14609 5 6.40135M5.5 2.5C5.5 3.60457 4.60457 4.5 3.5 4.5C2.39543 4.5 1.5 3.60457 1.5 2.5C1.5 1.39543 2.39543 0.5 3.5 0.5C4.60457 0.5 5.5 1.39543 5.5 2.5Z" stroke="#797F89" stroke-linecap="round" stroke-linejoin="round"/>
</svg>
