<svg width="24" height="24" viewBox="0 0 24 24" fill="none" xmlns="http://www.w3.org/2000/svg">
<g clip-path="url(#clip0_268_272)">
<path d="M22.9938 18.1146C22.6455 16.1022 21.0975 14.5155 19.0851 14.0898L14.7894 13.161H14.712V10.7229C15.9117 9.87151 16.647 8.43961 16.647 6.96901V4.647C16.647 2.0928 14.5572 0.00299072 12.003 0.00299072C9.44879 0.00299072 7.35898 2.0928 7.35898 4.647V6.96901C7.35898 8.47831 8.09429 9.87151 9.29399 10.7229V13.161H9.21659L4.92088 14.0511C2.90848 14.4768 1.36047 16.0635 1.01217 18.0759L0.00596992 23.5326C-0.0327302 23.7261 0.12207 23.9583 0.315571 23.997H23.613C23.8452 23.997 24 23.8422 24 23.61V23.5326L22.9938 18.1146ZM12.003 0.776992C13.8606 0.776992 15.4086 2.0541 15.7956 3.873H8.21039C8.59739 2.0541 10.1454 0.776992 12.003 0.776992ZM15.7182 4.647L14.5572 5.808H9.44879L8.28779 4.647H15.7182ZM8.13299 6.96901V5.5758L9.02309 6.4659C9.10049 6.5433 9.17789 6.582 9.29399 6.582H14.712C14.8281 6.582 14.9055 6.5433 14.9829 6.4659L15.873 5.5758V6.96901C15.873 9.09751 14.1315 10.839 12.003 10.839C9.87449 10.839 8.13299 9.09751 8.13299 6.96901ZM13.938 11.1873V13.7802L13.6671 14.0511C13.2414 14.4768 12.6222 14.7477 12.0417 14.7477H11.9643C11.3451 14.7477 10.7646 14.5155 10.3389 14.0511L10.068 13.7802V11.1873C10.6872 11.4582 11.3451 11.613 12.003 11.613C12.6609 11.613 13.3188 11.4582 13.938 11.1873ZM8.51999 14.1285L9.17789 13.9737L9.75839 14.5929C10.3389 15.1734 11.1129 15.483 11.9643 15.483H12.0417C12.8544 15.483 13.6671 15.1734 14.2476 14.5929L14.8668 13.9737L15.5247 14.1285V15.3669L13.4736 18.0759C12.777 17.2632 11.5773 17.1858 10.7646 17.8824L10.5711 18.0759L8.51999 15.3669V14.1285ZM12.003 20.514C11.3451 20.514 10.842 20.0109 10.842 19.353C10.842 18.6951 11.3451 18.192 12.003 18.192C12.6609 18.192 13.164 18.6951 13.164 19.353V21.675H12.39V20.901C12.39 20.6688 12.2352 20.514 12.003 20.514ZM5.81098 23.223H0.857372L1.01217 22.449H5.81098V23.223ZM17.421 23.2617H6.58498V18.192H5.81098V21.675H1.12827L1.74747 18.2307C2.05707 16.5279 3.37288 15.1734 5.07568 14.8251L7.74599 14.2446V15.483C7.74599 15.5604 7.78469 15.6378 7.82339 15.7152L10.1454 18.8112C10.1067 18.966 10.068 19.1595 10.068 19.353C10.068 20.2818 10.7259 21.0558 11.616 21.2493V22.062C11.616 22.2942 11.7708 22.449 12.003 22.449H13.551C13.7832 22.449 13.938 22.2942 13.938 22.062V19.353C13.938 19.1595 13.8993 18.966 13.8606 18.8112L16.1826 15.7152C16.2213 15.6378 16.26 15.5604 16.26 15.483V14.2833L18.9303 14.8638C20.6331 15.2121 21.9489 16.5666 22.2585 18.2694L22.8777 21.7137H18.195V18.2307H17.421V23.2617ZM18.195 23.223V22.449H22.9938L23.1486 23.223H18.195Z" fill="#797F89"/>
<path d="M11.616 18.966H12.39V19.74H11.616V18.966Z" fill="#797F89"/>
</g>
<defs>
<clipPath id="clip0_268_272">
<rect width="24" height="24" fill="white"/>
</clipPath>
</defs>
</svg>
