<svg width="24" height="24" viewBox="0 0 24 24" fill="none" xmlns="http://www.w3.org/2000/svg">
<g clip-path="url(#clip0_268_2034)">
<path d="M21.0308 16.7108L16.6088 14.94C16.4259 14.8671 16.2592 14.7589 16.1183 14.6215C15.9773 14.4841 15.8648 14.3203 15.7872 14.1394L15.2847 12.9668C16.0055 12.3087 16.512 11.4493 16.7385 10.5H17.25C18.2839 10.5 19.125 9.65888 19.125 8.625C19.1246 8.25758 19.0163 7.89837 18.8137 7.59188C18.611 7.28539 18.3229 7.04509 17.985 6.90075C17.9948 6.852 18 6.80175 18 6.75V2.35538C17.9993 1.73091 17.751 1.13221 17.3094 0.690642C16.8678 0.249074 16.2691 0.000696343 15.6447 1.54792e-06H9.04616C8.56679 -0.000548321 8.09871 0.145412 7.70462 0.418327C7.31053 0.691242 7.00925 1.07808 6.84116 1.527C6.49907 1.59337 6.19069 1.77661 5.96883 2.04532C5.74698 2.31404 5.62544 2.65153 5.62503 3V7.13475C5.17241 7.47713 4.87503 8.01488 4.87503 8.625C4.87503 9.65888 5.71616 10.5 6.75003 10.5H7.26116C7.48782 11.4496 7.99461 12.3091 8.71578 12.9671L8.21366 14.1375C8.13609 14.3189 8.02344 14.4832 7.88218 14.6209C7.74092 14.7586 7.57384 14.8671 7.39053 14.94L2.97041 16.71C2.2025 17.0125 1.54387 17.5399 1.08076 18.2231C0.617657 18.9063 0.371675 19.7134 0.375034 20.5388V23.625C0.375034 23.7245 0.414543 23.8198 0.484869 23.8902C0.555195 23.9605 0.650578 24 0.750034 24H23.25C23.3495 24 23.4449 23.9605 23.5152 23.8902C23.5855 23.8198 23.625 23.7245 23.625 23.625V20.5388C23.625 18.8393 22.6062 17.3366 21.0308 16.7108ZM12 19.5C12.0995 19.5 12.1949 19.4605 12.2652 19.3902C12.3355 19.3198 12.375 19.2245 12.375 19.125C12.375 18.7114 12.7114 18.375 13.125 18.375H16.1535C15.6938 19.0225 15.0464 19.5132 14.2988 19.7809L12 20.6021L9.70128 19.7809C8.95366 19.5132 8.30624 19.0225 7.84653 18.375H10.875C11.2887 18.375 11.625 18.7114 11.625 19.125C11.625 19.2245 11.6645 19.3198 11.7349 19.3902C11.8052 19.4605 11.9006 19.5 12 19.5ZM18.375 8.625C18.375 9.24525 17.8703 9.75 17.25 9.75H16.875V7.5H17.25C17.8703 7.5 18.375 8.00475 18.375 8.625ZM6.37503 3C6.37503 2.58638 6.71141 2.25 7.12503 2.25C7.20868 2.24998 7.28992 2.22199 7.35583 2.17048C7.42174 2.11898 7.46854 2.04691 7.48878 1.96575C7.57531 1.61829 7.77567 1.30979 8.05793 1.08945C8.34018 0.86911 8.68808 0.749609 9.04616 0.750002H15.6447C16.5297 0.750002 17.25 1.47 17.25 2.35538V6.75H14.0622C13.4093 6.74967 12.7706 6.56018 12.2232 6.20446C11.6758 5.84874 11.2432 5.34203 10.9778 4.74563L10.4678 3.59775C10.4274 3.50685 10.3526 3.43571 10.2597 3.39998C10.1669 3.36426 10.0637 3.36687 9.97278 3.40725C9.88188 3.44763 9.81074 3.52247 9.77502 3.6153C9.73929 3.70813 9.7419 3.81135 9.78228 3.90225L9.88128 4.125H8.62503C7.79778 4.125 7.12503 4.79775 7.12503 5.625V6.75H6.75003C6.62408 6.75 6.49844 6.76269 6.37503 6.78788V3ZM7.12503 9.75H6.75003C6.12978 9.75 5.62503 9.24525 5.62503 8.625C5.62503 8.00475 6.12978 7.5 6.75003 7.5H7.12503V9.75ZM7.87503 9.375V5.625C7.87503 5.21138 8.21141 4.875 8.62503 4.875H10.2143L10.2923 5.0505C10.6169 5.7794 11.1457 6.39864 11.8148 6.83334C12.4839 7.26805 13.2646 7.4996 14.0625 7.5H16.125V9.375C16.125 11.6494 14.2744 13.5 12 13.5C9.72566 13.5 7.87503 11.6494 7.87503 9.375ZM7.66878 15.6368C7.9435 15.5276 8.19394 15.3653 8.40567 15.159C8.61741 14.9527 8.78627 14.7066 8.90253 14.4349L9.32628 13.4464C10.0943 13.9526 11.0123 14.25 12 14.25C12.9878 14.25 13.9054 13.953 14.6738 13.4464L15.0987 14.4368C15.2149 14.708 15.3836 14.9536 15.595 15.1595C15.8064 15.3655 16.0563 15.5276 16.3305 15.6368L16.875 15.855V16.125C16.875 16.6508 16.767 17.1589 16.5709 17.625H13.125C12.675 17.625 12.2753 17.8283 12 18.1433C11.8606 17.9813 11.688 17.8512 11.4939 17.7617C11.2998 17.6723 11.0887 17.6257 10.875 17.625H7.42916C7.22878 17.1503 7.12538 16.6403 7.12503 16.125V15.8546L7.66878 15.6368ZM22.875 23.25H1.12503V20.5388C1.12224 19.8636 1.32346 19.2034 1.70234 18.6446C2.08121 18.0858 2.62007 17.6544 3.24828 17.4071L6.37616 16.1546C6.38853 18.0739 7.60241 19.8278 9.44928 20.487L11.874 21.3533C11.9555 21.3827 12.0446 21.3827 12.126 21.3533L14.5508 20.487C16.3947 19.8289 17.6115 18.0769 17.6239 16.1546L20.7529 17.4071C21.3809 17.6546 21.9195 18.086 22.2982 18.6448C22.6769 19.2036 22.8779 19.8637 22.875 20.5388V23.25Z" fill="#0065FF"/>
<path d="M12 11.7461C12.6217 11.7475 13.227 11.5471 13.725 11.175C13.7645 11.1455 13.7977 11.1085 13.8229 11.0661C13.848 11.0238 13.8646 10.9769 13.8715 10.9281C13.8785 10.8793 13.8758 10.8296 13.8635 10.7819C13.8512 10.7342 13.8296 10.6894 13.8 10.65C13.7705 10.6105 13.7335 10.5773 13.6912 10.5521C13.6488 10.527 13.6019 10.5104 13.5531 10.5035C13.5043 10.4965 13.4546 10.4992 13.4069 10.5115C13.3592 10.5238 13.3144 10.5454 13.275 10.575C12.9063 10.8489 12.4593 10.9968 12 10.9968C11.5407 10.9968 11.0937 10.8489 10.725 10.575C10.6454 10.5153 10.5454 10.4897 10.447 10.5038C10.3485 10.5178 10.2597 10.5704 10.2 10.65C10.1403 10.7296 10.1147 10.8296 10.1288 10.928C10.1428 11.0265 10.1954 11.1153 10.275 11.175C10.773 11.5471 11.3783 11.7475 12 11.7461ZM11.7919 16.437C11.8534 16.4783 11.9259 16.5004 12 16.5004C12.0741 16.5004 12.1466 16.4783 12.2081 16.437L13.3331 15.687C13.4159 15.6318 13.4733 15.546 13.4928 15.4484C13.5123 15.3509 13.4922 15.2496 13.437 15.1669C13.3818 15.0841 13.296 15.0267 13.1985 15.0072C13.1009 14.9877 12.9996 15.0078 12.9169 15.063L12 15.6742L11.0831 15.063C11.0004 15.0078 10.8991 14.9877 10.8016 15.0072C10.704 15.0267 10.6182 15.0841 10.563 15.1669C10.5078 15.2496 10.4877 15.3509 10.5072 15.4484C10.5267 15.546 10.5841 15.6318 10.6669 15.687L11.7919 16.437Z" fill="#0065FF"/>
</g>
<defs>
<clipPath id="clip0_268_2034">
<rect width="24" height="24" fill="white"/>
</clipPath>
</defs>
</svg>
