<svg width="18" height="19" viewBox="0 0 18 19" fill="none" xmlns="http://www.w3.org/2000/svg">
<path d="M12.0619 17C12.062 17.5046 11.8715 17.9906 11.5284 18.3605C11.1853 18.7305 10.715 18.9572 10.2119 18.995L10.0619 19H8.06186C7.55728 19.0002 7.07129 18.8096 6.70131 18.4665C6.33133 18.1234 6.1047 17.6532 6.06686 17.15L6.06186 17H12.0619ZM9.06186 9.54067e-10C10.8768 -2.9945e-05 12.6209 0.704894 13.9261 1.96607C15.2313 3.22726 15.9956 4.94609 16.0579 6.76L16.0619 7V10.764L17.8839 14.408C17.9634 14.567 18.0032 14.7429 17.9998 14.9206C17.9965 15.0984 17.9501 15.2727 17.8647 15.4286C17.7793 15.5845 17.6574 15.7174 17.5093 15.8158C17.3613 15.9143 17.1917 15.9754 17.0149 15.994L16.8999 16H1.22386C1.04602 16.0001 0.870827 15.957 0.713281 15.8745C0.555735 15.792 0.420539 15.6725 0.319277 15.5264C0.218015 15.3802 0.153708 15.2116 0.131865 15.0351C0.110021 14.8586 0.131294 14.6795 0.19386 14.513L0.23986 14.408L2.06186 10.764V7C2.06186 5.14348 2.79936 3.36301 4.11211 2.05025C5.42487 0.737498 7.20534 9.54069e-10 9.06186 9.54067e-10Z" fill="#071225"/>
</svg>
