<svg width="22" height="22" viewBox="0 0 22 22" fill="none" xmlns="http://www.w3.org/2000/svg">
<path d="M5.78599 18.3544L5.76391 18.3172L5.72169 18.3078L2.20787 17.527L2.54956 13.9149L2.55361 13.872L2.52526 13.8396L0.132877 11.1055L2.52526 8.37132L2.55361 8.33892L2.54956 8.29605L2.20787 4.68394L5.72169 3.90309L5.76391 3.89371L5.78599 3.85652L7.64129 0.731793L10.9608 2.14745L11 2.16418L11.0392 2.14745L14.3587 0.731793L16.214 3.85652L16.2361 3.89371L16.2783 3.90309L19.7921 4.68394L19.4504 8.29605L19.4464 8.33892L19.4747 8.37132L21.8671 11.1055L19.4747 13.8396L19.4464 13.872L19.4504 13.9149L19.7921 17.527L16.2783 18.3078L16.2361 18.3172L16.214 18.3544L14.3587 21.4791L11.0392 20.0635L11 20.0468L10.9608 20.0635L7.64129 21.4791L5.78599 18.3544ZM9.87929 14.7262L9.95 14.7969L10.0207 14.7262L15.6707 9.07618L15.7402 9.0067L15.6719 8.93601L14.2719 7.48601L14.2013 7.4128L14.1293 7.48476L9.94917 11.6649L7.86987 9.63393L7.79917 9.56487L7.72929 9.63476L6.32929 11.0348L6.25858 11.1055L6.32929 11.1762L9.87929 14.7262Z" fill="#EE9F2F" stroke="white" stroke-width="0.2"/>
</svg>
