<svg width="10" height="13" viewBox="0 0 10 13" fill="none" xmlns="http://www.w3.org/2000/svg">
<path d="M5 0.130859C3.67438 0.132314 2.40348 0.642204 1.46613 1.54867C0.528771 2.45513 0.00150383 3.68414 0 4.96607C0 9.10348 4.54545 12.2282 4.7392 12.359C4.81563 12.4108 4.90669 12.4386 5 12.4386C5.09331 12.4386 5.18437 12.4108 5.2608 12.359C5.45455 12.2282 10 9.10348 10 4.96607C9.9985 3.68414 9.47123 2.45513 8.53387 1.54867C7.59652 0.642204 6.32562 0.132314 5 0.130859ZM5 3.20781C5.3596 3.20781 5.71113 3.31093 6.01013 3.50413C6.30913 3.69733 6.54217 3.97194 6.67978 4.29322C6.8174 4.6145 6.8534 4.96802 6.78325 5.30909C6.71309 5.65016 6.53993 5.96345 6.28565 6.20935C6.03137 6.45525 5.7074 6.62271 5.35471 6.69055C5.00202 6.75839 4.63644 6.72357 4.30421 6.59049C3.97198 6.45741 3.68802 6.23205 3.48824 5.94291C3.28845 5.65377 3.18182 5.31382 3.18182 4.96607C3.18182 4.49975 3.37338 4.05253 3.71435 3.7228C4.05533 3.39306 4.51779 3.20781 5 3.20781Z" fill="#797F89"/>
</svg>
