<svg width="28" height="28" viewBox="0 0 28 28" fill="none" xmlns="http://www.w3.org/2000/svg">
<path d="M24.6667 24.6668L21.5752 21.5753M13.2271 23.121C11.9279 23.121 10.6413 22.8651 9.44095 22.3679C8.24058 21.8707 7.1499 21.1419 6.23118 20.2232C5.31247 19.3045 4.5837 18.2138 4.08649 17.0134C3.58928 15.813 3.33337 14.5265 3.33337 13.2272C3.33337 11.928 3.58928 10.6414 4.08649 9.44107C4.5837 8.2407 5.31247 7.15003 6.23118 6.23131C7.1499 5.31259 8.24058 4.58382 9.44095 4.08661C10.6413 3.58941 11.9279 3.3335 13.2271 3.3335C15.8511 3.3335 18.3676 4.37587 20.2231 6.23131C22.0785 8.08674 23.1209 10.6033 23.1209 13.2272C23.1209 15.8512 22.0785 18.3677 20.2231 20.2232C18.3676 22.0786 15.8511 23.121 13.2271 23.121Z" stroke="#6A717C" stroke-linecap="round"/>
</svg>
