<svg width="390" height="400" viewBox="0 0 390 400" fill="none" xmlns="http://www.w3.org/2000/svg">
<path d="M395 305.92H-5V306.12H395V305.92Z" fill="#EBEBEB"/>
<path d="M354.92 318.792H343V318.992H354.92V318.792Z" fill="#EBEBEB"/>
<path d="M259.976 320.968H253.024V321.168H259.976V320.968Z" fill="#EBEBEB"/>
<path d="M339.624 311.368H312.272V311.568H339.624V311.368Z" fill="#EBEBEB"/>
<path d="M82.704 315.496H48.152V315.696H82.704V315.496Z" fill="#EBEBEB"/>
<path d="M102.288 315.496H89.824V315.696H102.288V315.496Z" fill="#EBEBEB"/>
<path d="M198.808 312.808H123.864V313.008H198.808V312.808Z" fill="#EBEBEB"/>
<path d="M184.6 270.24H30.128C28.9179 270.238 27.758 269.756 26.9031 268.899C26.0482 268.043 25.568 266.882 25.568 265.672V48.528C25.5785 47.3248 26.0633 46.1744 26.9171 45.3266C27.7709 44.4788 28.9248 44.0021 30.128 44H184.6C185.812 44 186.973 44.4813 187.83 45.3379C188.687 46.1946 189.168 47.3565 189.168 48.568V265.672C189.168 266.884 188.687 268.045 187.83 268.902C186.973 269.759 185.812 270.24 184.6 270.24ZM30.128 44.16C28.9709 44.1621 27.862 44.6233 27.0445 45.4422C26.2271 46.2611 25.768 47.3709 25.768 48.528V265.672C25.768 266.829 26.2271 267.939 27.0445 268.758C27.862 269.577 28.9709 270.038 30.128 270.04H184.6C185.758 270.038 186.868 269.577 187.686 268.758C188.505 267.94 188.966 266.83 188.968 265.672V48.528C188.966 47.3702 188.505 46.2604 187.686 45.4417C186.868 44.623 185.758 44.1621 184.6 44.16H30.128Z" fill="#EBEBEB"/>
<path d="M357.648 270.24H203.168C201.957 270.238 200.796 269.756 199.94 268.9C199.084 268.044 198.602 266.883 198.6 265.672V48.528C198.613 47.3241 199.099 46.1737 199.954 45.3261C200.809 44.4785 201.964 44.002 203.168 44H357.648C358.85 44.0042 360.002 44.4818 360.854 45.3294C361.706 46.177 362.189 47.3262 362.2 48.528V265.672C362.2 266.881 361.721 268.04 360.868 268.896C360.014 269.753 358.857 270.236 357.648 270.24ZM203.168 44.16C202.01 44.1621 200.9 44.623 200.082 45.4417C199.263 46.2604 198.802 47.3702 198.8 48.528V265.672C198.802 266.83 199.263 267.94 200.082 268.758C200.9 269.577 202.01 270.038 203.168 270.04H357.648C358.806 270.038 359.916 269.577 360.734 268.758C361.553 267.94 362.014 266.83 362.016 265.672V48.528C362.014 47.3702 361.553 46.2604 360.734 45.4417C359.916 44.623 358.806 44.1621 357.648 44.16H203.168Z" fill="#EBEBEB"/>
<path d="M211.728 305.92H235.248V196.032H211.728V305.92Z" fill="#E6E6E6"/>
<path d="M216.192 305.92H211.72V293.208H220.872L216.192 305.92Z" fill="#F0F0F0"/>
<path d="M329.96 305.92H353.48V196.032H329.96V305.92Z" fill="#E6E6E6"/>
<path d="M211.728 298.12H333.856V196.032H211.728V298.12Z" fill="#F0F0F0"/>
<path d="M326.296 224.992H219.28C218.071 224.99 216.913 224.509 216.058 223.654C215.203 222.799 214.722 221.641 214.72 220.432V203.592C214.722 202.383 215.203 201.225 216.058 200.37C216.913 199.515 218.071 199.034 219.28 199.032H326.296C327.505 199.034 328.663 199.515 329.518 200.37C330.373 201.225 330.854 202.383 330.856 203.592V220.432C330.854 221.641 330.373 222.799 329.518 223.654C328.663 224.509 327.505 224.99 326.296 224.992ZM219.28 200C218.319 200 217.397 200.382 216.717 201.061C216.038 201.741 215.656 202.663 215.656 203.624V220.464C215.656 221.425 216.038 222.347 216.717 223.027C217.397 223.706 218.319 224.088 219.28 224.088H326.296C327.257 224.088 328.179 223.706 328.859 223.027C329.538 222.347 329.92 221.425 329.92 220.464V203.592C329.92 202.631 329.538 201.709 328.859 201.029C328.179 200.35 327.257 199.968 326.296 199.968L219.28 200Z" fill="#E6E6E6"/>
<path d="M267.192 282.704H219.28C218.071 282.702 216.913 282.221 216.058 281.366C215.203 280.511 214.722 279.353 214.72 278.144V231.488C214.72 230.279 215.2 229.119 216.056 228.264C216.911 227.408 218.071 226.928 219.28 226.928H267.192C268.401 226.928 269.561 227.408 270.416 228.264C271.272 229.119 271.752 230.279 271.752 231.488V278.144C271.752 279.353 271.272 280.513 270.416 281.368C269.561 282.224 268.401 282.704 267.192 282.704ZM219.28 227.864C218.319 227.864 217.397 228.246 216.717 228.925C216.038 229.605 215.656 230.527 215.656 231.488V278.144C215.656 279.105 216.038 280.027 216.717 280.707C217.397 281.386 218.319 281.768 219.28 281.768H267.192C268.154 281.768 269.076 281.386 269.757 280.707C270.438 280.028 270.822 279.106 270.824 278.144V231.488C270.822 230.526 270.438 229.604 269.757 228.925C269.076 228.246 268.154 227.864 267.192 227.864H219.28Z" fill="#E6E6E6"/>
<path d="M326.296 282.704H278.384C277.174 282.704 276.013 282.224 275.157 281.369C274.3 280.514 273.818 279.354 273.816 278.144V231.488C273.818 230.278 274.3 229.118 275.157 228.263C276.013 227.408 277.174 226.928 278.384 226.928H326.296C327.505 226.928 328.665 227.408 329.52 228.264C330.376 229.119 330.856 230.279 330.856 231.488V278.144C330.854 279.353 330.373 280.511 329.518 281.366C328.663 282.221 327.505 282.702 326.296 282.704ZM278.384 227.864C277.422 227.864 276.499 228.246 275.819 228.925C275.138 229.604 274.754 230.526 274.752 231.488V278.144C274.754 279.106 275.138 280.028 275.819 280.707C276.499 281.386 277.422 281.768 278.384 281.768H326.296C327.257 281.768 328.179 281.386 328.859 280.707C329.538 280.027 329.92 279.105 329.92 278.144V231.488C329.92 230.527 329.538 229.605 328.859 228.925C328.179 228.246 327.257 227.864 326.296 227.864H278.384Z" fill="#E6E6E6"/>
<path d="M282.864 240.8C281.986 240.8 281.127 240.539 280.396 240.051C279.666 239.563 279.097 238.869 278.761 238.057C278.425 237.245 278.338 236.352 278.51 235.491C278.682 234.629 279.106 233.838 279.727 233.218C280.349 232.597 281.141 232.175 282.003 232.004C282.865 231.834 283.758 231.923 284.569 232.26C285.38 232.598 286.073 233.168 286.56 233.899C287.047 234.63 287.306 235.489 287.304 236.368C287.302 237.544 286.833 238.671 286.001 239.502C285.168 240.333 284.04 240.8 282.864 240.8ZM282.864 232.864C282.171 232.864 281.494 233.069 280.917 233.455C280.341 233.84 279.892 234.387 279.627 235.027C279.362 235.667 279.292 236.372 279.427 237.052C279.563 237.731 279.896 238.356 280.386 238.846C280.876 239.336 281.501 239.669 282.18 239.805C282.86 239.94 283.565 239.87 284.205 239.605C284.845 239.34 285.392 238.891 285.777 238.315C286.162 237.738 286.368 237.061 286.368 236.368C286.368 235.439 285.999 234.547 285.342 233.89C284.685 233.233 283.793 232.864 282.864 232.864Z" fill="#FAFAFA"/>
<path d="M262.712 240.8C261.833 240.8 260.975 240.539 260.244 240.051C259.514 239.563 258.945 238.869 258.609 238.057C258.273 237.245 258.186 236.352 258.358 235.491C258.53 234.629 258.954 233.838 259.575 233.218C260.197 232.597 260.989 232.175 261.851 232.004C262.712 231.834 263.605 231.923 264.417 232.26C265.228 232.598 265.921 233.168 266.408 233.899C266.894 234.63 267.154 235.489 267.152 236.368C267.15 237.544 266.681 238.671 265.849 239.502C265.016 240.333 263.888 240.8 262.712 240.8ZM262.712 232.864C262.019 232.864 261.341 233.069 260.765 233.455C260.189 233.84 259.74 234.387 259.475 235.027C259.209 235.667 259.14 236.372 259.275 237.052C259.41 237.731 259.744 238.356 260.234 238.846C260.724 239.336 261.349 239.669 262.028 239.805C262.708 239.94 263.413 239.87 264.053 239.605C264.693 239.34 265.24 238.891 265.625 238.315C266.01 237.738 266.216 237.061 266.216 236.368C266.216 235.439 265.847 234.547 265.19 233.89C264.533 233.233 263.641 232.864 262.712 232.864Z" fill="#FAFAFA"/>
<path d="M329.384 305.92H333.856V293.208H324.704L329.384 305.92Z" fill="#F0F0F0"/>
<path d="M272.264 216.632C271.386 216.632 270.527 216.372 269.797 215.884C269.067 215.396 268.498 214.702 268.162 213.891C267.826 213.08 267.738 212.187 267.909 211.326C268.081 210.464 268.503 209.673 269.124 209.052C269.745 208.431 270.537 208.009 271.398 207.837C272.259 207.666 273.152 207.754 273.963 208.09C274.774 208.426 275.468 208.995 275.956 209.725C276.444 210.455 276.704 211.314 276.704 212.192C276.702 213.369 276.233 214.497 275.401 215.329C274.569 216.161 273.441 216.63 272.264 216.632ZM272.264 208.688C271.571 208.688 270.893 208.893 270.317 209.279C269.741 209.664 269.292 210.211 269.027 210.851C268.762 211.491 268.692 212.196 268.827 212.876C268.963 213.555 269.296 214.18 269.786 214.67C270.276 215.16 270.901 215.493 271.58 215.629C272.26 215.764 272.965 215.694 273.605 215.429C274.245 215.164 274.792 214.715 275.177 214.139C275.562 213.562 275.768 212.885 275.768 212.192C275.766 211.263 275.396 210.373 274.739 209.717C274.083 209.06 273.193 208.69 272.264 208.688Z" fill="#FAFAFA"/>
<path d="M216.712 124.72L334.44 124.72V78.464L216.712 78.464V124.72Z" fill="#F0F0F0"/>
<path d="M332.208 122.192V80.984H218.96V122.192H332.208Z" fill="#E6E6E6"/>
<path d="M293.728 124.2H295.968V78.976H293.728V124.2Z" fill="#F0F0F0"/>
<path d="M308.376 80.984H295.976V122.192H308.376V80.984Z" fill="#E0E0E0"/>
<path d="M269.912 80.984H257.512V122.192H269.912V80.984Z" fill="#E0E0E0"/>
<path d="M231.352 80.984H218.952V122.192H231.352V80.984Z" fill="#E0E0E0"/>
<path d="M255.264 124.2H257.504V78.976H255.264V124.2Z" fill="#F0F0F0"/>
<path d="M345.584 78.456H334.44V124.712H345.584V78.456Z" fill="#E6E6E6"/>
<path d="M303.664 122.192H324.304L319.456 87.048H298.816L303.664 122.192Z" fill="#EBEBEB"/>
<path d="M263.312 122.192H283.96L280.376 87.048H259.736L263.312 122.192Z" fill="#F5F5F5"/>
<path d="M273.184 122.192H291.96L284.056 90.224H265.28L273.184 122.192Z" fill="#E0E0E0"/>
<path d="M311.56 122.192H332.2V84.216H311.56V122.192Z" fill="#F5F5F5"/>
<path d="M223.488 122.192H244.128V84.216H223.488V122.192Z" fill="#F5F5F5"/>
<path d="M238.096 122.192H254.096L248.536 90.224H232.536L238.096 122.192Z" fill="#E0E0E0"/>
<path d="M246.056 122.192H255.264V92.552H237.264L246.056 122.192Z" fill="#F5F5F5"/>
<path d="M223.48 122.192H228.184V84.216H223.48V122.192Z" fill="#FAFAFA"/>
<path d="M317.504 119.352C317.67 119.352 317.828 119.286 317.945 119.169C318.062 119.052 318.128 118.893 318.128 118.728V87.672C318.128 87.5065 318.062 87.3478 317.945 87.2307C317.828 87.1137 317.67 87.048 317.504 87.048C317.422 87.048 317.342 87.0642 317.266 87.0956C317.191 87.1271 317.123 87.1732 317.066 87.2312C317.008 87.2893 316.963 87.3581 316.933 87.4338C316.902 87.5094 316.887 87.5904 316.888 87.672V118.728C316.887 118.81 316.902 118.891 316.933 118.966C316.963 119.042 317.008 119.111 317.066 119.169C317.123 119.227 317.191 119.273 317.266 119.304C317.342 119.336 317.422 119.352 317.504 119.352Z" fill="#F0F0F0"/>
<path d="M315.416 173.928C317.6 163.48 319.12 146.52 317.944 140.856C317.904 140.656 317.672 140.48 317.328 140.36C316.312 140.016 314.88 140.36 314.928 140.944C315.136 143.76 315.376 150.776 314.08 162.896C313.432 168.928 312.48 173.056 313.144 173.928H315.416Z" fill="#F0F0F0"/>
<path d="M321.68 151.456C326.672 148.488 336.984 146.144 347.568 145.784C351.72 145.648 335.04 149.472 328.168 153.288C322.84 156.256 316.872 161.136 314.88 163.8C316.048 158.296 316.688 154.4 321.68 151.456Z" fill="#F0F0F0"/>
<path d="M311.232 150.816C306.064 147.496 294.144 144.944 281.248 144.656C276.184 144.536 295.448 148.704 302.64 152.976C308.24 156.296 313.952 161.776 315.528 164.808C315.904 158.552 316.4 154.136 311.232 150.816Z" fill="#F0F0F0"/>
<path d="M321.336 141.688C325.28 139.216 333.976 137.184 343.192 136.768C346.816 136.6 332.752 139.912 327.296 143.104C323.056 145.584 318.552 149.632 317.192 151.832C317.4 147.336 317.4 144.16 321.336 141.688Z" fill="#F0F0F0"/>
<path d="M313.4 142.192C309.024 139.384 298.928 137.216 288.008 136.976C283.72 136.88 300.008 140.408 306.12 144.024C310.848 146.832 315.72 151.488 317.04 154.04C317.352 148.744 317.768 145.008 313.4 142.192Z" fill="#F0F0F0"/>
<path d="M318.688 162.616C321.536 160.752 327.928 159.176 334.768 158.808C337.448 158.664 327.112 161.208 323.168 163.608C320.096 165.48 316.88 168.52 315.968 170.16C315.952 166.832 315.848 164.48 318.688 162.616Z" fill="#F0F0F0"/>
<path d="M313.52 161.6C311.048 159.744 304.928 158.184 298.112 157.808C295.432 157.664 305.312 160.208 308.784 162.608C311.48 164.464 314.072 167.48 314.664 169.104C315.368 165.752 315.992 163.416 313.52 161.6Z" fill="#F0F0F0"/>
<path d="M314.496 196C319.936 196 324.44 194.56 324.752 187.704L325.656 167.872H303.336L304.24 187.704C304.552 194.592 309.048 196 314.496 196Z" fill="#E6E6E6"/>
<path d="M46.976 282.16H170.112L170.112 64.616L46.976 64.616L46.976 282.16Z" fill="#E6E6E6"/>
<path d="M33.784 60.408H178.088C178.407 60.4099 178.712 60.5351 178.94 60.7574C179.168 60.9796 179.302 61.2816 179.312 61.6C179.31 61.924 179.18 62.2341 178.951 62.4632C178.722 62.6923 178.412 62.8219 178.088 62.824H33.784C33.467 62.8117 33.167 62.6775 32.9465 62.4495C32.7259 62.2215 32.6018 61.9172 32.6 61.6C32.6099 61.2884 32.7375 60.9921 32.9573 60.7709C33.177 60.5497 33.4724 60.42 33.784 60.408Z" fill="#E6E6E6"/>
<path d="M41.752 282.16H167.672L167.672 64.616L41.752 64.616L41.752 282.16Z" fill="#F0F0F0"/>
<path d="M160.36 274.84V71.928H49.072L49.072 274.84H160.36Z" fill="#FAFAFA"/>
<path d="M135.096 274.848L92.16 71.928H71.896L114.832 274.848H135.096Z" fill="white"/>
<path d="M110.472 274.848L67.544 71.928H59.64L102.576 274.848H110.472Z" fill="white"/>
<path d="M50 274.84L50 71.928H49.072L49.072 274.84H50Z" fill="#E6E6E6"/>
<g opacity="0.6">
<path d="M163.376 297.856H178.84L176.392 58.224H160.928L163.376 297.856Z" fill="#F0F0F0"/>
<path d="M157.36 297.856H169.4L166.952 58.224H154.904L157.36 297.856Z" fill="#E6E6E6"/>
<path d="M147.92 297.856H163.376L160.928 58.224H145.464L147.92 297.856Z" fill="#F0F0F0"/>
<path d="M141.896 297.856H153.944L151.488 58.224H139.44L141.896 297.856Z" fill="#E6E6E6"/>
<path d="M132.456 297.856H147.92L145.464 58.224H130L132.456 297.856Z" fill="#F0F0F0"/>
</g>
<g opacity="0.6">
<path d="M44.304 297.856H35.568L34.4 58.224H43.136L44.304 297.856Z" fill="#F0F0F0"/>
<path d="M47.712 297.856H40.904L39.728 58.224H46.536L47.712 297.856Z" fill="#E6E6E6"/>
<path d="M53.048 297.856H44.304L43.136 58.224H51.872L53.048 297.856Z" fill="#F0F0F0"/>
<path d="M56.448 297.856H49.6401L48.472 58.224H55.272L56.448 297.856Z" fill="#E6E6E6"/>
<path d="M61.7841 297.856H53.0481L51.8721 58.224H60.6081L61.7841 297.856Z" fill="#F0F0F0"/>
</g>
<path d="M195 342.048C280.666 342.048 350.112 337.994 350.112 332.992C350.112 327.991 280.666 323.936 195 323.936C109.334 323.936 39.8879 327.991 39.8879 332.992C39.8879 337.994 109.334 342.048 195 342.048Z" fill="#F5F5F5"/>
<path d="M157.056 136.864H150.04C149.868 136.862 149.703 136.795 149.578 136.676C149.453 136.558 149.378 136.396 149.368 136.224L148.752 121.824C148.748 121.74 148.76 121.657 148.789 121.578C148.818 121.5 148.863 121.428 148.921 121.368C148.978 121.307 149.048 121.259 149.125 121.226C149.202 121.193 149.284 121.176 149.368 121.176H156.376C156.55 121.178 156.716 121.246 156.841 121.366C156.966 121.487 157.04 121.651 157.048 121.824L157.672 136.224C157.676 136.307 157.664 136.39 157.635 136.468C157.605 136.546 157.561 136.618 157.503 136.678C157.445 136.738 157.376 136.785 157.299 136.817C157.222 136.849 157.139 136.865 157.056 136.864Z" fill="#407BFF"/>
<path d="M151.968 284.52H65.808C63.6869 284.495 61.6548 283.664 60.1233 282.197C58.5918 280.729 57.6755 278.734 57.56 276.616L49.96 99.56C49.9088 98.5365 50.067 97.5133 50.4247 96.553C50.7825 95.5927 51.3324 94.7154 52.0407 93.9748C52.7491 93.2343 53.6011 92.646 54.5445 92.2459C55.488 91.8458 56.5032 91.6424 57.528 91.648H143.688C145.81 91.6753 147.842 92.5076 149.373 93.9765C150.904 95.4454 151.82 97.4412 151.936 99.56L159.536 276.616C159.586 277.639 159.427 278.661 159.069 279.621C158.71 280.58 158.16 281.456 157.452 282.196C156.744 282.936 155.892 283.523 154.949 283.923C154.006 284.322 152.992 284.526 151.968 284.52Z" fill="#263238"/>
<path d="M65.944 146.912H51.92C51.5708 146.906 51.2371 146.767 50.9872 146.523C50.7373 146.279 50.5902 145.949 50.576 145.6L49.344 116.8C49.3352 116.633 49.3607 116.467 49.4188 116.31C49.4769 116.154 49.5664 116.011 49.6818 115.89C49.7972 115.769 49.936 115.673 50.0898 115.609C50.2436 115.544 50.409 115.511 50.576 115.512H64.6C64.9444 115.518 65.2738 115.654 65.5218 115.893C65.7697 116.132 65.9178 116.456 65.936 116.8L67.176 145.6C67.1869 145.768 67.1632 145.937 67.1062 146.096C67.0492 146.255 66.9602 146.4 66.8447 146.523C66.7292 146.646 66.5896 146.744 66.4347 146.811C66.2797 146.878 66.1127 146.912 65.944 146.912Z" fill="#263238"/>
<path d="M162.528 211.033L161.729 211.068L162.005 217.478L162.804 217.444L162.528 211.033Z" fill="#407BFF"/>
<path d="M161.281 181.964L160.482 181.998L161.404 203.474L162.204 203.44L161.281 181.964Z" fill="#407BFF"/>
<path d="M155 284.52H68.808C66.6939 284.485 64.6718 283.65 63.1488 282.183C61.6258 280.716 60.715 278.727 60.6 276.616L53 99.56C52.9488 98.5365 53.107 97.5133 53.4648 96.553C53.8225 95.5927 54.3724 94.7154 55.0808 93.9748C55.7891 93.2343 56.6411 92.646 57.5846 92.2459C58.5281 91.8458 59.5432 91.6424 60.568 91.648H146.728C148.85 91.6735 150.882 92.5055 152.412 93.975C153.943 95.4444 154.856 97.4413 154.968 99.56L162.568 276.616C162.619 277.639 162.461 278.662 162.103 279.622C161.745 280.582 161.195 281.459 160.487 282.198C159.778 282.938 158.926 283.526 157.983 283.925C157.039 284.324 156.024 284.527 155 284.52Z" fill="#407BFF"/>
<path d="M155 281.376H68.808C67.4983 281.348 66.2468 280.83 65.3015 279.923C64.3561 279.016 63.786 277.787 63.704 276.48L56.104 99.424C56.0711 98.825 56.1615 98.2257 56.3696 97.6631C56.5777 97.1004 56.899 96.5865 57.3137 96.153C57.7284 95.7196 58.2276 95.3759 58.7805 95.1431C59.3334 94.9104 59.9282 94.7936 60.528 94.8H146.688C147.997 94.8293 149.248 95.3485 150.193 96.255C151.138 97.1614 151.708 98.3892 151.792 99.696L159.392 276.752C159.424 277.351 159.332 277.95 159.124 278.512C158.915 279.074 158.594 279.587 158.18 280.02C157.765 280.454 157.266 280.797 156.714 281.03C156.162 281.264 155.568 281.381 154.968 281.376H155ZM60.6 95.368C60.0797 95.3619 59.5636 95.4624 59.0835 95.6631C58.6034 95.8638 58.1694 96.1607 57.8082 96.5353C57.4471 96.91 57.1664 97.3545 56.9833 97.8417C56.8003 98.3288 56.7189 98.8482 56.744 99.368L64.344 276.424C64.409 277.578 64.9028 278.667 65.7285 279.477C66.5542 280.286 67.6525 280.758 68.808 280.8H155C155.52 280.806 156.036 280.706 156.515 280.505C156.995 280.304 157.429 280.007 157.789 279.632C158.15 279.257 158.43 278.813 158.612 278.326C158.794 277.839 158.874 277.319 158.848 276.8L151.248 99.744C151.176 98.5831 150.671 97.4915 149.832 96.6855C148.994 95.8795 147.883 95.4178 146.72 95.392L60.6 95.368Z" fill="white"/>
<path opacity="0.1" d="M94.296 284.52L108.992 91.648H131.864L117.168 284.52H94.296Z" fill="white"/>
<path opacity="0.1" d="M77.016 284.52L91.712 91.648H103.296L88.608 284.52H77.016Z" fill="white"/>
<path d="M146.36 132C147.595 132.26 148.788 132.691 149.904 133.28C151.002 133.831 152.053 134.471 153.048 135.192L159.032 139.44C163.032 142.24 166.952 145.128 170.88 147.52C171.864 148.12 172.832 148.656 173.768 149.12C174.224 149.36 174.736 149.584 175.072 149.76C175.148 149.857 175.237 149.943 175.336 150.016C175.766 150.205 176.25 150.228 176.696 150.08C177.511 149.874 178.29 149.548 179.008 149.112C182.384 147.144 185.872 143.44 188.656 139.832L188.784 139.664C189.27 139.084 189.947 138.696 190.692 138.568C191.438 138.439 192.205 138.58 192.857 138.963C193.51 139.347 194.005 139.949 194.255 140.663C194.505 141.377 194.494 142.157 194.224 142.864C193.648 144.208 193.096 145.36 192.472 146.576C191.848 147.792 191.184 148.976 190.44 150.112C188.932 152.588 187.103 154.853 185 156.848C183.764 158.004 182.381 158.994 180.888 159.792C179.054 160.777 177.017 161.325 174.936 161.392C173.78 161.424 172.625 161.294 171.504 161.008C170.648 160.776 169.984 160.576 169.272 160.344C167.88 159.88 166.56 159.384 165.272 158.864C160.382 156.847 155.635 154.5 151.064 151.84C148.824 150.544 146.64 149.184 144.472 147.784C143.382 147.075 142.357 146.272 141.408 145.384C140.424 144.507 139.56 143.504 138.84 142.4C138.142 141.266 137.787 139.953 137.819 138.621C137.85 137.29 138.267 135.996 139.018 134.895C139.77 133.795 140.824 132.937 142.053 132.423C143.282 131.909 144.633 131.762 145.944 132H146.36Z" fill="#803E3C"/>
<path d="M188.288 140.584L191.432 135.896C192.083 134.924 192.938 134.106 193.936 133.496L196.408 131.984C196.699 131.805 197.023 131.686 197.361 131.634C197.698 131.582 198.043 131.597 198.375 131.68C198.706 131.763 199.018 131.911 199.291 132.115C199.565 132.32 199.795 132.577 199.968 132.872L201.568 135.6C201.876 136.126 201.987 136.745 201.881 137.346C201.776 137.946 201.461 138.49 200.992 138.88L198.128 141.28C198.128 141.28 193.712 146.408 190.608 144.48L188.288 140.584Z" fill="#7F3E3B"/>
<path d="M195.162 148.03C199.628 146.18 201.749 141.061 199.899 136.595C198.049 132.129 192.93 130.009 188.464 131.858C183.998 133.708 181.878 138.828 183.727 143.293C185.577 147.759 190.697 149.88 195.162 148.03Z" fill="#263238"/>
<path d="M192.712 129.52H190.912V133.208H192.712V129.52Z" fill="#263238"/>
<path d="M193.656 129.4V128.944C193.656 128.573 193.355 128.272 192.984 128.272H190.64C190.269 128.272 189.968 128.573 189.968 128.944V129.4C189.968 129.771 190.269 130.072 190.64 130.072H192.984C193.355 130.072 193.656 129.771 193.656 129.4Z" fill="#263238"/>
<path d="M199.191 141.681C200.155 137.601 197.627 133.512 193.546 132.548C189.466 131.585 185.377 134.113 184.414 138.193C183.45 142.274 185.978 146.363 190.059 147.326C194.139 148.29 198.228 145.762 199.191 141.681Z" fill="white"/>
<path d="M193.312 138.944C193.509 139.242 193.613 139.592 193.612 139.95C193.61 140.308 193.502 140.657 193.302 140.953C193.102 141.25 192.818 141.48 192.487 141.615C192.156 141.75 191.792 141.784 191.442 141.712C191.091 141.641 190.77 141.467 190.518 141.213C190.267 140.958 190.096 140.635 190.029 140.284C189.961 139.933 189.999 139.569 190.137 139.24C190.276 138.91 190.509 138.629 190.808 138.432C191.208 138.168 191.696 138.074 192.166 138.17C192.635 138.266 193.048 138.544 193.312 138.944Z" fill="#263238"/>
<path d="M188.096 134.352C188.702 136.217 189.555 137.993 190.632 139.632L191.976 138.736C190.889 137.104 189.584 135.629 188.096 134.352Z" fill="#263238"/>
<path d="M106.944 132.208L127.128 128.744L144.288 131.56C147.888 132.152 150.552 134.76 150.792 139.224C151.792 158.24 148.704 167 148.168 197.04C146.912 197.04 109.768 197.672 109.768 197.672C110.68 181.36 102.28 160.928 100.504 140.536C100.336 138.593 100.905 136.658 102.098 135.115C103.291 133.572 105.021 132.534 106.944 132.208Z" fill="#263238"/>
<path d="M118.24 112C118.616 117.248 118.808 124.144 117.368 130.4C116.008 132.2 123.768 134.752 131.64 135.152C136.928 133.048 136.44 131.2 134.904 130C128.872 129.016 130.288 123.136 131.184 118.904L118.24 112Z" fill="#7F3E3B"/>
<path opacity="0.2" d="M130.616 118.624L131.184 118.928C130.745 120.685 130.477 122.48 130.384 124.288C127.656 124.288 124.824 123.488 123.336 121.816C122.275 120.681 121.432 119.36 120.848 117.92L130.616 118.624Z" fill="black"/>
<path opacity="0.2" d="M104.512 139.136C106.04 139.792 108.648 143.984 108.4 148.44C108.234 153.016 106.702 157.438 104 161.136C102.776 155.624 101.648 150.016 100.944 144.376L104.512 139.136Z" fill="black"/>
<path d="M116.344 105.6C117.496 112.8 117.808 117.04 121.816 120.36C127.856 125.344 136.456 121.08 137.472 113.688C138.384 107.024 136.344 96.408 128.992 94.296C127.363 93.8266 125.642 93.7782 123.99 94.1553C122.337 94.5324 120.807 95.3227 119.544 96.4522C118.28 97.5817 117.323 99.0134 116.764 100.613C116.204 102.213 116.06 103.929 116.344 105.6Z" fill="#7F3E3B"/>
<path d="M118.536 113.288C121.936 111.768 123.824 104.264 119.336 101.592C122.224 101.328 127.336 99.448 127.448 98.024C131.288 99.304 134.456 99.696 135.16 97.576C136.312 94.096 134.776 90.376 132.608 88.192C132.096 90.04 126.752 91.096 123.072 89.888C116.912 87.872 110.616 89.56 112.672 94.688C105.28 97.352 110.344 107.016 118.536 113.288Z" fill="#263238"/>
<path d="M135.336 99.456C129.904 99.968 116.488 103.384 112.184 106.008C112.092 106.067 111.985 106.099 111.876 106.099C111.767 106.099 111.66 106.067 111.568 106.008C110.471 105.148 109.746 103.899 109.544 102.52C109.544 101.272 130.768 95.224 135.544 95C135.665 94.9915 135.785 95.0229 135.886 95.0893C135.987 95.1558 136.064 95.2538 136.104 95.368C136.391 96.6142 136.288 97.9187 135.808 99.104C135.77 99.2008 135.705 99.2849 135.622 99.3471C135.539 99.4093 135.44 99.447 135.336 99.456Z" fill="white"/>
<path d="M113.504 112.504C113.905 113.32 114.466 114.048 115.153 114.644C115.84 115.241 116.639 115.694 117.504 115.976C119.8 116.736 121.08 114.704 120.552 112.472C120.08 110.472 118.304 107.672 115.944 107.872C113.584 108.072 112.544 110.488 113.504 112.504Z" fill="#7F3E3B"/>
<path d="M148.08 197.04C148.08 197.04 148.48 250.472 146.28 272.608C146.016 275.24 145.792 278.08 145.6 281.088H126.68C126.776 277.144 127.016 273.368 127.424 269.824C127.104 257.928 124.712 246.072 122.448 235.56C118.32 216.456 118.888 197.536 118.888 197.536L134.992 197.248L148.08 197.04Z" fill="white"/>
<path opacity="0.2" d="M128.456 219.688C126.944 215.528 123.712 219.752 120.664 225.512C121.128 228.784 121.72 232.168 122.448 235.56C124.333 243.798 125.781 252.129 126.784 260.52C130.488 251.744 131.464 228 128.456 219.688Z" fill="black"/>
<path d="M127.296 106.488C127.352 107.072 127.712 107.512 128.096 107.472C128.48 107.432 128.744 106.92 128.688 106.336C128.632 105.752 128.272 105.304 127.888 105.344C127.504 105.384 127.24 105.896 127.296 106.488Z" fill="#263238"/>
<path d="M135 105.872C135.056 106.456 135.416 106.904 135.8 106.864C136.184 106.824 136.448 106.312 136.392 105.72C136.336 105.128 135.976 104.688 135.592 104.728C135.208 104.768 134.912 105.28 135 105.872Z" fill="#263238"/>
<path d="M132.072 106.28C132.949 108.004 134.061 109.597 135.376 111.016C134.432 112.096 132.616 111.816 132.616 111.816L132.072 106.28Z" fill="#630F0F"/>
<path d="M130.288 113.68C129.624 113.671 128.969 113.524 128.364 113.249C127.76 112.973 127.219 112.575 126.776 112.08C126.743 112.047 126.725 112.002 126.725 111.956C126.725 111.91 126.743 111.865 126.776 111.832C126.81 111.801 126.854 111.784 126.9 111.784C126.946 111.784 126.99 111.801 127.024 111.832C127.529 112.371 128.156 112.78 128.852 113.027C129.548 113.273 130.293 113.349 131.024 113.248C131.069 113.243 131.115 113.257 131.151 113.285C131.187 113.314 131.21 113.355 131.216 113.4C131.218 113.423 131.216 113.446 131.209 113.469C131.202 113.491 131.191 113.511 131.176 113.529C131.161 113.547 131.143 113.562 131.122 113.573C131.102 113.583 131.079 113.59 131.056 113.592C130.803 113.641 130.546 113.67 130.288 113.68Z" fill="#263238"/>
<path d="M125.568 103.84C125.509 103.839 125.451 103.823 125.4 103.792C125.361 103.769 125.327 103.738 125.3 103.702C125.273 103.666 125.254 103.624 125.243 103.58C125.233 103.536 125.231 103.49 125.239 103.445C125.247 103.401 125.263 103.358 125.288 103.32C125.563 102.84 125.949 102.433 126.414 102.134C126.879 101.834 127.409 101.651 127.96 101.6C128.005 101.598 128.05 101.605 128.093 101.62C128.135 101.635 128.175 101.659 128.208 101.689C128.241 101.72 128.269 101.757 128.288 101.798C128.307 101.838 128.318 101.883 128.32 101.928C128.322 102.02 128.288 102.109 128.225 102.177C128.163 102.244 128.076 102.284 127.984 102.288C127.549 102.34 127.132 102.493 126.767 102.734C126.401 102.976 126.098 103.3 125.88 103.68C125.846 103.732 125.8 103.774 125.745 103.802C125.691 103.83 125.629 103.843 125.568 103.84Z" fill="#263238"/>
<path d="M136.672 102.552C136.616 102.557 136.559 102.548 136.508 102.526C136.456 102.504 136.411 102.468 136.376 102.424C136.118 102.073 135.778 101.789 135.387 101.597C134.996 101.405 134.564 101.31 134.128 101.32C134.036 101.327 133.945 101.297 133.874 101.237C133.804 101.177 133.76 101.092 133.752 101C133.747 100.908 133.778 100.818 133.837 100.749C133.897 100.679 133.981 100.634 134.072 100.624C134.621 100.609 135.166 100.725 135.662 100.963C136.157 101.201 136.589 101.554 136.92 101.992C136.976 102.065 137.002 102.156 136.991 102.247C136.981 102.339 136.935 102.422 136.864 102.48C136.807 102.519 136.741 102.544 136.672 102.552Z" fill="#263238"/>
<path d="M136.688 197.248C136.688 197.248 131.488 215.648 126.832 235.56C123.72 248.84 120.264 262.528 118.032 271.312C117.277 274.64 116.277 277.908 115.04 281.088H95.8C96.7773 276.928 98.0882 272.853 99.72 268.904C104.8 235.944 104.936 204.608 109.816 197.248H136.688Z" fill="white"/>
<path d="M148.256 193.88L109.568 194.768C109.511 194.769 109.455 194.781 109.403 194.804C109.351 194.827 109.304 194.859 109.265 194.9C109.225 194.941 109.194 194.989 109.174 195.042C109.153 195.095 109.143 195.151 109.144 195.208V197.736C109.143 197.794 109.153 197.852 109.175 197.906C109.197 197.96 109.229 198.008 109.27 198.05C109.311 198.091 109.36 198.123 109.414 198.145C109.468 198.166 109.526 198.177 109.584 198.176L148.072 197.928C148.182 197.926 148.287 197.883 148.367 197.808C148.447 197.732 148.496 197.63 148.504 197.52L148.696 194.32C148.697 194.262 148.686 194.204 148.665 194.15C148.643 194.096 148.611 194.048 148.569 194.006C148.528 193.965 148.479 193.933 148.426 193.911C148.372 193.89 148.314 193.879 148.256 193.88Z" fill="white"/>
<path d="M104.928 189.6L110.528 189.184C111.699 189.097 112.875 189.264 113.976 189.672L116.688 190.68C117.009 190.8 117.303 190.982 117.552 191.217C117.801 191.451 118.001 191.734 118.14 192.047C118.278 192.36 118.353 192.697 118.359 193.04C118.365 193.382 118.303 193.722 118.176 194.04L117.016 196.984C116.798 197.557 116.383 198.034 115.844 198.327C115.306 198.621 114.68 198.712 114.08 198.584L110.448 197.784C110.448 197.784 103.688 197.472 103.248 193.848L104.928 189.6Z" fill="#7F3E3B"/>
<path d="M113.24 141.76C112.717 144.401 111.625 146.896 110.04 149.072L105.72 155.664L101.4 162.168C99.9919 164.312 98.5999 166.504 97.5199 168.52C97.2559 169.016 97.0159 169.488 96.8159 169.896L96.6959 170.168L96.6399 170.288V170.352C96.6399 170.352 96.6399 170.312 96.6399 170.296C96.6399 170.04 96.6399 169.944 96.5919 169.904C96.5439 169.864 96.4799 170.096 96.5199 170.44C96.5775 170.868 96.6685 171.29 96.7919 171.704C97.5308 173.935 98.5071 176.081 99.7039 178.104C100.936 180.296 102.312 182.496 103.76 184.656C105.208 186.816 106.736 189.008 108.28 191.056V191.12C108.705 191.754 108.89 192.519 108.8 193.277C108.711 194.035 108.353 194.737 107.792 195.254C107.231 195.772 106.503 196.072 105.74 196.1C104.978 196.128 104.23 195.883 103.632 195.408C99.4295 191.734 95.5067 187.753 91.8959 183.496C89.924 181.181 88.1999 178.666 86.7519 175.992C86.3338 175.181 85.9729 174.342 85.6719 173.48C85.2808 172.379 85.0439 171.23 84.9679 170.064C84.9222 169.261 84.9759 168.454 85.1279 167.664L85.1919 167.36V167.184L85.2799 166.824C85.3359 166.592 85.3919 166.328 85.4559 166.136C85.6879 165.272 85.9439 164.536 86.1919 163.736C87.2239 160.832 88.3199 158.272 89.4639 155.736C90.6079 153.2 91.8639 150.72 93.0879 148.28C94.3119 145.84 95.6879 143.48 97.0879 141.128C97.7499 139.934 98.5127 138.8 99.3679 137.736C100.25 136.625 101.29 135.649 102.456 134.84C103.579 134.084 104.897 133.671 106.251 133.654C107.604 133.636 108.934 134.014 110.075 134.742C111.217 135.469 112.122 136.513 112.678 137.747C113.235 138.981 113.419 140.351 113.208 141.688L113.24 141.76Z" fill="#803E3C"/>
<path d="M263.984 215.824C266.686 218.392 269.229 221.123 271.6 224C272.776 225.464 273.944 226.968 275.016 228.608C275.56 229.408 276.08 230.288 276.616 231.224C277.173 232.237 277.613 233.311 277.928 234.424C278.139 235.198 278.231 235.999 278.2 236.8C278.152 237.493 278.034 238.179 277.848 238.848C277.547 239.889 277.153 240.901 276.672 241.872C275.807 243.607 274.815 245.275 273.704 246.864C271.589 249.917 269.227 252.791 266.64 255.456C266.322 255.782 265.897 255.981 265.443 256.016C264.989 256.051 264.538 255.919 264.174 255.646C263.81 255.372 263.558 254.975 263.466 254.53C263.374 254.084 263.447 253.62 263.672 253.224V253.176C265.424 250.128 267.184 247.008 268.728 243.928C269.483 242.441 270.156 240.913 270.744 239.352C270.989 238.68 271.181 237.99 271.32 237.288L271.376 236.872V236.664C271.376 236.736 271.336 236.568 271.256 236.368C271.019 235.781 270.73 235.216 270.392 234.68C270 234.04 269.552 233.384 269.064 232.728C268.088 231.424 267.008 230.104 265.864 228.816C263.608 226.24 261.152 223.656 258.744 221.232L258.696 221.184C258.009 220.481 257.624 219.536 257.625 218.553C257.626 217.569 258.012 216.625 258.7 215.923C259.389 215.221 260.325 214.816 261.308 214.796C262.291 214.776 263.243 215.142 263.96 215.816L263.984 215.824Z" fill="#FFB573"/>
<path d="M264.536 252.192L257.152 255.104L264.688 257.928C264.688 257.928 267.696 256.096 267.448 253.048L264.536 252.192Z" fill="#FFB573"/>
<path d="M257.168 259.68L259.96 260.992C260.318 261.16 260.719 261.211 261.108 261.139C261.497 261.068 261.853 260.876 262.128 260.592L264.688 257.928L257.152 255.104L256.24 257.224C256.048 257.674 256.037 258.181 256.21 258.639C256.383 259.096 256.726 259.469 257.168 259.68Z" fill="#FFB573"/>
<path d="M251.328 197.88C250.472 202.248 249.624 210.24 252.672 213.144C252.672 213.144 250.096 220.288 240.536 221.616C235.136 217.152 239.12 213.144 239.12 213.144C243.984 211.984 243.856 208.344 243.008 204.992L251.328 197.88Z" fill="#FFB573"/>
<path d="M225.832 219.952C225.712 225.28 226.456 236.36 230.208 259.392H260.056C259.592 248.144 259.048 240.784 263.584 219.952C263.736 219.259 263.743 218.542 263.604 217.846C263.466 217.151 263.184 216.492 262.777 215.91C262.37 215.329 261.847 214.839 261.241 214.47C260.635 214.101 259.959 213.862 259.256 213.768C257.328 213.504 255.056 213.264 252.672 213.144C248.16 212.824 243.632 212.824 239.12 213.144C236.2 213.416 233.08 213.888 230.704 214.288C229.359 214.517 228.137 215.208 227.247 216.242C226.358 217.276 225.857 218.588 225.832 219.952Z" fill="#263238"/>
<path d="M237.016 187.72C236.816 188.272 236.36 188.624 235.992 188.52C235.624 188.416 235.496 187.824 235.696 187.272C235.896 186.72 236.352 186.36 236.712 186.472C237.072 186.584 237.216 187.2 237.016 187.72Z" fill="#263238"/>
<path d="M236.864 186.56L235.664 185.696C235.664 185.696 235.976 186.984 236.864 186.56Z" fill="#263238"/>
<path d="M235.8 189.152C234.987 190.347 234.012 191.424 232.904 192.352C233.15 192.63 233.453 192.851 233.793 192.998C234.133 193.146 234.501 193.218 234.872 193.208L235.8 189.152Z" fill="#ED893E"/>
<path d="M237.512 183.144C237.494 183.104 237.485 183.06 237.485 183.016C237.485 182.972 237.494 182.928 237.512 182.888C237.55 182.805 237.62 182.741 237.705 182.71C237.791 182.678 237.885 182.682 237.968 182.72C238.475 182.943 238.92 183.285 239.267 183.717C239.614 184.148 239.852 184.657 239.96 185.2C239.973 185.291 239.949 185.384 239.893 185.457C239.838 185.531 239.755 185.579 239.664 185.592C239.573 185.605 239.48 185.581 239.407 185.525C239.333 185.47 239.285 185.387 239.272 185.296C239.181 184.867 238.988 184.467 238.71 184.128C238.431 183.79 238.075 183.524 237.672 183.352C237.593 183.307 237.536 183.232 237.512 183.144Z" fill="#263238"/>
<path d="M256.512 192.304C253.64 199.008 252.576 201.904 247.856 204.192C240.752 207.632 233.144 202.64 233.952 195.216C234.672 188.528 239.24 178.68 246.928 178.344C248.623 178.262 250.31 178.615 251.83 179.369C253.35 180.123 254.652 181.253 255.612 182.652C256.573 184.05 257.16 185.672 257.317 187.361C257.474 189.05 257.197 190.752 256.512 192.304Z" fill="#FFB573"/>
<path d="M240.376 190.816C238.736 187.48 240.552 184.888 242.392 183.616C241.8 181.832 239.928 182.424 239.68 180.816C239.432 179.208 238.992 174.544 244.592 176.32C245.44 173.696 254.088 174.168 256.208 175.928C264.368 171.24 259.544 160.8 270.536 163.352C278.336 165.168 277.592 173.184 284.632 177.68C296.576 185.312 282.872 191.208 278.76 203.432C275.624 212.752 259.496 204.72 258.864 196.344C256.36 194.08 257.344 204.128 248.512 203.856C241.648 203.656 236.16 196.16 240.376 190.816Z" fill="#263238"/>
<path d="M257.456 198.248C257.208 198.248 256.962 198.2 256.733 198.105C256.504 198.01 256.296 197.871 256.12 197.696C252.6 194.208 247.528 185.04 253.552 175.296C253.681 175.079 253.853 174.89 254.056 174.74C254.259 174.59 254.489 174.482 254.735 174.422C254.98 174.362 255.235 174.352 255.484 174.391C255.733 174.43 255.972 174.519 256.187 174.651C256.402 174.784 256.588 174.958 256.735 175.163C256.882 175.369 256.987 175.601 257.043 175.847C257.099 176.093 257.106 176.348 257.063 176.597C257.02 176.846 256.928 177.083 256.792 177.296C250.888 186.896 258.48 194.68 258.808 195.008C258.985 195.185 259.126 195.395 259.222 195.626C259.318 195.858 259.367 196.106 259.367 196.356C259.367 196.606 259.318 196.854 259.222 197.086C259.126 197.317 258.985 197.527 258.808 197.704C258.445 198.054 257.96 198.25 257.456 198.248Z" fill="#0065FF"/>
<path d="M232.864 263.512C232.864 263.512 172.288 241.488 176.512 263.512C180.672 285.224 184.192 324.76 184.192 324.76L190.288 324.368C190.288 324.368 196.904 293.824 192.688 274.152C217.736 283.208 237.488 281.2 237.488 281.2L232.864 263.512Z" fill="#FFB573"/>
<path d="M183.928 325.432C183.08 318.56 181.384 300.504 180.448 295.032C185.159 294.803 189.88 295.114 194.52 295.96C194.52 295.96 192.12 319.488 190.624 324.568C188.43 325.099 186.185 325.389 183.928 325.432Z" fill="#0065FF"/>
<path d="M184.12 323.536L190.624 323.384C190.69 323.378 190.756 323.386 190.819 323.409C190.881 323.431 190.938 323.467 190.985 323.513C191.032 323.56 191.069 323.616 191.092 323.678C191.115 323.74 191.125 323.806 191.12 323.872L191.008 329.696C190.964 330.054 190.796 330.385 190.533 330.632C190.269 330.879 189.928 331.026 189.568 331.048C186.656 331.048 185.568 330.672 181.872 330.768C179.6 330.832 177.168 331.136 174.08 331.048C170.992 330.96 172.704 328.136 174.08 328.016C177.912 327.672 180.328 325.856 182.816 324.016C183.194 323.731 183.648 323.564 184.12 323.536Z" fill="#263238"/>
<path d="M240.64 269.232C240.64 269.232 254.512 331.632 270.44 331.048C292.84 330.248 323.752 320.728 323.752 320.728L322.784 315.464C322.784 315.464 290.608 313.456 275.864 317.376C270.52 293.304 262.512 269.232 262.512 269.232H240.64Z" fill="#FFB573"/>
<path d="M323.56 321.336C316.872 323.088 299.2 327.168 293.864 328.824C293.013 324.187 292.696 319.469 292.92 314.76C292.92 314.76 316.552 314.024 321.792 314.816C322.622 316.917 323.215 319.104 323.56 321.336Z" fill="#0065FF"/>
<path d="M322.032 320.936L320.488 314.624C320.468 314.56 320.461 314.492 320.47 314.425C320.478 314.358 320.501 314.294 320.537 314.237C320.573 314.18 320.621 314.131 320.677 314.094C320.734 314.058 320.797 314.034 320.864 314.024L326.568 312.896C326.922 312.866 327.276 312.961 327.568 313.164C327.86 313.367 328.072 313.665 328.168 314.008C328.816 316.848 328.416 319.088 329.176 322.696C330.552 329.248 328.984 331.056 325.888 331.064C322.792 331.072 322.856 330.08 323.896 329.208C327.096 326.512 325.08 324.168 322.76 322.136C322.403 321.817 322.15 321.4 322.032 320.936Z" fill="#263238"/>
<path d="M243.256 191.88C242.505 193.073 241.311 193.919 239.936 194.232C238.104 194.632 237.304 192.968 237.896 191.304C238.432 189.8 240.032 187.784 241.824 188.104C242.217 188.187 242.583 188.368 242.889 188.629C243.194 188.891 243.429 189.225 243.571 189.601C243.714 189.977 243.76 190.382 243.704 190.781C243.649 191.179 243.495 191.557 243.256 191.88Z" fill="#FFB573"/>
<path d="M230.304 261.016L260.6 260.04C260.666 260.038 260.73 260.02 260.788 259.99C260.846 259.959 260.896 259.915 260.935 259.862C260.973 259.809 260.999 259.747 261.011 259.682C261.022 259.618 261.018 259.551 261 259.488L260.544 257.888C260.516 257.795 260.459 257.714 260.381 257.656C260.303 257.598 260.209 257.567 260.112 257.568L230.2 258.544C230.085 258.548 229.976 258.597 229.896 258.681C229.817 258.765 229.774 258.877 229.776 258.992L229.832 260.592C229.833 260.652 229.846 260.71 229.871 260.765C229.895 260.819 229.931 260.867 229.975 260.907C230.02 260.947 230.072 260.977 230.128 260.996C230.185 261.015 230.245 261.022 230.304 261.016Z" fill="#0065FF"/>
<path d="M234.672 259.472C234.672 259.472 238.6 280.096 244.76 292.416C251.024 292.144 270.36 289.472 271.784 286.464C268.64 269.968 262.408 261.736 260.04 258.928C246.304 259.136 234.672 259.472 234.672 259.472Z" fill="#0065FF"/>
<path opacity="0.2" d="M240.6 282.208C241.256 284.16 241.968 286.088 242.72 287.936C244.741 285.566 246.204 282.771 247 279.76L240.6 282.208Z" fill="black"/>
<path d="M237.912 286.456C231.262 286.528 224.617 286.097 218.032 285.168C213.136 277.536 210.28 258.544 213.048 256.68C220.512 257.824 227.888 259.392 230.84 259.752C249.456 257.424 253.976 264.016 253.84 271.184C253.672 279.712 246.448 286.4 237.912 286.456Z" fill="#0065FF"/>
<path d="M259.8 213.832C263.101 214.329 266.082 216.084 268.12 218.728C267.502 222.7 266.007 226.485 263.744 229.808C256.584 226.024 254.728 222.096 256.448 216.968C257.096 214.904 259.8 213.832 259.8 213.832Z" fill="#263238"/>
<path d="M231.944 221.792C229.544 224.192 227.08 226.8 224.832 229.376C223.696 230.664 222.616 231.984 221.632 233.288C221.144 233.944 220.696 234.6 220.312 235.24C219.969 235.774 219.677 236.339 219.44 236.928C219.36 237.128 219.328 237.296 219.32 237.224V237.472L219.376 237.88C219.515 238.582 219.707 239.272 219.952 239.944C220.539 241.506 221.215 243.034 221.976 244.52C223.512 247.6 225.272 250.72 227.024 253.768V253.816C227.257 254.213 227.335 254.681 227.244 255.132C227.154 255.583 226.9 255.984 226.532 256.26C226.164 256.536 225.708 256.667 225.25 256.628C224.791 256.589 224.364 256.382 224.048 256.048C221.466 253.379 219.103 250.506 216.984 247.456C215.876 245.867 214.886 244.199 214.024 242.464C213.54 241.493 213.144 240.481 212.84 239.44C212.654 238.774 212.539 238.09 212.496 237.4C212.473 236.603 212.57 235.808 212.784 235.04C213.099 233.927 213.539 232.853 214.096 231.84C214.592 230.904 215.12 230.048 215.656 229.224C216.719 227.634 217.862 226.099 219.08 224.624C221.446 221.74 223.99 219.007 226.696 216.44C227.416 215.793 228.359 215.448 229.326 215.479C230.294 215.509 231.213 215.911 231.892 216.602C232.57 217.293 232.956 218.219 232.969 219.187C232.981 220.156 232.62 221.091 231.96 221.8L231.944 221.792Z" fill="#FFB573"/>
<path d="M223.56 254.192L225.6 261.864L229.28 254.712C229.28 254.712 227.8 251.512 224.752 251.4L223.56 254.192Z" fill="#FFB573"/>
<path d="M230.144 262.4L231.744 259.784C231.952 259.448 232.05 259.054 232.023 258.659C231.995 258.265 231.845 257.888 231.592 257.584L229.248 254.736L225.568 261.888L227.568 263.04C227.995 263.296 228.505 263.372 228.988 263.252C229.471 263.132 229.887 262.826 230.144 262.4Z" fill="#FFB573"/>
<path d="M230.952 214.4C223.08 215.632 221.68 220.544 221.68 220.544C222.291 223.945 223.493 227.213 225.232 230.2C234.728 228.6 236.032 222.664 234.312 217.536C233.616 215.456 230.952 214.4 230.952 214.4Z" fill="#263238"/>
</svg>
