<svg width="40" height="39" viewBox="0 0 40 39" fill="none" xmlns="http://www.w3.org/2000/svg">
<path fill-rule="evenodd" clip-rule="evenodd" d="M24 0H10C7.48044 0 5.06408 1.00089 3.28249 2.78249C1.50089 4.56408 0.5 6.98044 0.5 9.5V29.5C0.5 32.0196 1.50089 34.4359 3.28249 36.2175C5.06408 37.9991 7.48044 39 10 39H30C32.5196 39 34.9359 37.9991 36.7175 36.2175C38.4991 34.4359 39.5 32.0196 39.5 29.5V15.5C39.5 15.1022 39.342 14.7206 39.0607 14.4393C38.7794 14.158 38.3978 14 38 14C37.6022 14 37.2206 14.158 36.9393 14.4393C36.658 14.7206 36.5 15.1022 36.5 15.5V29.5C36.5008 30.3538 36.3332 31.1994 36.0068 31.9884C35.6804 32.7773 35.2017 33.4942 34.598 34.098C33.9942 34.7017 33.2773 35.1804 32.4884 35.5068C31.6994 35.8332 30.8538 36.0008 30 36H10C9.14619 36.0008 8.3006 35.8332 7.51162 35.5068C6.72265 35.1804 6.00578 34.7017 5.40205 34.098C4.79831 33.4942 4.31955 32.7773 3.99318 31.9884C3.6668 31.1994 3.49921 30.3538 3.5 29.5V9.5C3.49921 8.64619 3.6668 7.8006 3.99318 7.01162C4.31955 6.22265 4.79831 5.50578 5.40205 4.90205C6.00578 4.29831 6.72265 3.81955 7.51162 3.49318C8.3006 3.1668 9.14619 2.99921 10 3H24C24.3978 3 24.7794 2.84196 25.0607 2.56066C25.342 2.27936 25.5 1.89782 25.5 1.5C25.5 1.10218 25.342 0.720644 25.0607 0.43934C24.7794 0.158035 24.3978 0 24 0Z" fill="#797F89"/>
<path fill-rule="evenodd" clip-rule="evenodd" d="M38.9383 26.3281L31.9023 20.7021C30.8022 19.8214 29.4058 19.3967 28.0015 19.5158C26.5973 19.6349 25.2924 20.2887 24.3563 21.3421C19.8633 26.3958 15.3706 31.4498 10.8783 36.5041C10.7475 36.6515 10.647 36.8231 10.5826 37.0093C10.5181 37.1955 10.4909 37.3926 10.5026 37.5892C10.5143 37.7859 10.5647 37.9783 10.6507 38.1556C10.7368 38.3328 10.857 38.4913 11.0043 38.6221C11.1516 38.7529 11.3233 38.8534 11.5095 38.9179C11.6957 38.9823 11.8927 39.0095 12.0894 38.9978C12.2861 38.9861 12.4785 38.9358 12.6557 38.8497C12.833 38.7636 12.9915 38.6435 13.1223 38.4961L26.5983 23.3341C27.024 22.8556 27.6172 22.5587 28.2554 22.5048C28.8937 22.4508 29.5283 22.6439 30.0283 23.0441L37.0623 28.6721C37.3734 28.9202 37.7702 29.0348 38.1656 28.991C38.5611 28.9471 38.9231 28.7483 39.1723 28.4381C39.4203 28.127 39.535 27.7303 39.4911 27.3348C39.4473 26.9393 39.2485 26.5773 38.9383 26.3281Z" fill="#797F89"/>
<path fill-rule="evenodd" clip-rule="evenodd" d="M22.01 24.39L13.456 16.614C12.5096 15.7537 11.293 15.2501 10.0154 15.1898C8.73778 15.1296 7.47915 15.5165 6.45601 16.284L1.10001 20.3C0.781746 20.5387 0.571343 20.894 0.515082 21.2879C0.458821 21.6817 0.561312 22.0817 0.800006 22.4C1.0387 22.7183 1.39405 22.9287 1.78787 22.9849C2.1817 23.0412 2.58175 22.9387 2.90001 22.7L8.25601 18.684C8.72108 18.3351 9.29323 18.1592 9.87399 18.1866C10.4548 18.214 11.0078 18.4429 11.438 18.834L19.99 26.61C20.2887 26.8478 20.6666 26.963 21.0471 26.9325C21.4276 26.902 21.7822 26.7279 22.0391 26.4455C22.2961 26.1632 22.436 25.7937 22.4306 25.412C22.4252 25.0303 22.2748 24.6649 22.01 24.39ZM32.5 1.5V9.5C32.5 9.89782 32.658 10.2794 32.9393 10.5607C33.2206 10.842 33.6022 11 34 11C34.3978 11 34.7794 10.842 35.0607 10.5607C35.342 10.2794 35.5 9.89782 35.5 9.5V1.5C35.5 1.10218 35.342 0.720644 35.0607 0.43934C34.7794 0.158035 34.3978 0 34 0C33.6022 0 33.2206 0.158035 32.9393 0.43934C32.658 0.720644 32.5 1.10218 32.5 1.5Z" fill="#797F89"/>
<path fill-rule="evenodd" clip-rule="evenodd" d="M30 7H38C38.3978 7 38.7794 6.84196 39.0607 6.56066C39.342 6.27936 39.5 5.89782 39.5 5.5C39.5 5.10218 39.342 4.72064 39.0607 4.43934C38.7794 4.15804 38.3978 4 38 4H30C29.6022 4 29.2206 4.15804 28.9393 4.43934C28.658 4.72064 28.5 5.10218 28.5 5.5C28.5 5.89782 28.658 6.27936 28.9393 6.56066C29.2206 6.84196 29.6022 7 30 7Z" fill="#797F89"/>
<path d="M15 11.5C16.6569 11.5 18 10.1569 18 8.5C18 6.84315 16.6569 5.5 15 5.5C13.3431 5.5 12 6.84315 12 8.5C12 10.1569 13.3431 11.5 15 11.5Z" fill="#797F89"/>
</svg>
