<svg width="28" height="28" viewBox="0 0 28 28" fill="none" xmlns="http://www.w3.org/2000/svg">
<g clip-path="url(#clip0_1876_6341)">
<path d="M14.7 4.98243L14.6946 4.98249C14.6693 4.98277 14.6442 4.97806 14.6207 4.96863C14.5973 4.95921 14.5759 4.94526 14.5578 4.92757C14.5398 4.90989 14.5253 4.88881 14.5154 4.86556L14.0556 5.06186L14.5154 4.86556C14.5057 4.84289 14.5005 4.81858 14.5 4.79395C14.5019 2.43097 16.4624 0.500063 18.8981 0.500063V0.500109L18.9049 0.500018C18.93 0.499677 18.955 0.504307 18.9783 0.513639C19.0016 0.522972 19.0229 0.536825 19.0409 0.5544C19.0588 0.571973 19.0731 0.592924 19.0829 0.61605C19.0926 0.638729 19.0977 0.663061 19.0981 0.687698C19.0967 3.0512 17.1377 4.98246 14.7 4.98246V4.98243Z" fill="#071225" stroke="#071225"/>
<path d="M14.7 4.98243L14.6946 4.98249C14.6693 4.98277 14.6443 4.97806 14.6208 4.96863C14.5973 4.95921 14.5759 4.94526 14.5579 4.92757L14.2082 5.28492L14.5579 4.92757C14.5398 4.90989 14.5254 4.88882 14.5155 4.86556C14.5058 4.84289 14.5006 4.81858 14.5 4.79395C14.502 2.43097 16.4625 0.500063 18.8982 0.500063V0.500109L18.905 0.500018C18.9301 0.499677 18.955 0.504307 18.9784 0.513638L19.1638 0.0500362L18.9784 0.51364C19.0017 0.522972 19.0229 0.536824 19.0409 0.5544C19.0589 0.571971 19.0732 0.592922 19.083 0.616052C19.0926 0.638742 19.0978 0.663093 19.0982 0.687758C19.0967 3.05123 17.1378 4.98246 14.7 4.98246V4.98243ZM24.6241 20.3167L24.625 20.3173C24.7006 20.3726 24.7186 20.467 24.6816 20.5383L24.68 20.5413C23.4535 22.9441 22.3671 24.7109 21.3812 25.8707C20.3813 27.047 19.5688 27.5001 18.9 27.5001C18.1749 27.5001 17.4461 27.2715 16.7122 26.7993L16.7118 26.799C16.0595 26.3802 15.3041 26.1499 14.529 26.1334C13.754 26.117 12.9895 26.3151 12.32 26.7058L12.3191 26.7064C11.4011 27.2448 10.5642 27.5001 9.80005 27.5001C9.59334 27.5001 9.32699 27.4206 9.00082 27.2221C8.67747 27.0254 8.32409 26.729 7.9532 26.3415C7.21144 25.5665 6.44273 24.4725 5.74589 23.2271C4.34358 20.721 3.30005 17.7259 3.30005 15.6651C3.30005 13.4159 3.90296 11.4712 4.92546 10.1021C5.9409 8.74239 7.37335 7.9406 9.10005 7.9406C10.8423 7.9406 12.319 8.19183 13.542 8.68628L13.5431 8.68675C14.2191 8.95805 14.9853 8.94039 15.6483 8.62851L15.6488 8.62829C16.6091 8.17538 17.9157 7.9406 19.5982 7.9406C21.5129 7.9406 23.2122 8.86562 24.6632 10.7594L24.6636 10.7599C24.6779 10.7786 24.6884 10.7999 24.6943 10.8227C24.7002 10.8454 24.7016 10.8691 24.6982 10.8924L25.1929 10.9646L24.6982 10.8924C24.6948 10.9157 24.6867 10.938 24.6745 10.9581C24.6624 10.9782 24.6463 10.9957 24.6272 11.0095L24.6272 11.0095L24.6238 11.0119C22.837 12.3261 21.9 13.8626 21.9 15.6651C21.9 17.4657 22.8369 19.0042 24.6241 20.3167Z" fill="#071225" stroke="#071225"/>
<path d="M24.92 19.9135C25.1907 20.1114 25.2784 20.4735 25.1254 20.7684C22.6614 25.5956 20.6958 27.9999 18.9 27.9999C18.0638 27.9999 17.2424 27.7348 16.4416 27.2196C15.8669 26.8506 15.2013 26.6477 14.5184 26.6332C13.8355 26.6187 13.162 26.7932 12.572 27.1375C11.6014 27.7068 10.6774 27.9999 9.80005 27.9999C7.15872 27.9999 2.80005 20.0348 2.80005 15.665C2.80005 10.9983 5.29952 7.44043 9.10005 7.44043C10.8883 7.44043 12.432 7.69803 13.7294 8.22256C14.2782 8.44283 14.8998 8.4279 15.4355 8.1759C16.4883 7.67936 17.8771 7.44043 19.5982 7.44043C21.7019 7.44043 23.5368 8.4671 25.06 10.4551C25.1151 10.5268 25.1553 10.6088 25.1781 10.6963C25.2009 10.7838 25.206 10.875 25.1929 10.9644C25.1799 11.0539 25.149 11.1398 25.1021 11.2172C25.0552 11.2945 24.9933 11.3616 24.92 11.4146C23.2195 12.6652 22.4 14.0671 22.4 15.665C22.4 17.261 23.2195 18.6647 24.92 19.9135Z" fill="#071225"/>
</g>
<defs>
<clipPath id="clip0_1876_6341">
<rect width="28" height="28" fill="white"/>
</clipPath>
</defs>
</svg>
