<svg width="24" height="24" viewBox="0 0 24 24" fill="none" xmlns="http://www.w3.org/2000/svg">
<g clip-path="url(#clip0_3487_7162)">
<path d="M13.6228 20.6946C12.6989 20.9594 11.7424 21.0937 10.7812 21.0938C5.08584 21.0938 0.46875 16.4767 0.46875 10.7812C0.46875 5.0858 5.08584 0.46875 10.7812 0.46875C16.4767 0.46875 21.0938 5.0858 21.0938 10.7812C21.0938 11.7626 20.9536 12.739 20.6777 13.6808M10.7812 16.875V15.7032M16.875 10.7812H15.7031M10.7812 5.85933V4.68745M5.85933 10.7812H4.68745" stroke="#071225" stroke-miterlimit="2.6131" stroke-linecap="round" stroke-linejoin="round"/>
<path d="M9.46023 12.103L10.7816 10.7817V7.73481M6.47266 6.4727L6.96986 6.96986M6.47266 15.0906L6.96986 14.5934M14.5934 6.96986L15.0906 6.47266" stroke="#071225" stroke-miterlimit="2.6131" stroke-linecap="round" stroke-linejoin="round"/>
<path d="M20.6719 18.6044H19.0637L19.2932 16.5372M20.9014 16.5372V20.2125M15.8478 17.3257C16.2696 15.7087 18.4784 16.8823 17.3498 18.1365C16.8668 18.6731 16.0154 19.5874 15.8478 20.2125H17.6854M14.7285 14.7288L14.7286 14.7285" stroke="#071225" stroke-miterlimit="22.9256" stroke-linecap="round" stroke-linejoin="round"/>
<path d="M13.0957 18.6511C12.3441 18.8721 11.5647 18.9844 10.7812 18.9844C6.25078 18.9844 2.57812 15.3117 2.57812 10.7812C2.57812 6.25078 6.25078 2.57812 10.7812 2.57812C15.3117 2.57812 18.9844 6.25078 18.9844 10.7812C18.9844 11.5375 18.8798 12.2901 18.6736 13.0177" stroke="#071225" stroke-miterlimit="2.6131" stroke-linecap="round" stroke-linejoin="round"/>
<path d="M16.4542 13.5899C17.0649 13.3447 17.7169 13.2187 18.375 13.2188C21.2227 13.2188 23.5312 15.5273 23.5312 18.375C23.5312 21.2227 21.2227 23.5312 18.375 23.5312C15.5273 23.5312 13.2188 21.2227 13.2188 18.375C13.2188 17.7149 13.3455 17.0632 13.5898 16.4545" stroke="#071225" stroke-miterlimit="2.6131" stroke-linecap="round" stroke-linejoin="round"/>
</g>
<defs>
<clipPath id="clip0_3487_7162">
<rect width="24" height="24" fill="white"/>
</clipPath>
</defs>
</svg>
