<svg width="24" height="24" viewBox="0 0 24 24" fill="none" xmlns="http://www.w3.org/2000/svg">
<path d="M12 14.333C12.2307 14.333 12.4563 14.2646 12.6481 14.1364C12.84 14.0082 12.9895 13.826 13.0778 13.6128C13.1661 13.3996 13.1892 13.165 13.1442 12.9387C13.0992 12.7124 12.9881 12.5045 12.8249 12.3414C12.6618 12.1782 12.4539 12.0671 12.2276 12.0221C12.0013 11.9771 11.7667 12.0002 11.5535 12.0885C11.3403 12.1768 11.1581 12.3263 11.0299 12.5182C10.9017 12.71 10.8333 12.9356 10.8333 13.1663C10.8333 13.4758 10.9562 13.7725 11.175 13.9913C11.3938 14.2101 11.6906 14.333 12 14.333ZM17.8333 14.333C18.0641 14.333 18.2896 14.2646 18.4815 14.1364C18.6733 14.0082 18.8229 13.826 18.9112 13.6128C18.9995 13.3996 19.0226 13.165 18.9776 12.9387C18.9325 12.7124 18.8214 12.5045 18.6583 12.3414C18.4951 12.1782 18.2872 12.0671 18.0609 12.0221C17.8346 11.9771 17.6 12.0002 17.3868 12.0885C17.1737 12.1768 16.9915 12.3263 16.8633 12.5182C16.7351 12.71 16.6666 12.9356 16.6666 13.1663C16.6666 13.4758 16.7896 13.7725 17.0084 13.9913C17.2271 14.2101 17.5239 14.333 17.8333 14.333ZM12 18.9997C12.2307 18.9997 12.4563 18.9313 12.6481 18.8031C12.84 18.6749 12.9895 18.4927 13.0778 18.2795C13.1661 18.0663 13.1892 17.8317 13.1442 17.6054C13.0992 17.3791 12.9881 17.1712 12.8249 17.008C12.6618 16.8449 12.4539 16.7338 12.2276 16.6888C12.0013 16.6437 11.7667 16.6668 11.5535 16.7551C11.3403 16.8435 11.1581 16.993 11.0299 17.1848C10.9017 17.3767 10.8333 17.6023 10.8333 17.833C10.8333 18.1424 10.9562 18.4392 11.175 18.658C11.3938 18.8768 11.6906 18.9997 12 18.9997ZM17.8333 18.9997C18.0641 18.9997 18.2896 18.9313 18.4815 18.8031C18.6733 18.6749 18.8229 18.4927 18.9112 18.2795C18.9995 18.0663 19.0226 17.8317 18.9776 17.6054C18.9325 17.3791 18.8214 17.1712 18.6583 17.008C18.4951 16.8449 18.2872 16.7338 18.0609 16.6888C17.8346 16.6437 17.6 16.6668 17.3868 16.7551C17.1737 16.8435 16.9915 16.993 16.8633 17.1848C16.7351 17.3767 16.6666 17.6023 16.6666 17.833C16.6666 18.1424 16.7896 18.4392 17.0084 18.658C17.2271 18.8768 17.5239 18.9997 17.8333 18.9997ZM6.16665 14.333C6.39739 14.333 6.62295 14.2646 6.81481 14.1364C7.00667 14.0082 7.1562 13.826 7.24451 13.6128C7.33281 13.3996 7.35591 13.165 7.3109 12.9387C7.26588 12.7124 7.15477 12.5045 6.9916 12.3414C6.82844 12.1782 6.62056 12.0671 6.39425 12.0221C6.16794 11.9771 5.93336 12.0002 5.72018 12.0885C5.507 12.1768 5.32479 12.3263 5.1966 12.5182C5.0684 12.71 4.99998 12.9356 4.99998 13.1663C4.99998 13.4758 5.1229 13.7725 5.34169 13.9913C5.56048 14.2101 5.85723 14.333 6.16665 14.333ZM20.1666 2.66634H19V1.49967C19 1.19026 18.8771 0.893509 18.6583 0.674717C18.4395 0.455924 18.1427 0.333008 17.8333 0.333008C17.5239 0.333008 17.2271 0.455924 17.0084 0.674717C16.7896 0.893509 16.6666 1.19026 16.6666 1.49967V2.66634H7.33331V1.49967C7.33331 1.19026 7.2104 0.893509 6.9916 0.674717C6.77281 0.455924 6.47607 0.333008 6.16665 0.333008C5.85723 0.333008 5.56048 0.455924 5.34169 0.674717C5.1229 0.893509 4.99998 1.19026 4.99998 1.49967V2.66634H3.83331C2.90506 2.66634 2.01482 3.03509 1.35844 3.69147C0.702062 4.34784 0.333313 5.23808 0.333313 6.16634V20.1663C0.333313 21.0946 0.702062 21.9848 1.35844 22.6412C2.01482 23.2976 2.90506 23.6663 3.83331 23.6663H20.1666C21.0949 23.6663 21.9851 23.2976 22.6415 22.6412C23.2979 21.9848 23.6666 21.0946 23.6666 20.1663V6.16634C23.6666 5.23808 23.2979 4.34784 22.6415 3.69147C21.9851 3.03509 21.0949 2.66634 20.1666 2.66634ZM21.3333 20.1663C21.3333 20.4758 21.2104 20.7725 20.9916 20.9913C20.7728 21.2101 20.4761 21.333 20.1666 21.333H3.83331C3.52389 21.333 3.22715 21.2101 3.00836 20.9913C2.78956 20.7725 2.66665 20.4758 2.66665 20.1663V9.66634H21.3333V20.1663ZM21.3333 7.33301H2.66665V6.16634C2.66665 5.85692 2.78956 5.56018 3.00836 5.34138C3.22715 5.12259 3.52389 4.99967 3.83331 4.99967H20.1666C20.4761 4.99967 20.7728 5.12259 20.9916 5.34138C21.2104 5.56018 21.3333 5.85692 21.3333 6.16634V7.33301ZM6.16665 18.9997C6.39739 18.9997 6.62295 18.9313 6.81481 18.8031C7.00667 18.6749 7.1562 18.4927 7.24451 18.2795C7.33281 18.0663 7.35591 17.8317 7.3109 17.6054C7.26588 17.3791 7.15477 17.1712 6.9916 17.008C6.82844 16.8449 6.62056 16.7338 6.39425 16.6888C6.16794 16.6437 5.93336 16.6668 5.72018 16.7551C5.507 16.8435 5.32479 16.993 5.1966 17.1848C5.0684 17.3767 4.99998 17.6023 4.99998 17.833C4.99998 18.1424 5.1229 18.4392 5.34169 18.658C5.56048 18.8768 5.85723 18.9997 6.16665 18.9997Z" fill="#0065FF"/>
</svg>
