<svg width="24" height="25" viewBox="0 0 24 25" fill="none" xmlns="http://www.w3.org/2000/svg">
<path d="M6.72855 2.81644L8.38883 2.31586C8.93678 2.15092 9.52602 2.19094 10.0466 2.42846C10.5673 2.66598 10.9837 3.08477 11.2183 3.60672L12.3823 6.19529C12.5843 6.64437 12.6406 7.14544 12.5433 7.62816C12.446 8.11087 12.1999 8.55099 11.8397 8.88672L10.068 10.5376C9.83055 10.763 10.0105 11.6416 10.878 13.145C11.7463 14.6493 12.4174 15.2442 12.7268 15.1516L15.048 14.4419C15.5185 14.298 16.0222 14.3049 16.4886 14.4617C16.9549 14.6184 17.3605 14.9172 17.6485 15.3162L19.3028 17.609C19.637 18.072 19.7917 18.6406 19.7382 19.209C19.6848 19.7775 19.4268 20.3072 19.0123 20.6999L17.7334 21.911C17.3206 22.302 16.8114 22.5764 16.2579 22.7064C15.7043 22.8363 15.1262 22.8171 14.5825 22.6507C11.9031 21.8304 9.42169 19.3962 7.10483 15.3822C4.78283 11.3622 3.90598 7.97129 4.51712 5.20101C4.64038 4.6428 4.91028 4.12756 5.299 3.7084C5.68772 3.28925 6.18119 2.98135 6.72855 2.81644Z" fill="#0065FF"/>
</svg>
