<svg width="16" height="21" viewBox="0 0 16 21" fill="none" xmlns="http://www.w3.org/2000/svg">
<path d="M2.72855 0.816436L4.38883 0.315865C4.93678 0.150922 5.52602 0.190942 6.04664 0.42846C6.56725 0.665978 6.98369 1.08477 7.21826 1.60672L8.38226 4.19529C8.58429 4.64437 8.6406 5.14544 8.54328 5.62816C8.44597 6.11087 8.19993 6.55099 7.83969 6.88672L6.06798 8.53758C5.83055 8.76301 6.01055 9.64158 6.87797 11.145C7.74626 12.6493 8.4174 13.2442 8.72683 13.1516L11.048 12.4419C11.5185 12.298 12.0222 12.3049 12.4886 12.4617C12.9549 12.6184 13.3605 12.9172 13.6485 13.3162L15.3028 15.609C15.637 16.072 15.7917 16.6406 15.7382 17.209C15.6848 17.7775 15.4268 18.3072 15.0123 18.6999L13.7334 19.911C13.3206 20.302 12.8114 20.5764 12.2579 20.7064C11.7043 20.8363 11.1262 20.8171 10.5825 20.6507C7.90312 19.8304 5.42169 17.3962 3.10483 13.3822C0.782832 9.36215 -0.0940249 5.97129 0.517118 3.20101C0.640379 2.6428 0.91028 2.12756 1.299 1.7084C1.68772 1.28925 2.18119 0.981347 2.72855 0.816436Z" fill="#0065FF"/>
</svg>
