<svg width="28" height="28" viewBox="0 0 28 28" fill="none" xmlns="http://www.w3.org/2000/svg">
<path d="M8.16663 12.8333C8.16663 12.2145 8.41246 11.621 8.85004 11.1834C9.28763 10.7458 9.88112 10.5 10.5 10.5H22.1666C22.7855 10.5 23.379 10.7458 23.8165 11.1834C24.2541 11.621 24.5 12.2145 24.5 12.8333V19.8333C24.5 20.4522 24.2541 21.0457 23.8165 21.4832C23.379 21.9208 22.7855 22.1667 22.1666 22.1667H10.5C9.88112 22.1667 9.28763 21.9208 8.85004 21.4832C8.41246 21.0457 8.16663 20.4522 8.16663 19.8333V12.8333Z" stroke="#0065FF" stroke-width="2" stroke-linecap="round" stroke-linejoin="round"/>
<path d="M19.8333 10.4997V8.16634C19.8333 7.5475 19.5875 6.95401 19.1499 6.51643C18.7123 6.07884 18.1188 5.83301 17.5 5.83301H5.83333C5.21449 5.83301 4.621 6.07884 4.18342 6.51643C3.74583 6.95401 3.5 7.5475 3.5 8.16634V15.1663C3.5 15.7852 3.74583 16.3787 4.18342 16.8163C4.621 17.2538 5.21449 17.4997 5.83333 17.4997H8.16667M14 16.333C14 16.9518 14.2458 17.5453 14.6834 17.9829C15.121 18.4205 15.7145 18.6663 16.3333 18.6663C16.9522 18.6663 17.5457 18.4205 17.9832 17.9829C18.4208 17.5453 18.6667 16.9518 18.6667 16.333C18.6667 15.7142 18.4208 15.1207 17.9832 14.6831C17.5457 14.2455 16.9522 13.9997 16.3333 13.9997C15.7145 13.9997 15.121 14.2455 14.6834 14.6831C14.2458 15.1207 14 15.7142 14 16.333Z" stroke="#0065FF" stroke-width="2" stroke-linecap="round" stroke-linejoin="round"/>
</svg>
