<svg width="18" height="18" viewBox="0 0 18 18" fill="none" xmlns="http://www.w3.org/2000/svg">
<path d="M8.99997 0.666504C13.6025 0.666504 17.3333 4.39734 17.3333 8.99984C17.3333 13.6023 13.6025 17.3332 8.99997 17.3332C7.65182 17.335 6.32354 17.0083 5.12997 16.3815L1.55497 17.3123C1.43551 17.3434 1.31 17.3428 1.19088 17.3105C1.07175 17.2781 0.963139 17.2152 0.875813 17.128C0.788486 17.0407 0.725475 16.9322 0.693022 16.8131C0.66057 16.694 0.659804 16.5685 0.690801 16.449L1.6208 12.8748C0.9923 11.68 0.664776 10.3499 0.666634 8.99984C0.666634 4.39734 4.39747 0.666504 8.99997 0.666504ZM10.0433 9.83317H6.29163L6.20663 9.839C6.05704 9.85959 5.91996 9.93363 5.82073 10.0475C5.7215 10.1613 5.66683 10.3072 5.66683 10.4582C5.66683 10.6092 5.7215 10.7551 5.82073 10.8689C5.91996 10.9827 6.05704 11.0568 6.20663 11.0773L6.29163 11.0832H10.0433L10.1275 11.0773C10.2771 11.0568 10.4141 10.9827 10.5134 10.8689C10.6126 10.7551 10.6673 10.6092 10.6673 10.4582C10.6673 10.3072 10.6126 10.1613 10.5134 10.0475C10.4141 9.93363 10.2771 9.85959 10.1275 9.839L10.0433 9.83317ZM11.7083 6.9165H6.29163L6.20663 6.92234C6.05704 6.94292 5.91996 7.01697 5.82073 7.13078C5.7215 7.2446 5.66683 7.3905 5.66683 7.5415C5.66683 7.69251 5.7215 7.8384 5.82073 7.95222C5.91996 8.06604 6.05704 8.14009 6.20663 8.16067L6.29163 8.1665H11.7083L11.7933 8.16067C11.9429 8.14009 12.08 8.06604 12.1792 7.95222C12.2784 7.8384 12.3331 7.69251 12.3331 7.5415C12.3331 7.3905 12.2784 7.2446 12.1792 7.13078C12.08 7.01697 11.9429 6.94292 11.7933 6.92234L11.7083 6.9165Z" fill="#979BA3"/>
</svg>
