<svg width="26" height="20" viewBox="0 0 26 20" fill="none" xmlns="http://www.w3.org/2000/svg">
<path d="M11.3172 4.07332C11.3172 5.15363 10.888 6.1897 10.1239 6.95359C9.3599 7.71749 8.32364 8.14664 7.24313 8.14664C6.16262 8.14664 5.12636 7.71749 4.36232 6.95359C3.59829 6.1897 3.16905 5.15363 3.16905 4.07332C3.16905 2.99301 3.59829 1.95694 4.36232 1.19305C5.12636 0.429152 6.16262 0 7.24313 0C8.32364 0 9.3599 0.429152 10.1239 1.19305C10.888 1.95694 11.3172 2.99301 11.3172 4.07332ZM17.0209 8.14664C17.8853 8.14664 18.7143 7.80332 19.3256 7.1922C19.9368 6.58108 20.2802 5.75223 20.2802 4.88798C20.2802 4.02373 19.9368 3.19488 19.3256 2.58377C18.7143 1.97265 17.8853 1.62933 17.0209 1.62933C16.1565 1.62933 15.3275 1.97265 14.7163 2.58377C14.105 3.19488 13.7616 4.02373 13.7616 4.88798C13.7616 5.75223 14.105 6.58108 14.7163 7.1922C15.3275 7.80332 16.1565 8.14664 17.0209 8.14664ZM11.3172 10.5906C11.3172 10.3071 11.3661 10.0334 11.4557 9.77923C11.4096 9.77686 11.3634 9.77577 11.3172 9.77597H3.16905C2.52075 9.77597 1.89899 10.0335 1.44057 10.4918C0.982148 10.9501 0.724609 11.5718 0.724609 12.22V12.3422C0.724609 12.3422 0.724609 17.1079 7.24313 17.1079C9.21498 17.1079 10.592 16.6713 11.5519 16.0619C11.6529 15.8501 11.7833 15.653 11.9397 15.4786C11.538 15.031 11.3163 14.4506 11.3172 13.8493C11.3172 13.2236 11.5519 12.6517 11.9397 12.22C11.538 11.7724 11.3163 11.192 11.3172 10.5906ZM13.7616 9.77597C13.5455 9.77597 13.3383 9.8618 13.1855 10.0146C13.0327 10.1674 12.9468 10.3746 12.9468 10.5906C12.9468 10.8067 13.0327 11.0139 13.1855 11.1667C13.3383 11.3195 13.5455 11.4053 13.7616 11.4053H21.9098C22.1259 11.4053 22.3331 11.3195 22.486 11.1667C22.6388 11.0139 22.7246 10.8067 22.7246 10.5906C22.7246 10.3746 22.6388 10.1674 22.486 10.0146C22.3331 9.8618 22.1259 9.77597 21.9098 9.77597H13.7616ZM13.7616 13.0346C13.5455 13.0346 13.3383 13.1205 13.1855 13.2732C13.0327 13.426 12.9468 13.6332 12.9468 13.8493C12.9468 14.0653 13.0327 14.2726 13.1855 14.4253C13.3383 14.5781 13.5455 14.664 13.7616 14.664H21.9098C22.1259 14.664 22.3331 14.5781 22.486 14.4253C22.6388 14.2726 22.7246 14.0653 22.7246 13.8493C22.7246 13.6332 22.6388 13.426 22.486 13.2732C22.3331 13.1205 22.1259 13.0346 21.9098 13.0346H13.7616ZM13.7616 16.2933C13.5455 16.2933 13.3383 16.3791 13.1855 16.5319C13.0327 16.6847 12.9468 16.8919 12.9468 17.1079C12.9468 17.324 13.0327 17.5312 13.1855 17.684C13.3383 17.8368 13.5455 17.9226 13.7616 17.9226H21.9098C22.1259 17.9226 22.3331 17.8368 22.486 17.684C22.6388 17.5312 22.7246 17.324 22.7246 17.1079C22.7246 16.8919 22.6388 16.6847 22.486 16.5319C22.3331 16.3791 22.1259 16.2933 21.9098 16.2933H13.7616Z" fill="#979BA3"/>
</svg>
