<svg width="26" height="26" viewBox="0 0 26 26" fill="none" xmlns="http://www.w3.org/2000/svg">
<path d="M13 0.283203C5.9764 0.283203 0.282776 5.97683 0.282776 13.0005C0.282776 20.0241 5.9764 25.7177 13 25.7177C20.0237 25.7177 25.7173 20.0241 25.7173 13.0005C25.7173 5.97683 20.0237 0.283203 13 0.283203ZM14.0982 19.8955V21.6866H12.3849V19.9156C9.57353 19.5306 8.3424 17.2206 8.3424 17.2206L10.0924 15.7567C10.0924 15.7567 11.2098 17.7018 13.231 17.7018C14.3475 17.7018 15.1945 17.1042 15.1945 16.0831C15.1945 13.6961 8.76328 13.9857 8.76328 9.55733C8.76328 7.63233 10.2858 6.24545 12.384 5.91733V4.12795H14.0973V5.91733C15.5603 6.10983 17.2928 6.87983 17.2928 8.5362V9.8067H15.0213V9.1907C15.0213 8.55545 14.2119 8.13195 13.3063 8.13195C12.1513 8.13195 11.3052 8.70945 11.3052 9.51795C11.3052 11.9627 17.7364 11.366 17.7364 16.0061C17.7364 17.9136 16.3119 19.5673 14.0982 19.8955Z" fill="#0065FF"/>
</svg>
