<svg width="30" height="30" viewBox="0 0 30 30" fill="none" xmlns="http://www.w3.org/2000/svg">
<path fill-rule="evenodd" clip-rule="evenodd" d="M15 30C23.2843 30 30 23.2843 30 15C30 6.71573 23.2843 0 15 0C6.71573 0 0 6.71573 0 15C0 23.2843 6.71573 30 15 30ZM19.854 9.7851C20.4212 9.1832 21.4725 9.29631 22.0556 9.7851C22.7069 10.3309 22.5863 11.2322 22.0556 11.7954L14.1254 20.2107C13.616 20.7511 12.4305 20.775 11.9237 20.2107L7.93906 15.7737C7.3859 15.1578 7.32226 14.377 7.93906 13.7634C8.46955 13.2358 9.62215 13.186 10.1407 13.7634L13.051 17.0041L19.854 9.7851Z" fill="#0065FF"/>
</svg>
