<svg width="20" height="20" viewBox="0 0 20 20" fill="none" xmlns="http://www.w3.org/2000/svg">
<g clip-path="url(#clip0_5783_36897)">
<mask id="mask0_5783_36897" style="mask-type:luminance" maskUnits="userSpaceOnUse" x="0" y="0" width="20" height="20">
<path d="M0 0H20V20H0V0Z" fill="white"/>
</mask>
<g mask="url(#mask0_5783_36897)">
<path d="M9.16634 14.9997C9.16634 15.9163 8.41634 16.6663 7.49967 16.6663C6.58301 16.6663 5.83301 15.9163 5.83301 14.9997C5.83301 14.083 6.58301 13.333 7.49967 13.333C8.41634 13.333 9.16634 14.083 9.16634 14.9997ZM7.49967 8.33301C6.58301 8.33301 5.83301 9.08301 5.83301 9.99967C5.83301 10.9163 6.58301 11.6663 7.49967 11.6663C8.41634 11.6663 9.16634 10.9163 9.16634 9.99967C9.16634 9.08301 8.41634 8.33301 7.49967 8.33301ZM7.49967 3.33301C6.58301 3.33301 5.83301 4.08301 5.83301 4.99967C5.83301 5.91634 6.58301 6.66634 7.49967 6.66634C8.41634 6.66634 9.16634 5.91634 9.16634 4.99967C9.16634 4.08301 8.41634 3.33301 7.49967 3.33301ZM12.4997 6.66634C13.4163 6.66634 14.1663 5.91634 14.1663 4.99967C14.1663 4.08301 13.4163 3.33301 12.4997 3.33301C11.583 3.33301 10.833 4.08301 10.833 4.99967C10.833 5.91634 11.583 6.66634 12.4997 6.66634ZM12.4997 8.33301C11.583 8.33301 10.833 9.08301 10.833 9.99967C10.833 10.9163 11.583 11.6663 12.4997 11.6663C13.4163 11.6663 14.1663 10.9163 14.1663 9.99967C14.1663 9.08301 13.4163 8.33301 12.4997 8.33301ZM12.4997 13.333C11.583 13.333 10.833 14.083 10.833 14.9997C10.833 15.9163 11.583 16.6663 12.4997 16.6663C13.4163 16.6663 14.1663 15.9163 14.1663 14.9997C14.1663 14.083 13.4163 13.333 12.4997 13.333Z" fill="#4F5764"/>
</g>
</g>
<defs>
<clipPath id="clip0_5783_36897">
<rect width="20" height="20" fill="white"/>
</clipPath>
</defs>
</svg>
