<svg width="25" height="24" viewBox="0 0 25 24" fill="none" xmlns="http://www.w3.org/2000/svg">
<rect x="0.5" width="24" height="24" rx="12" fill="#EE9F2F"/>
<path d="M13.5 8.33333L16.1666 11M15.1666 16.6667H19.1666M7.16663 17.3333H9.83329L16.8333 10.3333C17.0084 10.1582 17.1473 9.95037 17.242 9.72159C17.3368 9.49282 17.3856 9.24762 17.3856 9C17.3856 8.75238 17.3368 8.50718 17.242 8.2784C17.1473 8.04963 17.0084 7.84176 16.8333 7.66666C16.6582 7.49157 16.4503 7.35268 16.2216 7.25791C15.9928 7.16315 15.7476 7.11438 15.5 7.11438C15.2523 7.11438 15.0071 7.16315 14.7784 7.25791C14.5496 7.35268 14.3417 7.49157 14.1666 7.66666L7.16663 14.6667V17.3333Z" stroke="white" stroke-width="0.7" stroke-linecap="round" stroke-linejoin="round"/>
</svg>
