<svg width="22" height="22" viewBox="0 0 22 22" fill="none" xmlns="http://www.w3.org/2000/svg">
<path d="M12.3044 6.21689L15.7826 9.69515M14.4783 17.0865H19.6957M4.04352 17.956H7.52178L16.6522 8.82558C16.8806 8.5972 17.0618 8.32607 17.1854 8.02766C17.309 7.72926 17.3726 7.40944 17.3726 7.08645C17.3726 6.76347 17.309 6.44364 17.1854 6.14524C17.0618 5.84684 16.8806 5.57571 16.6522 5.34732C16.4238 5.11894 16.1527 4.93777 15.8543 4.81417C15.5559 4.69057 15.2361 4.62695 14.9131 4.62695C14.5901 4.62695 14.2703 4.69057 13.9719 4.81417C13.6735 4.93777 13.4023 5.11894 13.174 5.34732L4.04352 14.4778V17.956Z" stroke="#EE9F2F" stroke-width="2" stroke-linecap="round" stroke-linejoin="round"/>
</svg>
