<svg width="143" height="143" viewBox="0 0 143 143" fill="none" xmlns="http://www.w3.org/2000/svg">
<g clip-path="url(#clip0_2027_41647)">
<path d="M117.242 69.1821V116.42C117.242 117.856 116.456 119.176 115.192 119.861L73.3654 142.524C72.7929 142.834 72.1521 142.996 71.501 142.996C70.85 142.996 70.2092 142.834 69.6367 142.524L27.8065 119.861C27.1874 119.524 26.6705 119.027 26.3103 118.422C25.9501 117.816 25.7599 117.124 25.7598 116.42V69.1821H117.242Z" fill="#6BA6FF"/>
<path d="M117.242 77.6816V93.7538L93.0733 106.849C92.5992 107.105 92.0773 107.261 91.5404 107.306C91.0034 107.352 90.4627 107.286 89.9522 107.114L71.501 100.866V77.6816H117.242Z" fill="#2B7FFF"/>
<path d="M108.972 69.1824V123.231L115.193 119.86C115.812 119.524 116.33 119.027 116.691 118.422C117.052 117.816 117.242 117.124 117.242 116.419V69.1824H108.972ZM71.501 69.1821V143C70.8584 143 70.2188 142.843 69.6334 142.527L27.8065 119.861C27.1876 119.524 26.671 119.026 26.3108 118.421C25.9507 117.815 25.7603 117.124 25.7598 116.42V69.1821H71.501Z" fill="#6BA6FF"/>
<path d="M71.501 77.6816V100.866L53.0465 107.114C52.5365 107.286 51.9964 107.352 51.46 107.306C50.9235 107.261 50.4023 107.105 49.9287 106.849L25.7598 93.7538V77.6816H71.501Z" fill="#2B7FFF"/>
<path d="M63.3877 69.1821V139.14L69.6347 142.525C70.2077 142.836 70.8495 142.999 71.5015 142.999V69.1821H63.3877Z" fill="#96C0FF"/>
<path d="M71.5006 44.3984L25.7588 69.1824L71.5006 93.9661L117.242 69.1824L71.5006 44.3984Z" fill="#797F89"/>
<path d="M107.831 74.2829L71.501 93.9652L35.1709 74.2829L58.9687 61.388C62.8167 59.3029 67.1242 58.2109 71.5009 58.2109C75.8775 58.2109 80.185 59.3029 84.0331 61.388L107.831 74.2829Z" fill="#5B636F"/>
<path d="M131.793 52.4881L117.242 69.1822L71.5 44.3983L86.627 27.0441C86.9192 26.709 87.3169 26.4833 87.7545 26.4042C88.1921 26.3252 88.6435 26.3975 89.0345 26.6093L131.25 49.4815C132.352 50.0786 132.616 51.5432 131.793 52.4881Z" fill="#EBECEE"/>
<path d="M91.7082 33.2241C91.7082 36.6362 88.9418 39.4055 85.5299 39.4055C82.7579 39.4055 80.4132 37.5817 79.6309 35.0713L86.5538 27.1304C89.48 27.6189 91.7082 30.161 91.7082 33.2241Z" fill="#E6F0FF"/>
<path d="M11.2075 52.4881L25.7583 69.1822L71.5004 44.3983L56.3734 27.0441C56.0812 26.709 55.6836 26.4833 55.246 26.4042C54.8084 26.3252 54.3569 26.3975 53.9659 26.6093L11.7507 49.4817C10.6486 50.0786 10.3841 51.5432 11.2075 52.4881Z" fill="#EBECEE"/>
<path d="M45.5856 36.6043C45.5856 40.9007 42.1008 44.3824 37.8044 44.3824C34.462 44.3824 31.6115 42.2735 30.5119 39.3152L44.0584 31.9761C45.0529 33.3139 45.5886 34.9373 45.5856 36.6043ZM9.93502 74.5406L25.7586 69.1823L71.5004 93.9663L53.0479 100.214C52.5376 100.387 51.9971 100.453 51.4602 100.407C50.9234 100.361 50.4018 100.205 49.9281 99.9483L9.63031 78.1151C8.12853 77.3012 8.31706 75.0886 9.93502 74.5406Z" fill="#D9D9D9"/>
<path d="M133.065 74.5404L117.242 69.1821L71.5 93.9661L89.9526 100.214C90.4629 100.387 91.0034 100.452 91.5402 100.407C92.077 100.361 92.5986 100.205 93.0723 99.9481L133.37 78.1149C134.872 77.301 134.683 75.0884 133.065 74.5404Z" fill="#F5F6F6"/>
<path d="M83.7187 126.772C83.2385 126.773 82.7718 126.613 82.3926 126.318C82.0133 126.024 81.7432 125.611 81.625 125.145C81.5068 124.68 81.5472 124.188 81.7399 123.748C81.9325 123.308 82.2664 122.945 82.6887 122.716L87.639 120.034C88.1416 119.768 88.7292 119.711 89.2738 119.875C89.8183 120.04 90.2759 120.413 90.5469 120.913C90.818 121.413 90.8805 122 90.721 122.546C90.5615 123.093 90.1928 123.554 89.6951 123.829L84.7449 126.511C84.43 126.683 84.0772 126.772 83.7187 126.772Z" fill="#2B7FFF"/>
<path d="M30.0254 28.8242C30.0254 24.5275 33.5085 21.0444 37.8052 21.0444C42.1019 21.0444 45.585 24.5275 45.585 28.8242C45.585 33.121 42.1019 36.6041 37.8052 36.6041C33.5085 36.6041 30.0254 33.121 30.0254 28.8242Z" fill="#EE9F2F"/>
<path d="M33.8594 35.5282C36.9132 34.8244 39.1886 32.0904 39.1886 28.8231C39.1886 25.5593 36.9168 22.8219 33.863 22.1181C35.0571 21.4128 36.419 21.0419 37.8058 21.0444C42.1006 21.0444 45.5845 24.5287 45.5845 28.8231C45.5845 33.1212 42.1003 36.6055 37.8058 36.6055C36.3658 36.6055 35.0148 36.2145 33.8594 35.5282Z" fill="#D68F2A"/>
<path d="M55.7572 6.35018C55.3524 5.94556 54.8035 5.71826 54.2311 5.71826C53.6588 5.71826 53.1099 5.94556 52.7051 6.35018L50.9248 8.13042L49.1446 6.35018C48.7392 5.94868 48.1913 5.72404 47.6208 5.72539C47.0502 5.72675 46.5034 5.95399 46.0999 6.35742C45.6965 6.76085 45.4692 7.30763 45.4678 7.87819C45.4664 8.44875 45.691 8.99665 46.0924 9.40206L47.8727 11.1823L46.0924 12.9625C45.691 13.368 45.4664 13.9159 45.4678 14.4864C45.4692 15.057 45.6965 15.6038 46.0999 16.0072C46.5034 16.4106 47.0502 16.6378 47.6208 16.6392C48.1913 16.6406 48.7392 16.4159 49.1446 16.0144L50.9248 14.2342L52.7051 16.0144C53.1265 16.4359 53.679 16.6465 54.2311 16.6465C54.7833 16.6465 55.3358 16.4356 55.7572 16.0144C56.1619 15.6097 56.3892 15.0608 56.3892 14.4885C56.3892 13.9161 56.1619 13.3673 55.7572 12.9625L53.977 11.1823L55.7572 9.40206C56.1619 8.99734 56.3892 8.44845 56.3892 7.87612C56.3892 7.30379 56.1619 6.7549 55.7572 6.35018ZM117.864 25.3184L119.644 23.5381C120.045 23.1327 120.27 22.5848 120.269 22.0142C120.267 21.4437 120.04 20.8969 119.636 20.4935C119.233 20.09 118.686 19.8628 118.116 19.8614C117.545 19.8601 116.997 20.0847 116.592 20.4862L114.811 22.2665L113.031 20.4862C112.626 20.0847 112.078 19.8601 111.507 19.8614C110.937 19.8628 110.39 20.09 109.987 20.4935C109.583 20.8969 109.356 21.4437 109.354 22.0142C109.353 22.5848 109.578 23.1327 109.979 23.5381L111.759 25.3184L109.979 27.0986C109.578 27.504 109.353 28.0519 109.354 28.6225C109.356 29.193 109.583 29.7398 109.987 30.1432C110.39 30.5467 110.937 30.7739 111.507 30.7753C112.078 30.7766 112.626 30.552 113.031 30.1505L114.811 28.3702L116.592 30.1505C117.013 30.5719 117.566 30.7825 118.118 30.7825C118.67 30.7825 119.222 30.5716 119.644 30.1505C120.049 29.7457 120.276 29.1969 120.276 28.6245C120.276 28.0522 120.049 27.5033 119.644 27.0986L117.864 25.3184Z" fill="#EE9F2F"/>
<path d="M85.5291 33.2246C88.9419 33.2246 91.7085 30.458 91.7085 27.0452C91.7085 23.6324 88.9419 20.8657 85.5291 20.8657C82.1162 20.8657 79.3496 23.6324 79.3496 27.0452C79.3496 30.458 82.1162 33.2246 85.5291 33.2246Z" fill="#64B9FC"/>
<path d="M91.708 27.0441C91.708 30.4583 88.9404 33.2258 85.5291 33.2258C84.4262 33.2282 83.3432 32.9326 82.3945 32.37C84.8202 31.8109 86.6276 29.6394 86.6276 27.0441C86.6276 24.4517 84.823 22.2774 82.3973 21.7182C83.3458 21.158 84.4275 20.8633 85.5291 20.8652C88.9404 20.8652 91.708 23.6328 91.708 27.0441Z" fill="#31A7FB"/>
<path d="M98.0658 14.4871C102.066 14.4871 105.309 11.2441 105.309 7.24356C105.309 3.24305 102.066 0 98.0658 0C94.0653 0 90.8223 3.24305 90.8223 7.24356C90.8223 11.2441 94.0653 14.4871 98.0658 14.4871Z" fill="#A8E7EF"/>
<path d="M105.31 7.24225C105.31 11.2443 102.066 14.4883 98.067 14.4883C96.7264 14.4883 95.4684 14.1241 94.3926 13.4854C97.2361 12.8299 99.3546 10.2844 99.3546 7.24225C99.3546 4.2035 97.2394 1.65464 94.3959 0.999127C95.5076 0.342499 96.7756 -0.00278087 98.0667 -0.000476825C102.066 -0.000476825 105.31 3.24356 105.31 7.24225Z" fill="#70D9E6"/>
<path d="M91.2582 76.2905C91.2582 79.0785 90.6798 81.7343 89.6355 84.1396L71.5002 93.9655L53.3649 84.1396C52.3206 81.7343 51.7422 79.0785 51.7422 76.2905C51.7422 65.3801 60.5898 56.5322 71.5002 56.5322C82.4107 56.5322 91.2582 65.3798 91.2582 76.2905Z" fill="#2B7FFF"/>
<path d="M91.2557 76.2904C91.2557 79.0783 90.6773 81.7342 89.6358 84.1395L76.8694 91.0565C80.938 87.4369 83.5016 82.1629 83.5016 76.2904C83.5016 66.7063 76.6795 58.719 67.625 56.915C68.9013 56.6613 70.1995 56.534 71.5008 56.5352C82.411 56.5349 91.2557 65.3769 91.2557 76.2904Z" fill="#0065FF"/>
<path d="M75.4264 84.3291C74.913 84.3295 74.4165 84.1462 74.0265 83.8124C73.3277 83.2161 72.3237 82.872 71.2716 82.8689H71.2573C70.2105 82.8689 69.2101 83.2063 68.511 83.7959C68.2943 83.9786 68.0438 84.1168 67.7738 84.2026C67.5037 84.2884 67.2194 84.3203 66.937 84.2962C66.6546 84.2722 66.3798 84.1927 66.1281 84.0625C65.8765 83.9322 65.6529 83.7537 65.4703 83.537C65.2876 83.3204 65.1493 83.0699 65.0634 82.7998C64.9775 82.5298 64.9457 82.2454 64.9697 81.9631C64.9937 81.6807 65.0731 81.4058 65.2034 81.1542C65.3337 80.9025 65.5122 80.6789 65.7289 80.4963C67.2159 79.2425 69.1782 78.5529 71.2573 78.5529H71.2847C73.3741 78.5594 75.3431 79.2612 76.829 80.5295C77.1649 80.8161 77.4049 81.1988 77.5164 81.626C77.628 82.0532 77.6058 82.5043 77.4529 82.9185C77.3 83.3327 77.0237 83.6901 76.6613 83.9423C76.2989 84.1945 75.8679 84.3295 75.4264 84.3291ZM62.1126 76.4783H62.0975C60.9054 76.4699 59.9363 75.4972 59.9444 74.3054C59.9528 73.1136 60.9141 72.1447 62.107 72.1623L62.1271 72.1626C62.6935 72.1734 63.2329 72.4065 63.6289 72.8116C64.025 73.2166 64.2459 73.7611 64.244 74.3276C64.2421 74.8941 64.0175 75.4371 63.6188 75.8395C63.22 76.2419 62.679 76.4713 62.1126 76.4783ZM80.9067 76.4783H80.8917C79.6996 76.4699 78.7305 75.4972 78.7386 74.3054C78.7469 73.1189 79.7016 72.1623 80.8861 72.1623H80.9011L80.9213 72.1626C81.4876 72.1734 82.0271 72.4065 82.4231 72.8116C82.8192 73.2166 83.0401 73.7611 83.0382 74.3276C83.0363 74.8941 82.8117 75.4371 82.4129 75.8395C82.0142 76.2419 81.4732 76.4713 80.9067 76.4783Z" fill="#003E9C"/>
</g>
<defs>
<clipPath id="clip0_2027_41647">
<rect width="143" height="143" fill="white"/>
</clipPath>
</defs>
</svg>
