<svg width="175" height="175" viewBox="0 0 175 175" fill="none" xmlns="http://www.w3.org/2000/svg">
<rect x="2" y="2" width="171" height="171" rx="85.5" fill="#FAFAFB"/>
<rect x="2" y="2" width="171" height="171" rx="85.5" stroke="#D9D9D9" stroke-width="4"/>
<g clip-path="url(#clip0_2492_32535)">
<path d="M133.242 85.1836V132.421C133.242 133.857 132.456 135.178 131.192 135.862L89.3654 158.525C88.7929 158.835 88.1521 158.998 87.501 158.998C86.85 158.998 86.2092 158.835 85.6367 158.525L43.8065 135.862C43.1874 135.526 42.6705 135.029 42.3103 134.423C41.9501 133.817 41.7599 133.126 41.7598 132.421V85.1836H133.242Z" fill="#6BA6FF"/>
<path d="M133.242 93.6836V109.756L109.073 122.851C108.599 123.107 108.077 123.263 107.54 123.308C107.003 123.354 106.463 123.288 105.952 123.116L87.501 116.867V93.6836H133.242Z" fill="#2B7FFF"/>
<path d="M124.972 85.1839V139.232L131.193 135.862C131.812 135.526 132.33 135.029 132.691 134.423C133.052 133.817 133.242 133.126 133.242 132.421V85.1839H124.972ZM87.501 85.1836V159.001C86.8584 159.001 86.2188 158.845 85.6334 158.528L43.8065 135.862C43.1876 135.525 42.671 135.028 42.3108 134.422C41.9507 133.817 41.7603 133.126 41.7598 132.421V85.1836H87.501Z" fill="#6BA6FF"/>
<path d="M87.501 93.6816V116.866L69.0465 123.114C68.5365 123.286 67.9964 123.352 67.46 123.306C66.9235 123.261 66.4023 123.105 65.9287 122.849L41.7598 109.754V93.6816H87.501Z" fill="#2B7FFF"/>
<path d="M79.3877 85.1836V155.141L85.6347 158.526C86.2077 158.838 86.8495 159.001 87.5015 159V85.1836H79.3877Z" fill="#96C0FF"/>
<path d="M87.5006 60.3984L41.7588 85.1824L87.5006 109.966L133.242 85.1824L87.5006 60.3984Z" fill="#797F89"/>
<path d="M123.831 90.2829L87.501 109.965L51.1709 90.2829L74.9687 77.388C78.8167 75.3029 83.1242 74.2109 87.5009 74.2109C91.8775 74.2109 96.185 75.3029 100.033 77.388L123.831 90.2829Z" fill="#5B636F"/>
<path d="M147.793 68.4881L133.242 85.1822L87.5 60.3983L102.627 43.0441C102.919 42.709 103.317 42.4833 103.754 42.4042C104.192 42.3252 104.644 42.3975 105.035 42.6093L147.25 65.4815C148.352 66.0786 148.616 67.5432 147.793 68.4881Z" fill="#EBECEE"/>
<path d="M107.708 49.2246C107.708 52.6367 104.942 55.406 101.53 55.406C98.7579 55.406 96.4132 53.5821 95.6309 51.0718L102.554 43.1309C105.48 43.6193 107.708 46.1615 107.708 49.2246Z" fill="#E6F0FF"/>
<path d="M27.2075 68.4881L41.7583 85.1822L87.5004 60.3983L72.3734 43.0441C72.0812 42.709 71.6836 42.4833 71.246 42.4042C70.8084 42.3252 70.3569 42.3975 69.9659 42.6093L27.7507 65.4817C26.6486 66.0786 26.3841 67.5432 27.2075 68.4881Z" fill="#EBECEE"/>
<path d="M61.5856 52.6048C61.5856 56.9012 58.1008 60.3829 53.8044 60.3829C50.462 60.3829 47.6115 58.274 46.5119 55.3156L60.0584 47.9766C61.0529 49.3144 61.5886 50.9378 61.5856 52.6048ZM25.935 90.5411L41.7586 85.1828L87.5004 109.967L69.0479 116.215C68.5376 116.388 67.9971 116.453 67.4602 116.407C66.9234 116.362 66.4018 116.205 65.9281 115.949L25.6303 94.1156C24.1285 93.3017 24.3171 91.0891 25.935 90.5411Z" fill="#D9D9D9"/>
<path d="M149.065 90.5419L133.242 85.1836L87.5 109.968L105.953 116.215C106.463 116.388 107.003 116.454 107.54 116.408C108.077 116.362 108.599 116.206 109.072 115.95L149.37 94.1163C150.872 93.3025 150.683 91.0899 149.065 90.5419Z" fill="#F5F6F6"/>
<path d="M99.7187 142.772C99.2385 142.773 98.7718 142.613 98.3926 142.318C98.0133 142.024 97.7432 141.611 97.625 141.145C97.5068 140.68 97.5472 140.188 97.7399 139.748C97.9325 139.308 98.2664 138.945 98.6887 138.716L103.639 136.034C104.142 135.768 104.729 135.711 105.274 135.875C105.818 136.04 106.276 136.413 106.547 136.913C106.818 137.413 106.881 138 106.721 138.546C106.561 139.093 106.193 139.554 105.695 139.829L100.745 142.511C100.43 142.683 100.077 142.772 99.7187 142.772Z" fill="#2B7FFF"/>
<path d="M46.0254 44.8247C46.0254 40.528 49.5085 37.0449 53.8052 37.0449C58.1019 37.0449 61.585 40.528 61.585 44.8247C61.585 49.1214 58.1019 52.6045 53.8052 52.6045C49.5085 52.6045 46.0254 49.1214 46.0254 44.8247Z" fill="#EE9F2F"/>
<path d="M49.8594 51.5287C52.9132 50.8249 55.1886 48.0908 55.1886 44.8236C55.1886 41.5598 52.9168 38.8224 49.863 38.1186C51.0571 37.4132 52.419 37.0424 53.8058 37.0449C58.1006 37.0449 61.5845 40.5292 61.5845 44.8236C61.5845 49.1217 58.1003 52.606 53.8058 52.606C52.3658 52.606 51.0148 52.2149 49.8594 51.5287Z" fill="#D68F2A"/>
<path d="M71.7572 22.3507C71.3524 21.946 70.8035 21.7188 70.2311 21.7188C69.6588 21.7188 69.1099 21.946 68.7051 22.3507L66.9248 24.1309L65.1446 22.3507C64.7392 21.9492 64.1913 21.7245 63.6208 21.7259C63.0502 21.7272 62.5034 21.9545 62.0999 22.3579C61.6965 22.7613 61.4692 23.3081 61.4678 23.8787C61.4664 24.4492 61.691 24.9971 62.0924 25.4025L63.8727 27.1828L62.0924 28.963C61.691 29.3684 61.4664 29.9163 61.4678 30.4869C61.4692 31.0575 61.6965 31.6042 62.0999 32.0077C62.5034 32.4111 63.0502 32.6383 63.6208 32.6397C64.1913 32.641 64.7392 32.4164 65.1446 32.0149L66.9248 30.2347L68.7051 32.0149C69.1265 32.4364 69.679 32.647 70.2311 32.647C70.7833 32.647 71.3358 32.4361 71.7572 32.0149C72.1619 31.6102 72.3892 31.0613 72.3892 30.489C72.3892 29.9166 72.1619 29.3677 71.7572 28.963L69.977 27.1828L71.7572 25.4025C72.1619 24.9978 72.3892 24.4489 72.3892 23.8766C72.3892 23.3043 72.1619 22.7554 71.7572 22.3507ZM133.864 41.3188L135.644 39.5386C136.045 39.1332 136.27 38.5853 136.269 38.0147C136.267 37.4442 136.04 36.8974 135.636 36.494C135.233 36.0905 134.686 35.8633 134.116 35.8619C133.545 35.8606 132.997 36.0852 132.592 36.4867L130.811 38.267L129.031 36.4867C128.626 36.0852 128.078 35.8606 127.507 35.8619C126.937 35.8633 126.39 36.0905 125.987 36.494C125.583 36.8974 125.356 37.4442 125.354 38.0147C125.353 38.5853 125.578 39.1332 125.979 39.5386L127.759 41.3188L125.979 43.0991C125.578 43.5045 125.353 44.0524 125.354 44.6229C125.356 45.1935 125.583 45.7403 125.987 46.1437C126.39 46.5471 126.937 46.7744 127.507 46.7757C128.078 46.7771 128.626 46.5525 129.031 46.151L130.811 44.3707L132.592 46.151C133.013 46.5724 133.566 46.783 134.118 46.783C134.67 46.783 135.222 46.5721 135.644 46.151C136.049 45.7462 136.276 45.1973 136.276 44.625C136.276 44.0527 136.049 43.5038 135.644 43.0991L133.864 41.3188Z" fill="#EE9F2F"/>
<path d="M101.529 49.2261C104.942 49.2261 107.708 46.4594 107.708 43.0466C107.708 39.6338 104.942 36.8672 101.529 36.8672C98.1162 36.8672 95.3496 39.6338 95.3496 43.0466C95.3496 46.4594 98.1162 49.2261 101.529 49.2261Z" fill="#64B9FC"/>
<path d="M107.708 43.0441C107.708 46.4583 104.94 49.2258 101.529 49.2258C100.426 49.2282 99.3432 48.9326 98.3945 48.37C100.82 47.8109 102.628 45.6394 102.628 43.0441C102.628 40.4517 100.823 38.2774 98.3973 37.7182C99.3458 37.158 100.428 36.8633 101.529 36.8652C104.94 36.8652 107.708 39.6328 107.708 43.0441Z" fill="#31A7FB"/>
<path d="M114.066 30.4871C118.066 30.4871 121.309 27.2441 121.309 23.2436C121.309 19.2431 118.066 16 114.066 16C110.065 16 106.822 19.2431 106.822 23.2436C106.822 27.2441 110.065 30.4871 114.066 30.4871Z" fill="#A8E7EF"/>
<path d="M121.31 23.2427C121.31 27.2448 118.066 30.4888 114.067 30.4888C112.726 30.4888 111.468 30.1246 110.393 29.4859C113.236 28.8304 115.355 26.2848 115.355 23.2427C115.355 20.204 113.239 17.6551 110.396 16.9996C111.508 16.343 112.776 15.9977 114.067 16C118.066 16 121.31 19.244 121.31 23.2427Z" fill="#70D9E6"/>
<path d="M107.258 92.2915C107.258 95.0794 106.68 97.7353 105.636 100.141L87.5002 109.967L69.3649 100.141C68.3206 97.7353 67.7422 95.0794 67.7422 92.2915C67.7422 81.3811 76.5898 72.5332 87.5002 72.5332C98.4107 72.5332 107.258 81.3808 107.258 92.2915Z" fill="#2B7FFF"/>
<path d="M107.256 92.2904C107.256 95.0783 106.677 97.7342 105.636 100.139L92.8694 107.057C96.938 103.437 99.5016 98.1629 99.5016 92.2904C99.5016 82.7063 92.6795 74.719 83.625 72.915C84.9013 72.6613 86.1995 72.534 87.5008 72.5352C98.411 72.5349 107.256 81.3769 107.256 92.2904Z" fill="#0065FF"/>
<path d="M91.4264 100.329C90.913 100.33 90.4165 100.146 90.0265 99.8124C89.3277 99.2161 88.3237 98.872 87.2716 98.8689H87.2573C86.2105 98.8689 85.2101 99.2063 84.511 99.7959C84.2943 99.9786 84.0438 100.117 83.7738 100.203C83.5037 100.288 83.2194 100.32 82.937 100.296C82.6546 100.272 82.3798 100.193 82.1281 100.062C81.8765 99.9322 81.6529 99.7537 81.4703 99.537C81.2876 99.3204 81.1493 99.0699 81.0634 98.7998C80.9775 98.5298 80.9457 98.2454 80.9697 97.9631C80.9937 97.6807 81.0731 97.4058 81.2034 97.1542C81.3337 96.9025 81.5122 96.6789 81.7289 96.4963C83.2159 95.2425 85.1782 94.5529 87.2573 94.5529H87.2847C89.3741 94.5594 91.3431 95.2612 92.829 96.5295C93.1649 96.8161 93.4049 97.1988 93.5164 97.626C93.628 98.0532 93.6058 98.5043 93.4529 98.9185C93.3 99.3327 93.0237 99.6901 92.6613 99.9423C92.2989 100.195 91.8679 100.33 91.4264 100.329ZM78.1126 92.4783H78.0975C76.9054 92.4699 75.9363 91.4972 75.9444 90.3054C75.9528 89.1136 76.9141 88.1447 78.107 88.1623L78.1271 88.1626C78.6935 88.1734 79.2329 88.4065 79.6289 88.8116C80.025 89.2166 80.2459 89.7611 80.244 90.3276C80.2421 90.8941 80.0175 91.4371 79.6188 91.8395C79.22 92.2419 78.679 92.4713 78.1126 92.4783ZM96.9067 92.4783H96.8917C95.6996 92.4699 94.7305 91.4972 94.7386 90.3054C94.7469 89.1189 95.7016 88.1623 96.8861 88.1623H96.9011L96.9213 88.1626C97.4876 88.1734 98.0271 88.4065 98.4231 88.8116C98.8192 89.2166 99.0401 89.7611 99.0382 90.3276C99.0363 90.8941 98.8117 91.4371 98.4129 91.8395C98.0142 92.2419 97.4732 92.4713 96.9067 92.4783Z" fill="#003E9C"/>
</g>
<defs>
<clipPath id="clip0_2492_32535">
<rect width="143" height="143" fill="white" transform="translate(16 16)"/>
</clipPath>
</defs>
</svg>
