<svg width="18" height="18" viewBox="0 0 18 18" fill="none" xmlns="http://www.w3.org/2000/svg">
<path d="M1.50004 1.5L4.49101 4.49097M16.5 16.5L13.5094 13.5093M10.5624 14.6872C10.0565 14.7831 9.53431 14.8333 9.00042 14.8333C5.26905 14.8333 2.11046 12.3809 1.04858 8.99997C1.33767 8.07958 1.78213 7.22801 2.35124 6.47598M7.23227 7.23223C7.68468 6.77982 8.30968 6.5 9.00004 6.5C10.3808 6.5 11.5 7.61929 11.5 9C11.5 9.69036 11.2202 10.3154 10.7678 10.7678M7.23227 7.23223L10.7678 10.7678M7.23227 7.23223L4.49101 4.49097M10.7678 10.7678L4.49101 4.49097M10.7678 10.7678L13.5094 13.5093M4.49101 4.49097C5.79086 3.65295 7.33884 3.16667 9.00041 3.16667C12.7318 3.16667 15.8904 5.61909 16.9522 9.00003C16.3632 10.8756 15.1288 12.4654 13.5094 13.5093" stroke="#797F89" stroke-width="2" stroke-linecap="round" stroke-linejoin="round"/>
</svg>
