<svg width="11" height="15" viewBox="0 0 11 15" fill="none" xmlns="http://www.w3.org/2000/svg">
<path d="M4.66699 14.4997V12.833H3.00033V11.1663H4.66699V9.41634C3.56977 9.2219 2.67033 8.69745 1.96866 7.84301C1.26699 6.98856 0.916437 5.99912 0.916993 4.87467C0.916993 3.61079 1.36505 2.53801 2.26116 1.65634C3.15727 0.774674 4.23699 0.333563 5.50033 0.333008C6.76421 0.333008 7.84421 0.774119 8.74033 1.65634C9.63644 2.53856 10.0842 3.61134 10.0837 4.87467C10.0837 5.99967 9.73283 6.9894 9.03116 7.84384C8.32949 8.69829 7.43033 9.22245 6.33366 9.41634V11.1663H8.00033V12.833H6.33366V14.4997H4.66699ZM5.50033 7.83301C6.30588 7.83301 6.99338 7.54829 7.56283 6.97884C8.13227 6.4094 8.41699 5.7219 8.41699 4.91634C8.41699 4.11079 8.13227 3.42329 7.56283 2.85384C6.99338 2.2844 6.30588 1.99967 5.50033 1.99967C4.69477 1.99967 4.00727 2.2844 3.43783 2.85384C2.86838 3.42329 2.58366 4.11079 2.58366 4.91634C2.58366 5.7219 2.86838 6.4094 3.43783 6.97884C4.00727 7.54829 4.69477 7.83301 5.50033 7.83301Z" fill="#071225"/>
</svg>
