<svg width="15" height="12" viewBox="0 0 15 12" fill="none" xmlns="http://www.w3.org/2000/svg">
<path fill-rule="evenodd" clip-rule="evenodd" d="M14.5 3C14.5 4.65685 13.1569 6 11.5 6C10.0129 6 8.77855 4.91801 8.5412 3.49833C8.52761 3.49944 8.51387 3.5 8.5 3.5L0.5 3.5C0.223858 3.5 0 3.27614 0 3C0 2.72386 0.223858 2.5 0.5 2.5L8.5 2.5C8.51387 2.5 8.52761 2.50057 8.5412 2.50167C8.77855 1.08199 10.0129 0 11.5 0C13.1569 0 14.5 1.34315 14.5 3ZM13.5 3C13.5 4.10457 12.6046 5 11.5 5C10.3954 5 9.5 4.10457 9.5 3C9.5 1.89543 10.3954 1 11.5 1C12.6046 1 13.5 1.89543 13.5 3Z" fill="white"/>
<path fill-rule="evenodd" clip-rule="evenodd" d="M0 9C0 7.34315 1.34315 6 3 6C4.48708 6 5.72145 7.08199 5.9588 8.50167C5.97239 8.50056 5.98613 8.5 6 8.5L14 8.5C14.2761 8.5 14.5 8.72386 14.5 9C14.5 9.27614 14.2761 9.5 14 9.5L6 9.5C5.98613 9.5 5.97239 9.49943 5.9588 9.49833C5.72145 10.918 4.48708 12 3 12C1.34315 12 0 10.6569 0 9ZM1 9C1 7.89543 1.89543 7 3 7C4.10457 7 5 7.89543 5 9C5 10.1046 4.10457 11 3 11C1.89543 11 1 10.1046 1 9Z" fill="white"/>
</svg>
