<svg width="24" height="24" viewBox="0 0 24 24" fill="none" xmlns="http://www.w3.org/2000/svg">
<path d="M21 7.87539H16.8937L17.6072 3.95195C17.6606 3.65831 17.5953 3.35545 17.4254 3.11002C17.2556 2.86458 16.9952 2.69666 16.7016 2.6432C16.4079 2.58974 16.1051 2.65513 15.8596 2.82496C15.6142 2.9948 15.4463 3.25518 15.3928 3.54883L14.6063 7.87539H10.8937L11.6072 3.95195C11.6337 3.80655 11.6312 3.65737 11.6 3.51291C11.5689 3.36845 11.5095 3.23154 11.4254 3.11002C11.3413 2.98849 11.2341 2.88471 11.1099 2.80462C10.9857 2.72452 10.847 2.66967 10.7016 2.6432C10.5562 2.61673 10.407 2.61916 10.2625 2.65035C10.1181 2.68153 9.98116 2.74087 9.85963 2.82496C9.7381 2.90906 9.63432 3.01627 9.55423 3.14047C9.47413 3.26467 9.41928 3.40343 9.39281 3.54883L8.60625 7.87539H4.5C4.20163 7.87539 3.91548 7.99392 3.7045 8.20489C3.49353 8.41587 3.375 8.70202 3.375 9.00039C3.375 9.29876 3.49353 9.58491 3.7045 9.79589C3.91548 10.0069 4.20163 10.1254 4.5 10.1254H8.1975L7.51594 13.8754H3C2.70163 13.8754 2.41548 13.9939 2.2045 14.2049C1.99353 14.4159 1.875 14.702 1.875 15.0004C1.875 15.2988 1.99353 15.5849 2.2045 15.7959C2.41548 16.0069 2.70163 16.1254 3 16.1254H7.10625L6.39281 20.0488C6.36575 20.1945 6.36772 20.3441 6.39863 20.489C6.42954 20.6339 6.48877 20.7713 6.57292 20.8932C6.65707 21.0152 6.76448 21.1193 6.88899 21.1997C7.01349 21.28 7.15264 21.3349 7.29844 21.3613C7.36503 21.3724 7.43252 21.3771 7.5 21.3754C7.76345 21.3752 8.01848 21.2826 8.22064 21.1137C8.4228 20.9448 8.55927 20.7102 8.60625 20.451L9.39375 16.1254H13.1063L12.3928 20.0488C12.3657 20.1945 12.3677 20.3441 12.3986 20.489C12.4295 20.6339 12.4888 20.7713 12.5729 20.8932C12.6571 21.0152 12.7645 21.1193 12.889 21.1997C13.0135 21.28 13.1526 21.3349 13.2984 21.3613C13.3652 21.374 13.433 21.3803 13.5009 21.3801C13.7644 21.3799 14.0194 21.2873 14.2216 21.1184C14.4237 20.9494 14.5602 20.7149 14.6072 20.4557L15.3937 16.1254H19.5C19.7984 16.1254 20.0845 16.0069 20.2955 15.7959C20.5065 15.5849 20.625 15.2988 20.625 15.0004C20.625 14.702 20.5065 14.4159 20.2955 14.2049C20.0845 13.9939 19.7984 13.8754 19.5 13.8754H15.8025L16.4841 10.1254H21C21.2984 10.1254 21.5845 10.0069 21.7955 9.79589C22.0065 9.58491 22.125 9.29876 22.125 9.00039C22.125 8.70202 22.0065 8.41587 21.7955 8.20489C21.5845 7.99392 21.2984 7.87539 21 7.87539ZM13.5159 13.8754H9.8025L10.4841 10.1254H14.1975L13.5159 13.8754Z" fill="#071225"/>
</svg>
