<svg width="18" height="16" viewBox="0 0 18 16" fill="none" xmlns="http://www.w3.org/2000/svg">
<path d="M8.99994 15.5C8.74905 15.4997 8.50405 15.4239 8.29682 15.2824C5.2269 13.1984 3.8976 11.7695 3.1644 10.8762C1.6019 8.97188 0.853852 7.0168 0.874945 4.89961C0.899555 2.47344 2.84604 0.5 5.21401 0.5C6.93588 0.5 8.12846 1.46992 8.82299 2.27773C8.84499 2.30307 8.87218 2.32338 8.9027 2.3373C8.93323 2.35122 8.96639 2.35842 8.99994 2.35842C9.0335 2.35842 9.06666 2.35122 9.09719 2.3373C9.12771 2.32338 9.1549 2.30307 9.1769 2.27773C9.87143 1.46914 11.064 0.5 12.7859 0.5C15.1539 0.5 17.1003 2.47344 17.1249 4.9C17.146 7.01758 16.3972 8.97266 14.8355 10.8766C14.1023 11.7699 12.773 13.1988 9.70307 15.2828C9.4958 15.4241 9.2508 15.4998 8.99994 15.5Z" fill="#979BA3"/>
</svg>
