<svg width="20" height="20" viewBox="0 0 20 20" fill="none" xmlns="http://www.w3.org/2000/svg">
<path d="M10 17.5C9.74911 17.4997 9.50411 17.4239 9.29688 17.2824C6.22696 15.1984 4.89766 13.7695 4.16446 12.8762C2.60196 10.9719 1.85391 9.0168 1.87501 6.89961C1.89962 4.47344 3.8461 2.5 6.21407 2.5C7.93594 2.5 9.12852 3.46992 9.82305 4.27773C9.84505 4.30307 9.87224 4.32338 9.90277 4.3373C9.93329 4.35122 9.96645 4.35842 10 4.35842C10.0336 4.35842 10.0667 4.35122 10.0972 4.3373C10.1278 4.32338 10.155 4.30307 10.177 4.27773C10.8715 3.46914 12.0641 2.5 13.7859 2.5C16.1539 2.5 18.1004 4.47344 18.125 6.9C18.1461 9.01758 17.3973 10.9727 15.8356 12.8766C15.1023 13.7699 13.7731 15.1988 10.7031 17.2828C10.4959 17.4241 10.2509 17.4998 10 17.5Z" fill="#0065FF"/>
</svg>
