<svg width="20" height="20" viewBox="0 0 20 20" fill="none" xmlns="http://www.w3.org/2000/svg">
<path fill-rule="evenodd" clip-rule="evenodd" d="M10.589 1.91098C10.4327 1.75475 10.2208 1.66699 9.99982 1.66699C9.77885 1.66699 9.56693 1.75475 9.41066 1.91098L3.57732 7.74431L1.91066 9.41098C1.83106 9.48785 1.76758 9.57981 1.72391 9.68148C1.68023 9.78315 1.65724 9.8925 1.65628 10.0031C1.65532 10.1138 1.6764 10.2235 1.71831 10.3259C1.76021 10.4284 1.82208 10.5214 1.90033 10.5996C1.97857 10.6779 2.07161 10.7398 2.17403 10.7817C2.27644 10.8236 2.38618 10.8447 2.49682 10.8437C2.60747 10.8427 2.71682 10.8197 2.81849 10.7761C2.92016 10.7324 3.01212 10.6689 3.08899 10.5893L3.33316 10.3451V15.8335C3.33316 16.4965 3.59655 17.1324 4.06539 17.6012C4.53423 18.0701 5.17012 18.3335 5.83316 18.3335H14.1665C14.8295 18.3335 15.4654 18.0701 15.9343 17.6012C16.4031 17.1324 16.6665 16.4965 16.6665 15.8335V10.3451L16.9107 10.5893C17.0678 10.7411 17.2783 10.8251 17.4968 10.8232C17.7153 10.8213 17.9243 10.7337 18.0788 10.5792C18.2333 10.4247 18.321 10.2156 18.3229 9.99715C18.3248 9.77865 18.2408 9.56815 18.089 9.41098L10.589 1.91098Z" fill="#0065FF"/>
</svg>
