<svg width="28" height="20" viewBox="0 0 28 20" fill="none" xmlns="http://www.w3.org/2000/svg">
<path d="M3 0C1.355 0 0 1.355 0 3V17C0 18.645 1.355 20 3 20H25C26.645 20 28 18.645 28 17V3C28 1.355 26.645 0 25 0H3ZM3 2H25C25.566 2 26 2.434 26 3V17C26 17.566 25.566 18 25 18H3C2.434 18 2 17.566 2 17V3C2 2.434 2.434 2 3 2ZM9 4C6.8 4 5 5.8 5 8C5 9.113 5.477 10.117 6.219 10.844C5.53832 11.3033 4.98029 11.9221 4.59353 12.6465C4.20677 13.3709 4.00301 14.1788 4 15H6C6 13.332 7.332 12 9 12C10.668 12 12 13.332 12 15H14C13.997 14.1788 13.7932 13.3709 13.4065 12.6465C13.0197 11.9221 12.4617 11.3033 11.781 10.844C12.523 10.117 13 9.114 13 8C13 5.8 11.2 4 9 4ZM16 5V7H24V5H16ZM9 6C10.117 6 11 6.883 11 8C11 9.117 10.117 10 9 10C7.883 10 7 9.117 7 8C7 6.883 7.883 6 9 6ZM16 9V11H24V9H16ZM16 13V15H21V13H16Z" fill="#797F89"/>
</svg>
