<svg width="24" height="24" viewBox="0 0 24 24" fill="none" xmlns="http://www.w3.org/2000/svg">
<path fill-rule="evenodd" clip-rule="evenodd" d="M9.25 16C9.25 15.2707 9.53973 14.5712 10.0555 14.0555C10.5712 13.5397 11.2707 13.25 12 13.25C12.7293 13.25 13.4288 13.5397 13.9445 14.0555C14.4603 14.5712 14.75 15.2707 14.75 16C14.75 16.7293 14.4603 17.4288 13.9445 17.9445C13.4288 18.4603 12.7293 18.75 12 18.75C11.2707 18.75 10.5712 18.4603 10.0555 17.9445C9.53973 17.4288 9.25 16.7293 9.25 16ZM12 14.75C11.6685 14.75 11.3505 14.8817 11.1161 15.1161C10.8817 15.3505 10.75 15.6685 10.75 16C10.75 16.3315 10.8817 16.6495 11.1161 16.8839C11.3505 17.1183 11.6685 17.25 12 17.25C12.3315 17.25 12.6495 17.1183 12.8839 16.8839C13.1183 16.6495 13.25 16.3315 13.25 16C13.25 15.6685 13.1183 15.3505 12.8839 15.1161C12.6495 14.8817 12.3315 14.75 12 14.75Z" fill="#0065FF"/>
<path fill-rule="evenodd" clip-rule="evenodd" d="M5.25 9.303V8C5.25 6.20979 5.96116 4.4929 7.22703 3.22703C8.4929 1.96116 10.2098 1.25 12 1.25C13.7902 1.25 15.5071 1.96116 16.773 3.22703C18.0388 4.4929 18.75 6.20979 18.75 8V9.303C18.977 9.319 19.19 9.339 19.392 9.367C20.292 9.487 21.05 9.747 21.652 10.348C22.254 10.95 22.512 11.708 22.634 12.608C22.75 13.475 22.75 14.578 22.75 15.945V16.055C22.75 17.422 22.75 18.525 22.634 19.392C22.512 20.292 22.254 21.05 21.652 21.652C21.05 22.254 20.292 22.512 19.392 22.634C18.525 22.75 17.422 22.75 16.055 22.75H7.945C6.578 22.75 5.475 22.75 4.608 22.634C3.708 22.512 2.95 22.254 2.348 21.652C1.746 21.05 1.488 20.292 1.367 19.392C1.25 18.525 1.25 17.422 1.25 16.055V15.945C1.25 14.578 1.25 13.475 1.367 12.608C1.487 11.708 1.747 10.95 2.348 10.348C2.95 9.746 3.708 9.488 4.608 9.367C4.82122 9.33844 5.03534 9.3171 5.25 9.303ZM6.75 8C6.75 6.60761 7.30312 5.27225 8.28769 4.28769C9.27225 3.30312 10.6076 2.75 12 2.75C13.3924 2.75 14.7277 3.30312 15.7123 4.28769C16.6969 5.27225 17.25 6.60761 17.25 8V9.253C16.877 9.25 16.478 9.25 16.055 9.25H7.945C7.522 9.25 7.124 9.25 6.75 9.253V8ZM4.808 10.853C4.074 10.952 3.686 11.133 3.409 11.409C3.132 11.686 2.952 12.074 2.853 12.809C2.752 13.564 2.75 14.565 2.75 16C2.75 17.435 2.752 18.436 2.853 19.192C2.952 19.926 3.133 20.314 3.409 20.591C3.686 20.868 4.074 21.048 4.809 21.147C5.563 21.248 6.565 21.25 8 21.25H16C17.435 21.25 18.436 21.248 19.192 21.147C19.926 21.048 20.314 20.867 20.591 20.591C20.868 20.314 21.048 19.926 21.147 19.191C21.248 18.436 21.25 17.435 21.25 16C21.25 14.565 21.248 13.563 21.147 12.808C21.048 12.074 20.867 11.686 20.591 11.409C20.314 11.132 19.926 10.952 19.191 10.853C18.436 10.752 17.435 10.75 16 10.75H8C6.565 10.75 5.563 10.752 4.808 10.853Z" fill="#0065FF"/>
</svg>
