<svg width="20" height="20" viewBox="0 0 20 20" fill="none" xmlns="http://www.w3.org/2000/svg">
<path d="M16.6663 3.33301V8.33301H14.9997V6.18717L11.6872 9.47884C11.9511 9.86773 12.1525 10.2811 12.2913 10.7188C12.4302 11.1566 12.4997 11.6113 12.4997 12.083C12.4997 13.3608 12.0552 14.4441 11.1663 15.333C10.2775 16.2219 9.19412 16.6663 7.91634 16.6663C6.63856 16.6663 5.55523 16.2219 4.66634 15.333C3.77745 14.4441 3.33301 13.3608 3.33301 12.083C3.33301 10.8052 3.77745 9.7219 4.66634 8.83301C5.55523 7.94412 6.63856 7.49967 7.91634 7.49967C8.37467 7.49967 8.82606 7.56551 9.27051 7.69717C9.71495 7.82884 10.1247 8.03384 10.4997 8.31217L13.8122 4.99967H11.6663V3.33301H16.6663ZM7.91634 9.16634C7.11079 9.16634 6.42329 9.45106 5.85384 10.0205C5.2844 10.59 4.99967 11.2775 4.99967 12.083C4.99967 12.8886 5.2844 13.5761 5.85384 14.1455C6.42329 14.715 7.11079 14.9997 7.91634 14.9997C8.7219 14.9997 9.4094 14.715 9.97884 14.1455C10.5483 13.5761 10.833 12.8886 10.833 12.083C10.833 11.2775 10.5483 10.59 9.97884 10.0205C9.4094 9.45106 8.7219 9.16634 7.91634 9.16634Z" fill="#0065FF"/>
</svg>
