<svg width="28" height="28" viewBox="0 0 28 28" fill="none" xmlns="http://www.w3.org/2000/svg">
<path d="M14.0003 0.666016C21.3643 0.666016 27.3337 6.63535 27.3337 13.9993C27.3337 21.3633 21.3643 27.3327 14.0003 27.3327C11.8433 27.3355 9.71805 26.8129 7.80834 25.81L2.08834 27.2994C1.89721 27.3491 1.6964 27.3481 1.50579 27.2964C1.31519 27.2446 1.14141 27.144 1.00169 27.0044C0.861969 26.8648 0.76115 26.6911 0.709226 26.5006C0.657303 26.31 0.656077 26.1092 0.705671 25.918L2.19367 20.1993C1.18807 18.2876 0.664033 16.1594 0.667005 13.9993C0.667005 6.63535 6.63634 0.666016 14.0003 0.666016ZM15.6697 15.3327H9.66701L9.531 15.342C9.29166 15.3749 9.07232 15.4934 8.91355 15.6755C8.75478 15.8576 8.66731 16.0911 8.66731 16.3327C8.66731 16.5743 8.75478 16.8077 8.91355 16.9898C9.07232 17.1719 9.29166 17.2904 9.531 17.3233L9.66701 17.3327H15.6697L15.8043 17.3233C16.0437 17.2904 16.263 17.1719 16.4218 16.9898C16.5806 16.8077 16.668 16.5743 16.668 16.3327C16.668 16.0911 16.5806 15.8576 16.4218 15.6755C16.263 15.4934 16.0437 15.3749 15.8043 15.342L15.6697 15.3327ZM18.3337 10.666H9.66701L9.531 10.6753C9.29166 10.7083 9.07232 10.8268 8.91355 11.0089C8.75478 11.191 8.66731 11.4244 8.66731 11.666C8.66731 11.9076 8.75478 12.1411 8.91355 12.3232C9.07232 12.5053 9.29166 12.6238 9.531 12.6567L9.66701 12.666H18.3337L18.4697 12.6567C18.709 12.6238 18.9284 12.5053 19.0871 12.3232C19.2459 12.1411 19.3334 11.9076 19.3334 11.666C19.3334 11.4244 19.2459 11.191 19.0871 11.0089C18.9284 10.8268 18.709 10.7083 18.4697 10.6753L18.3337 10.666Z" fill="#0065FF"/>
</svg>
