<svg width="28" height="28" viewBox="0 0 28 28" fill="none" xmlns="http://www.w3.org/2000/svg">
<path d="M26.657 4.37905L6.60238 0.0301767C5.72354 -0.161984 4.86976 0.585521 4.71734 1.64817L3.42572 10.6561H1.58065C0.709035 10.6561 0 11.5184 0 12.5777V26.0784C0 27.1377 0.709035 28 1.58065 28H22.0359C22.9075 28 23.6165 27.1377 23.6165 26.0784V21.3312C24.2025 21.4583 24.7681 21.6082 25.3099 21.2143C25.7163 20.9186 26.0078 20.4088 26.0893 19.8409L27.9753 6.68717C28.1304 5.60531 27.539 4.56984 26.657 4.37905ZM5.60725 1.83676C5.67499 1.36487 6.05164 1.02584 6.44387 1.11094L26.4985 5.45982C26.8921 5.54519 27.1554 6.01104 27.0856 6.49831L26.7744 8.66972L5.29519 4.0123L5.60725 1.83676ZM22.7133 26.0784C22.7133 26.5324 22.4094 26.9019 22.0359 26.9019H1.58065C1.20717 26.9019 0.90323 26.5324 0.90323 26.0784V12.5777C0.90323 12.1237 1.20717 11.7542 1.58065 11.7542H22.0359C22.4094 11.7542 22.7133 12.1237 22.7133 12.5777V26.0784ZM25.1997 19.6523C25.0592 20.6287 24.1673 20.3353 23.6165 20.2158V12.5777C23.6165 11.5184 22.9075 10.6561 22.0359 10.6561H4.34273L5.14006 5.09389L6.44838 5.37746L26.6191 9.75132L25.1997 19.6523Z" fill="#0065FF"/>
<path d="M10.6394 24.707H8.04265C7.92287 24.707 7.808 24.6491 7.72331 24.5462C7.63861 24.4432 7.59103 24.3035 7.59103 24.1579C7.59103 24.0123 7.63861 23.8727 7.72331 23.7697C7.808 23.6667 7.92287 23.6089 8.04265 23.6089H10.6394C10.7592 23.6089 10.8741 23.6667 10.9588 23.7697C11.0435 23.8727 11.091 24.0123 11.091 24.1579C11.091 24.3035 11.0435 24.4432 10.9588 24.5462C10.8741 24.6491 10.7592 24.707 10.6394 24.707ZM5.70599 24.707H3.10921C2.98943 24.707 2.87456 24.6491 2.78987 24.5462C2.70517 24.4432 2.65759 24.3035 2.65759 24.1579C2.65759 24.0123 2.70517 23.8727 2.78987 23.7697C2.87456 23.6667 2.98943 23.6089 3.10921 23.6089H5.70599C5.82577 23.6089 5.94064 23.6667 6.02533 23.7697C6.11003 23.8727 6.15761 24.0123 6.15761 24.1579C6.15761 24.3035 6.11003 24.4432 6.02533 24.5462C5.94064 24.6491 5.82577 24.707 5.70599 24.707ZM15.5729 24.707H12.9761C12.8563 24.707 12.7414 24.6491 12.6567 24.5462C12.5721 24.4432 12.5245 24.3035 12.5245 24.1579C12.5245 24.0123 12.5721 23.8727 12.6567 23.7697C12.7414 23.6667 12.8563 23.6089 12.9761 23.6089H15.5729C15.6927 23.6089 15.8075 23.6667 15.8922 23.7697C15.9769 23.8727 16.0245 24.0123 16.0245 24.1579C16.0245 24.3035 15.9769 24.4432 15.8922 24.5462C15.8075 24.6491 15.6927 24.707 15.5729 24.707ZM20.5065 24.707H17.9098C17.79 24.707 17.6751 24.6491 17.5904 24.5462C17.5057 24.4432 17.4581 24.3035 17.4581 24.1579C17.4581 24.0123 17.5057 23.8727 17.5904 23.7697C17.6751 23.6667 17.79 23.6089 17.9098 23.6089H20.5065C20.6263 23.6089 20.7412 23.6667 20.8259 23.7697C20.9106 23.8727 20.9582 24.0123 20.9582 24.1579C20.9582 24.3035 20.9106 24.4432 20.8259 24.5462C20.7412 24.6491 20.6263 24.707 20.5065 24.707ZM6.87274 21.8586H3.60169C2.97914 21.8586 2.47266 21.2429 2.47266 20.486V18.9092C2.47266 18.1524 2.97914 17.5366 3.60169 17.5366H6.87274C7.49529 17.5366 8.00178 18.1524 8.00178 18.9092V20.486C8.00178 21.2426 7.49507 21.8586 6.87274 21.8586ZM3.60169 18.6344C3.47727 18.6344 3.37589 18.7574 3.37589 18.9089V20.4857C3.37589 20.6373 3.47727 20.7603 3.60169 20.7603H6.87274C6.99716 20.7603 7.09855 20.6373 7.09855 20.4857V18.9089C7.09855 18.7574 6.99716 18.6344 6.87274 18.6344H3.60169Z" fill="#0065FF"/>
</svg>
