<svg width="28" height="28" viewBox="0 0 28 28" fill="none" xmlns="http://www.w3.org/2000/svg">
<g clip-path="url(#clip0_1876_5990)">
<path d="M23.7527 2.179C22.2287 0.706493 19.4737 0.0751953 15.9494 0.0751953H5.7206C5.3719 0.0752063 5.03463 0.180663 4.76945 0.372605C4.50426 0.564546 4.32855 0.830383 4.2739 1.12232L0.0148365 24.0199C-0.0698197 24.4714 0.342633 24.8803 0.882508 24.8803H7.19738L8.78332 16.3532L8.7341 16.6202C8.84709 16.0175 9.45521 15.5729 10.1753 15.5729H13.1761C19.0712 15.5729 23.6872 13.5432 25.0356 7.67163C25.0756 7.49798 25.1103 7.32896 25.1402 7.16383C24.9701 7.08743 24.9701 7.08743 25.1402 7.16383C25.5418 4.99365 25.1375 3.51641 23.7527 2.179Z" fill="#1F264F"/>
<path d="M11.1996 6.38206C11.3723 6.31237 11.5611 6.27626 11.7523 6.27636H19.7715C20.7211 6.27636 21.6068 6.32874 22.4162 6.43917C22.6426 6.46978 22.8679 6.50633 23.0918 6.54876C23.409 6.6081 23.7225 6.68072 24.0313 6.76636C24.4292 6.87901 24.7998 7.0102 25.1404 7.16383C25.5418 4.99281 25.1375 3.51641 23.7527 2.179C22.2278 0.706493 19.4737 0.0751953 15.9494 0.0751953H5.71973C4.99949 0.0751953 4.38677 0.519672 4.2739 1.12232L0.0148371 24.0191C-0.0698191 24.4714 0.342634 24.8797 0.881634 24.8797H7.19738L10.4877 7.19239C10.5201 7.01854 10.6018 6.85395 10.7258 6.71279C10.8498 6.57164 11.0124 6.45814 11.1996 6.38206Z" fill="#27346A"/>
<path d="M25.0356 7.67186C23.6872 13.5426 19.0713 15.5731 13.1761 15.5731H10.1744C9.45432 15.5731 8.84609 16.0177 8.7342 16.6205L6.76118 27.2229C6.68746 27.6181 7.04796 27.9761 7.51959 27.9761H12.8429C13.1478 27.9761 13.4427 27.8838 13.6745 27.7159C13.9064 27.5479 14.0599 27.3154 14.1076 27.0601L14.1594 26.8302L15.1627 21.4401L15.2274 21.1422C15.275 20.8869 15.4285 20.6544 15.6603 20.4865C15.8922 20.3185 16.187 20.2262 16.4919 20.2262H17.2886C22.4453 20.2262 26.4831 18.4503 27.6631 13.3142C28.1556 11.1679 27.9007 9.37588 26.5979 8.11717C26.2027 7.73593 25.7119 7.42107 25.1402 7.16406C25.1093 7.33002 25.0757 7.49821 25.0356 7.67186Z" fill="#2790C3"/>
<path d="M23.7291 6.68701C23.5189 6.63496 23.3066 6.58889 23.0928 6.54886C22.8688 6.50712 22.6435 6.47083 22.4171 6.44001C21.6069 6.32885 20.7218 6.27637 19.7714 6.27637H11.7532C11.5618 6.276 11.3729 6.31243 11.2005 6.3829C11.0131 6.45875 10.8503 6.57218 10.7262 6.71338C10.6021 6.85457 10.5205 7.01928 10.4885 7.19323L8.7842 16.3533L8.73499 16.6203C8.84709 16.0176 9.45522 15.573 10.1755 15.573H13.1771C19.0722 15.573 23.6881 13.5433 25.0365 7.67173C25.0766 7.49808 25.1103 7.3298 25.1412 7.16393C24.7998 7.01114 24.4302 6.87911 24.0322 6.7672C23.9317 6.73898 23.8307 6.71224 23.7292 6.68701" fill="#1F264F"/>
</g>
<defs>
<clipPath id="clip0_1876_5990">
<rect width="28" height="28" fill="white"/>
</clipPath>
</defs>
</svg>
