<svg width="21" height="24" viewBox="0 0 21 24" fill="none" xmlns="http://www.w3.org/2000/svg">
<path d="M14.8635 0H2.86348C1.65852 0 0.681641 0.976828 0.681641 2.1818V21.8182C0.681641 23.0231 1.65847 24 2.86344 24H18.1362C19.3411 24 20.318 23.0231 20.318 21.8182V6L14.8635 0ZM19.2271 21.8182C19.2271 22.4207 18.7387 22.9091 18.1362 22.9091H2.86348C2.261 22.9091 1.77256 22.4207 1.77256 21.8182V2.1818C1.77256 1.57931 2.261 1.09087 2.86348 1.09087H12.6817V6.54544C12.6817 7.14792 13.1701 7.63636 13.7726 7.63636H19.2272L19.2271 21.8182ZM13.7726 6.54544V1.09092H14.318L19.2271 6.54548L13.7726 6.54544Z" fill="#0065FF"/>
</svg>
