<svg width="10" height="13" viewBox="0 0 10 13" fill="none" xmlns="http://www.w3.org/2000/svg">
<path d="M5 0.346191C3.67438 0.347646 2.40348 0.857536 1.46613 1.764C0.528771 2.67046 0.00150383 3.89947 0 5.18141C0 9.31881 4.54545 12.4436 4.7392 12.5743C4.81563 12.6261 4.90669 12.6539 5 12.6539C5.09331 12.6539 5.18437 12.6261 5.2608 12.5743C5.45455 12.4436 10 9.31881 10 5.18141C9.9985 3.89947 9.47123 2.67046 8.53387 1.764C7.59652 0.857536 6.32562 0.347646 5 0.346191ZM5 3.42315C5.3596 3.42315 5.71113 3.52627 6.01013 3.71947C6.30913 3.91267 6.54217 4.18727 6.67978 4.50855C6.8174 4.82983 6.8534 5.18336 6.78325 5.52442C6.71309 5.86549 6.53993 6.17879 6.28565 6.42468C6.03137 6.67058 5.7074 6.83804 5.35471 6.90588C5.00202 6.97372 4.63644 6.9389 4.30421 6.80583C3.97198 6.67275 3.68802 6.44739 3.48824 6.15824C3.28845 5.8691 3.18182 5.52916 3.18182 5.18141C3.18182 4.71509 3.37338 4.26787 3.71435 3.93813C4.05533 3.60839 4.51779 3.42315 5 3.42315Z" fill="#797F89"/>
</svg>
