<svg width="20" height="20" viewBox="0 0 20 20" fill="none" xmlns="http://www.w3.org/2000/svg">
<path fill-rule="evenodd" clip-rule="evenodd" d="M9.69 18.933L9.693 18.934C9.89 19.02 10 19 10 19C10 19 10.11 19.02 10.308 18.934L10.31 18.933L10.316 18.93L10.334 18.922C10.4289 18.8779 10.5226 18.8312 10.615 18.782C10.801 18.686 11.061 18.542 11.372 18.349C11.992 17.965 12.817 17.383 13.646 16.584C15.302 14.988 17 12.493 17 9C17 8.08075 16.8189 7.1705 16.4672 6.32122C16.1154 5.47194 15.5998 4.70026 14.9497 4.05025C14.2997 3.40024 13.5281 2.88463 12.6788 2.53284C11.8295 2.18106 10.9193 2 10 2C9.08075 2 8.1705 2.18106 7.32122 2.53284C6.47194 2.88463 5.70026 3.40024 5.05025 4.05025C4.40024 4.70026 3.88463 5.47194 3.53284 6.32122C3.18106 7.1705 3 8.08075 3 9C3 12.492 4.698 14.988 6.355 16.584C7.04875 17.2503 7.8106 17.8419 8.628 18.349C8.94459 18.5456 9.27029 18.7271 9.604 18.893L9.666 18.922L9.684 18.93L9.69 18.933ZM10 11.25C10.5967 11.25 11.169 11.0129 11.591 10.591C12.0129 10.169 12.25 9.59674 12.25 9C12.25 8.40326 12.0129 7.83097 11.591 7.40901C11.169 6.98705 10.5967 6.75 10 6.75C9.40326 6.75 8.83097 6.98705 8.40901 7.40901C7.98705 7.83097 7.75 8.40326 7.75 9C7.75 9.59674 7.98705 10.169 8.40901 10.591C8.83097 11.0129 9.40326 11.25 10 11.25Z" fill="#979BA3"/>
</svg>
