<svg width="19" height="25" viewBox="0 0 19 25" fill="none" xmlns="http://www.w3.org/2000/svg">
<path d="M9.42867 0.5C6.9289 0.502836 4.53233 1.49712 2.76472 3.26472C0.997121 5.03233 0.00283581 7.4289 0 9.92867C0 17.9966 8.57151 24.0899 8.93688 24.3449C9.081 24.4458 9.2527 24.5 9.42867 24.5C9.60463 24.5 9.77633 24.4458 9.92046 24.3449C10.2858 24.0899 18.8573 17.9966 18.8573 9.92867C18.8545 7.4289 17.8602 5.03233 16.0926 3.26472C14.325 1.49712 11.9284 0.502836 9.42867 0.5ZM9.42867 6.50006C10.1068 6.50006 10.7697 6.70114 11.3335 7.07788C11.8973 7.45462 12.3368 7.9901 12.5963 8.6166C12.8558 9.24309 12.9237 9.93247 12.7914 10.5976C12.6591 11.2626 12.3326 11.8736 11.8531 12.3531C11.3736 12.8326 10.7626 13.1591 10.0976 13.2914C9.43247 13.4237 8.74309 13.3558 8.11659 13.0963C7.4901 12.8368 6.95462 12.3973 6.57788 11.8335C6.20114 11.2697 6.00006 10.6068 6.00006 9.92867C6.00006 9.01934 6.36129 8.14726 7.00427 7.50428C7.64726 6.86129 8.51934 6.50006 9.42867 6.50006Z" fill="#0065FF"/>
</svg>
