<svg width="24" height="24" viewBox="0 0 24 24" fill="none" xmlns="http://www.w3.org/2000/svg">
<path d="M20.1396 1.07812H3.86011C2.39719 1.07812 1.20703 2.26828 1.20703 3.7312V20.2687C1.20703 21.7317 2.39719 22.9219 3.86011 22.9219H20.1396C21.6025 22.9219 22.7927 21.7317 22.7927 20.2687V3.7312C22.7927 2.26828 21.6025 1.07812 20.1396 1.07812ZM22.0427 20.2687C22.0427 21.3181 21.189 22.1719 20.1396 22.1719H3.86011C2.81077 22.1719 1.95703 21.3181 1.95703 20.2687V3.7312C1.95703 2.68186 2.81077 1.82812 3.86011 1.82812H20.1396C21.189 1.82812 22.0427 2.68186 22.0427 3.7312L22.0427 20.2687ZM7.85948 5.43652H5.29144C4.56773 5.43652 3.97894 6.02531 3.97894 6.74897V9.31702C3.97894 10.0407 4.56773 10.6295 5.29144 10.6295H7.85948C8.58319 10.6295 9.17198 10.0407 9.17198 9.31702V6.74897C9.17198 6.02531 8.58319 5.43652 7.85948 5.43652ZM8.42198 9.31706C8.42198 9.62723 8.16966 9.87956 7.85948 9.87956H5.29144C4.98127 9.87956 4.72894 9.62723 4.72894 9.31706V6.74902C4.72894 6.43889 4.98127 6.18656 5.29144 6.18656H7.85948C8.16966 6.18656 8.42198 6.43889 8.42198 6.74902V9.31706ZM7.84022 7.10142C7.87504 7.13624 7.90267 7.17757 7.92152 7.22306C7.94037 7.26856 7.95008 7.31732 7.95008 7.36656C7.95008 7.4158 7.94039 7.46457 7.92155 7.51006C7.9027 7.55556 7.87508 7.5969 7.84027 7.63172L6.50742 8.96461C6.4726 8.99944 6.43126 9.02707 6.38576 9.04592C6.34027 9.06477 6.2915 9.07447 6.24225 9.07447C6.193 9.07447 6.14423 9.06477 6.09874 9.04592C6.05324 9.02707 6.0119 8.99944 5.97708 8.96461L5.31066 8.29814C5.27584 8.26332 5.24822 8.22198 5.22938 8.17648C5.21053 8.13099 5.20084 8.08223 5.20084 8.03298C5.20085 7.98374 5.21055 7.93498 5.2294 7.88949C5.24825 7.84399 5.27588 7.80266 5.3107 7.76784C5.38104 7.69755 5.47642 7.65806 5.57586 7.65807C5.67531 7.65808 5.77068 7.69758 5.841 7.76789L6.24225 8.16919L7.30988 7.10152C7.34469 7.06669 7.38603 7.03905 7.43152 7.0202C7.47702 7.00134 7.52578 6.99164 7.57503 6.99163C7.62427 6.99162 7.67304 7.00131 7.71854 7.02015C7.76404 7.03899 7.80539 7.0666 7.84022 7.10142ZM10.7339 5.81152C10.7339 5.71206 10.7734 5.61668 10.8437 5.54635C10.9141 5.47602 11.0094 5.43652 11.1089 5.43652H15.0539C15.1534 5.43652 15.2487 5.47602 15.3191 5.54635C15.3894 5.61668 15.4289 5.71206 15.4289 5.81152C15.4289 5.91097 15.3894 6.00635 15.3191 6.07668C15.2487 6.14701 15.1534 6.18652 15.0539 6.18652H11.1089C11.0094 6.18652 10.9141 6.14701 10.8437 6.07668C10.7734 6.00635 10.7339 5.91097 10.7339 5.81152ZM20.0207 8.03302C20.0207 8.13247 19.9812 8.22785 19.9109 8.29818C19.8406 8.36851 19.7452 8.40802 19.6457 8.40802H11.1089C11.0094 8.40802 10.9141 8.36851 10.8437 8.29818C10.7734 8.22785 10.7339 8.13247 10.7339 8.03302C10.7339 7.93356 10.7734 7.83818 10.8437 7.76785C10.9141 7.69752 11.0094 7.65802 11.1089 7.65802H19.6457C19.7452 7.65802 19.8406 7.69752 19.9109 7.76785C19.9812 7.83818 20.0207 7.93356 20.0207 8.03302ZM20.0207 10.2546C20.0207 10.354 19.9812 10.4494 19.9109 10.5197C19.8406 10.5901 19.7452 10.6296 19.6457 10.6296H11.1089C11.0094 10.6296 10.9141 10.5901 10.8437 10.5197C10.7734 10.4494 10.7339 10.354 10.7339 10.2546C10.7339 10.1551 10.7734 10.0597 10.8437 9.9894C10.9141 9.91907 11.0094 9.87956 11.1089 9.87956H19.6457C19.7452 9.87956 19.8406 9.91907 19.9109 9.9894C19.9812 10.0597 20.0207 10.1551 20.0207 10.2546ZM7.85948 13.3704H5.29144C4.56773 13.3704 3.97894 13.9592 3.97894 14.6829V17.2509C3.97894 17.9746 4.56773 18.5634 5.29144 18.5634H7.85948C8.58319 18.5634 9.17198 17.9746 9.17198 17.2509V14.6829C9.17198 13.9592 8.58319 13.3704 7.85948 13.3704ZM8.42198 17.251C8.42198 17.5612 8.16966 17.8135 7.85948 17.8135H5.29144C4.98127 17.8135 4.72894 17.5612 4.72894 17.251V14.6829C4.72894 14.3728 4.98127 14.1205 5.29144 14.1205H7.85948C8.16966 14.1205 8.42198 14.3728 8.42198 14.6829V17.251ZM10.7339 13.7454C10.7339 13.646 10.7734 13.5506 10.8437 13.4803C10.9141 13.4099 11.0094 13.3704 11.1089 13.3704H15.0539C15.1534 13.3704 15.2487 13.4099 15.3191 13.4803C15.3894 13.5506 15.4289 13.646 15.4289 13.7454C15.4289 13.8449 15.3894 13.9403 15.3191 14.0106C15.2487 14.0809 15.1534 14.1204 15.0539 14.1204H11.1089C11.0094 14.1204 10.9141 14.0809 10.8437 14.0106C10.7734 13.9403 10.7339 13.8449 10.7339 13.7454ZM20.0207 15.9669C20.0207 16.0664 19.9812 16.1618 19.9109 16.2321C19.8406 16.3024 19.7452 16.3419 19.6457 16.3419H11.1089C11.0094 16.3419 10.9141 16.3024 10.8437 16.2321C10.7734 16.1618 10.7339 16.0664 10.7339 15.9669C10.7339 15.8675 10.7734 15.7721 10.8437 15.7018C10.9141 15.6314 11.0094 15.5919 11.1089 15.5919H19.6457C19.7452 15.5919 19.8406 15.6314 19.9109 15.7018C19.9812 15.7721 20.0207 15.8675 20.0207 15.9669ZM20.0207 18.1885C20.0207 18.2879 19.9812 18.3833 19.9109 18.4536C19.8406 18.524 19.7452 18.5635 19.6457 18.5635H11.1089C11.0094 18.5635 10.9141 18.524 10.8437 18.4536C10.7734 18.3833 10.7339 18.2879 10.7339 18.1885C10.7339 18.089 10.7734 17.9936 10.8437 17.9233C10.9141 17.853 11.0094 17.8135 11.1089 17.8135H19.6457C19.7452 17.8135 19.8406 17.853 19.9109 17.9233C19.9812 17.9936 20.0207 18.089 20.0207 18.1885ZM7.84027 15.0353C7.87509 15.0702 7.90271 15.1115 7.92156 15.157C7.94041 15.2025 7.95011 15.2513 7.95011 15.3005C7.95011 15.3498 7.94041 15.3985 7.92156 15.444C7.90271 15.4895 7.87509 15.5309 7.84027 15.5657L6.50742 16.8985C6.43416 16.9718 6.33825 17.0084 6.24225 17.0084C6.14625 17.0084 6.0503 16.9718 5.97708 16.8985L5.31066 16.2321C5.24033 16.1618 5.20082 16.0664 5.20082 15.9669C5.20082 15.8675 5.24033 15.7721 5.31066 15.7018C5.38098 15.6314 5.47637 15.5919 5.57583 15.5919C5.67529 15.5919 5.77067 15.6314 5.841 15.7018L6.24225 16.1031L7.30988 15.0354C7.38023 14.9651 7.47561 14.9256 7.57506 14.9256C7.67451 14.9256 7.7699 14.9651 7.84027 15.0353Z" fill="#0065FF"/>
</svg>
