<svg width="22" height="22" viewBox="0 0 22 22" fill="none" xmlns="http://www.w3.org/2000/svg">
<path d="M19.1397 0.078125H2.86023C1.39731 0.078125 0.207153 1.26828 0.207153 2.7312V19.2687C0.207153 20.7317 1.39731 21.9219 2.86023 21.9219H19.1397C20.6027 21.9219 21.7929 20.7317 21.7929 19.2687V2.7312C21.7928 1.26828 20.6026 0.078125 19.1397 0.078125ZM21.0428 19.2687C21.0428 20.3181 20.1891 21.1719 19.1397 21.1719H2.86023C1.81089 21.1719 0.957153 20.3181 0.957153 19.2687V2.7312C0.957153 1.68186 1.81089 0.828125 2.86023 0.828125H19.1397C20.1891 0.828125 21.0429 1.68186 21.0429 2.7312L21.0428 19.2687ZM6.85961 4.43652H4.29156C3.56786 4.43652 2.97906 5.02531 2.97906 5.74897V8.31702C2.97906 9.04072 3.56786 9.62952 4.29156 9.62952H6.85961C7.58331 9.62952 8.17211 9.04072 8.17211 8.31702V5.74897C8.17211 5.02531 7.58331 4.43652 6.85961 4.43652ZM7.42211 8.31706C7.42211 8.62723 7.16978 8.87956 6.85961 8.87956H4.29156C3.98139 8.87956 3.72906 8.62723 3.72906 8.31706V5.74902C3.72906 5.43889 3.98139 5.18656 4.29156 5.18656H6.85961C7.16978 5.18656 7.42211 5.43889 7.42211 5.74902V8.31706ZM6.84034 6.10142C6.87517 6.13624 6.90279 6.17757 6.92164 6.22306C6.94049 6.26856 6.9502 6.31732 6.9502 6.36656C6.95021 6.4158 6.94051 6.46457 6.92167 6.51006C6.90283 6.55556 6.87521 6.5969 6.84039 6.63172L5.50754 7.96461C5.47272 7.99944 5.43139 8.02707 5.38589 8.04592C5.34039 8.06477 5.29162 8.07447 5.24237 8.07447C5.19312 8.07447 5.14436 8.06477 5.09886 8.04592C5.05336 8.02707 5.01202 7.99944 4.9772 7.96461L4.31078 7.29814C4.27596 7.26332 4.24834 7.22198 4.2295 7.17648C4.21066 7.13099 4.20096 7.08223 4.20096 7.03298C4.20097 6.98374 4.21067 6.93498 4.22952 6.88949C4.24837 6.84399 4.276 6.80266 4.31083 6.76784C4.38116 6.69755 4.47654 6.65806 4.57598 6.65807C4.67543 6.65808 4.7708 6.69758 4.84112 6.76789L5.24237 7.16919L6.31 6.10152C6.34481 6.06669 6.38615 6.03905 6.43164 6.0202C6.47714 6.00134 6.5259 5.99164 6.57515 5.99163C6.6244 5.99162 6.67316 6.00131 6.71867 6.02015C6.76417 6.03899 6.80551 6.0666 6.84034 6.10142ZM9.73403 4.81152C9.73403 4.71206 9.77354 4.61668 9.84386 4.54635C9.91419 4.47602 10.0096 4.43652 10.109 4.43652H14.054C14.1535 4.43652 14.2489 4.47602 14.3192 4.54635C14.3895 4.61668 14.429 4.71206 14.429 4.81152C14.429 4.91097 14.3895 5.00635 14.3192 5.07668C14.2489 5.14701 14.1535 5.18652 14.054 5.18652H10.109C10.0096 5.18652 9.91419 5.14701 9.84386 5.07668C9.77354 5.00635 9.73403 4.91097 9.73403 4.81152ZM19.0209 7.03302C19.0209 7.13247 18.9813 7.22785 18.911 7.29818C18.8407 7.36851 18.7453 7.40802 18.6459 7.40802H10.109C10.0096 7.40802 9.91419 7.36851 9.84386 7.29818C9.77354 7.22785 9.73403 7.13247 9.73403 7.03302C9.73403 6.93356 9.77354 6.83818 9.84386 6.76785C9.91419 6.69752 10.0096 6.65802 10.109 6.65802H18.6459C18.7453 6.65802 18.8407 6.69752 18.911 6.76785C18.9813 6.83818 19.0209 6.93356 19.0209 7.03302ZM19.0209 9.25456C19.0209 9.35402 18.9813 9.4494 18.911 9.51973C18.8407 9.59005 18.7453 9.62956 18.6459 9.62956H10.109C10.0096 9.62956 9.91419 9.59005 9.84386 9.51973C9.77354 9.4494 9.73403 9.35402 9.73403 9.25456C9.73403 9.15511 9.77354 9.05972 9.84386 8.9894C9.91419 8.91907 10.0096 8.87956 10.109 8.87956H18.6459C18.7453 8.87956 18.8407 8.91907 18.911 8.9894C18.9813 9.05972 19.0209 9.15511 19.0209 9.25456ZM6.85961 12.3704H4.29156C3.56786 12.3704 2.97906 12.9592 2.97906 13.6829V16.2509C2.97906 16.9746 3.56786 17.5634 4.29156 17.5634H6.85961C7.58331 17.5634 8.17211 16.9746 8.17211 16.2509V13.6829C8.17211 12.9592 7.58331 12.3704 6.85961 12.3704ZM7.42211 16.251C7.42211 16.5612 7.16978 16.8135 6.85961 16.8135H4.29156C3.98139 16.8135 3.72906 16.5612 3.72906 16.251V13.6829C3.72906 13.3728 3.98139 13.1205 4.29156 13.1205H6.85961C7.16978 13.1205 7.42211 13.3728 7.42211 13.6829V16.251ZM9.73403 12.7454C9.73403 12.646 9.77354 12.5506 9.84386 12.4803C9.91419 12.4099 10.0096 12.3704 10.109 12.3704H14.054C14.1535 12.3704 14.2489 12.4099 14.3192 12.4803C14.3895 12.5506 14.429 12.646 14.429 12.7454C14.429 12.8449 14.3895 12.9403 14.3192 13.0106C14.2489 13.0809 14.1535 13.1204 14.054 13.1204H10.109C10.0096 13.1204 9.91419 13.0809 9.84386 13.0106C9.77354 12.9403 9.73403 12.8449 9.73403 12.7454ZM19.0209 14.9669C19.0209 15.0664 18.9813 15.1618 18.911 15.2321C18.8407 15.3024 18.7453 15.3419 18.6459 15.3419H10.109C10.0096 15.3419 9.91419 15.3024 9.84386 15.2321C9.77354 15.1618 9.73403 15.0664 9.73403 14.9669C9.73403 14.8675 9.77354 14.7721 9.84386 14.7018C9.91419 14.6314 10.0096 14.5919 10.109 14.5919H18.6459C18.7453 14.5919 18.8407 14.6314 18.911 14.7018C18.9813 14.7721 19.0209 14.8675 19.0209 14.9669ZM19.0209 17.1885C19.0209 17.2879 18.9813 17.3833 18.911 17.4536C18.8407 17.524 18.7453 17.5635 18.6459 17.5635H10.109C10.0096 17.5635 9.91419 17.524 9.84386 17.4536C9.77354 17.3833 9.73403 17.2879 9.73403 17.1885C9.73403 17.089 9.77354 16.9936 9.84386 16.9233C9.91419 16.853 10.0096 16.8135 10.109 16.8135H18.6459C18.7453 16.8135 18.8407 16.853 18.911 16.9233C18.9813 16.9936 19.0209 17.089 19.0209 17.1885ZM6.84039 14.0353C6.87521 14.0702 6.90284 14.1115 6.92168 14.157C6.94053 14.2025 6.95023 14.2513 6.95023 14.3005C6.95023 14.3498 6.94053 14.3985 6.92168 14.444C6.90284 14.4895 6.87521 14.5309 6.84039 14.5657L5.50754 15.8985C5.43428 15.9718 5.33837 16.0084 5.24237 16.0084C5.14637 16.0084 5.05042 15.9718 4.9772 15.8985L4.31078 15.2321C4.24045 15.1618 4.20094 15.0664 4.20094 14.9669C4.20094 14.8675 4.24045 14.7721 4.31078 14.7018C4.38111 14.6314 4.47649 14.5919 4.57595 14.5919C4.67541 14.5919 4.77079 14.6314 4.84112 14.7018L5.24237 15.1031L6.31 14.0354C6.38035 13.9651 6.47573 13.9256 6.57518 13.9256C6.67463 13.9256 6.77002 13.9651 6.84039 14.0353Z" fill="#0065FF"/>
</svg>
