<svg width="20" height="20" viewBox="0 0 20 20" fill="none" xmlns="http://www.w3.org/2000/svg">
<path fill-rule="evenodd" clip-rule="evenodd" d="M10 20C15.5228 20 20 15.5228 20 10C20 4.47715 15.5228 0 10 0C4.47715 0 0 4.47715 0 10C0 15.5228 4.47715 20 10 20ZM7.17778 6.25215C7.11712 6.34309 7.07881 6.44676 7.06589 6.5549C6.99888 7.09907 6.875 8.33309 6.875 9.9994C6.875 11.6667 6.99937 12.9011 7.06589 13.4448C7.12277 13.91 7.61156 14.1894 8.04829 14.0052C8.55539 13.7919 9.68915 13.2844 11.1642 12.4436C12.6378 11.6029 13.6496 10.8873 14.0902 10.5602C14.4705 10.2779 14.4695 9.71993 14.0897 9.43856C13.6448 9.10959 12.6204 8.38451 11.1642 7.55421C9.70843 6.72439 8.56118 6.21069 8.04925 5.99455C7.94799 5.95147 7.83794 5.93234 7.72787 5.93869C7.6178 5.94503 7.51075 5.97668 7.41525 6.0311C7.31974 6.08552 7.23843 6.16121 7.17778 6.25215Z" fill="#979BA3"/>
</svg>
