<svg width="17" height="16" viewBox="0 0 17 16" fill="none" xmlns="http://www.w3.org/2000/svg">
<path fill-rule="evenodd" clip-rule="evenodd" d="M8.5 16C12.9183 16 16.5 12.4183 16.5 8C16.5 3.58172 12.9183 0 8.5 0C4.08172 0 0.5 3.58172 0.5 8C0.5 12.4183 4.08172 16 8.5 16ZM6.24222 5.00172C6.1937 5.07447 6.16305 5.15741 6.15271 5.24392C6.09911 5.67926 6 6.66647 6 7.99952C6 9.33332 6.09949 10.3209 6.15271 10.7559C6.19822 11.128 6.58925 11.3516 6.93863 11.2042C7.34431 11.0335 8.25132 10.6275 9.43135 9.9549C10.6102 9.28229 11.4197 8.70984 11.7721 8.44818C12.0764 8.22233 12.0756 7.77595 11.7718 7.55085C11.4158 7.28767 10.5963 6.70761 9.43135 6.04337C8.26674 5.37951 7.34894 4.96855 6.9394 4.79564C6.85839 4.76118 6.77035 4.74587 6.68229 4.75095C6.59424 4.75603 6.5086 4.78134 6.4322 4.82488C6.35579 4.86841 6.29074 4.92897 6.24222 5.00172Z" fill="#797F89"/>
</svg>
