<svg width="16" height="18" viewBox="0 0 16 18" fill="none" xmlns="http://www.w3.org/2000/svg">
<path d="M8 9.83317C9.99667 9.83317 11.8125 10.4115 13.1483 11.2257C13.815 11.634 14.385 12.1132 14.7967 12.634C15.2017 13.1473 15.5 13.7607 15.5 14.4165C15.5 15.1207 15.1575 15.6757 14.6642 16.0715C14.1975 16.4465 13.5817 16.6948 12.9275 16.8682C11.6125 17.2157 9.8575 17.3332 8 17.3332C6.1425 17.3332 4.3875 17.2165 3.0725 16.8682C2.41833 16.6948 1.8025 16.4465 1.33583 16.0715C0.841666 15.6748 0.5 15.1207 0.5 14.4165C0.5 13.7607 0.798333 13.1473 1.20333 12.634C1.615 12.1132 2.18417 11.634 2.85167 11.2257C4.1875 10.4115 6.00417 9.83317 8 9.83317ZM8 0.666504C9.10507 0.666504 10.1649 1.10549 10.9463 1.88689C11.7277 2.66829 12.1667 3.7281 12.1667 4.83317C12.1667 5.93824 11.7277 6.99805 10.9463 7.77945C10.1649 8.56085 9.10507 8.99984 8 8.99984C6.89493 8.99984 5.83512 8.56085 5.05372 7.77945C4.27232 6.99805 3.83333 5.93824 3.83333 4.83317C3.83333 3.7281 4.27232 2.66829 5.05372 1.88689C5.83512 1.10549 6.89493 0.666504 8 0.666504Z" fill="#979BA3"/>
</svg>
