<svg width="29" height="28" viewBox="0 0 29 28" fill="none" xmlns="http://www.w3.org/2000/svg">
<path d="M9.64844 6.27805C9.66294 7.56485 10.188 8.79318 11.1082 9.69283C12.0283 10.5925 13.2682 11.0897 14.555 11.0752C15.8418 11.0607 17.0701 10.5357 17.9698 9.61549C18.8694 8.69533 19.3667 7.45548 19.3522 6.16868C19.3546 5.6726 19.2778 5.17931 19.1247 4.70743C18.875 3.9204 18.4292 3.20986 17.8291 2.6427C17.2291 2.07555 16.4945 1.67045 15.6947 1.46555C14.8468 1.24762 13.9553 1.2673 13.1178 1.52243C12.1182 1.82322 11.2415 2.43702 10.617 3.27347C9.9924 4.10991 9.65289 5.12479 9.64844 6.16868V6.2693V6.27805ZM14.5003 10.1456C13.5556 10.1432 12.6422 9.80682 11.9216 9.19593C11.2011 8.58503 10.7197 7.73899 10.5628 6.80743C10.7603 6.83035 10.959 6.84204 11.1578 6.84243C11.9243 6.84299 12.6802 6.66307 13.3642 6.31725C14.0483 5.97142 14.6413 5.46939 15.0953 4.8518C15.8175 5.25448 16.6309 5.46536 17.4578 5.4643C17.6066 5.4643 17.7509 5.4643 17.8953 5.44243H18.0222C18.1272 5.44243 18.2322 5.41618 18.3328 5.3943H18.4116C18.5246 5.97164 18.5084 6.56683 18.3641 7.13717C18.2199 7.7075 17.9512 8.23883 17.5773 8.69302C17.2034 9.14722 16.7336 9.51301 16.2016 9.76414C15.6696 10.0153 15.0886 10.1455 14.5003 10.1456ZM13.3716 2.35368C14.0574 2.1476 14.7865 2.13247 15.4803 2.30993C16.0555 2.4607 16.5897 2.73811 17.0439 3.12189C17.498 3.50566 17.8607 3.9861 18.1053 4.52805C18.0849 4.52601 18.0644 4.52601 18.0441 4.52805H17.9609C17.7857 4.55456 17.6088 4.56772 17.4316 4.56743C16.6384 4.57228 15.8622 4.33744 15.2047 3.89368C15.1559 3.8606 15.1008 3.83773 15.043 3.82645C14.9851 3.81518 14.9255 3.81572 14.8678 3.82805C14.8092 3.84033 14.7536 3.86453 14.7047 3.89915C14.6558 3.93377 14.6145 3.97807 14.5834 4.0293C14.2286 4.61786 13.7283 5.10526 13.1307 5.44467C12.5331 5.78408 11.8582 5.9641 11.1709 5.96743C11.0247 5.96732 10.8786 5.95855 10.7334 5.94118H10.5409C10.5898 5.12564 10.8872 4.34464 11.3933 3.70325C11.8994 3.06186 12.5898 2.59088 13.3716 2.35368ZM14.5003 19.0574C14.3843 19.0574 14.273 19.1035 14.191 19.1856C14.1089 19.2676 14.0628 19.3789 14.0628 19.4949V20.1249C14.0628 20.241 14.1089 20.3522 14.191 20.4343C14.273 20.5163 14.3843 20.5624 14.5003 20.5624C14.6163 20.5624 14.7276 20.5163 14.8097 20.4343C14.8917 20.3522 14.9378 20.241 14.9378 20.1249V19.4949C14.9378 19.3789 14.8917 19.2676 14.8097 19.1856C14.7276 19.1035 14.6163 19.0574 14.5003 19.0574Z" fill="#0065FF"/>
<path d="M24.8163 16.1874C23.1101 14.1224 20.3932 11.6855 17.1251 11.6855H11.8751C8.60257 11.6855 5.88569 14.1224 4.17944 16.1699C3.76921 16.6655 3.47051 17.2436 3.30367 17.8649C3.13683 18.4862 3.10576 19.1362 3.21257 19.7705C3.33982 20.4906 3.66907 21.1597 4.16194 21.6999L8.49757 26.543C8.53748 26.5873 8.586 26.6229 8.64017 26.6477C8.69433 26.6726 8.753 26.6861 8.81257 26.6874H10.1251C10.1454 26.6899 10.166 26.6899 10.1863 26.6874L10.2651 26.6612C10.2938 26.6478 10.3204 26.6301 10.3438 26.6087L10.3963 26.5649C10.4178 26.5375 10.4368 26.5082 10.4532 26.4774L10.4838 26.4249C10.4957 26.3895 10.5031 26.3528 10.5057 26.3155C10.5057 26.3155 10.5057 26.2893 10.5057 26.2718V26.2412L9.58257 17.8193C9.57293 17.7377 9.54053 17.6605 9.48906 17.5965C9.43759 17.5325 9.36914 17.4842 9.29154 17.4573C9.21393 17.4304 9.13032 17.4258 9.05026 17.4442C8.97019 17.4626 8.89692 17.5031 8.83882 17.5612L6.84382 19.5562C6.77636 19.624 6.73299 19.7121 6.72035 19.8069C6.70771 19.9017 6.72649 19.998 6.77382 20.0812L7.64882 21.643C7.7058 21.7439 7.80043 21.818 7.91196 21.8491C8.02349 21.8803 8.14283 21.866 8.24382 21.8093C8.29395 21.7807 8.33793 21.7425 8.37323 21.6968C8.40853 21.6512 8.43445 21.599 8.4495 21.5433C8.46454 21.4876 8.46842 21.4294 8.4609 21.3722C8.45338 21.315 8.43462 21.2599 8.40569 21.2099L7.67944 19.9368L8.81257 18.8124L9.5957 25.8124H9.02257L4.81382 21.118C4.43099 20.7009 4.17458 20.1835 4.07444 19.6262C3.99173 19.1142 4.02044 18.5905 4.15861 18.0907C4.29678 17.5908 4.54116 17.1267 4.87507 16.7299C6.23132 15.0805 8.30069 13.1555 10.7376 12.6874C10.7436 12.732 10.7539 12.776 10.7682 12.8187L13.0607 17.8412C13.1307 18.0007 13.2252 18.1483 13.3407 18.2787C12.9582 18.5034 12.653 18.839 12.4657 19.2412H12.0632C11.8172 19.2412 11.5813 19.3389 11.4074 19.5128C11.2334 19.6868 11.1357 19.9227 11.1357 20.1687C11.1357 20.4147 11.2334 20.6506 11.4074 20.8245C11.5813 20.9985 11.8172 21.0962 12.0632 21.0962H12.4657C12.6105 21.4107 12.827 21.687 13.0978 21.9028C13.3685 22.1187 13.6861 22.2681 14.025 22.3392C14.3639 22.4104 14.7147 22.4011 15.0494 22.3123C15.3841 22.2235 15.6934 22.0575 15.9524 21.8278C16.2115 21.598 16.4131 21.3107 16.5412 20.989C16.6693 20.6673 16.7203 20.3201 16.6902 19.9751C16.66 19.6301 16.5495 19.297 16.3674 19.0024C16.1854 18.7079 15.937 18.46 15.6419 18.2787C15.7575 18.1483 15.8519 18.0007 15.9219 17.8412L18.2144 12.8187C18.2288 12.776 18.239 12.732 18.2451 12.6874C20.6819 13.1687 22.7513 15.0937 24.1251 16.743C24.55 17.2515 24.8259 17.8676 24.9224 18.5231C25.019 19.1786 24.9323 19.8481 24.6719 20.4574C24.5976 20.6176 24.4987 20.7652 24.3788 20.8949L20.0257 25.8124H19.4044L20.1876 18.8124L21.3032 19.928L20.5769 21.2012C20.548 21.2511 20.5293 21.3063 20.5217 21.3635C20.5142 21.4207 20.5181 21.4788 20.5331 21.5345C20.5482 21.5903 20.5741 21.6424 20.6094 21.6881C20.6447 21.7337 20.6887 21.772 20.7388 21.8005C20.8398 21.8572 20.9591 21.8716 21.0707 21.8404C21.1822 21.8092 21.2768 21.7351 21.3338 21.6343L22.2088 20.0724C22.2562 19.9893 22.2749 19.8929 22.2623 19.7981C22.2496 19.7033 22.2063 19.6152 22.1388 19.5474L20.1438 17.5524C20.0857 17.4944 20.0124 17.4538 19.9324 17.4354C19.8523 17.4171 19.7687 17.4216 19.6911 17.4486C19.6135 17.4755 19.5451 17.5237 19.4936 17.5877C19.4421 17.6518 19.4097 17.729 19.4001 17.8105L18.4813 26.2018V26.2762C18.4767 26.3125 18.4767 26.3492 18.4813 26.3855L18.5119 26.438C18.5283 26.4688 18.5474 26.4981 18.5688 26.5255L18.6213 26.5693C18.6447 26.5907 18.6713 26.6084 18.7001 26.6218L18.7788 26.648C18.8078 26.6678 18.8406 26.6812 18.8751 26.6874H20.2313C20.2934 26.6873 20.3548 26.674 20.4114 26.6484C20.468 26.6227 20.5184 26.5853 20.5594 26.5387L25.0613 21.4637C25.243 21.2629 25.3908 21.0338 25.4988 20.7855C25.8175 20.0302 25.9224 19.2018 25.8021 18.3908C25.6817 17.5799 25.3407 16.8176 24.8163 16.1874ZM12.0807 20.1905C12.0668 20.1905 12.0534 20.185 12.0436 20.1752C12.0337 20.1653 12.0282 20.152 12.0282 20.138C12.0282 20.1241 12.0337 20.1108 12.0436 20.1009C12.0534 20.0911 12.0668 20.0855 12.0807 20.0855H12.2776V20.1905H12.0807ZM14.5001 21.503C14.2035 21.5063 13.9141 21.4116 13.6767 21.2336C13.4394 21.0556 13.2675 20.8043 13.1876 20.5187C13.1527 20.4008 13.135 20.2785 13.1351 20.1555C13.1309 20.0929 13.1309 20.0301 13.1351 19.9674C13.1435 19.9081 13.1567 19.8496 13.1744 19.7924C13.2434 19.5524 13.3777 19.3362 13.5623 19.1681C13.747 18.9999 13.9748 18.8864 14.2202 18.8402C14.4656 18.794 14.7191 18.8169 14.9522 18.9063C15.1854 18.9958 15.3891 19.1483 15.5407 19.3468C15.6922 19.5453 15.7856 19.782 15.8104 20.0305C15.8352 20.279 15.7905 20.5296 15.6812 20.7541C15.5719 20.9787 15.4024 21.1684 15.1915 21.3022C14.9806 21.436 14.7367 21.5086 14.4869 21.5118L14.5001 21.503ZM15.1432 17.4824C15.0877 17.6066 14.9975 17.7121 14.8833 17.7861C14.7692 17.8601 14.6361 17.8995 14.5001 17.8995C14.364 17.8995 14.2309 17.8601 14.1168 17.7861C14.0027 17.7121 13.9124 17.6066 13.8569 17.4824L11.6257 12.5912H17.3788L15.1432 17.4824Z" fill="#0065FF"/>
</svg>
