<svg width="29" height="29" viewBox="0 0 29 29" fill="none" xmlns="http://www.w3.org/2000/svg">
<path d="M28.1754 13.1546L22.5417 18.2575L24.2293 25.8547C24.3186 26.2518 24.2932 26.6675 24.1561 27.0497C24.019 27.4319 23.7764 27.7637 23.4586 28.0036C23.1408 28.2435 22.762 28.3808 22.3694 28.3984C21.9768 28.4161 21.5879 28.3132 21.2513 28.1027L14.8669 24.0837L8.49616 28.1027C8.1596 28.3132 7.77071 28.4161 7.37813 28.3984C6.98554 28.3808 6.60667 28.2435 6.28888 28.0036C5.9711 27.7637 5.7285 27.4319 5.59142 27.0497C5.45434 26.6675 5.42886 26.2518 5.51816 25.8547L7.20328 18.2652L1.56831 13.1546C1.27027 12.8878 1.05476 12.5357 0.948798 12.1423C0.842836 11.7489 0.851143 11.3318 0.972677 10.9433C1.09421 10.5548 1.32356 10.2121 1.63197 9.95837C1.94037 9.7046 2.31411 9.55098 2.7063 9.51678L10.1338 8.8491L13.0331 1.67195C13.1845 1.29535 13.4399 0.973666 13.7671 0.747396C14.0943 0.521127 14.4787 0.400391 14.8719 0.400391C15.2651 0.400391 15.6495 0.521127 15.9767 0.747396C16.3039 0.973666 16.5592 1.29535 16.7106 1.67195L19.6187 8.8491L27.0437 9.51678C27.4359 9.55098 27.8096 9.7046 28.118 9.95837C28.4264 10.2121 28.6558 10.5548 28.7773 10.9433C28.8989 11.3318 28.9072 11.7489 28.8012 12.1423C28.6952 12.5357 28.4797 12.8878 28.1817 13.1546H28.1754Z" fill="#0065FF"/>
</svg>
