<svg width="29" height="28" viewBox="0 0 29 28" fill="none" xmlns="http://www.w3.org/2000/svg">
<g clip-path="url(#clip0_3021_15993)">
<path fill-rule="evenodd" clip-rule="evenodd" d="M27.47 4.0284C27.4623 4.14322 27.5002 4.25643 27.5754 4.34348C27.6507 4.43053 27.7573 4.4844 27.872 4.4934C27.9867 4.5024 28.1003 4.4658 28.1883 4.39154C28.2762 4.31729 28.3313 4.21137 28.3416 4.09676L28.4984 2.1752H28.4982C28.5032 2.11095 28.494 2.04638 28.4712 1.98612C28.4483 1.92586 28.4124 1.87139 28.366 1.82664C28.3197 1.78189 28.264 1.74795 28.2029 1.72726C28.1419 1.70657 28.077 1.69964 28.013 1.70697L26.0983 1.93283C26.0413 1.93933 25.9862 1.957 25.936 1.98483C25.8858 2.01265 25.8416 2.05009 25.8059 2.09501C25.7702 2.13992 25.7437 2.19143 25.7279 2.24659C25.7121 2.30175 25.7073 2.35948 25.7138 2.41648C25.7203 2.47349 25.738 2.52866 25.7658 2.57884C25.7937 2.62902 25.8311 2.67322 25.876 2.70893C25.9209 2.74463 25.9724 2.77114 26.0276 2.78694C26.0828 2.80273 26.1405 2.80751 26.1975 2.80099L26.9026 2.71781L21.9074 7.91181L16.6792 5.33297C16.6002 5.2872 16.5089 5.26726 16.4181 5.27595C16.3273 5.28464 16.2414 5.32152 16.1726 5.38142L12.7863 8.33077C12.8524 7.96554 12.8856 7.59512 12.8855 7.22395C12.8855 3.80932 10.1075 1.03125 6.69281 1.03125C3.27813 1.03125 0.5 3.80927 0.5 7.2239C0.5 10.6385 3.27802 13.4165 6.69265 13.4165C9.12559 13.4165 11.2349 12.006 12.247 9.96008L16.5279 6.23154L21.8074 8.83565C21.8924 8.87756 21.9887 8.89069 22.0817 8.87307C22.1748 8.85545 22.2597 8.80804 22.3234 8.73798L27.5272 3.32714L27.47 4.0284ZM6.6927 12.5416C3.76052 12.5416 1.375 10.1561 1.375 7.2239C1.375 4.29172 3.76052 1.9062 6.69265 1.9062C9.62483 1.9062 12.0104 4.29172 12.0104 7.2239C12.0104 10.1561 9.62488 12.5416 6.6927 12.5416ZM14.2594 13.2236H11.7836C11.2408 13.2236 10.7992 13.6652 10.7992 14.208V25.9847C10.7992 26.5274 11.2408 26.969 11.7836 26.969H14.2594C14.8022 26.969 15.2438 26.5274 15.2438 25.9847V14.208C15.2438 13.6652 14.8022 13.2236 14.2594 13.2236ZM14.3688 25.9847C14.3688 26.044 14.3187 26.0941 14.2594 26.0941H11.7836C11.7243 26.0941 11.6742 26.044 11.6742 25.9847V14.208C11.6742 14.1488 11.7243 14.0987 11.7836 14.0987H14.2594C14.3187 14.0987 14.3688 14.1488 14.3688 14.208V25.9847ZM20.8876 15.6581H18.4117C17.869 15.6581 17.4274 16.0997 17.4274 16.6425V25.9847C17.4274 26.5275 17.869 26.9691 18.4117 26.9691H20.8876C21.4304 26.9691 21.872 26.5275 21.872 25.9847V16.6425C21.872 16.0997 21.4304 15.6581 20.8876 15.6581ZM20.997 25.9847C20.997 26.044 20.9469 26.0941 20.8876 26.0941H18.4117C18.3525 26.0941 18.3024 26.044 18.3024 25.9847V16.6425C18.3024 16.5832 18.3525 16.5331 18.4117 16.5331H20.8876C20.9469 16.5331 20.997 16.5832 20.997 16.6425V25.9847ZM27.5156 8.54121H25.0398C24.497 8.54121 24.0554 8.98281 24.0554 9.52559V25.9847C24.0554 26.5274 24.497 26.969 25.0398 26.969H27.5156C28.0584 26.969 28.5 26.5274 28.5 25.9847V9.52559C28.5 8.98281 28.0584 8.54121 27.5156 8.54121ZM27.625 25.9847C27.625 26.0439 27.5749 26.094 27.5156 26.094H25.0398C24.9805 26.094 24.9304 26.0439 24.9304 25.9847V9.52559C24.9304 9.4663 24.9805 9.41621 25.0398 9.41621H27.5156C27.5749 9.41621 27.625 9.4663 27.625 9.52559V25.9847ZM7.6313 19.246H5.15549C4.61272 19.246 4.17112 19.6876 4.17112 20.2304V25.9847C4.17112 26.5274 4.61272 26.969 5.15549 26.969H7.6313C8.17408 26.969 8.61568 26.5274 8.61568 25.9847V20.2304C8.61568 19.6876 8.17408 19.246 7.6313 19.246ZM7.74068 25.9847C7.74068 26.0439 7.69059 26.094 7.6313 26.094H5.15549C5.09621 26.094 5.04612 26.0439 5.04612 25.9847V20.2304C5.04612 20.1711 5.09621 20.121 5.15549 20.121H7.6313C7.69059 20.121 7.74068 20.1711 7.74068 20.2304V25.9847ZM8.94944 8.52147C9.01555 9.05834 8.82737 9.61593 8.33349 9.99065C7.99339 10.2487 7.55633 10.4008 7.1302 10.4601V10.8658C7.1302 10.9818 7.08411 11.0931 7.00206 11.1751C6.92001 11.2572 6.80874 11.3033 6.6927 11.3033C6.57667 11.3033 6.46539 11.2572 6.38334 11.1751C6.3013 11.0931 6.2552 10.9818 6.2552 10.8658V10.452C5.90159 10.3947 5.56335 10.2696 5.27378 10.0767C4.86647 9.80537 4.55442 9.40527 4.42257 8.87623C4.39545 8.764 4.41389 8.64561 4.47387 8.54696C4.53385 8.4483 4.63047 8.37743 4.74258 8.34986C4.85469 8.32229 4.97316 8.34026 5.07206 8.39984C5.17095 8.45942 5.2422 8.55576 5.27023 8.66776C5.34466 8.96635 5.52272 9.19347 5.75574 9.34867C6.32881 9.73034 7.2532 9.71716 7.80713 9.29683C8.29565 8.92616 8.11649 8.24256 7.64273 7.95655C7.35541 7.78308 6.97954 7.69153 6.6279 7.63384C6.20123 7.56378 5.73906 7.43691 5.36396 7.19202C4.39665 6.56054 4.36772 5.17115 5.25098 4.45299C5.52239 4.23233 5.85954 4.08084 6.21884 4.00849L6.25526 4.00144V3.58198C6.25526 3.46595 6.30135 3.35467 6.3834 3.27263C6.46545 3.19058 6.57673 3.14448 6.69276 3.14448C6.80879 3.14448 6.92007 3.19058 7.00212 3.27263C7.08416 3.35467 7.13026 3.46595 7.13026 3.58198V3.99477C7.18916 4.00494 7.24773 4.01741 7.30575 4.03206C7.9276 4.18973 8.49329 4.59857 8.79041 5.30628C8.83286 5.41279 8.8318 5.53171 8.78745 5.63745C8.74311 5.74319 8.65902 5.82728 8.55328 5.87164C8.44755 5.916 8.32863 5.91707 8.22212 5.87462C8.1156 5.83218 8.03001 5.74961 7.98377 5.64469C7.77109 5.13773 7.24871 4.8369 6.70288 4.83663C6.12105 4.8363 5.442 5.18586 5.47421 5.84966C5.50538 6.49169 6.2528 6.68785 6.76806 6.77245C7.21059 6.84508 7.69299 6.96594 8.09391 7.20798C8.58505 7.50455 8.88562 8.00336 8.94944 8.52147Z" fill="#0065FF"/>
</g>
<defs>
<clipPath id="clip0_3021_15993">
<rect width="28" height="28" fill="white" transform="translate(0.5)"/>
</clipPath>
</defs>
</svg>
