<svg width="25" height="25" viewBox="0 0 25 25" fill="none" xmlns="http://www.w3.org/2000/svg">
<path d="M12.6251 0.733398C19.0686 0.733398 24.2917 5.95657 24.2917 12.4001C24.2917 18.8436 19.0686 24.0667 12.6251 24.0667C10.7376 24.0692 8.87805 23.6119 7.20705 22.7344L2.20205 24.0376C2.03482 24.0811 1.8591 24.0802 1.69232 24.0349C1.52555 23.9897 1.37349 23.9016 1.25124 23.7795C1.12898 23.6573 1.04076 23.5054 0.995329 23.3386C0.949896 23.1719 0.948824 22.9962 0.992218 22.8289L2.29422 17.8251C1.41432 16.1523 0.955784 14.2901 0.958385 12.4001C0.958385 5.95657 6.18155 0.733398 12.6251 0.733398ZM14.0857 13.5667H8.83338L8.71438 13.5749C8.50495 13.6037 8.31304 13.7074 8.17411 13.8667C8.03519 14.0261 7.95865 14.2303 7.95865 14.4417C7.95865 14.6531 8.03519 14.8574 8.17411 15.0167C8.31304 15.1761 8.50495 15.2797 8.71438 15.3086L8.83338 15.3167H14.0857L14.2036 15.3086C14.413 15.2797 14.6049 15.1761 14.7438 15.0167C14.8827 14.8574 14.9593 14.6531 14.9593 14.4417C14.9593 14.2303 14.8827 14.0261 14.7438 13.8667C14.6049 13.7074 14.413 13.6037 14.2036 13.5749L14.0857 13.5667ZM16.4167 9.4834H8.83338L8.71438 9.49156C8.50495 9.52038 8.31304 9.62404 8.17411 9.78339C8.03519 9.94274 7.95865 10.147 7.95865 10.3584C7.95865 10.5698 8.03519 10.7741 8.17411 10.9334C8.31304 11.0928 8.50495 11.1964 8.71438 11.2252L8.83338 11.2334H16.4167L16.5357 11.2252C16.7451 11.1964 16.9371 11.0928 17.076 10.9334C17.2149 10.7741 17.2915 10.5698 17.2915 10.3584C17.2915 10.147 17.2149 9.94274 17.076 9.78339C16.9371 9.62404 16.7451 9.52038 16.5357 9.49156L16.4167 9.4834Z" fill="#0065FF"/>
</svg>
