<svg width="20" height="20" viewBox="0 0 20 20" fill="none" xmlns="http://www.w3.org/2000/svg">
<path d="M16 16L14.261 14.261M9.56523 15.1305C8.83439 15.1305 8.11071 14.9865 7.43551 14.7068C6.7603 14.4272 6.1468 14.0172 5.63002 13.5004C5.11324 12.9837 4.70331 12.3702 4.42363 11.695C4.14395 11.0197 4 10.2961 4 9.56523C4 8.83439 4.14395 8.11071 4.42363 7.43551C4.70331 6.7603 5.11324 6.1468 5.63002 5.63002C6.1468 5.11324 6.7603 4.70331 7.43551 4.42363C8.11071 4.14395 8.83439 4 9.56523 4C11.0412 4 12.4568 4.58634 13.5004 5.63002C14.5441 6.6737 15.1305 8.08924 15.1305 9.56523C15.1305 11.0412 14.5441 12.4568 13.5004 13.5004C12.4568 14.5441 11.0412 15.1305 9.56523 15.1305Z" stroke="#0065FF" stroke-linecap="round"/>
</svg>
