<svg width="29" height="28" viewBox="0 0 29 28" fill="none" xmlns="http://www.w3.org/2000/svg">
<g clip-path="url(#clip0_3021_15983)">
<path d="M9.19761 7.89405C9.43255 7.89405 9.66221 7.82439 9.85755 7.69386C10.0529 7.56334 10.2051 7.37782 10.2951 7.16076C10.385 6.94371 10.4085 6.70487 10.3627 6.47444C10.3168 6.24402 10.2037 6.03236 10.0376 5.86624C9.87143 5.70011 9.65977 5.58698 9.42935 5.54114C9.19893 5.49531 8.96009 5.51883 8.74303 5.60874C8.52598 5.69865 8.34046 5.8509 8.20993 6.04624C8.07941 6.24159 8.00974 6.47125 8.00974 6.70619C8.0101 7.02112 8.13537 7.32304 8.35806 7.54573C8.58075 7.76842 8.88268 7.89369 9.19761 7.89405ZM9.19761 6.39332C9.25949 6.39332 9.31998 6.41167 9.37143 6.44605C9.42288 6.48042 9.46298 6.52929 9.48666 6.58646C9.51034 6.64363 9.51654 6.70653 9.50447 6.76722C9.49239 6.82791 9.46259 6.88366 9.41884 6.92742C9.37508 6.97117 9.31934 7.00097 9.25865 7.01304C9.19796 7.02511 9.13505 7.01892 9.07788 6.99524C9.02071 6.97156 8.97185 6.93146 8.93747 6.88001C8.90309 6.82855 8.88474 6.76806 8.88474 6.70619C8.88484 6.62324 8.91784 6.54372 8.97649 6.48507C9.03514 6.42641 9.11466 6.39342 9.19761 6.39332ZM11.9607 7.89405C12.1956 7.89406 12.4253 7.82441 12.6207 7.69389C12.816 7.56337 12.9683 7.37785 13.0582 7.1608C13.1481 6.94375 13.1716 6.70491 13.1258 6.47448C13.08 6.24405 12.9668 6.03239 12.8007 5.86626C12.6346 5.70012 12.4229 5.58699 12.1925 5.54115C11.9621 5.49531 11.7232 5.51883 11.5062 5.60873C11.2891 5.69864 11.1036 5.85089 10.9731 6.04624C10.8426 6.24158 10.7729 6.47125 10.7729 6.70619C10.7732 7.02111 10.8985 7.32304 11.1212 7.54573C11.3438 7.76842 11.6458 7.89369 11.9607 7.89405ZM11.9607 6.39332C12.0226 6.39331 12.0831 6.41165 12.1345 6.44602C12.186 6.48039 12.2261 6.52925 12.2498 6.58642C12.2735 6.64359 12.2797 6.7065 12.2676 6.76719C12.2555 6.82788 12.2258 6.88364 12.182 6.9274C12.1382 6.97116 12.0825 7.00096 12.0218 7.01304C11.9611 7.02511 11.8982 7.01892 11.841 6.99524C11.7839 6.97156 11.735 6.93146 11.7006 6.88001C11.6662 6.82856 11.6479 6.76807 11.6479 6.70619C11.648 6.62324 11.681 6.54372 11.7396 6.48507C11.7982 6.42642 11.8778 6.39342 11.9607 6.39332ZM14.7238 7.89405C14.9588 7.89404 15.1884 7.82437 15.3838 7.69383C15.5791 7.5633 15.7313 7.37778 15.8212 7.16072C15.9111 6.94367 15.9347 6.70483 15.8888 6.47441C15.843 6.24399 15.7298 6.03234 15.5637 5.86622C15.3976 5.7001 15.1859 5.58697 14.9555 5.54114C14.7251 5.49531 14.4862 5.51884 14.2692 5.60874C14.0521 5.69865 13.8666 5.8509 13.7361 6.04625C13.6056 6.24159 13.5359 6.47125 13.5359 6.70619C13.5363 7.02113 13.6615 7.32306 13.8843 7.54575C14.107 7.76845 14.4089 7.89371 14.7238 7.89405ZM14.7238 6.39332C14.7857 6.39333 14.8462 6.41169 14.8976 6.44607C14.9491 6.48046 14.9892 6.52932 15.0128 6.58649C15.0365 6.64366 15.0427 6.70657 15.0306 6.76726C15.0186 6.82794 14.9887 6.88369 14.945 6.92744C14.9012 6.97119 14.8455 7.00098 14.7848 7.01304C14.7241 7.02511 14.6612 7.01891 14.604 6.99523C14.5469 6.97155 14.498 6.93145 14.4636 6.88C14.4293 6.82855 14.4109 6.76806 14.4109 6.70619C14.411 6.62323 14.444 6.54369 14.5027 6.48503C14.5613 6.42637 14.6409 6.39339 14.7238 6.39332ZM19.8024 13.7146C20.0373 13.7146 20.267 13.6449 20.4624 13.5144C20.6577 13.3839 20.81 13.1983 20.8999 12.9813C20.9898 12.7642 21.0133 12.5254 20.9675 12.295C20.9217 12.0645 20.8085 11.8529 20.6424 11.6867C20.4763 11.5206 20.2646 11.4075 20.0342 11.3616C19.8037 11.3158 19.5649 11.3393 19.3478 11.4292C19.1308 11.5192 18.9453 11.6714 18.8147 11.8668C18.6842 12.0621 18.6146 12.2918 18.6146 12.5267C18.6149 12.8417 18.7402 13.1436 18.9629 13.3663C19.1856 13.5889 19.4875 13.7142 19.8024 13.7146ZM19.8024 12.2139C19.8643 12.2139 19.9248 12.2322 19.9762 12.2666C20.0277 12.3009 20.0678 12.3498 20.0915 12.407C20.1152 12.4641 20.1214 12.5271 20.1093 12.5877C20.0972 12.6484 20.0674 12.7042 20.0237 12.748C19.9799 12.7917 19.9242 12.8215 19.8635 12.8336C19.8028 12.8457 19.7399 12.8395 19.6827 12.8158C19.6256 12.7921 19.5767 12.752 19.5423 12.7006C19.5079 12.6491 19.4896 12.5886 19.4896 12.5267C19.4897 12.4438 19.5227 12.3643 19.5813 12.3056C19.6399 12.247 19.7195 12.214 19.8024 12.2139ZM17.0394 13.7146C17.2743 13.7146 17.504 13.6449 17.6993 13.5144C17.8947 13.3838 18.0469 13.1983 18.1368 12.9812C18.2267 12.7642 18.2502 12.5253 18.2044 12.2949C18.1586 12.0645 18.0454 11.8528 17.8793 11.6867C17.7132 11.5206 17.5015 11.4075 17.2711 11.3616C17.0406 11.3158 16.8018 11.3393 16.5847 11.4293C16.3677 11.5192 16.1822 11.6714 16.0517 11.8668C15.9211 12.0621 15.8515 12.2918 15.8515 12.5267C15.8518 12.8417 15.9771 13.1436 16.1998 13.3663C16.4225 13.589 16.7244 13.7142 17.0394 13.7146ZM17.0394 12.2139C17.1012 12.2139 17.1617 12.2322 17.2132 12.2666C17.2646 12.301 17.3047 12.3498 17.3284 12.407C17.3521 12.4642 17.3583 12.5271 17.3462 12.5878C17.3341 12.6485 17.3043 12.7042 17.2606 12.748C17.2168 12.7917 17.1611 12.8215 17.1004 12.8336C17.0397 12.8457 16.9768 12.8395 16.9196 12.8158C16.8625 12.7921 16.8136 12.752 16.7792 12.7006C16.7448 12.6491 16.7265 12.5886 16.7265 12.5267C16.7266 12.4438 16.7596 12.3642 16.8182 12.3056C16.8769 12.2469 16.9564 12.2139 17.0394 12.2139ZM28.0625 22.5199H26.8472C27.2738 22.02 27.508 21.3842 27.5076 20.7271V7.71145C27.5068 6.97793 27.215 6.27469 26.6963 5.75602C26.1776 5.23735 25.4744 4.9456 24.7408 4.94476H17.8094C16.9252 3.02167 14.6375 1.64819 11.9606 1.64819C9.2838 1.64819 6.99616 3.02167 6.11203 4.94476H4.25916C3.52561 4.9456 2.82234 5.23737 2.30365 5.75608C1.78495 6.27479 1.49318 6.97806 1.49236 7.71162V20.7272C1.49349 21.3848 1.72895 22.0203 2.15648 22.5199H0.9375C0.821468 22.5199 0.710188 22.566 0.628141 22.648C0.546094 22.7301 0.5 22.8414 0.5 22.9574C0.501013 23.8573 0.858937 24.72 1.49525 25.3563C2.13156 25.9927 2.99429 26.3506 3.89418 26.3516H25.1058C26.0057 26.3506 26.8684 25.9927 27.5048 25.3563C28.1411 24.72 28.499 23.8573 28.5 22.9574C28.5 22.8414 28.4539 22.7301 28.3719 22.648C28.2898 22.566 28.1785 22.5199 28.0625 22.5199ZM7.25812 10.0337V12.9472C7.25811 13.024 7.27832 13.0995 7.31671 13.166C7.35511 13.2325 7.41034 13.2877 7.47685 13.3262C7.54336 13.3646 7.6188 13.3848 7.69561 13.3848C7.77241 13.3848 7.84786 13.3646 7.91437 13.3262L10.7773 11.6733C10.8133 11.6788 10.8498 11.6829 10.886 11.688C10.8291 11.964 10.8003 12.245 10.8001 12.5267C10.8001 15.3158 13.599 17.5847 17.0393 17.5847C17.4355 17.5848 17.8312 17.5544 18.2227 17.4938L21.0856 19.1467C21.1521 19.1851 21.2276 19.2053 21.3044 19.2053C21.3812 19.2053 21.4566 19.1851 21.5231 19.1467C21.5896 19.1083 21.6449 19.053 21.6833 18.9865C21.7217 18.92 21.7419 18.8446 21.7419 18.7678V15.8542C22.7345 14.9333 23.2786 13.7589 23.2786 12.5267C23.2786 10.5431 21.8795 8.81346 19.8015 7.98598H24.4663V20.4527H4.53359V7.98598H5.92265C6.16387 8.73898 6.61734 9.43925 7.25812 10.0337ZM14.2762 12.2139C14.3381 12.2139 14.3986 12.2322 14.4501 12.2666C14.5015 12.3009 14.5416 12.3498 14.5653 12.407C14.589 12.4641 14.5952 12.5271 14.5831 12.5877C14.5711 12.6484 14.5413 12.7042 14.4975 12.748C14.4538 12.7917 14.398 12.8215 14.3373 12.8336C14.2766 12.8457 14.2137 12.8395 14.1566 12.8158C14.0994 12.7921 14.0505 12.752 14.0161 12.7006C13.9818 12.6491 13.9634 12.5886 13.9634 12.5267C13.9635 12.4438 13.9965 12.3643 14.0551 12.3056C14.1138 12.247 14.1933 12.214 14.2762 12.2139ZM14.2762 13.7146C14.5776 13.7146 14.8677 13.6 15.0878 13.3941C15.3078 13.1882 15.4414 12.9063 15.4614 12.6056C15.4814 12.3049 15.3863 12.0079 15.1954 11.7746C15.0046 11.5414 14.7322 11.3895 14.4334 11.3496C16.0179 10.7929 17.2633 9.71854 17.8435 8.391C20.4582 8.69725 22.4035 10.4452 22.4035 12.5267C22.4035 13.5619 21.9116 14.5565 21.0185 15.3274C20.9709 15.3685 20.9327 15.4193 20.9066 15.4765C20.8804 15.5337 20.8669 15.5958 20.8669 15.6586V18.0102L18.5245 16.6577C18.4353 16.6062 18.3307 16.5878 18.2292 16.6058C17.8363 16.6751 17.4381 16.7099 17.0391 16.7097C14.0813 16.7097 11.675 14.8332 11.675 12.5267C11.6752 12.2686 11.7057 12.0115 11.7657 11.7605C11.8306 11.7621 11.8956 11.7642 11.9605 11.7642C12.4886 11.7647 13.0154 11.7102 13.5323 11.6015C13.3405 11.7555 13.2013 11.9651 13.1338 12.2016C13.0663 12.438 13.074 12.6896 13.1556 12.9215C13.2372 13.1535 13.3889 13.3543 13.5896 13.4964C13.7903 13.6384 14.0301 13.7147 14.276 13.7146H14.2762ZM11.9606 2.52319C14.9185 2.52319 17.3249 4.39969 17.3249 6.70619C17.3249 9.01269 14.9186 10.8892 11.9606 10.8892C11.5617 10.8894 11.1635 10.8546 10.7706 10.7853C10.6692 10.7673 10.5646 10.7857 10.4753 10.8372L8.13312 12.1898V9.83819C8.13312 9.77534 8.11958 9.71322 8.09342 9.65607C8.06726 9.59892 8.0291 9.54808 7.98152 9.50701C7.08837 8.73591 6.59651 7.74147 6.59651 6.70624C6.59651 4.39969 9.00281 2.52319 11.9606 2.52319ZM2.36736 20.7271V7.71145C2.36795 7.20991 2.56746 6.72907 2.92212 6.37444C3.27677 6.0198 3.75762 5.82032 4.25916 5.81976H5.81776C5.7539 6.11091 5.72171 6.40811 5.72173 6.70619C5.72173 6.84192 5.72867 6.97694 5.7418 7.11087H4.25916C4.10052 7.11297 3.94897 7.17692 3.83679 7.28911C3.72461 7.40131 3.66067 7.55286 3.65859 7.71151V20.7271C3.66067 20.8858 3.72461 21.0373 3.83679 21.1495C3.94897 21.2617 4.10052 21.3257 4.25916 21.3278H24.7408C24.8995 21.3257 25.051 21.2617 25.1632 21.1495C25.2754 21.0373 25.3393 20.8858 25.3414 20.7271V7.71151C25.3393 7.55286 25.2754 7.40131 25.1632 7.28911C25.051 7.17692 24.8995 7.11297 24.7408 7.11087H18.1799C18.193 6.97733 18.1999 6.84236 18.1999 6.70619C18.1999 6.40811 18.1677 6.11091 18.1039 5.81976H24.7408C25.2424 5.82032 25.7233 6.01982 26.0779 6.3745C26.4326 6.72917 26.6321 7.21004 26.6326 7.71162V20.7272C26.6323 21.1235 26.5076 21.5096 26.2762 21.8313C26.0448 22.1529 25.7183 22.3938 25.3427 22.5201H3.6576C3.28252 22.3929 2.95654 22.1518 2.72521 21.8303C2.49388 21.5088 2.36877 21.1231 2.36736 20.7271ZM19.2924 23.3949C19.1472 23.7168 18.9333 23.9301 18.7332 23.9301H10.2668C10.0659 23.9301 9.85255 23.7168 9.70752 23.3949H19.2924ZM25.1057 25.4766H3.89418C3.30215 25.4758 2.72927 25.2668 2.27574 24.8862C1.82222 24.5057 1.51693 23.9778 1.41328 23.3949H8.77701C9.02759 24.2544 9.60591 24.8051 10.2668 24.8051H18.7332C19.3927 24.8051 19.9722 24.2538 20.2229 23.3949H27.587C27.4833 23.9778 27.178 24.5058 26.7244 24.8863C26.2708 25.2669 25.6979 25.4758 25.1058 25.4766H25.1057Z" fill="#0065FF"/>
</g>
<defs>
<clipPath id="clip0_3021_15983">
<rect width="28" height="28" fill="white" transform="translate(0.5)"/>
</clipPath>
</defs>
</svg>
