<svg width="22" height="22" viewBox="0 0 22 22" fill="none" xmlns="http://www.w3.org/2000/svg">
<path fill-rule="evenodd" clip-rule="evenodd" d="M11 7.25C10.0054 7.25 9.05161 7.64509 8.34835 8.34835C7.64509 9.05161 7.25 10.0054 7.25 11C7.25 11.9946 7.64509 12.9484 8.34835 13.6517C9.05161 14.3549 10.0054 14.75 11 14.75C11.9946 14.75 12.9484 14.3549 13.6517 13.6517C14.3549 12.9484 14.75 11.9946 14.75 11C14.75 10.0054 14.3549 9.05161 13.6517 8.34835C12.9484 7.64509 11.9946 7.25 11 7.25ZM8.75 11C8.75 10.4033 8.98705 9.83097 9.40901 9.40901C9.83097 8.98705 10.4033 8.75 11 8.75C11.5967 8.75 12.169 8.98705 12.591 9.40901C13.0129 9.83097 13.25 10.4033 13.25 11C13.25 11.5967 13.0129 12.169 12.591 12.591C12.169 13.0129 11.5967 13.25 11 13.25C10.4033 13.25 9.83097 13.0129 9.40901 12.591C8.98705 12.169 8.75 11.5967 8.75 11Z" fill="black"/>
<path fill-rule="evenodd" clip-rule="evenodd" d="M10.9748 0.25C10.5298 0.25 10.1588 0.25 9.85477 0.27C9.54404 0.28294 9.23758 0.347138 8.94777 0.46C8.61402 0.59809 8.31075 0.800573 8.05526 1.05589C7.79978 1.3112 7.59709 1.61434 7.45877 1.948C7.31377 2.298 7.27477 2.668 7.25877 3.07C7.25717 3.21702 7.21826 3.36123 7.14567 3.48909C7.07308 3.61695 6.9692 3.72428 6.84377 3.801C6.71466 3.8715 6.56974 3.90803 6.42263 3.90716C6.27552 3.90628 6.13104 3.86803 6.00277 3.796C5.64677 3.608 5.30678 3.457 4.93078 3.407C4.57272 3.3599 4.20889 3.38379 3.86007 3.4773C3.51125 3.57081 3.18426 3.73212 2.89777 3.952C2.65555 4.14688 2.44709 4.38034 2.28077 4.643C2.11077 4.897 1.92477 5.218 1.70277 5.603L1.67777 5.647C1.45477 6.032 1.26977 6.353 1.13577 6.627C0.995775 6.913 0.885775 7.195 0.845775 7.507C0.750375 8.22999 0.946054 8.96127 1.38977 9.54C1.62077 9.841 1.92177 10.06 2.26177 10.274C2.38853 10.3489 2.49415 10.4549 2.56867 10.5819C2.64319 10.7089 2.68418 10.8528 2.68777 11C2.68418 11.1472 2.64319 11.2911 2.56867 11.4181C2.49415 11.5451 2.38853 11.6511 2.26177 11.726C1.92177 11.94 1.62177 12.159 1.38977 12.46C1.16989 12.7465 1.00859 13.0735 0.915078 13.4223C0.821566 13.7711 0.797678 14.1349 0.844775 14.493C0.885775 14.805 0.994775 15.087 1.13477 15.373C1.26977 15.647 1.45477 15.968 1.67777 16.353L1.70277 16.397C1.92477 16.782 2.11077 17.103 2.28077 17.357C2.45777 17.62 2.64777 17.857 2.89777 18.047C3.18418 18.2671 3.51114 18.4285 3.85996 18.5222C4.20879 18.6159 4.57265 18.64 4.93078 18.593C5.30678 18.543 5.64677 18.393 6.00277 18.204C6.13089 18.1321 6.27519 18.0939 6.42213 18.093C6.56906 18.0921 6.71381 18.1286 6.84277 18.199C6.96889 18.2751 7.07343 18.3823 7.14642 18.5102C7.21941 18.6382 7.25844 18.7827 7.25978 18.93C7.27478 19.332 7.31378 19.702 7.45977 20.052C7.59786 20.3857 7.80035 20.689 8.05566 20.9445C8.31098 21.2 8.61412 21.4027 8.94777 21.541C9.23777 21.661 9.53777 21.708 9.85477 21.729C10.1588 21.75 10.5298 21.75 10.9748 21.75H11.0248C11.4698 21.75 11.8408 21.75 12.1448 21.73C12.4628 21.708 12.7618 21.661 13.0518 21.54C13.3855 21.4019 13.6888 21.1994 13.9443 20.9441C14.1998 20.6888 14.4025 20.3857 14.5408 20.052C14.6858 19.702 14.7248 19.332 14.7408 18.93C14.7422 18.7828 14.781 18.6384 14.8536 18.5103C14.9262 18.3823 15.0302 18.2748 15.1558 18.198C15.285 18.1276 15.4299 18.0913 15.577 18.0923C15.7242 18.0934 15.8686 18.1318 15.9968 18.204C16.3528 18.392 16.6928 18.543 17.0688 18.592C17.7918 18.6874 18.523 18.4917 19.1018 18.048C19.3518 17.856 19.5418 17.62 19.7188 17.357C19.8888 17.103 20.0748 16.782 20.2968 16.397L20.3218 16.353C20.5448 15.968 20.7298 15.647 20.8638 15.373C21.0038 15.087 21.1138 14.804 21.1538 14.493C21.2492 13.77 21.0535 13.0387 20.6098 12.46C20.3788 12.159 20.0778 11.94 19.7378 11.726C19.611 11.6511 19.5054 11.5451 19.4309 11.4181C19.3564 11.2911 19.3154 11.1472 19.3118 11C19.3118 10.722 19.4638 10.446 19.7378 10.274C20.0778 10.06 20.3778 9.841 20.6098 9.54C20.8297 9.25352 20.991 8.92653 21.0845 8.5777C21.178 8.22888 21.2019 7.86506 21.1548 7.507C21.1072 7.19971 21.0092 6.90238 20.8648 6.627C20.694 6.29475 20.513 5.96792 20.3218 5.647L20.2968 5.603C20.1141 5.27709 19.9213 4.95693 19.7188 4.643C19.5525 4.38062 19.344 4.14749 19.1018 3.953C18.8154 3.73294 18.4884 3.57146 18.1396 3.47778C17.7908 3.38409 17.4269 3.36004 17.0688 3.407C16.6928 3.457 16.3528 3.607 15.9968 3.796C15.8686 3.86786 15.7243 3.90601 15.5774 3.90688C15.4305 3.90776 15.2858 3.87132 15.1568 3.801C15.031 3.72452 14.9267 3.6173 14.8538 3.48942C14.7808 3.36154 14.7416 3.21721 14.7398 3.07C14.7248 2.668 14.6858 2.298 14.5398 1.948C14.4017 1.61425 14.1992 1.31097 13.9439 1.05549C13.6886 0.800001 13.3854 0.597314 13.0518 0.459C12.7618 0.339 12.4618 0.292 12.1448 0.271C11.8408 0.25 11.4698 0.25 11.0248 0.25H10.9748ZM9.52178 1.845C9.59877 1.813 9.71577 1.784 9.95677 1.767C10.2038 1.75 10.5238 1.75 10.9998 1.75C11.4758 1.75 11.7958 1.75 12.0428 1.767C12.2838 1.784 12.4008 1.813 12.4778 1.845C12.7848 1.972 13.0278 2.215 13.1548 2.522C13.1948 2.618 13.2278 2.769 13.2408 3.126C13.2708 3.918 13.6798 4.681 14.4058 5.1C15.1318 5.52 15.9968 5.492 16.6978 5.122C17.0138 4.955 17.1608 4.908 17.2648 4.895C17.5933 4.85158 17.9257 4.94043 18.1888 5.142C18.2548 5.193 18.3388 5.28 18.4738 5.48C18.6128 5.686 18.7728 5.963 19.0108 6.375C19.2488 6.787 19.4078 7.065 19.5168 7.287C19.6238 7.504 19.6568 7.62 19.6668 7.703C19.7102 8.03157 19.6213 8.36392 19.4198 8.627C19.3558 8.71 19.2418 8.814 18.9398 9.004C18.2678 9.426 17.8118 10.162 17.8118 11C17.8118 11.838 18.2678 12.574 18.9398 12.996C19.2418 13.186 19.3558 13.29 19.4198 13.373C19.6218 13.636 19.7098 13.968 19.6668 14.297C19.6568 14.38 19.6228 14.497 19.5168 14.713C19.4078 14.936 19.2488 15.213 19.0108 15.625C18.7728 16.037 18.6118 16.314 18.4738 16.52C18.3388 16.72 18.2548 16.807 18.1888 16.858C17.9257 17.0596 17.5933 17.1484 17.2648 17.105C17.1608 17.092 17.0148 17.045 16.6978 16.878C15.9978 16.508 15.1318 16.48 14.4058 16.899C13.6798 17.319 13.2708 18.082 13.2408 18.874C13.2278 19.231 13.1948 19.382 13.1548 19.478C13.092 19.6298 12.9998 19.7677 12.8837 19.8839C12.7675 20.0001 12.6296 20.0922 12.4778 20.155C12.4008 20.187 12.2838 20.216 12.0428 20.233C11.7958 20.25 11.4758 20.25 10.9998 20.25C10.5238 20.25 10.2038 20.25 9.95677 20.233C9.71577 20.216 9.59877 20.187 9.52178 20.155C9.36998 20.0922 9.23205 20.0001 9.11589 19.8839C8.99972 19.7677 8.9076 19.6298 8.84478 19.478C8.80478 19.382 8.77177 19.231 8.75877 18.874C8.72877 18.082 8.31977 17.319 7.59377 16.9C6.86777 16.48 6.00278 16.508 5.30177 16.878C4.98577 17.045 4.83878 17.092 4.73478 17.105C4.40621 17.1484 4.07385 17.0596 3.81077 16.858C3.74477 16.807 3.66077 16.72 3.52577 16.52C3.33769 16.2272 3.1586 15.9287 2.98878 15.625C2.75077 15.213 2.59177 14.935 2.48277 14.713C2.37577 14.496 2.34277 14.38 2.33277 14.297C2.28936 13.9684 2.3782 13.6361 2.57977 13.373C2.64377 13.29 2.75777 13.186 3.05977 12.996C3.73177 12.574 4.18778 11.838 4.18778 11C4.18778 10.162 3.73177 9.426 3.05977 9.004C2.75777 8.814 2.64377 8.71 2.57977 8.627C2.3782 8.36392 2.28936 8.03157 2.33277 7.703C2.34277 7.62 2.37677 7.503 2.48277 7.287C2.59177 7.064 2.75077 6.787 2.98878 6.375C3.22677 5.963 3.38777 5.686 3.52577 5.48C3.66077 5.28 3.74477 5.193 3.81077 5.142C4.07385 4.94043 4.40621 4.85158 4.73478 4.895C4.83878 4.908 4.98478 4.955 5.30177 5.122C6.00177 5.492 6.86777 5.52 7.59377 5.1C8.31977 4.681 8.72877 3.918 8.75877 3.126C8.77177 2.769 8.80478 2.618 8.84478 2.522C8.97178 2.215 9.21478 1.972 9.52178 1.845Z" fill="black"/>
</svg>
