<svg width="24" height="24" viewBox="0 0 24 24" fill="none" xmlns="http://www.w3.org/2000/svg">
<path d="M19.5009 2.51367C17.579 2.51367 16.001 4.0954 16.001 6.01729C16.001 7.93918 17.579 9.51714 19.5009 9.51714C20.4275 9.51266 21.3149 9.14243 21.97 8.487C22.6251 7.83156 22.9948 6.94396 22.9988 6.01729C22.9988 5.08938 22.6307 4.19937 21.9753 3.54253C21.3199 2.88569 20.4288 2.51567 19.5009 2.51367ZM19.5009 4.51493C19.9204 4.51493 20.2908 4.68123 20.5648 4.95336C20.8369 5.22737 21.0032 5.59588 21.0032 6.01729C21.0032 6.85824 20.3418 7.51588 19.5009 7.51588C19.3034 7.51816 19.1075 7.48095 18.9247 7.40645C18.7418 7.33194 18.5757 7.22164 18.4361 7.08203C18.2965 6.94242 18.1862 6.77631 18.1117 6.59346C18.0372 6.41062 18 6.21472 18.0023 6.01729C18.0023 5.17635 18.6599 4.51493 19.5009 4.51493ZM14.0659 7.18517C13.8635 7.16849 13.6609 7.21469 13.4857 7.31745L12.966 7.61981L11.3597 8.54769L9.51156 9.61351C9.39214 9.67628 9.28662 9.76253 9.20136 9.86708C9.11609 9.97163 9.05282 10.0923 9.01536 10.2219C8.97789 10.3515 8.96699 10.4874 8.98332 10.6213C8.99965 10.7552 9.04287 10.8845 9.11038 11.0013C9.17789 11.1181 9.2683 11.2201 9.37619 11.3011C9.48409 11.3821 9.60723 11.4404 9.73824 11.4727C9.86924 11.5049 10.0054 11.5103 10.1386 11.4886C10.2717 11.4669 10.3991 11.4186 10.5131 11.3464L12.3594 10.2787L13.9657 9.35273L14.4854 9.05036C14.5999 8.98742 14.7008 8.90248 14.7824 8.80042C14.864 8.69836 14.9246 8.5812 14.9608 8.45565C14.9969 8.3301 15.008 8.19865 14.9932 8.06883C14.9784 7.93902 14.9382 7.8134 14.8747 7.69918C14.7928 7.5534 14.6761 7.43016 14.5349 7.34047C14.3938 7.25078 14.2327 7.19743 14.0659 7.18517ZM4.49991 8.48533C2.57991 8.48533 1.00195 10.0633 1.00195 11.9852C1.00195 13.9071 2.57991 15.485 4.49991 15.485C6.41991 15.485 7.99975 13.9071 7.99975 11.9852C8.00025 11.5253 7.91 11.0698 7.73417 10.6448C7.55835 10.2198 7.3004 9.83374 6.97511 9.50863C6.64982 9.18351 6.26358 8.92577 5.83852 8.75018C5.41345 8.57458 4.95981 8.48458 4.49991 8.48533ZM4.49991 10.4885C4.92132 10.4885 5.29172 10.6548 5.56384 10.9269C5.83597 11.199 6.00416 11.5656 6.00416 11.9852C6.00416 12.8261 5.34085 13.4875 4.49991 13.4875C4.30245 13.4891 4.10668 13.4512 3.92404 13.3762C3.74139 13.3011 3.57554 13.1904 3.43618 13.0505C3.29682 12.9107 3.18675 12.7444 3.11241 12.5615C3.03807 12.3785 3.00095 12.1826 3.00321 11.9852C3.00321 11.1442 3.66085 10.4866 4.49991 10.4866V10.4885ZM9.94432 12.4878C9.72807 12.4997 9.52154 12.5815 9.35579 12.7209C9.19004 12.8603 9.07403 13.0497 9.02522 13.2607C8.97642 13.4717 8.99745 13.6929 9.08516 13.8909C9.17286 14.0889 9.3225 14.2531 9.51156 14.3587L11.3579 15.4245L12.9642 16.3524L13.4876 16.6548C13.9714 16.942 14.6007 16.7682 14.8747 16.2768C14.9383 16.1624 14.9788 16.0366 14.9937 15.9066C15.0087 15.7766 14.9978 15.6449 14.9619 15.519C14.9259 15.3932 14.8655 15.2757 14.784 15.1732C14.7026 15.0707 14.6018 14.9853 14.4873 14.9219L13.9657 14.6195L12.3594 13.6935L10.5112 12.6277C10.3405 12.5255 10.143 12.4768 9.94432 12.4878ZM19.5009 14.4872C17.579 14.4872 16.001 16.0652 16.001 17.9871C16.001 19.9089 17.579 21.4869 19.5009 21.4869C20.4275 21.4824 21.3149 21.1122 21.97 20.4568C22.6251 19.8013 22.9948 18.9137 22.9988 17.9871C22.9988 17.0271 22.6095 16.1426 21.9783 15.5115C21.3209 14.8551 20.4298 14.4867 19.5009 14.4872ZM19.5009 16.4847C19.9204 16.4847 20.2908 16.651 20.5648 16.9231C20.8369 17.1971 21.0032 17.5656 21.0032 17.9871C21.0032 18.828 20.3418 19.4856 19.5009 19.4856C19.3034 19.4879 19.1075 19.4507 18.9247 19.3762C18.7418 19.3017 18.5757 19.1914 18.4361 19.0518C18.2965 18.9122 18.1862 18.7461 18.1117 18.5632C18.0372 18.3804 18 18.1845 18.0023 17.9871C18.0023 17.1461 18.6599 16.4847 19.5009 16.4847Z" fill="#071225"/>
</svg>
