<svg width="10" height="11" viewBox="0 0 10 11" fill="none" xmlns="http://www.w3.org/2000/svg">
<path d="M9.75016 5.3567L7.73812 7.11266L8.34084 9.72698C8.37273 9.86365 8.36363 10.0067 8.31467 10.1382C8.26571 10.2697 8.17907 10.3839 8.06558 10.4665C7.95208 10.549 7.81677 10.5963 7.67656 10.6023C7.53635 10.6084 7.39747 10.573 7.27727 10.5006L4.9971 9.11757L2.72184 10.5006C2.60164 10.573 2.46275 10.6084 2.32255 10.6023C2.18234 10.5963 2.04702 10.549 1.93353 10.4665C1.82004 10.3839 1.73339 10.2697 1.68444 10.1382C1.63548 10.0067 1.62638 9.86365 1.65827 9.72698L2.2601 7.11534L0.247611 5.3567C0.141169 5.2649 0.0641999 5.14371 0.0263565 5.00834C-0.011487 4.87297 -0.00852021 4.72944 0.0348847 4.59574C0.0782896 4.46205 0.1602 4.34415 0.270345 4.25682C0.38049 4.1695 0.513966 4.11663 0.654035 4.10486L3.30672 3.87511L4.34218 1.40534C4.39626 1.27574 4.48746 1.16505 4.60432 1.08718C4.72118 1.00932 4.85846 0.967773 4.99888 0.967773C5.13931 0.967773 5.27659 1.00932 5.39345 1.08718C5.51031 1.16505 5.60151 1.27574 5.65559 1.40534L6.69417 3.87511L9.34596 4.10486C9.48603 4.11663 9.61951 4.1695 9.72965 4.25682C9.8398 4.34415 9.92171 4.46205 9.96511 4.59574C10.0085 4.72944 10.0115 4.87297 9.97364 5.00834C9.9358 5.14371 9.85883 5.2649 9.75239 5.3567H9.75016Z" fill="#FFCF24"/>
</svg>
