<svg width="29" height="28" viewBox="0 0 29 28" fill="none" xmlns="http://www.w3.org/2000/svg">
<g clip-path="url(#clip0_3021_21567)">
<path d="M6.76585 19.5243H3.89323C3.77602 19.5243 3.66361 19.5709 3.58073 19.6538C3.49786 19.7367 3.4513 19.8491 3.4513 19.9663V20.7397C3.4513 20.7977 3.46273 20.8552 3.48494 20.9088C3.50715 20.9624 3.5397 21.0111 3.58073 21.0522C3.62177 21.0932 3.67049 21.1257 3.72411 21.1479C3.77772 21.1702 3.83519 21.1816 3.89323 21.1816H6.76585M6.76585 9.58057H3.56177C3.50373 9.58057 3.44626 9.592 3.39265 9.61421C3.33903 9.63642 3.29031 9.66897 3.24927 9.71C3.20824 9.75104 3.17568 9.79976 3.15348 9.85338C3.13127 9.90699 3.11984 9.96446 3.11984 10.0225V10.7959C3.11984 10.8539 3.13127 10.9114 3.15348 10.965C3.17568 11.0186 3.20824 11.0673 3.24927 11.1084C3.29031 11.1494 3.33903 11.182 3.39265 11.2042C3.44626 11.2264 3.50373 11.2378 3.56177 11.2378H6.76585M6.76585 12.8952H2.56738M6.76585 15.1049H2.56738M6.76585 17.3146H2.56738" stroke="#0065FF" stroke-width="0.8" stroke-miterlimit="10" stroke-linecap="round" stroke-linejoin="round"/>
<path d="M0.910156 10.0384V22.8391C0.910156 23.4489 1.40508 23.9438 2.01484 23.9438H6.76609M0.910156 8.12436V5.16084C0.910156 4.55107 1.40508 4.05615 2.01484 4.05615H6.76609M22.2341 19.5243H25.1067C25.2239 19.5243 25.3363 19.5709 25.4192 19.6537C25.5021 19.7366 25.5486 19.849 25.5486 19.9662V20.7396C25.5486 20.8568 25.5021 20.9692 25.4192 21.0521C25.3363 21.135 25.2239 21.1815 25.1067 21.1815H22.2341M11.7378 7.92321H17.2622M22.2341 9.58052H25.4382C25.5554 9.58052 25.6678 9.62708 25.7506 9.70996C25.8335 9.79283 25.8801 9.90524 25.8801 10.0224V10.7958C25.8801 10.913 25.8335 11.0255 25.7506 11.1083C25.6678 11.1912 25.5554 11.2378 25.4382 11.2378H22.2341M19.4719 13.4475H12.8427M11.1854 13.4475H9.52809M19.4719 15.6573H12.8427M11.1854 15.6573H9.52809M19.4719 17.867H12.8427M11.1854 17.867H9.52809M19.4719 20.0767H12.8427M26.4325 12.8951H22.2341M26.4325 15.1048H22.2341M26.4325 17.3146H22.2341M11.1854 20.0767H9.52809M15.4575 5.38205L14.5 4.05621L13.5425 5.38205L11.7378 4.60861L12.2903 7.92321H16.7097L17.2622 4.60861L15.4575 5.38205ZM8.42323 10.7959V10.0225C8.42323 9.9053 8.46979 9.79289 8.55267 9.71001C8.63555 9.62713 8.74796 9.58057 8.86516 9.58057H20.1348C20.252 9.58057 20.3644 9.62713 20.4473 9.71001C20.5302 9.79289 20.5767 9.9053 20.5767 10.0225V10.7959C20.5767 10.9131 20.5302 11.0255 20.4473 11.1084C20.3644 11.1913 20.252 11.2378 20.1348 11.2378H8.86516C8.74796 11.2378 8.63555 11.1913 8.55267 11.1084C8.46979 11.0255 8.42323 10.9131 8.42323 10.7959ZM11.1854 23.5018V22.7284C11.1854 22.6112 11.232 22.4988 11.3148 22.4159C11.3977 22.3331 11.5101 22.2865 11.6273 22.2865H17.3726C17.4898 22.2865 17.6022 22.3331 17.6851 22.4159C17.768 22.4988 17.8146 22.6112 17.8146 22.7284V23.5018C17.8146 23.5599 17.8031 23.6173 17.7809 23.6709C17.7587 23.7246 17.7262 23.7733 17.6851 23.8143C17.6441 23.8554 17.5954 23.8879 17.5417 23.9101C17.4881 23.9323 17.4307 23.9438 17.3726 23.9438H11.6274C11.5693 23.9438 11.5119 23.9323 11.4582 23.9101C11.4046 23.8879 11.3559 23.8554 11.3148 23.8143C11.2738 23.7733 11.2412 23.7246 11.219 23.671C11.1968 23.6173 11.1854 23.5599 11.1854 23.5018Z" stroke="#0065FF" stroke-width="0.8" stroke-miterlimit="10" stroke-linecap="round" stroke-linejoin="round"/>
<path d="M11.4879 1.84619H21.1288C21.7391 1.84619 22.2334 2.34111 22.2334 2.95143V25.0485C22.2334 25.6588 21.7391 26.1537 21.1288 26.1537H7.87031C7.26 26.1537 6.76562 25.6588 6.76562 25.0485V2.95143C6.76562 2.34111 7.26 1.84619 7.87031 1.84619H9.57383M28.0894 20.2185V22.8391C28.0894 23.4488 27.5945 23.9438 26.9847 23.9438H22.2334M22.2334 4.05611H26.9847C27.5945 4.05611 28.0894 4.55104 28.0894 5.1608V18.3044" stroke="#0065FF" stroke-width="0.8" stroke-miterlimit="10" stroke-linecap="round" stroke-linejoin="round"/>
</g>
<defs>
<clipPath id="clip0_3021_21567">
<rect width="28" height="28" fill="white" transform="translate(0.5)"/>
</clipPath>
</defs>
</svg>
