<svg width="29" height="28" viewBox="0 0 41 40" fill="none" xmlns="http://www.w3.org/2000/svg">
<g clip-path="url(#clip0_3029_15038)">
<path d="M36.2098 5.37718L34.5005 3.87202L36.2098 2.36726C36.4756 2.13289 36.5665 1.76757 36.4417 1.43617C36.3163 1.10445 36.0066 0.890233 35.6522 0.890233H28.5789V0.586249C28.5789 0.509262 28.5637 0.433028 28.5342 0.361901C28.5048 0.290774 28.4616 0.226147 28.4071 0.171708C28.3527 0.11727 28.2881 0.0740873 28.217 0.0446255C28.1458 0.0151638 28.0696 0 27.9926 0C27.9156 0 27.8394 0.0151638 27.7683 0.0446255C27.6971 0.0740873 27.6325 0.11727 27.5781 0.171708C27.5236 0.226147 27.4804 0.290774 27.451 0.361901C27.4215 0.433028 27.4064 0.509262 27.4064 0.586249V8.49272L22.5916 11.1072C22.5646 10.8923 22.5001 10.6839 22.4012 10.4913L21.7228 9.16686C21.2571 8.25748 20.1384 7.89702 19.2295 8.3624L18.7049 8.631C18.2643 8.85678 17.938 9.24006 17.7861 9.71131C17.7107 9.94273 17.682 10.1868 17.7016 10.4294C17.7213 10.672 17.7889 10.9083 17.9005 11.1246L18.5789 12.4494C18.7314 12.7474 18.9622 12.9981 19.2466 13.1747C18.8864 13.6597 18.7156 14.256 18.5398 14.8755L18.4135 15.3229C18.3925 15.3969 18.3863 15.4744 18.3953 15.5509C18.4043 15.6274 18.4283 15.7013 18.4659 15.7685C18.5034 15.8357 18.5539 15.8949 18.6144 15.9426C18.6748 15.9902 18.7441 16.0255 18.8182 16.0465C18.8713 16.0617 18.925 16.0687 18.9778 16.0687C19.1054 16.0686 19.2295 16.0268 19.3313 15.9498C19.4331 15.8727 19.5069 15.7646 19.5417 15.6418L19.6681 15.1953C19.925 14.2892 20.0828 13.804 20.5851 13.5312L21.4857 13.042L21.5968 12.9852C21.6337 12.9663 21.6682 12.9449 21.7032 12.9239L28.1217 9.4385C28.0811 10.2408 27.6493 10.9988 26.9382 11.4307L22.7643 13.9666C22.7595 13.9694 22.7546 13.9721 22.75 13.9752L21.4508 14.7643C21.318 14.8452 21.2227 14.9755 21.1858 15.1265C21.149 15.2776 21.1736 15.4371 21.2543 15.57C21.4128 15.831 21.7423 15.9237 22.0112 15.7928L21.0255 18.7725L20.305 19.0679L18.3457 19.8709L18.9103 17.875C18.9525 17.7254 18.9336 17.5651 18.8578 17.4293C18.7819 17.2936 18.6552 17.1935 18.5056 17.1511C18.1937 17.0626 17.87 17.2443 17.7818 17.5558L16.8897 20.7104C16.8778 20.752 16.8707 20.7948 16.8686 20.838L16.6352 25.1263C16.6282 25.2899 16.663 25.599 16.5873 25.7586L13.9945 31.2133H12.1104C11.0065 31.2133 10.1088 32.1111 10.1088 33.2146V34.9068C9.84872 34.7877 9.56597 34.7262 9.27991 34.7265H4.49507C3.39156 34.7265 2.49375 35.624 2.49375 36.7278V38.8274H1.08625C0.930766 38.8274 0.781651 38.8892 0.671708 38.9991C0.561765 39.1091 0.5 39.2582 0.5 39.4137C0.5 39.5692 0.561765 39.7183 0.671708 39.8282C0.781651 39.9382 0.930766 39.9999 1.08625 39.9999H35.6515C35.807 39.9999 35.9561 39.9382 36.066 39.8282C36.176 39.7183 36.2377 39.5692 36.2377 39.4137C36.2377 39.2582 36.176 39.1091 36.066 38.9991C35.9561 38.8892 35.807 38.8274 35.6515 38.8274H34.1269V23.7167C34.1269 22.6132 33.2291 21.7153 32.1256 21.7153H28.5789V11.488C29.2289 10.607 29.4697 9.45217 29.1679 8.35475C29.1446 8.26956 29.1022 8.19077 29.0441 8.12429C28.9859 8.0578 28.9135 8.00534 28.8321 7.97084C28.7522 7.93685 28.6657 7.92103 28.5789 7.92452V6.85421H35.6519C36.0066 6.85421 36.3163 6.63999 36.4414 6.30858C36.5665 5.97718 36.4756 5.61155 36.2098 5.37718ZM18.902 10.0714C18.9292 9.98623 18.973 9.90732 19.0309 9.83922C19.0888 9.77112 19.1596 9.71519 19.2393 9.67467L19.7639 9.40608C19.8594 9.35695 19.9653 9.33132 20.0727 9.33131C20.3199 9.33131 20.5589 9.46647 20.6791 9.70123L21.3578 11.026C21.5162 11.3354 21.4136 11.7105 21.132 11.9L20.941 12.0035L20.5379 12.2101C20.2043 12.381 19.7935 12.2485 19.6226 11.9147L18.9439 10.5902C18.903 10.5108 18.8782 10.4241 18.871 10.335C18.8639 10.246 18.8744 10.1564 18.9021 10.0715L18.902 10.0714ZM17.7242 31.3937C17.5208 31.3008 17.3032 31.2428 17.0805 31.2222L17.7242 30.3674V31.3937ZM20.5077 26.6699C20.7896 26.3321 20.8675 25.9374 20.9304 25.6195C20.9462 25.5437 21.2355 23.9635 21.2355 23.9635C21.2355 23.9635 21.5093 24.1342 21.5379 24.1464C21.5479 24.151 21.5565 24.1581 21.5629 24.1671C21.5692 24.1761 21.573 24.1866 21.5739 24.1976L21.8929 27.4396H19.9281L20.5077 26.6699ZM23.9745 23.4341L23.4795 27.4367H23.0709L22.741 24.0828C22.7204 23.8723 22.646 23.6706 22.5251 23.4971C22.4042 23.3235 22.2407 23.1839 22.0504 23.0917L21.4607 22.7178L21.8535 20.5411C21.8535 20.5411 23.5082 22.5067 23.5466 22.5567C23.889 23.002 24.0062 23.1802 23.9745 23.4341ZM17.6421 26.2713C17.7605 25.9149 17.8154 25.552 17.8063 25.183L18.0193 21.2719L20.7307 20.1608L20.2379 22.8909C20.2364 22.8982 20.2348 22.9058 20.2339 22.9132L19.8262 25.1706C19.7731 25.4043 19.7268 25.7589 19.5809 25.9515L15.6193 31.2133H15.2928L17.6421 26.2713ZM3.66632 36.7275C3.66632 36.2707 4.03796 35.899 4.49515 35.899H9.27998C9.73709 35.899 10.1091 36.2707 10.1091 36.7275V38.8275H3.66617L3.66632 36.7275ZM11.2813 36.7275V33.2146C11.2813 32.7575 11.6533 32.3858 12.1104 32.3858H16.8953C17.3525 32.3858 17.7242 32.7575 17.7242 33.2147V38.8274H11.2816V36.7275H11.2813ZM32.9545 23.7167V38.8274H26.512V35.3124C26.512 35.2354 26.4968 35.1592 26.4674 35.0881C26.4379 35.017 26.3947 34.9523 26.3403 34.8979C26.2858 34.8435 26.2212 34.8003 26.1501 34.7708C26.079 34.7413 26.0027 34.7262 25.9257 34.7262C25.8487 34.7261 25.7725 34.7413 25.7013 34.7707C25.6301 34.8002 25.5655 34.8433 25.511 34.8978C25.4565 34.9522 25.4133 35.0169 25.3838 35.088C25.3543 35.1592 25.3392 35.2354 25.3392 35.3124V38.8274H18.8967V29.4406C18.8967 28.9837 19.2683 28.612 19.7255 28.612H24.5103C24.9675 28.612 25.3392 28.9837 25.3392 29.4406V32.3794C25.3392 32.5349 25.401 32.684 25.5109 32.7939C25.6209 32.9038 25.77 32.9656 25.9254 32.9656C26.0024 32.9657 26.0787 32.9505 26.1498 32.9211C26.2209 32.8916 26.2856 32.8484 26.34 32.794C26.3945 32.7396 26.4377 32.6749 26.4671 32.6038C26.4966 32.5326 26.5117 32.4564 26.5117 32.3794V23.7167C26.5117 23.2596 26.8837 22.8878 27.3409 22.8878H27.9866C27.9885 22.8878 27.9905 22.8882 27.9927 22.8882C27.9946 22.8882 27.9967 22.8878 27.9985 22.8878H32.1254C32.5825 22.8878 32.9545 23.2599 32.9545 23.7168V23.7167ZM27.3409 21.7153C26.2374 21.7153 25.3395 22.6132 25.3395 23.7167V27.6199C25.1251 27.5219 24.895 27.4629 24.6599 27.4456L25.1381 23.5785C25.2321 22.8246 24.8475 22.3251 24.4759 21.8418C24.4365 21.7904 22.1578 19.0847 22.1578 19.0847L23.5557 14.8581L27.4065 12.5186V21.7153H27.3409ZM28.5789 5.68147V2.06296H34.7809L33.4452 3.23913C33.3553 3.31832 33.2832 3.41574 33.2339 3.52491C33.1845 3.63409 33.159 3.75252 33.1589 3.87234C33.1589 4.11468 33.2633 4.34538 33.4452 4.50562L34.7809 5.68179H28.5789V5.68147Z" fill="#4F5764"/>
</g>
<defs>
<clipPath id="clip0_3029_15038">
<rect width="40" height="40" fill="white" transform="translate(0.5)"/>
</clipPath>
</defs>
</svg>
