<svg width="40" height="40" viewBox="0 0 40 40" fill="none" xmlns="http://www.w3.org/2000/svg">
<path fill-rule="evenodd" clip-rule="evenodd" d="M20 35C28.2843 35 35 28.2843 35 20C35 11.7157 28.2843 5 20 5C11.7157 5 5 11.7157 5 20C5 28.2843 11.7157 35 20 35ZM24.854 14.7851C25.4212 14.1832 26.4725 14.2963 27.0556 14.7851C27.7069 15.3309 27.5863 16.2322 27.0556 16.7954L19.1254 25.2107C18.616 25.7511 17.4305 25.775 16.9237 25.2107L12.9391 20.7737C12.3859 20.1578 12.3223 19.377 12.9391 18.7634C13.4695 18.2358 14.6222 18.186 15.1407 18.7634L18.051 22.0041L24.854 14.7851Z" fill="#0065FF"/>
</svg>
