<svg width="17" height="17" viewBox="0 0 17 17" fill="none" xmlns="http://www.w3.org/2000/svg">
<path d="M9.49996 4.7336L12.1666 7.40027M11.1666 13.0669H15.1666M3.16663 13.7336H5.83329L12.8333 6.7336C13.0084 6.5585 13.1473 6.35063 13.242 6.12186C13.3368 5.89309 13.3856 5.64789 13.3856 5.40027C13.3856 5.15264 13.3368 4.90745 13.242 4.67867C13.1473 4.4499 13.0084 4.24203 12.8333 4.06693C12.6582 3.89184 12.4503 3.75294 12.2216 3.65818C11.9928 3.56342 11.7476 3.51465 11.5 3.51465C11.2523 3.51465 11.0071 3.56342 10.7784 3.65818C10.5496 3.75294 10.3417 3.89184 10.1666 4.06693L3.16663 11.0669V13.7336Z" stroke="#0065FF" stroke-linecap="round" stroke-linejoin="round"/>
</svg>
