<svg width="22" height="22" viewBox="0 0 22 22" fill="none" xmlns="http://www.w3.org/2000/svg">
<path d="M12.3048 6.21689L15.7831 9.69515M14.4787 17.0865H19.6961M4.04395 17.956H7.52221L16.6526 8.82558C16.881 8.5972 17.0622 8.32607 17.1858 8.02766C17.3094 7.72926 17.373 7.40944 17.373 7.08645C17.373 6.76347 17.3094 6.44364 17.1858 6.14524C17.0622 5.84684 16.881 5.57571 16.6526 5.34732C16.4243 5.11894 16.1531 4.93777 15.8547 4.81417C15.5563 4.69057 15.2365 4.62695 14.9135 4.62695C14.5905 4.62695 14.2707 4.69057 13.9723 4.81417C13.6739 4.93777 13.4028 5.11894 13.1744 5.34732L4.04395 14.4778V17.956Z" stroke="#EE9F2F" stroke-width="2" stroke-linecap="round" stroke-linejoin="round"/>
</svg>
