<svg width="27" height="21" viewBox="0 0 27 21" fill="none" xmlns="http://www.w3.org/2000/svg">
<path d="M19.2084 19.7341H25.0417V17.4007C25.0417 15.4677 23.4747 13.9007 21.5417 13.9007C20.4268 13.9007 19.4337 14.422 18.7928 15.2341M19.2084 19.7341H7.54171M19.2084 19.7341V17.4007C19.2084 16.6351 19.0609 15.9039 18.7928 15.2341M7.54171 19.7341H1.70837V17.4007C1.70837 15.4677 3.27538 13.9007 5.20837 13.9007C6.32325 13.9007 7.31638 14.422 7.95733 15.2341M7.54171 19.7341V17.4007C7.54171 16.6351 7.6892 15.9039 7.95733 15.2341M7.95733 15.2341C8.81746 13.0852 10.919 11.5674 13.375 11.5674C15.8311 11.5674 17.9326 13.0852 18.7928 15.2341M16.875 4.56738C16.875 6.50038 15.308 8.06738 13.375 8.06738C11.442 8.06738 9.87504 6.50038 9.87504 4.56738C9.87504 2.63439 11.442 1.06738 13.375 1.06738C15.308 1.06738 16.875 2.63439 16.875 4.56738ZM23.875 8.06738C23.875 9.35605 22.8304 10.4007 21.5417 10.4007C20.253 10.4007 19.2084 9.35605 19.2084 8.06738C19.2084 6.77872 20.253 5.73405 21.5417 5.73405C22.8304 5.73405 23.875 6.77872 23.875 8.06738ZM7.54171 8.06738C7.54171 9.35605 6.49704 10.4007 5.20837 10.4007C3.91971 10.4007 2.87504 9.35605 2.87504 8.06738C2.87504 6.77872 3.91971 5.73405 5.20837 5.73405C6.49704 5.73405 7.54171 6.77872 7.54171 8.06738Z" stroke="#0065FF" stroke-width="2" stroke-linecap="round" stroke-linejoin="round"/>
</svg>
