<svg width="48" height="49" viewBox="0 0 48 49" fill="none" xmlns="http://www.w3.org/2000/svg">
<path d="M25.5 41V32H31.5L24 23L16.5 32H22.5V41H15V40.925C14.748 40.94 14.508 41 14.25 41C11.2663 41 8.40483 39.8147 6.29505 37.705C4.18526 35.5952 3 32.7337 3 29.75C3 23.978 7.365 19.274 12.966 18.629C13.4571 16.0619 14.8273 13.7461 16.8411 12.08C18.8549 10.4139 21.3863 9.50158 24 9.5C26.614 9.50146 29.1459 10.4137 31.1602 12.0797C33.1744 13.7458 34.5453 16.0616 35.037 18.629C40.638 19.274 44.997 23.978 44.997 29.75C44.997 32.7337 43.8117 35.5952 41.702 37.705C39.5922 39.8147 36.7307 41 33.747 41C33.495 41 33.252 40.94 32.997 40.925V41H25.5Z" fill="#2B7FFF"/>
</svg>
