<svg width="17" height="13" viewBox="0 0 17 13" fill="none" xmlns="http://www.w3.org/2000/svg">
<g clip-path="url(#clip0_2521_45433)">
<path d="M13.4364 5.35259C13.2737 2.83374 11.5221 0.404785 8.30952 0.404785C5.37124 0.404785 3.10533 2.58879 2.98533 5.50345C1.37771 6.00364 0.5 7.72402 0.5 8.97621C0.5 10.9042 2.10229 12.5953 3.92857 12.5953H6.40476C6.45528 12.5953 6.50373 12.5752 6.53945 12.5395C6.57517 12.5038 6.59524 12.4553 6.59524 12.4048C6.59524 12.3543 6.57517 12.3058 6.53945 12.2701C6.50373 12.2344 6.45528 12.2143 6.40476 12.2143H3.92857C2.30495 12.2143 0.880952 10.7012 0.880952 8.97621C0.880952 7.81393 1.89962 5.73812 3.92857 5.73812H4.5C4.55052 5.73812 4.59897 5.71805 4.63469 5.68233C4.67041 5.64661 4.69048 5.59816 4.69048 5.54764C4.69048 5.49712 4.67041 5.44868 4.63469 5.41295C4.59897 5.37723 4.55052 5.35717 4.5 5.35717H3.92857C3.73467 5.35717 3.55143 5.37888 3.37276 5.41012C3.5221 3.12821 5.25657 0.785738 8.30952 0.785738C11.5811 0.785738 13.0714 3.35298 13.0714 5.73812V6.30955C13.0714 6.36006 13.0915 6.40851 13.1272 6.44423C13.1629 6.47996 13.2114 6.50002 13.2619 6.50002C13.3124 6.50002 13.3609 6.47996 13.3966 6.44423C13.4323 6.40851 13.4524 6.36006 13.4524 6.30955V5.73469C14.6025 5.86079 16.119 7.09507 16.119 8.97621C16.119 10.4337 14.713 12.2143 13.0714 12.2143H10.2143C8.98076 12.2143 8.5 11.7335 8.5 10.5V5.2745L10.0535 6.82498C10.0711 6.84319 10.0921 6.85773 10.1153 6.86774C10.1385 6.87776 10.1635 6.88305 10.1888 6.8833C10.2141 6.88356 10.2392 6.87877 10.2626 6.86923C10.286 6.85968 10.3073 6.84557 10.3252 6.82771C10.3431 6.80985 10.3573 6.78861 10.3669 6.76521C10.3765 6.74182 10.3814 6.71675 10.3812 6.69146C10.381 6.66616 10.3758 6.64116 10.3658 6.61791C10.3559 6.59466 10.3414 6.57362 10.3232 6.55602L8.62381 4.86002C8.39752 4.6345 8.2219 4.6345 7.996 4.86002L6.29657 6.55602C6.26187 6.59195 6.24268 6.64006 6.24311 6.69C6.24354 6.73995 6.26358 6.78772 6.29889 6.82304C6.33421 6.85835 6.38198 6.87838 6.43192 6.87882C6.48187 6.87925 6.52998 6.86005 6.56591 6.82536L8.11905 5.2745V10.5C8.11905 11.9492 8.76514 12.5953 10.2143 12.5953H13.0714C14.9179 12.5953 16.5 10.6052 16.5 8.97621C16.5 7.00783 14.8912 5.4684 13.4364 5.35259Z" fill="black"/>
</g>
<defs>
<clipPath id="clip0_2521_45433">
<rect width="16" height="12.1905" fill="white" transform="translate(0.5 0.404785)"/>
</clipPath>
</defs>
</svg>
