<svg width="24" height="30" viewBox="0 0 24 30" fill="none" xmlns="http://www.w3.org/2000/svg">
<path d="M18.747 7.24049C18.747 9.14434 18.0643 10.7923 16.7174 12.1395C15.3705 13.4864 13.7223 14.1691 11.8184 14.1691H11.8151C9.91361 14.1684 8.26652 13.4857 6.91962 12.1395C5.57255 10.7923 4.88997 9.14434 4.88997 7.24049C4.88997 5.33726 5.57255 3.68904 6.91962 2.34215C8.26584 0.995697 9.91299 0.313174 11.8151 0.3125H11.8184C13.7216 0.3125 15.3698 0.995248 16.7174 2.34215C18.0643 3.68904 18.747 5.33726 18.747 7.24049Z" fill="#FFBB85"/>
<path d="M24 24.1314C24 25.6335 23.5222 26.8496 22.5811 27.7452C21.6511 28.6304 20.4209 29.0787 18.9252 29.0787H5.07414C3.57841 29.0787 2.34832 28.6304 1.41881 27.7452C0.477227 26.8489 0 25.633 0 24.1315C0 23.5538 0.0191026 22.9823 0.0573077 22.4328C0.0960746 21.8709 0.174732 21.2595 0.290584 20.6145C0.407334 19.9641 0.557457 19.3494 0.737246 18.7876C0.923777 18.206 1.17616 17.6323 1.48843 17.0827C1.81283 16.5124 2.19382 16.0155 2.62087 15.6064C3.06866 15.1782 3.61595 14.8343 4.24869 14.5837C4.87924 14.3343 5.57823 14.2079 6.3262 14.2079C6.6196 14.2079 6.90378 14.328 7.45157 14.6849C7.84173 14.939 8.23306 15.1913 8.62553 15.4418C9.00219 15.6819 9.51223 15.9071 10.1427 16.1105C10.6969 16.2898 11.2594 16.3899 11.8151 16.4072C11.8763 16.4094 11.9376 16.4106 11.9988 16.4106C12.6159 16.4106 13.2401 16.3094 13.8555 16.1105C14.486 15.9071 14.9967 15.6819 15.3731 15.4418C15.7655 15.1915 16.1566 14.9394 16.5466 14.6855C17.0949 14.328 17.3786 14.208 17.6727 14.208C18.42 14.208 19.119 14.3344 19.75 14.5837C20.3827 14.8343 20.9301 15.1789 21.3773 15.6064C21.8051 16.0155 22.1861 16.5124 22.5102 17.0827C22.8228 17.6328 23.0756 18.206 23.2615 18.7869C23.4415 19.3494 23.592 19.9641 23.7087 20.6149C23.824 21.2606 23.9027 21.872 23.9414 22.4323C23.9802 22.9801 23.9993 23.5516 24 24.1314Z" fill="#6AA9FF"/>
<path d="M11.8184 14.1691H11.8151V0.3125H11.8184C13.7216 0.3125 15.3698 0.995248 16.7174 2.34215C18.0643 3.68904 18.747 5.33726 18.747 7.24049C18.747 9.14434 18.0643 10.7923 16.7174 12.1395C15.3705 13.4864 13.7223 14.1691 11.8184 14.1691Z" fill="#FFBB85"/>
<path d="M24 24.1314C24 25.6335 23.5222 26.8496 22.5811 27.7452C21.6511 28.6304 20.4209 29.0787 18.9252 29.0787H11.8151V16.4072C11.8763 16.4094 11.9376 16.4106 11.9988 16.4106C12.6159 16.4106 13.2401 16.3094 13.8555 16.1105C14.486 15.9072 14.9967 15.6819 15.3731 15.4418C15.7655 15.1915 16.1566 14.9394 16.5466 14.6855C17.0949 14.328 17.3786 14.208 17.6727 14.208C18.42 14.208 19.119 14.3344 19.75 14.5837C20.3827 14.8343 20.9301 15.1789 21.3773 15.6064C21.8051 16.0155 22.1861 16.5124 22.5102 17.0827C22.8228 17.6328 23.0756 18.206 23.2615 18.7869C23.4415 19.3494 23.592 19.9641 23.7087 20.6149C23.824 21.2606 23.9027 21.872 23.9414 22.4323C23.9802 22.9801 23.9993 23.5516 24 24.1314Z" fill="#6AA9FF"/>
</svg>
