<svg width="428" height="512" viewBox="0 0 428 512" fill="none" xmlns="http://www.w3.org/2000/svg">
<path d="M333.672 123.309C333.672 157.195 321.52 186.527 297.547 210.504C273.574 234.477 244.238 246.629 210.352 246.629H210.293C176.449 246.617 147.133 234.465 123.16 210.504C99.1839 186.527 87.0349 157.195 87.0349 123.309C87.0349 89.434 99.1839 60.098 123.16 36.125C147.121 12.16 176.438 0.012 210.293 0H210.352C244.227 0 273.562 12.152 297.547 36.125C321.52 60.098 333.672 89.434 333.672 123.309Z" fill="#FFBB85"/>
<path d="M427.168 423.945C427.168 450.68 418.664 472.325 401.914 488.265C385.36 504.02 363.464 512 336.844 512H90.313C63.691 512 41.797 504.02 25.253 488.266C8.494 472.312 0 450.672 0 423.946C0 413.664 0.34 403.492 1.02 393.711C1.71 383.711 3.11 372.828 5.172 361.348C7.25 349.773 9.922 338.832 13.122 328.832C16.442 318.48 20.934 308.27 26.492 298.488C32.266 288.336 39.047 279.492 46.648 272.211C54.618 264.59 64.359 258.469 75.621 254.008C86.844 249.57 99.285 247.32 112.598 247.32C117.82 247.32 122.878 249.457 132.628 255.809C139.572 260.332 146.537 264.822 153.523 269.281C160.227 273.555 169.305 277.563 180.527 281.184C190.391 284.375 200.402 286.156 210.293 286.464C211.383 286.504 212.473 286.524 213.563 286.524C224.547 286.524 235.656 284.723 246.609 281.184C257.832 277.563 266.922 273.554 273.621 269.281C280.604 264.827 287.566 260.34 294.508 255.821C304.266 249.457 309.316 247.321 314.551 247.321C327.851 247.321 340.293 249.571 351.523 254.008C362.785 258.468 372.527 264.602 380.488 272.211C388.102 279.492 394.883 288.336 400.652 298.488C406.215 308.278 410.715 318.48 414.023 328.82C417.227 338.832 419.906 349.773 421.984 361.355C424.035 372.848 425.437 383.73 426.125 393.703C426.816 403.453 427.156 413.625 427.168 423.945Z" fill="#6AA9FF"/>
<path d="M210.352 246.629H210.293V0H210.352C244.227 0 273.562 12.152 297.547 36.125C321.52 60.098 333.672 89.434 333.672 123.309C333.672 157.195 321.52 186.527 297.547 210.504C273.574 234.477 244.238 246.629 210.352 246.629Z" fill="#FFBB85"/>
<path d="M427.168 423.945C427.168 450.68 418.664 472.325 401.914 488.265C385.36 504.02 363.464 512 336.844 512H210.293V286.465C211.383 286.504 212.473 286.523 213.563 286.523C224.547 286.523 235.656 284.723 246.609 281.183C257.832 277.563 266.922 273.555 273.621 269.281C280.604 264.827 287.566 260.34 294.508 255.821C304.266 249.457 309.316 247.321 314.551 247.321C327.851 247.321 340.293 249.571 351.523 254.008C362.785 258.468 372.527 264.602 380.488 272.211C388.102 279.492 394.883 288.336 400.652 298.488C406.215 308.278 410.715 318.48 414.023 328.82C417.227 338.832 419.906 349.773 421.984 361.355C424.035 372.848 425.437 383.73 426.125 393.703C426.816 403.453 427.156 413.625 427.168 423.945Z" fill="#6AA9FF"/>
</svg>
