<svg width="24" height="28" viewBox="0 0 24 28" fill="none" xmlns="http://www.w3.org/2000/svg">
<path d="M0.293646 10.8629C0.138377 10.752 0.0438839 10.6132 0.0101682 10.4464C-0.0235475 10.2796 0.0265826 10.1079 0.160558 9.93133C1.5358 8.04591 3.26063 6.58194 5.33503 5.53942C7.40943 4.49689 9.62181 3.97563 11.9721 3.97563C14.3234 3.97563 16.5415 4.48048 18.6266 5.49017C20.7116 6.49987 22.4529 7.95807 23.8503 9.86479C23.9834 10.0644 24.0277 10.2419 23.9834 10.3971C23.939 10.5524 23.8503 10.6855 23.7172 10.7964C23.5841 10.9073 23.4288 10.9574 23.2514 10.9468C23.0739 10.9361 22.9187 10.8417 22.7856 10.6633C21.5656 8.93317 19.9965 7.60805 18.0782 6.68797C16.16 5.76788 14.1246 5.3074 11.9721 5.30651C9.82055 5.30651 7.80204 5.767 5.91663 6.68797C4.03121 7.60894 2.46742 8.93406 1.22526 10.6633C1.09218 10.8629 0.936906 10.9739 0.759455 10.996C0.582004 11.0182 0.426735 10.9739 0.293646 10.8629ZM15.7319 27.2661C13.425 26.6894 11.5396 25.5413 10.0756 23.8218C8.61167 22.1023 7.87968 20.0008 7.87968 17.5174C7.87968 16.4083 8.27894 15.4767 9.07747 14.7225C9.876 13.9683 10.8409 13.5913 11.9721 13.5913C13.1034 13.5913 14.0683 13.9683 14.8668 14.7225C15.6653 15.4767 16.0646 16.4083 16.0646 17.5174C16.0646 18.2493 16.3419 18.8651 16.8964 19.3646C17.4509 19.8642 18.1053 20.1135 18.8595 20.1126C19.6136 20.1126 20.2569 19.8628 20.7892 19.3633C21.3216 18.8638 21.5878 18.2485 21.5878 17.5174C21.5878 14.9443 20.6451 12.7816 18.7596 11.0293C16.8742 9.27698 14.6228 8.40081 12.0054 8.40081C9.38801 8.40081 7.1366 9.27698 5.25119 11.0293C3.36577 12.7816 2.42306 14.9332 2.42306 17.4841C2.42306 18.0164 2.47319 18.6819 2.57345 19.4804C2.67371 20.2789 2.91194 21.2106 3.28813 22.2753C3.35468 22.4749 3.34935 22.6524 3.27216 22.8076C3.19497 22.9629 3.06721 23.0738 2.88887 23.1403C2.71142 23.2069 2.53929 23.2011 2.37249 23.123C2.20568 23.045 2.08945 22.9176 2.02379 22.7411C1.69107 21.876 1.45285 21.0163 1.30911 20.1618C1.16537 19.3074 1.09306 18.4259 1.09218 17.5174C1.09218 14.5672 2.16265 12.094 4.3036 10.0977C6.44454 8.10137 9.00073 7.1032 11.9721 7.1032C14.9666 7.1032 17.5397 8.10137 19.6913 10.0977C21.8429 12.094 22.9187 14.5672 22.9187 17.5174C22.9187 18.6264 22.5252 19.5523 21.7382 20.2949C20.9512 21.0375 19.9916 21.4093 18.8595 21.4102C17.7282 21.4102 16.7576 21.0384 15.9475 20.2949C15.1374 19.5514 14.7328 18.6255 14.7337 17.5174C14.7337 16.7854 14.4622 16.1696 13.9192 15.6701C13.3762 15.1706 12.7272 14.9213 11.9721 14.9221C11.218 14.9221 10.569 15.1719 10.0251 15.6714C9.48118 16.171 9.20967 16.7863 9.21056 17.5174C9.21056 19.669 9.8485 21.4657 11.1244 22.9074C12.4002 24.3492 14.047 25.3585 16.0646 25.9352C16.2642 26.0017 16.3973 26.1126 16.4639 26.2679C16.5304 26.4232 16.5415 26.5895 16.4971 26.767C16.4528 26.9223 16.3641 27.0554 16.231 27.1663C16.0979 27.2772 15.9315 27.3104 15.7319 27.2661ZM4.61902 3.90909C4.44157 4.01999 4.26411 4.04794 4.08666 3.99293C3.90921 3.93792 3.77612 3.82125 3.6874 3.64291C3.59867 3.46546 3.57649 3.30486 3.62085 3.16113C3.66522 3.01739 3.77612 2.88963 3.95357 2.77783C5.19573 2.11239 6.49334 1.60222 7.84641 1.24732C9.19947 0.892417 10.5747 0.714966 11.9721 0.714966C13.3918 0.714966 14.7781 0.887093 16.1312 1.23135C17.4842 1.5756 18.7929 2.06892 20.0573 2.71129C20.2569 2.8222 20.3736 2.95529 20.4073 3.11055C20.441 3.26582 20.4241 3.42109 20.3567 3.57636C20.2902 3.73163 20.1793 3.85363 20.024 3.94236C19.8687 4.03108 19.6802 4.01999 19.4584 3.90909C18.2827 3.31019 17.0681 2.8497 15.8144 2.52763C14.5607 2.20555 13.28 2.04496 11.9721 2.04585C10.6856 2.04585 9.42129 2.19579 8.17913 2.49569C6.93697 2.79558 5.75027 3.26671 4.61902 3.90909ZM8.54512 26.8003C7.23642 25.425 6.23249 24.0218 5.53333 22.5907C4.83418 21.1595 4.48504 19.4684 4.48593 17.5174C4.48593 15.4989 5.21791 13.7962 6.68189 12.4094C8.14586 11.0227 9.90928 10.3297 11.9721 10.3306C14.035 10.3306 15.8095 11.024 17.2957 12.4108C18.7818 13.7975 19.5249 15.4997 19.5249 17.5174C19.5249 17.717 19.4637 17.878 19.3412 18.0005C19.2188 18.1229 19.0582 18.1837 18.8595 18.1828C18.682 18.1828 18.5267 18.1216 18.3937 17.9991C18.2606 17.8767 18.194 17.7161 18.194 17.5174C18.194 15.8538 17.5783 14.4617 16.3468 13.3411C15.1152 12.2204 13.657 11.6606 11.9721 11.6615C10.2864 11.6615 8.8388 12.2218 7.62947 13.3424C6.42014 14.463 5.81592 15.8546 5.81681 17.5174C5.81681 19.3141 6.12735 20.8392 6.74843 22.0929C7.36951 23.3466 8.27894 24.6052 9.47674 25.8687C9.60983 26.0017 9.67637 26.157 9.67637 26.3345C9.67637 26.5119 9.60983 26.6672 9.47674 26.8003C9.34365 26.9334 9.18838 26.9999 9.01093 26.9999C8.83348 26.9999 8.67821 26.9334 8.54512 26.8003ZM18.5933 24.5378C16.6191 24.5378 14.9054 23.8723 13.4521 22.5414C11.9988 21.2106 11.2725 19.5359 11.2734 17.5174C11.2734 17.3399 11.3347 17.1846 11.4571 17.0516C11.5795 16.9185 11.7401 16.8519 11.9389 16.8519C12.1385 16.8519 12.2995 16.9185 12.422 17.0516C12.5444 17.1846 12.6052 17.3399 12.6043 17.5174C12.6043 19.181 13.2032 20.5451 14.401 21.6098C15.5988 22.6745 16.9962 23.2069 18.5933 23.2069C18.7264 23.2069 18.9149 23.1958 19.1589 23.1736C19.4029 23.1514 19.658 23.1182 19.9242 23.0738C20.1238 23.0294 20.2959 23.0574 20.4406 23.1576C20.5852 23.2579 20.6792 23.4074 20.7227 23.6062C20.7671 23.7836 20.7338 23.9389 20.6229 24.072C20.512 24.2051 20.3678 24.2938 20.1903 24.3381C19.7911 24.449 19.4419 24.5103 19.1429 24.5218C18.8439 24.5333 18.6607 24.5387 18.5933 24.5378Z" fill="#0065FF"/>
</svg>
