<svg width="24" height="24" viewBox="0 0 24 24" fill="none" xmlns="http://www.w3.org/2000/svg">
<circle cx="11.5" cy="12.5" r="7.5" fill="white"/>
<path d="M7.34489 18.9171L7.17931 18.6382L6.8627 18.5679L3.90902 17.9115L4.19667 14.8706L4.22708 14.5491L4.01443 14.3061L1.99658 12L4.01443 9.69388L4.22708 9.45086L4.19667 9.12937L3.90902 6.08851L6.8627 5.43214L7.17931 5.36178L7.34489 5.0829L8.9097 2.44743L11.7058 3.63988L12 3.76536L12.2942 3.63988L15.0903 2.44743L16.6551 5.0829L16.8207 5.36178L17.1373 5.43214L20.091 6.08851L19.8033 9.12937L19.7729 9.45086L19.9856 9.69388L22.0034 12L19.9856 14.3061L19.7729 14.5491L19.8033 14.8706L20.091 17.9115L17.1373 18.5679L16.8207 18.6382L16.6551 18.9171L15.0903 21.5526L12.2942 20.3601L12 20.2346L11.7058 20.3601L8.9097 21.5526L7.34489 18.9171ZM10.4197 16.0803L10.95 16.6107L11.4803 16.0803L17.1303 10.4303L17.6514 9.90922L17.1396 9.37905L15.7396 7.92905L15.2094 7.37995L14.6697 7.91967L10.9438 11.6455L9.32405 10.0635L8.7938 9.54554L8.26967 10.0697L6.86967 11.4697L6.33934 12L6.86967 12.5303L10.4197 16.0803Z" stroke="#071225" stroke-width="1.5"/>
</svg>
