<svg width="24" height="20" viewBox="0 0 24 20" fill="none" xmlns="http://www.w3.org/2000/svg">
<path d="M21.9457 2.38773L21.946 2.38809C22.7153 3.15647 23.0138 4.26308 23.1155 6.29199H0.884574C0.986235 4.26308 1.28476 3.15647 2.05405 2.38809L2.05441 2.38773C2.62908 1.81257 3.39752 1.49691 4.61285 1.33345C5.84257 1.16805 7.45282 1.16699 9.66671 1.16699H14.3334C16.5473 1.16699 18.1575 1.16805 19.3872 1.33345C20.6026 1.49691 21.371 1.81257 21.9457 2.38773ZM2.05441 17.6129L2.05411 17.6126C1.47895 17.038 1.16329 16.2695 0.999829 15.0542C0.834437 13.8245 0.833374 12.2142 0.833374 10.0003C0.833374 9.66796 0.833375 9.34885 0.833997 9.04199H23.1661C23.1667 9.34885 23.1667 9.66796 23.1667 10.0003C23.1667 12.2142 23.1656 13.8245 23.0003 15.0542C22.8368 16.2695 22.5211 17.038 21.946 17.6126L21.9457 17.6129C21.371 18.1881 20.6026 18.5037 19.3872 18.6672C18.1575 18.8326 16.5473 18.8337 14.3334 18.8337H9.66671C7.45282 18.8337 5.84257 18.8326 4.61286 18.6672C3.39752 18.5037 2.62908 18.1881 2.05441 17.6129ZM10.639 13.6947L10.2854 14.0483L10.639 13.6947C10.3811 13.4369 10.0314 13.292 9.66671 13.292H5.00004C4.63537 13.292 4.28563 13.4369 4.02777 13.6947C3.76991 13.9526 3.62504 14.3023 3.62504 14.667C3.62504 15.0317 3.76991 15.3814 4.02777 15.6393C4.28563 15.8971 4.63537 16.042 5.00004 16.042H9.66671C10.0314 16.042 10.3811 15.8971 10.639 15.6393C10.8968 15.3814 11.0417 15.0317 11.0417 14.667C11.0417 14.3023 10.8968 13.9526 10.639 13.6947ZM12.5834 13.292C12.2187 13.292 11.869 13.4369 11.6111 13.6947C11.3532 13.9526 11.2084 14.3023 11.2084 14.667C11.2084 15.0317 11.3532 15.3814 11.6111 15.6393C11.869 15.8971 12.2187 16.042 12.5834 16.042H14.3334C14.698 16.042 15.0478 15.8971 15.3056 15.6393C15.5635 15.3814 15.7084 15.0317 15.7084 14.667C15.7084 14.3023 15.5635 13.9526 15.3056 13.6947C15.0478 13.4369 14.698 13.292 14.3334 13.292H12.5834Z" fill="#0065FF" stroke="#0065FF"/>
</svg>
