<svg width="28" height="22" viewBox="0 0 28 22" fill="none" xmlns="http://www.w3.org/2000/svg">
<path d="M25.375 0.5H6.125C5.6145 0.500717 5.12027 0.679702 4.7277 1.00604C4.33512 1.33238 4.06884 1.78557 3.97485 2.28735C3.54088 2.36894 3.14164 2.57965 2.8294 2.8919C2.51715 3.20414 2.30644 3.60338 2.22485 4.03735C1.72307 4.13134 1.26988 4.39762 0.94354 4.7902C0.617202 5.18277 0.438217 5.677 0.4375 6.1875V19.3125C0.438151 19.8925 0.668829 20.4485 1.07892 20.8586C1.48902 21.2687 2.04504 21.4993 2.625 21.5H21.875C22.3855 21.4993 22.8797 21.3203 23.2723 20.994C23.6649 20.6676 23.9312 20.2144 24.0251 19.7126C24.4591 19.6311 24.8584 19.4203 25.1706 19.1081C25.4828 18.7959 25.6936 18.3966 25.7751 17.9626C26.2769 17.8687 26.7301 17.6024 27.0565 17.2098C27.3828 16.8172 27.5618 16.323 27.5625 15.8125V2.6875C27.5618 2.10754 27.3312 1.55152 26.9211 1.14142C26.511 0.731329 25.955 0.500651 25.375 0.5ZM1.3125 6.1875C1.31289 5.83952 1.4513 5.50591 1.69735 5.25985C1.94341 5.0138 2.27702 4.87539 2.625 4.875H21.875C22.223 4.87539 22.5566 5.0138 22.8026 5.25985C23.0487 5.50591 23.1871 5.83952 23.1875 6.1875V6.625H1.3125V6.1875ZM23.1875 19.3125C23.1871 19.6605 23.0487 19.9941 22.8026 20.2401C22.5566 20.4862 22.223 20.6246 21.875 20.625H2.625C2.27702 20.6246 1.94341 20.4862 1.69735 20.2401C1.4513 19.9941 1.31289 19.6605 1.3125 19.3125V7.5H23.1875V19.3125ZM24.9375 17.5625C24.9372 17.8338 24.8529 18.0984 24.6962 18.3199C24.5396 18.5414 24.3182 18.709 24.0625 18.7997V6.1875C24.0618 5.60754 23.8312 5.05152 23.4211 4.64142C23.011 4.23133 22.455 4.00065 21.875 4H3.13775C3.22847 3.7443 3.39609 3.52294 3.61761 3.36628C3.83912 3.20962 4.10369 3.12534 4.375 3.125H23.625C23.973 3.12539 24.3066 3.2638 24.5526 3.50985C24.7987 3.75591 24.9371 4.08952 24.9375 4.4375V17.5625ZM26.6875 15.8125C26.6872 16.0838 26.6029 16.3484 26.4462 16.5699C26.2896 16.7914 26.0682 16.959 25.8125 17.0497V4.4375C25.8118 3.85754 25.5812 3.30152 25.1711 2.89142C24.761 2.48133 24.205 2.25065 23.625 2.25H4.88775C4.97847 1.9943 5.14609 1.77294 5.36761 1.61628C5.58912 1.45962 5.85369 1.37534 6.125 1.375H25.375C25.723 1.37539 26.0566 1.5138 26.3026 1.75985C26.5487 2.00591 26.6871 2.33952 26.6875 2.6875V15.8125Z" fill="#0065FF"/>
<path d="M2.625 6.1875C2.86662 6.1875 3.0625 5.99162 3.0625 5.75C3.0625 5.50838 2.86662 5.3125 2.625 5.3125C2.38338 5.3125 2.1875 5.50838 2.1875 5.75C2.1875 5.99162 2.38338 6.1875 2.625 6.1875Z" fill="#0065FF"/>
<path d="M4.375 6.1875C4.61662 6.1875 4.8125 5.99162 4.8125 5.75C4.8125 5.50838 4.61662 5.3125 4.375 5.3125C4.13338 5.3125 3.9375 5.50838 3.9375 5.75C3.9375 5.99162 4.13338 6.1875 4.375 6.1875Z" fill="#0065FF"/>
<path d="M6.125 6.1875C6.36662 6.1875 6.5625 5.99162 6.5625 5.75C6.5625 5.50838 6.36662 5.3125 6.125 5.3125C5.88338 5.3125 5.6875 5.50838 5.6875 5.75C5.6875 5.99162 5.88338 6.1875 6.125 6.1875Z" fill="#0065FF"/>
<path d="M7.4375 16.6875H17.0625C17.1785 16.6875 17.2898 16.6414 17.3719 16.5594C17.4539 16.4773 17.5 16.366 17.5 16.25V9.25C17.5 9.13397 17.4539 9.02269 17.3719 8.94064C17.2898 8.85859 17.1785 8.8125 17.0625 8.8125H7.4375C7.32147 8.8125 7.21019 8.85859 7.12814 8.94064C7.04609 9.02269 7 9.13397 7 9.25V16.25C7 16.366 7.04609 16.4773 7.12814 16.5594C7.21019 16.6414 7.32147 16.6875 7.4375 16.6875ZM7.875 9.6875H16.625V15.8125H7.875V9.6875Z" fill="#0065FF"/>
<path d="M11.1617 13.5694C11.2297 13.6074 11.3065 13.6266 11.3843 13.6249C11.4621 13.6233 11.5381 13.6009 11.6044 13.5601L13.7372 12.2476C13.8009 12.2085 13.8534 12.1537 13.8898 12.0885C13.9263 12.0232 13.9454 11.9498 13.9454 11.8751C13.9454 11.8003 13.9263 11.7269 13.8898 11.6617C13.8534 11.5964 13.8009 11.5416 13.7372 11.5025L11.6044 10.19C11.5381 10.1491 11.4621 10.1268 11.3843 10.1251C11.3065 10.1234 11.2296 10.1426 11.1616 10.1806C11.0937 10.2185 11.0371 10.274 10.9977 10.3411C10.9583 10.4083 10.9375 10.4847 10.9375 10.5626V13.1876C10.9375 13.2654 10.9583 13.3418 10.9977 13.409C11.0371 13.4761 11.0938 13.5315 11.1617 13.5694ZM11.8125 11.3455L12.6731 11.8751L11.8125 12.4047V11.3455ZM15.3125 14.0626H14.4375C14.4375 13.9465 14.3914 13.8352 14.3094 13.7532C14.2273 13.6712 14.116 13.6251 14 13.6251C13.884 13.6251 13.7727 13.6712 13.6906 13.7532C13.6086 13.8352 13.5625 13.9465 13.5625 14.0626H9.1875C9.07147 14.0626 8.96019 14.1087 8.87814 14.1907C8.79609 14.2727 8.75 14.384 8.75 14.5001C8.75 14.6161 8.79609 14.7274 8.87814 14.8094C8.96019 14.8915 9.07147 14.9376 9.1875 14.9376H13.5625C13.5625 15.0536 13.6086 15.1649 13.6906 15.2469C13.7727 15.329 13.884 15.3751 14 15.3751C14.116 15.3751 14.2273 15.329 14.3094 15.2469C14.3914 15.1649 14.4375 15.0536 14.4375 14.9376H15.3125C15.4285 14.9376 15.5398 14.8915 15.6219 14.8094C15.7039 14.7274 15.75 14.6161 15.75 14.5001C15.75 14.384 15.7039 14.2727 15.6219 14.1907C15.5398 14.1087 15.4285 14.0626 15.3125 14.0626ZM7.4375 18.0001H17.0625C17.1785 18.0001 17.2898 17.954 17.3719 17.8719C17.4539 17.7899 17.5 17.6786 17.5 17.5626C17.5 17.4465 17.4539 17.3352 17.3719 17.2532C17.2898 17.1712 17.1785 17.1251 17.0625 17.1251H7.4375C7.32147 17.1251 7.21019 17.1712 7.12814 17.2532C7.04609 17.3352 7 17.4465 7 17.5626C7 17.6786 7.04609 17.7899 7.12814 17.8719C7.21019 17.954 7.32147 18.0001 7.4375 18.0001ZM7.4375 19.3126H13.5625C13.6785 19.3126 13.7898 19.2665 13.8719 19.1844C13.9539 19.1024 14 18.9911 14 18.8751C14 18.759 13.9539 18.6477 13.8719 18.5657C13.7898 18.4837 13.6785 18.4376 13.5625 18.4376H7.4375C7.32147 18.4376 7.21019 18.4837 7.12814 18.5657C7.04609 18.6477 7 18.759 7 18.8751C7 18.9911 7.04609 19.1024 7.12814 19.1844C7.21019 19.2665 7.32147 19.3126 7.4375 19.3126ZM15.3125 18.4376H14.875C14.759 18.4376 14.6477 18.4837 14.5656 18.5657C14.4836 18.6477 14.4375 18.759 14.4375 18.8751C14.4375 18.9911 14.4836 19.1024 14.5656 19.1844C14.6477 19.2665 14.759 19.3126 14.875 19.3126H15.3125C15.4285 19.3126 15.5398 19.2665 15.6219 19.1844C15.7039 19.1024 15.75 18.9911 15.75 18.8751C15.75 18.759 15.7039 18.6477 15.6219 18.5657C15.5398 18.4837 15.4285 18.4376 15.3125 18.4376Z" fill="#0065FF"/>
</svg>
