<svg width="29" height="29" viewBox="0 0 29 29" fill="none" xmlns="http://www.w3.org/2000/svg">
<path d="M22.2917 7.40039H18.7917V6.23372C18.7917 4.95039 17.7417 3.90039 16.4584 3.90039H11.7917C10.5084 3.90039 9.45837 4.95039 9.45837 6.23372V7.40039H5.95837C3.97504 7.40039 2.45837 8.91706 2.45837 10.9004V21.4004C2.45837 23.3837 3.97504 24.9004 5.95837 24.9004H22.2917C24.275 24.9004 25.7917 23.3837 25.7917 21.4004V10.9004C25.7917 8.91706 24.275 7.40039 22.2917 7.40039ZM11.7917 6.23372H16.4584V7.40039H11.7917V6.23372ZM23.4584 21.4004C23.4584 22.1004 22.9917 22.5671 22.2917 22.5671H5.95837C5.25837 22.5671 4.79171 22.1004 4.79171 21.4004V14.8671L10.275 16.7337H17.625C17.7417 16.7337 17.8584 16.7337 17.975 16.6171L23.4584 14.7504V21.4004Z" fill="#0065FF"/>
</svg>
